<?xml version="1.0" encoding="utf-8"?>
<!-- Generator: Adobe Illustrator 27.8.1, SVG Export Plug-In . SVG Version: 6.00 Build 0)  -->
<svg version="1.1" xmlns="http://www.w3.org/2000/svg" xmlns:xlink="http://www.w3.org/1999/xlink" x="0px" y="0px"
	 viewBox="0 0 300.8 210.87" style="enable-background:new 0 0 300.8 210.87;" xml:space="preserve">
<style type="text/css">
	.st0{fill:#FFB4DC;}
	.st1{fill:#FF4B1F;}
	.st2{fill:#FFF515;}
	.st3{fill:#7FAEFF;}
</style>
<g id="Laag_3">
	<g>
		<g>
			<path class="st0" d="M22.06,106.75c1.16,1.84,2.32,3.68,3.48,5.52c0.52,0.83,1.69,1.23,2.57,0.67c0.83-0.53,1.23-1.68,0.67-2.57
				c-1.16-1.84-2.32-3.68-3.48-5.52c-0.52-0.83-1.69-1.23-2.57-0.67C21.9,104.72,21.5,105.87,22.06,106.75L22.06,106.75z"/>
		</g>
	</g>
	<g>
		<g>
			<path class="st0" d="M23.29,109.6c2.29,3.58,4.57,7.15,6.86,10.73c0.71-0.92,1.41-1.84,2.12-2.75c-1.12-0.43-3.02-1.04-3.06-2.49
				c-0.02-0.53,0.16-0.49,0.64-0.34c0.77,0.25,1.46,1.01,2.02,1.56c2.69,2.63,5.57,5.03,8.72,7.09c6.32,4.13,13.55,6.89,21.02,8.02
				c1.01,0.15,2-0.25,2.31-1.31c0.25-0.88-0.31-2.16-1.31-2.31c-7.05-1.07-13.78-3.57-19.78-7.42c-3.02-1.94-5.75-4.21-8.31-6.73
				c-1.22-1.2-2.63-2.38-4.36-2.67c-1.69-0.28-3.39,0.5-4.2,2.02c-0.83,1.55-0.57,3.6,0.41,5.02c1.16,1.68,3.06,2.47,4.9,3.17
				c1.54,0.59,2.96-1.44,2.12-2.75c-2.29-3.58-4.57-7.15-6.86-10.73C25.23,105.68,21.99,107.56,23.29,109.6L23.29,109.6z"/>
		</g>
	</g>
	<g>
		<g>
			<path class="st0" d="M61.36,131.16c7.62,2.69,15.23,5.39,22.85,8.08c2.28,0.81,3.26-2.82,1-3.62
				c-7.62-2.69-15.23-5.39-22.85-8.08C60.07,126.74,59.09,130.36,61.36,131.16L61.36,131.16z"/>
		</g>
	</g>
	<g>
		<g>
			<path class="st0" d="M83.78,138.64c3.72,2.9,6.84,6.45,9.17,10.56c1.15,2.03,2.1,4.16,2.82,6.38c0.34,1.06,0.64,2.14,0.88,3.23
				c0.13,0.58,0.27,1.18,0.23,1.78c-0.03,0.47-0.23,0.65-0.4,0.99c0.01-0.02-0.29,0.15-0.01,0.11c0.17-0.03-0.03,0.08-0.01-0.23
				c0.03-0.47-0.04-0.99-0.05-1.46c-0.03-1.2-0.16-2.39-0.32-3.58c-0.3-2.1-0.81-4.17-1.54-6.16c-1.53-4.2-3.85-8.06-6.85-11.38
				c-3.37-3.73-7.55-6.58-12.22-8.43c-1.78-0.7-3.12,1.91-1.82,3.13c4.83,4.56,9.66,9.11,14.5,13.67c1.76,1.65,4.41-0.99,2.65-2.65
				c-4.83-4.56-9.66-9.11-14.5-13.67c-0.61,1.04-1.22,2.09-1.82,3.13c8.93,3.53,15.6,11.88,17.61,21.2c0.22,1.02,0.38,2.05,0.48,3.1
				c0.11,1.3,0.01,2.64,0.25,3.92c0.51,2.71,3.35,3.87,5.67,2.45c2.64-1.61,2.26-4.92,1.65-7.49c-0.62-2.58-1.54-5.09-2.67-7.49
				c-2.53-5.36-6.35-10.13-11.03-13.76c-0.8-0.63-1.86-0.77-2.65,0C83.12,136.63,82.98,138.02,83.78,138.64L83.78,138.64z"/>
		</g>
	</g>
	<g>
		<g>
			<path class="st0" d="M90.7,145.37c-9.52-15.6-29.56-15.21-44.99-20.39c-4.47-1.5-8.81-3.59-12.4-6.69
				c-1.81-1.57-4.31,0.87-2.65,2.65c6.85,7.38,16.54,11.76,26.59,12.13c2.41,0.09,2.41-3.66,0-3.75
				c-9.09-0.34-17.75-4.37-23.93-11.03c-0.88,0.88-1.77,1.77-2.65,2.65c6.47,5.6,14.68,8.2,22.89,10.05
				c8.36,1.89,17.11,3.21,24.64,7.57c3.73,2.16,7.02,5.01,9.28,8.71C88.72,149.32,91.96,147.43,90.7,145.37L90.7,145.37z"/>
		</g>
	</g>
	<g>
		<g>
			<path d="M99.02,150.48c-3.21-0.32-6.42,0.82-8.86,2.89c-0.75,0.64-0.7,2.01,0,2.65c0.8,0.73,1.85,0.68,2.65,0
				c0.06-0.05,0.13-0.11,0.19-0.16c0.16-0.13,0.13-0.1-0.09,0.07c0.03-0.09,0.32-0.23,0.4-0.29c0.27-0.18,0.55-0.35,0.84-0.51
				c0.14-0.08,0.29-0.15,0.44-0.22c0.07-0.04,0.15-0.07,0.22-0.1c0.19-0.08,0.15-0.07-0.11,0.04c0.02-0.1,0.76-0.28,0.87-0.31
				c0.29-0.09,0.59-0.17,0.89-0.23c0.16-0.03,0.32-0.06,0.48-0.09c0.21-0.03,0.16-0.03-0.13,0.02c0.08-0.01,0.16-0.02,0.24-0.03
				c0.65-0.06,1.31-0.06,1.96,0.01c0.98,0.1,1.92-0.93,1.88-1.88C100.84,151.25,100.06,150.58,99.02,150.48L99.02,150.48z"/>
		</g>
	</g>
	<g>
		<g>
			<path d="M83.65,134.07c-1.54,1.78-3.09,3.57-4.63,5.35c-0.33,0.38-0.55,0.81-0.55,1.33c0,0.46,0.2,1.01,0.55,1.33
				c0.7,0.65,1.97,0.79,2.65,0c1.54-1.78,3.09-3.57,4.63-5.35c0.33-0.38,0.55-0.81,0.55-1.33c0-0.46-0.2-1.01-0.55-1.33
				C85.59,133.42,84.33,133.28,83.65,134.07L83.65,134.07z"/>
		</g>
	</g>
	<g>
		<g>
			<path d="M71.82,127.9c-2.05,1.61-3.24,4.32-3.16,6.91c0.03,0.98,0.84,1.92,1.88,1.88c0.99-0.04,1.91-0.82,1.88-1.88
				c-0.01-0.38,0.01-0.75,0.06-1.12c-0.02,0.17-0.04,0.33-0.07,0.5c0.09-0.6,0.25-1.18,0.48-1.74c-0.06,0.15-0.13,0.3-0.19,0.45
				c0.24-0.56,0.55-1.08,0.92-1.56c-0.1,0.13-0.2,0.25-0.29,0.38c0.34-0.43,0.73-0.82,1.16-1.16c0.35-0.28,0.55-0.9,0.55-1.33
				c0-0.46-0.2-1.01-0.55-1.33c-0.36-0.33-0.83-0.57-1.33-0.55C72.61,127.37,72.23,127.58,71.82,127.9L71.82,127.9z"/>
		</g>
	</g>
	<g>
		<g>
			<path d="M50.79,123.07c-0.81,2.77-1.62,5.54-2.43,8.32c-0.27,0.94,0.33,2.08,1.31,2.31c1,0.23,2.01-0.3,2.31-1.31
				c0.81-2.77,1.62-5.54,2.43-8.32c0.27-0.94-0.33-2.08-1.31-2.31C52.09,121.53,51.08,122.06,50.79,123.07L50.79,123.07z"/>
		</g>
	</g>
	<g>
		<g>
			<path d="M41.85,116.74c-4.05,1.07-7.63,4.02-9.34,7.86c-0.4,0.89-0.29,2.06,0.67,2.57c0.82,0.43,2.14,0.28,2.57-0.67
				c0.37-0.83,0.83-1.59,1.36-2.33c0.25-0.35-0.27,0.32,0.01-0.01c0.07-0.08,0.13-0.16,0.2-0.24c0.15-0.17,0.29-0.34,0.45-0.5
				c0.31-0.33,0.63-0.64,0.98-0.93c0.08-0.07,0.16-0.13,0.24-0.2c0.23-0.19,0.04-0.11-0.04,0.03c0.11-0.16,0.43-0.32,0.6-0.43
				c0.37-0.25,0.76-0.48,1.16-0.69c0.18-0.1,0.36-0.19,0.55-0.27c0.11-0.05,0.23-0.09,0.34-0.15c-0.16,0.09-0.31,0.13-0.05,0.03
				c0.44-0.17,0.89-0.31,1.34-0.43c0.95-0.25,1.62-1.35,1.31-2.31C43.84,117.08,42.86,116.47,41.85,116.74L41.85,116.74z"/>
		</g>
	</g>
	<g>
		<g>
			<path d="M24.82,114.93c0.23-0.23,0.46-0.46,0.7-0.68c0.12-0.1,0.23-0.2,0.35-0.3c0.05-0.04,0.26-0.21,0.04-0.03
				c-0.23,0.18-0.01,0.01,0.04-0.03c0.53-0.38,1.09-0.72,1.67-1.01c0.14-0.07,0.28-0.13,0.42-0.19c0.22-0.1-0.36,0.14-0.13,0.05
				c0.07-0.03,0.14-0.06,0.21-0.08c0.3-0.12,0.61-0.22,0.93-0.31c0.29-0.08,0.59-0.16,0.89-0.22c0.17-0.03,0.34-0.06,0.51-0.09
				c0.24-0.04-0.4,0.04-0.16,0.02c0.1-0.01,0.19-0.02,0.29-0.03c0.51-0.05,0.95-0.18,1.33-0.55c0.33-0.33,0.57-0.86,0.55-1.33
				c-0.04-0.93-0.83-1.98-1.87-1.88c-3.18,0.31-6.18,1.66-8.41,3.98c-0.68,0.71-0.76,1.96,0,2.65
				C22.91,115.6,24.1,115.68,24.82,114.93L24.82,114.93z"/>
		</g>
	</g>
	<g>
		<g>
			<path class="st0" d="M94.45,162.51c3.22,0,3.22-5,0-5C91.23,157.51,91.23,162.51,94.45,162.51L94.45,162.51z"/>
		</g>
	</g>
	<g>
		<g>
			<path class="st0" d="M64.93,128.38c-0.34,0.81-0.68,1.63-1.02,2.44c-0.1,0.33-0.12,0.66-0.04,1c0.02,0.33,0.11,0.64,0.3,0.93
				c0.16,0.29,0.37,0.53,0.64,0.7c0.24,0.22,0.52,0.37,0.85,0.45c0.22,0.03,0.44,0.06,0.66,0.09c0.45,0,0.87-0.12,1.26-0.34
				c0.17-0.13,0.34-0.26,0.51-0.39c0.31-0.31,0.52-0.68,0.64-1.1c0.34-0.81,0.68-1.63,1.02-2.44c0.1-0.33,0.12-0.66,0.04-1
				c-0.02-0.33-0.11-0.64-0.3-0.93c-0.16-0.29-0.37-0.53-0.64-0.7c-0.24-0.22-0.52-0.37-0.85-0.45c-0.22-0.03-0.44-0.06-0.66-0.09
				c-0.45,0-0.87,0.12-1.26,0.34c-0.17,0.13-0.34,0.26-0.51,0.39C65.26,127.59,65.05,127.95,64.93,128.38L64.93,128.38z"/>
		</g>
	</g>
	<g>
		<g>
			<path class="st0" d="M69.21,128.31c-2.43,0.25-4.75-0.36-7.04-1.14c-2.34-0.79-4.65-1.66-6.97-2.49
				c-0.64-0.23-1.37,0.26-1.54,0.87c-0.19,0.69,0.24,1.31,0.87,1.54c2.41,0.86,4.81,1.77,7.23,2.58c2.39,0.8,4.91,1.4,7.45,1.14
				c0.67-0.07,1.25-0.52,1.25-1.25C70.46,128.94,69.89,128.24,69.21,128.31L69.21,128.31z"/>
		</g>
	</g>
	<g>
		<g>
			<path class="st0" d="M55.89,132.35c0.64,0.67,1.56,0.91,2.47,0.91c0.37,0,0.73-0.05,1.1-0.06c0.19-0.01,0.38-0.01,0.57,0.01
				c-0.14-0.01-0.05-0.01,0.03,0.01c0.03,0.01,0.34,0.14,0.16,0.05c0.21-0.78,0.42-1.55,0.63-2.33c-2.57,0.13-5.15,0.26-7.72,0.38
				c-0.65,0.03-1.28,0.55-1.25,1.25c0.03,0.65,0.55,1.28,1.25,1.25c2.57-0.13,5.15-0.26,7.72-0.38c0.53-0.03,1.08-0.37,1.21-0.92
				c0.12-0.52-0.07-1.16-0.57-1.41c-0.81-0.41-1.64-0.44-2.53-0.38c-0.33,0.03-0.66,0.05-0.99,0.01c0.24,0.03-0.13-0.05-0.22-0.07
				c0.22,0.06,0.02-0.01-0.04-0.04c-0.14-0.07,0.17,0.17-0.04-0.05c-0.45-0.47-1.32-0.49-1.77,0
				C55.43,131.09,55.41,131.84,55.89,132.35L55.89,132.35z"/>
		</g>
	</g>
	<g>
		<g>
			<path class="st0" d="M49.6,122.61c-1.15-0.4-2.3-0.79-3.46-1.19c-0.3-0.1-0.7-0.03-0.96,0.13c-0.26,0.15-0.51,0.45-0.57,0.75
				c-0.16,0.7,0.21,1.31,0.87,1.54c1.15,0.4,2.3,0.79,3.46,1.19c0.3,0.1,0.7,0.03,0.96-0.13c0.26-0.15,0.51-0.45,0.57-0.75
				C50.63,123.45,50.26,122.84,49.6,122.61L49.6,122.61z"/>
		</g>
	</g>
	<g>
		<g>
			<path class="st0" d="M47.76,130.72c-3.19-1.77-6.45-3.41-9.77-4.92c-0.61-0.28-1.34-0.18-1.71,0.45
				c-0.31,0.54-0.17,1.43,0.45,1.71c3.32,1.51,6.58,3.15,9.77,4.92C47.9,133.66,49.16,131.5,47.76,130.72L47.76,130.72z"/>
		</g>
	</g>
	<g>
		<g>
			<path class="st0" d="M35.39,118.3c-0.8-0.7-1.6-1.4-2.41-2.09c-0.25-0.22-0.54-0.37-0.88-0.37c-0.31,0-0.67,0.14-0.88,0.37
				c-0.22,0.24-0.38,0.55-0.37,0.88c0.01,0.32,0.12,0.67,0.37,0.88c0.8,0.7,1.6,1.4,2.41,2.09c0.25,0.22,0.54,0.37,0.88,0.37
				c0.31,0,0.67-0.14,0.88-0.37c0.22-0.24,0.38-0.55,0.37-0.88C35.74,118.87,35.64,118.52,35.39,118.3L35.39,118.3z"/>
		</g>
	</g>
	<g>
		<g>
			<path class="st0" d="M33.02,122.13c-0.76-0.73-1.53-1.47-2.29-2.2c-0.23-0.22-0.56-0.37-0.88-0.37c-0.31,0-0.67,0.14-0.88,0.37
				c-0.22,0.24-0.38,0.55-0.37,0.88c0.01,0.33,0.12,0.65,0.37,0.88c0.76,0.73,1.53,1.47,2.29,2.2c0.23,0.22,0.56,0.37,0.88,0.37
				c0.31,0,0.67-0.14,0.88-0.37c0.22-0.24,0.38-0.55,0.37-0.88C33.37,122.68,33.27,122.36,33.02,122.13L33.02,122.13z"/>
		</g>
	</g>
	<g>
		<g>
			<path class="st0" d="M35.01,120.46c1.61,0,1.61-2.5,0-2.5C33.4,117.96,33.4,120.46,35.01,120.46L35.01,120.46z"/>
		</g>
	</g>
	<g>
		<g>
			<path class="st0" d="M28.07,108.16c-0.02-0.92-0.09-1.92-0.65-2.7c-0.29-0.4-0.64-0.76-1.1-0.96c-0.62-0.27-1.21-0.3-1.87-0.19
				c-0.48,0.08-0.93,0.29-1.37,0.48c-0.31,0.13-0.61,0.27-0.89,0.46c-0.83,0.55-1.47,1.42-1.39,2.47c0.1,1.2,0.84,2.05,1.74,2.77
				c0.27,0.21,0.53,0.37,0.88,0.37c0.31,0,0.67-0.14,0.88-0.37c0.42-0.45,0.55-1.33,0-1.77c-0.17-0.14-0.34-0.27-0.5-0.42
				c-0.05-0.04-0.42-0.37-0.4-0.41c0.11,0.15,0.13,0.17,0.05,0.06c-0.03-0.04-0.06-0.09-0.08-0.13c-0.02-0.03-0.04-0.07-0.06-0.1
				c-0.04-0.09-0.03-0.05,0.05,0.12c0-0.01-0.08-0.29-0.09-0.3c0.02,0.21,0.03,0.24,0.02,0.1c0-0.05,0-0.1,0-0.15
				c-0.03,0.19-0.04,0.24-0.02,0.14c0.01-0.04,0.02-0.07,0.03-0.11c0.05-0.21-0.14,0.3,0.01,0c0.07-0.11,0.04-0.07-0.08,0.1
				c0.03-0.03,0.06-0.07,0.09-0.1c0.05-0.05,0.09-0.09,0.14-0.13c0.16-0.14-0.26,0.18,0.02,0c0.08-0.05,0.15-0.1,0.23-0.14
				c0.14-0.08,0.28-0.15,0.43-0.21c0.08-0.04,0.19-0.11,0.27-0.12c-0.05,0.02-0.1,0.04-0.14,0.06c0.05-0.02,0.1-0.04,0.16-0.06
				c0.21-0.08,0.42-0.14,0.64-0.19c0.24-0.06-0.27-0.01-0.01,0.01c0.05,0,0.11,0,0.16,0c0.14,0.01,0.11,0.01-0.1-0.02
				c0.05,0.01,0.1,0.02,0.15,0.04c-0.17-0.08-0.2-0.09-0.09-0.04c0.02,0.01,0.04,0.02,0.06,0.03c0.11,0.07,0.08,0.05-0.08-0.08
				c0.03,0.04,0.15,0.17,0.2,0.19c-0.12-0.16-0.14-0.19-0.07-0.09c0.03,0.04,0.05,0.08,0.07,0.12c0.03,0.06,0.06,0.14,0.1,0.19
				c-0.08-0.19-0.09-0.23-0.05-0.1c0.02,0.05,0.03,0.1,0.05,0.15c0.03,0.1,0.04,0.2,0.07,0.29c0.02,0.1,0.01,0.06-0.01-0.12
				c0.01,0.06,0.01,0.11,0.02,0.17c0.02,0.23,0.03,0.46,0.03,0.69c0.02,0.65,0.56,1.28,1.25,1.25
				C27.48,109.38,28.08,108.86,28.07,108.16L28.07,108.16z"/>
		</g>
	</g>
	<g>
		<g>
			<path class="st0" d="M27.52,109.25c1.61,0,1.61-2.5,0-2.5C25.91,106.75,25.9,109.25,27.52,109.25L27.52,109.25z"/>
		</g>
	</g>
	<g>
		<g>
			<path class="st0" d="M37.08,127.67c1.61,0,1.61-2.5,0-2.5C35.48,125.17,35.47,127.67,37.08,127.67L37.08,127.67z"/>
		</g>
	</g>
	<g>
		<g>
			<path class="st0" d="M88.39,147.81c0.09,0.75,0.23,1.48,0.47,2.2c0.24,0.71,0.54,1.4,0.92,2.04c0.33,0.57,1.14,0.81,1.71,0.45
				c0.57-0.37,0.8-1.1,0.45-1.71c-0.2-0.35-0.38-0.71-0.54-1.09c0.04,0.1,0.08,0.2,0.13,0.3c-0.32-0.77-0.54-1.57-0.66-2.4
				c0.01,0.11,0.03,0.22,0.04,0.33c-0.01-0.04-0.01-0.08-0.02-0.13c-0.04-0.34-0.11-0.63-0.37-0.88c-0.22-0.22-0.57-0.38-0.88-0.37
				c-0.32,0.01-0.66,0.12-0.88,0.37C88.55,147.15,88.35,147.48,88.39,147.81L88.39,147.81z"/>
		</g>
	</g>
	<g>
		<g>
			<path class="st0" d="M95.47,158.04c-0.92,1.56-1.81,3.42-1.07,5.25c0.19,0.46,0.42,0.87,0.77,1.23c0.18,0.18,0.39,0.34,0.61,0.48
				c0.08,0.05,0.15,0.1,0.23,0.14c0.21,0.13-0.16-0.16,0.02,0.02c-0.15-0.16-0.23-0.37-0.2-0.6c0.02-0.2,0.12-0.28,0.22-0.42
				c0.09-0.06,0.08-0.06-0.01,0c0.05-0.02,0.09-0.04,0.14-0.06c-0.2,0.07,0.15,0.01,0.24,0.02c-0.26-0.05,0.14,0.12-0.07-0.03
				c-0.25-0.17,0.15,0.18-0.06-0.05c-0.07-0.08-0.14-0.15-0.21-0.23c-0.18-0.19,0.11,0.16-0.06-0.07c-0.39-0.52-1.1-0.84-1.71-0.45
				c-0.52,0.33-0.87,1.15-0.45,1.71c0.37,0.5,0.75,0.99,1.31,1.3c0.65,0.35,1.38,0.38,2.04,0.05c0.62-0.31,1.07-0.94,1.09-1.64
				c0.02-0.76-0.45-1.32-1.04-1.71c-0.07-0.05-0.15-0.1-0.23-0.14c-0.11-0.08-0.1-0.06,0.03,0.04c-0.05-0.04-0.09-0.08-0.13-0.12
				c-0.02-0.02-0.04-0.04-0.06-0.07c-0.09-0.1-0.08-0.09,0.03,0.04c-0.06-0.03-0.1-0.18-0.14-0.23c-0.06-0.12-0.06-0.11,0.01,0.05
				c-0.02-0.06-0.04-0.12-0.06-0.18c-0.03-0.09-0.04-0.18-0.07-0.27c-0.07-0.27,0,0.22-0.01-0.04c0-0.13-0.01-0.25-0.01-0.38
				c0-0.08,0-0.37-0.01-0.04c0-0.11,0.04-0.23,0.07-0.34c0.04-0.15,0.08-0.29,0.13-0.44c0.01-0.02,0.14-0.36,0.04-0.13
				c0.21-0.5,0.49-0.96,0.76-1.43c0.33-0.56,0.15-1.4-0.45-1.71C96.58,157.27,95.82,157.43,95.47,158.04L95.47,158.04z"/>
		</g>
	</g>
</g>
<g id="Laag_5">
	<g>
		<g>
			<path class="st1" d="M241.05,61.52c-1.49,5.93-4.67,11.27-9.2,15.38c-1.85,1.68-4.49,4.07-7.2,3.27c-3.02-0.88-4.6-4.16-5.98-6.7
				c-1.53-2.83-5.85-0.31-4.32,2.52c1.96,3.62,4.24,7.2,8.25,8.75c4.18,1.62,8.06-0.45,11.29-3.03
				c5.91-4.73,10.14-11.53,11.99-18.86C246.66,59.73,241.84,58.4,241.05,61.52L241.05,61.52z"/>
		</g>
	</g>
	<g>
		<g>
			<path class="st1" d="M216.65,71.63c-3.49-2.27-4.35-7.49-1.66-10.69c3.13-3.72,8.64-4.07,13.02-2.9
				c2.95,0.79,5.67,2.14,8.34,3.59c1.07,0.58,2.33,1.11,3.27,1.89c1.04,0.85,0.14,0.12,0.47,0.09c0.02-0.03,0.04-0.06,0.06-0.08
				c-0.18,0.2-0.37,0.39-0.57,0.57c-0.35,0.34-0.71,0.67-1.06,1.01c-2.48,2.35-4.96,4.7-7.44,7.06c-1.24,1.18-2.48,2.35-3.72,3.53
				c-0.95,0.9-2,2.23-3.26,2.74c-1.97,0.8-3.76-2.11-4.67-3.44c-1.35-1.99-3.51-4.97-2.49-7.53c0.76-1.9,2.98-2.92,4.74-3.65
				c2.49-1.03,5.72-2.51,8.47-1.9c1.89,0.42,3.39,2,2.28,3.88c-0.71,1.2-1.78,2.15-2.75,3.13c-1.23,1.25-2.45,2.5-3.68,3.74
				c-0.55,0.56-1.09,1.12-1.64,1.67c-0.33,0.33-0.79,0.92-1.27,1.03c-0.68,0.15-1.43-0.95-1.78-1.45c-1.51-2.1-3.28-5-3.34-7.66
				c-0.05-2.3,1.58-4.35,3.82-4.11c2.05,0.22,3.52,1.95,3.27,4.05c-0.11,0.96-0.58,2.01-1.34,2.65c0.43-0.36-0.55,0.47-0.42,0.29
				c-0.35,0.43-0.06-0.15-0.06,0.13c0-0.52,0.94,0.94,0.74,1c-0.15,0.05,0.54-0.77,0.49-0.71c1.77-1.96,4.7-2.75,7.24-2.17
				c-0.2-1.52-0.4-3.05-0.6-4.57c-3.64,2.31-7.77,3.15-12.03,2.58c-1.34-0.18-2.5,1.28-2.5,2.5c0,1.5,1.16,2.32,2.5,2.5
				c5.04,0.67,10.26-0.54,14.55-3.26c1.73-1.1,1.59-4.07-0.6-4.57c-4.07-0.93-8.25,0.09-11.42,2.81c-1.58,1.36-2.97,3.42-2.55,5.6
				c0.44,2.26,2.54,3.52,4.75,3.17c3.89-0.6,6.34-4.93,6.25-8.61c-0.09-3.82-2.67-7.07-6.35-8.07c-3.81-1.04-7.95,0.69-9.73,4.27
				c-2.09,4.2-0.55,8.65,1.62,12.47c1.97,3.47,5.22,7.78,9.76,5.61c1.92-0.92,3.37-2.8,4.83-4.28c1.56-1.59,3.18-3.14,4.68-4.79
				c1.51-1.66,2.79-3.56,2.96-5.86c0.15-1.99-0.71-3.93-2.08-5.34c-3.29-3.39-8.17-3.07-12.3-1.69c-3.44,1.15-7.37,2.49-9.74,5.4
				c-3.02,3.72-2.15,8.35,0.09,12.23c1.81,3.14,4.43,7.19,8.27,7.95c4.7,0.93,8.08-3.52,11.1-6.39c3.39-3.22,6.98-6.31,10.21-9.69
				c1.64-1.71,2.22-4.05,0.84-6.12c-1.14-1.71-3.04-2.64-4.79-3.6c-7.18-3.95-15.39-7.2-23.39-3.58c-3.29,1.49-5.97,4.21-7.12,7.65
				c-1.13,3.4-0.52,7.4,1.37,10.41c0.98,1.56,2.26,2.83,3.8,3.83C216.83,77.71,219.33,73.39,216.65,71.63L216.65,71.63z"/>
		</g>
	</g>
	<g>
		<g>
			<path class="st1" d="M256.66,56.81c-0.57-1.06-1.13-2.11-1.7-3.17c-0.75-1.39-2.85-1.66-3.93-0.51c-0.81,0.87-1.62,1.73-2.43,2.6
				c1.42,0.59,2.85,1.18,4.27,1.77c-0.54-4.82-0.28-9.67,0.89-14.37c1.02-4.08,2.54-8.89,5.6-11.92c1.06-1.05,2.44-1.87,3.95-1.44
				c1.69,0.47,2.93,2.12,3.88,3.51c2.26,3.28,5.58,7.9,4.57,12.13c-0.87,3.66-4.95,6.53-8.26,7.85c-1.81,0.72-3.39,0.53-4.31-1.33
				c-0.94-1.92-0.8-4.4-0.85-6.48c-0.05-2.19-0.06-4.57,0.88-6.61c0.67-1.46,2.08-2.94,3.75-3.14c1.55-0.18,2.75,1.05,3.4,2.32
				c1.01,2,0.83,4.46,0.64,6.62c-0.1,1.21-0.43,4.67-2.34,4.57c-1.26-0.07-1.55-2.94-1.64-3.9c-0.08-0.9-0.18-2.13,0.45-2.88
				c0.33-0.39,0.59-0.58,0.87-0.28c1.19,1.27-1.13,3.91-1.85,4.87c1.52,0.2,3.05,0.4,4.57,0.6c-0.45-1.32-0.91-2.65-1.36-3.97
				c-0.44-1.28-1.72-2.12-3.08-1.75c-1.24,0.34-2.19,1.79-1.75,3.08c0.45,1.32,0.91,2.65,1.36,3.97c0.74,2.17,3.28,2.31,4.57,0.6
				c1.89-2.5,3.56-5.54,2.38-8.74c-1.16-3.16-4.56-4.75-7.64-3.14c-3.43,1.79-3.84,5.77-3.34,9.2c0.41,2.83,1.59,5.85,4.46,6.95
				c3.14,1.2,6.59-0.74,8.02-3.6c1.41-2.82,1.64-6.56,1.36-9.66c-0.3-3.35-1.61-6.57-4.47-8.52c-2.57-1.76-5.89-1.68-8.55-0.15
				c-6.09,3.51-6.14,11.44-5.52,17.6c0.33,3.23,1.48,6.7,4.54,8.33c3.29,1.76,6.9,0.51,9.89-1.26c2.6-1.54,5.01-3.41,6.79-5.87
				c1.95-2.71,2.5-6.06,1.9-9.3c-0.6-3.26-2.34-6.26-4.09-9.03c-1.58-2.49-3.38-5.18-6.04-6.63c-3.08-1.67-6.62-1.26-9.38,0.82
				c-2.77,2.1-4.49,5.18-5.84,8.32c-3.05,7.11-4.3,14.92-3.44,22.63c0.22,2,2.65,3.5,4.27,1.77c0.81-0.87,1.62-1.73,2.43-2.6
				c-1.31-0.17-2.62-0.34-3.93-0.51c0.57,1.06,1.13,2.11,1.7,3.17C253.87,62.17,258.19,59.65,256.66,56.81L256.66,56.81z"/>
		</g>
	</g>
	<g>
		<g>
			<path class="st1" d="M245.74,68.03c3.22,0,3.22-5,0-5C242.52,63.03,242.51,68.03,245.74,68.03L245.74,68.03z"/>
		</g>
	</g>
	<g>
		<g>
			<path class="st2" d="M270.21,77.76c-2.62-2.72-5.24-5.44-7.86-8.16c-0.83-0.86-2.21-2.03-2.38-3.28
				c-0.11-0.84,0.81-1.27,1.51-1.56c5.23-2.22,12.21-1.34,14.96,4.14c1.02,2.03,1.09,4.72-0.47,6.52c-1.86,2.14-4.98,0.98-6.89-0.5
				c-1.25-0.96-2.33-2.18-3.39-3.34c-0.39-0.43-0.73-0.84-1.03-1.34c-0.03-0.06-0.19-0.35-0.04-0.27c0.07,0.04-0.09,0.2-0.08,0.24
				c0.03,0.16-0.16-0.03,0.13-0.05c-0.24,0.01,0.34-0.07,0.44-0.08c-0.25,0.03,0.38,0.01,0.47,0.01c0.39,0.01,1.27,0.21,1.94,0.44
				c1.2,0.41,2.57,1.2,3.37,2.21c0.12,0.15,0.26,0.39,0.34,0.54c-0.01-0.02,0.09,0.44,0.07,0.27c-0.03-0.23,0.05,0.05-0.03,0.03
				c0.36,0.13-0.29,0.13-0.02,0.04c0.04-0.01,0.37-0.22,0.4-0.26c0.02-0.02,0.21-0.04,0.18,0.01c-0.06,0.13-0.34-0.59-0.33-0.56
				c-0.09-0.31-0.07-0.62-0.07-0.94c0.01-0.79,0.11-1.6,0.27-2.37c0.12-0.59,0.25-1.21,0.7-1.63c0.64-0.6-0.03,0.25-0.03-0.21
				c0,0.21,0.34,0.54,0.26,0.97c-0.18,0.95-0.67,1.76-1.14,2.59c-1.59,2.8,2.73,5.32,4.32,2.52c1.31-2.31,2.44-4.92,1.39-7.55
				c-0.98-2.47-3.51-4.04-6.16-3.18c-2.74,0.89-3.96,3.56-4.34,6.21c-0.37,2.62-0.57,5.54,1.48,7.57c2.05,2.03,5.48,2.11,7.2-0.38
				c1.58-2.29,0.84-5.1-0.86-7.08c-2.85-3.31-9.52-6.13-13.33-2.83c-4.7,4.07,1.84,10.08,5.1,12.54c4.06,3.07,10.15,3.76,13.62-0.59
				c3.07-3.84,2.81-9.37,0.1-13.34c-2.87-4.21-7.61-6.45-12.66-6.48c-4.95-0.03-13.52,2.06-12.27,8.69c0.56,2.95,3.07,5.14,5.06,7.2
				c2.18,2.26,4.35,4.52,6.53,6.77C268.91,83.62,272.45,80.08,270.21,77.76L270.21,77.76z"/>
		</g>
	</g>
	<g>
		<g>
			<path class="st2" d="M258.15,83.97c-1.32,2.97-2.72,6.52-5.69,8.21c-1.17,0.67-2.64,1.07-3.96,0.6c-1.25-0.45-2.09-1.57-2.71-2.7
				c-2.68-4.95-0.63-12.65,5.77-12.73c2.6-0.03,4.91,1.84,5.35,4.55c0.4,2.46-1.39,5.45-3.96,5.87c-1.14,0.19-1.49-0.37-1.52-1.19
				c-0.05-1.14,0.41-2.37,1.13-3.32c0.36-0.47,0.82-0.89,1.38-1.06c0.34-0.1,0.78-0.11,1.05,0.1c0.51,0.39-0.05,1.48-0.57,1.98
				c-1.13,1.11-3.19,2.14-4.75,2.45c-0.27,0.05-0.55,0.12-0.8-0.01c-0.01,0,0.15,0.27,0.14,0.1c-0.07-0.91,0.29-1.89,0.49-2.77
				c0.5-2.28,1-4.57,1.5-6.85c0.28-1.28,0.52-3.15,1.63-3.8c2.78-1.62,0.26-5.95-2.52-4.32c-2.22,1.3-3.2,3.63-3.76,6.04
				c-0.67,2.9-1.28,5.81-1.91,8.71c-0.3,1.38-0.61,2.81-0.27,4.21c0.4,1.6,1.54,2.82,3.07,3.4c2.72,1.02,5.58-0.4,7.98-1.66
				c2.29-1.2,4.34-3.12,4.82-5.76c0.51-2.83-0.87-5.59-3.67-6.53c-5.43-1.82-9.95,3.99-9.95,8.95c0,2.71,1.49,5.33,4.2,6.12
				c2.74,0.8,5.64-0.3,7.73-2.1c3.93-3.37,4.72-9.37,1.76-13.63c-3.08-4.43-8.66-5.48-13.44-3.34c-4.74,2.12-7.31,7.23-7.08,12.3
				c0.26,5.63,3.79,12.23,10.16,12.2c6.7-0.03,10.32-6.1,12.71-11.48c0.55-1.23,0.36-2.69-0.9-3.42
				C260.51,82.45,258.7,82.73,258.15,83.97L258.15,83.97z"/>
		</g>
	</g>
	<g>
		<g>
			<path class="st2" d="M255.1,86.87c3.22,0,3.22-5,0-5C251.88,81.87,251.88,86.87,255.1,86.87L255.1,86.87z"/>
		</g>
	</g>
	<g>
		<g>
			<path d="M264.58,35.42c3.22,0,3.22-5,0-5C261.36,30.42,261.36,35.42,264.58,35.42L264.58,35.42z"/>
		</g>
	</g>
	<g>
		<g>
			<path d="M216.58,66.61c3.22,0,3.22-5,0-5C213.37,61.61,213.36,66.61,216.58,66.61L216.58,66.61z"/>
		</g>
	</g>
	<g>
		<g>
			<path d="M250.68,92.36c3.22,0,3.22-5,0-5C247.46,87.36,247.45,92.36,250.68,92.36L250.68,92.36z"/>
		</g>
	</g>
	<g>
		<g>
			<path d="M274.94,75.34c3.22,0,3.22-5,0-5C271.73,70.34,271.72,75.34,274.94,75.34L274.94,75.34z"/>
		</g>
	</g>
	<g>
		<g>
			<path class="st1" d="M211.44,55.97c-0.57,0.32-1.09,0.72-1.6,1.12c-0.36,0.28-0.7,0.6-1.01,0.94c-0.75,0.81-1.42,1.74-1.88,2.75
				c-0.18,0.29-0.28,0.6-0.3,0.93c-0.07,0.33-0.06,0.66,0.04,1c0.16,0.58,0.61,1.21,1.15,1.49c0.58,0.31,1.28,0.46,1.93,0.25
				c0.58-0.19,1.23-0.57,1.49-1.15c0.27-0.6,0.61-1.16,1.01-1.68c-0.13,0.17-0.26,0.34-0.39,0.51c0.45-0.58,0.98-1.11,1.56-1.56
				c-0.17,0.13-0.34,0.26-0.51,0.39c0.33-0.25,0.67-0.47,1.03-0.67c0.54-0.3,0.99-0.9,1.15-1.49c0.16-0.6,0.09-1.4-0.25-1.93
				c-0.34-0.53-0.86-1-1.49-1.15C212.71,55.57,212.05,55.63,211.44,55.97L211.44,55.97z"/>
		</g>
	</g>
	<g>
		<g>
			<path class="st1" d="M222.68,68.36c1.07-0.62,2.15-1.24,3.22-1.87c0.97-0.56,2.33-1.07,2.91-2.06c1.17-2-0.07-4.69-1.96-5.69
				c-2.04-1.07-4.63-0.29-5.91,1.57c-0.64,0.92-0.86,1.91-0.99,3c-0.04,0.29-0.22,0.92-0.16,1.22c0.12,0.61-0.98,0.08,0.55-0.02
				c-2.15,0.14-3.32,2.64-1.77,4.27c1.56,1.64,1.92,3.88,1.2,5.99c-0.59,1.73,1.32,3.71,3.08,3.08c5.5-1.98,10.86-4.36,15.99-7.16
				c2.32-1.26,5.22-2.77,5.03-5.85c-0.09-1.46-1.04-2.71-2.32-3.38c-1.56-0.82-3.31-0.56-4.94-0.09c0.44,1.61,0.89,3.21,1.33,4.82
				c2.99-0.87,5.98-1.74,8.97-2.62c-1.03-0.58-2.05-1.16-3.08-1.75c-0.01-0.04-0.01-0.08-0.02-0.11c0.11-0.42,0.23-0.84,0.34-1.26
				c0.34-0.03,0.67-0.12,0.98-0.26c-0.06-0.01-0.11-0.03-0.17-0.04c-0.15-0.24-0.85-0.42-1.13-0.54c-0.91-0.4-1.84-0.63-2.84-0.65
				c-1.77-0.04-3.47,0.57-5.14,1.08c-2.77,0.85-6.23,0.92-8.64-0.97c-0.65-0.51-0.12-0.3-0.36-0.04c-0.04,0.04-0.31,1.19-0.5,0.86
				c0.07,0.12,2.06,0.65,2.26,0.73c1.82,0.7,3.63,1.4,5.45,2.09c3.71,1.42,7.44,2.81,11.16,4.19c1.27,0.47,2.74-0.52,3.08-1.75
				c0.38-1.4-0.47-2.61-1.75-3.08c-4.03-1.49-8.06-3-12.07-4.54c-1.93-0.74-3.84-1.54-5.79-2.22c-1.93-0.67-4.21-0.57-5.7,1
				c-1.57,1.65-1.29,4.09,0.12,5.73c1.24,1.44,3.18,2.33,4.95,2.9c1.73,0.56,3.64,0.79,5.45,0.64c2.01-0.17,3.79-0.84,5.72-1.36
				c0.76-0.21,1.59-0.43,2.37-0.17c1.01,0.34,1.83,0.95,2.93,1.06c2.5,0.25,4.93-2.06,4.11-4.62c-0.41-1.27-1.73-2.14-3.08-1.75
				c-2.99,0.87-5.98,1.74-8.97,2.62c-3.08,0.9-1.78,5.71,1.33,4.82c0.25-0.07,1.11-0.13,1.28-0.28c0.19-0.16-0.49-1.2-0.21-1.17
				c0.15-0.21,0.09-0.15-0.18,0.15c-0.11,0.12-0.24,0.21-0.39,0.28c-0.35,0.24-0.75,0.43-1.12,0.64c-1.68,0.94-3.39,1.84-5.12,2.69
				c-3.48,1.71-7.04,3.21-10.69,4.53c1.03,1.03,2.05,2.05,3.08,3.08c1.29-3.78,0.24-7.98-2.48-10.85c-0.59,1.42-1.18,2.85-1.77,4.27
				c2.19-0.14,3.81-1.67,4.3-3.8c0.12-0.53,0.16-1.07,0.22-1.61c0-0.03,0.17-0.95,0.18-0.94c0.05,0.16-0.96,0.06-0.79-0.64
				c0.38-0.5,0.77-1,1.15-1.49c-1.75,1.01-3.49,2.02-5.24,3.03C217.37,65.66,219.88,69.98,222.68,68.36L222.68,68.36z"/>
		</g>
	</g>
	<g>
		<g>
			<path class="st1" d="M275.65,44.76c-2.4,2.98-5.03,6.35-8.93,7.25c-1.53,0.35-3.01,0.12-4.19-0.68
				c-0.17-0.11,0.02,0.04-0.24-0.19c-0.17-0.15-0.33-0.31-0.48-0.47c-0.3-0.33-0.22-0.23-0.47-0.67c-0.03-0.06-0.28-0.6-0.21-0.41
				c0.06,0.16-0.12-0.45-0.12-0.44c-0.04-0.13-0.06-0.38-0.03-0.11c-0.02-0.26-0.01-0.53,0-0.79c0.08-1.35-1.2-2.5-2.5-2.5
				c-1.42,0-2.42,1.15-2.5,2.5c-0.31,5.43,5.09,9.34,10.17,8.88c5.71-0.51,9.65-4.61,13.04-8.83c0.85-1.05,1.03-2.51,0-3.54
				C278.31,43.88,276.5,43.7,275.65,44.76L275.65,44.76z"/>
		</g>
	</g>
	<g>
		<g>
			<path class="st1" d="M251.39,48.33c0.09,0.53,0.17,1.06,0.26,1.58c0.04,0.3,0.04,0.3,0.01,0.02c0.02,0.15,0.04,0.3,0.05,0.46
				c0.03,0.23,0.05,0.46,0.07,0.68c0.04,0.53,0.06,1.06,0.05,1.59c-0.01,0.27-0.02,0.53-0.04,0.79c-0.01,0.11-0.02,0.23-0.03,0.34
				c0.04-0.28,0.03-0.28-0.01-0.02c-0.1,0.44-0.19,0.88-0.34,1.32c-0.03,0.1-0.12,0.47-0.2,0.55c0.13-0.3,0.14-0.32,0.02-0.06
				c-0.05,0.12-0.11,0.23-0.17,0.35c-0.21,0.4-0.44,0.8-0.7,1.17c-0.08,0.12-0.34,0.62-0.08,0.12c-0.11,0.21-0.35,0.41-0.51,0.58
				c-0.86,0.91-0.97,2.28-0.2,3.28c0.77,1,2.12,1.25,3.23,0.64c2.88-1.57,5.76-3.13,8.64-4.7c1.15-0.63,1.61-2.31,0.9-3.42
				c-0.75-1.17-2.19-1.57-3.42-0.9c-2.88,1.57-5.76,3.13-8.64,4.7c1.01,1.31,2.02,2.62,3.03,3.93c1.61-1.73,2.83-3.9,3.26-6.24
				c0.5-2.73,0.11-5.4-0.35-8.11c-0.22-1.29-1.88-2.13-3.08-1.75C251.74,45.71,251.16,46.94,251.39,48.33L251.39,48.33z"/>
		</g>
	</g>
	<g>
		<g>
			<path class="st1" d="M265.39,36c-3.26,0.05-6.33,1.28-8.79,3.41c1.31,1.01,2.62,2.02,3.93,3.03c0.15-0.32,0.33-0.62,0.54-0.91
				c-0.13,0.17-0.26,0.34-0.39,0.51c0.28-0.36,0.59-0.67,0.95-0.95c-0.17,0.13-0.34,0.26-0.51,0.39c0.36-0.27,0.75-0.5,1.16-0.68
				c-0.2,0.08-0.4,0.17-0.6,0.25c0.45-0.19,0.91-0.32,1.39-0.38c-0.22,0.03-0.44,0.06-0.66,0.09c0.42-0.05,0.83-0.05,1.25,0
				c-0.22-0.03-0.44-0.06-0.66-0.09c0.16,0.02,0.32,0.05,0.47,0.09c1.22,0.28,2.45-0.28,2.95-1.45c0.46-1.1,0.08-2.54-1.02-3.12
				c-0.25-0.13-0.51-0.27-0.76-0.4c-1.16-0.61-2.77-0.33-3.42,0.9c-0.61,1.15-0.34,2.77,0.9,3.42c0.25,0.13,0.51,0.27,0.76,0.4
				c0.64-1.52,1.28-3.05,1.93-4.57c-1.81-0.42-3.59-0.15-5.26,0.65c-1.4,0.67-2.68,1.92-3.33,3.34c-0.28,0.6-0.47,1.27-0.25,1.93
				c0.17,0.53,0.46,0.96,0.9,1.3c1.03,0.79,2.33,0.63,3.28-0.2c0.15-0.13,0.3-0.25,0.45-0.37c-0.17,0.13-0.34,0.26-0.51,0.39
				c0.77-0.59,1.61-1.08,2.5-1.46c-0.2,0.08-0.4,0.17-0.6,0.25c0.9-0.37,1.83-0.62,2.8-0.75c-0.22,0.03-0.44,0.06-0.66,0.09
				c0.42-0.05,0.85-0.08,1.27-0.09c1.31-0.02,2.56-1.14,2.5-2.5C267.83,37.16,266.79,35.98,265.39,36L265.39,36z"/>
		</g>
	</g>
	<g>
		<g>
			<path class="st1" d="M259.73,34.39c1.76-1.56,3.52-3.13,5.27-4.69c0.46-0.41,0.73-1.16,0.73-1.77c0-0.61-0.27-1.35-0.73-1.77
				c-0.48-0.44-1.1-0.76-1.77-0.73c-0.68,0.03-1.25,0.27-1.77,0.73c-1.76,1.56-3.52,3.13-5.27,4.69c-0.46,0.41-0.73,1.16-0.73,1.77
				c0,0.61,0.27,1.35,0.73,1.77c0.48,0.44,1.1,0.76,1.77,0.73C258.65,35.09,259.22,34.85,259.73,34.39L259.73,34.39z"/>
		</g>
	</g>
	<g>
		<g>
			<path class="st1" d="M254.76,33.75c1.97-0.6,3.4-1.93,4.67-3.48c0.56-0.68,1.1-1.38,1.73-1.99c0.17-0.16,0.34-0.32,0.52-0.47
				c-0.38,0.3,0.22-0.12,0.25-0.14c0.38-0.22,0.48-0.27,0.97-0.32c1.91-0.2,4.14,0.71,5.62,1.83c1.5,1.13,2.28,2.8,2.09,4.65
				c1.25-0.72,2.51-1.44,3.76-2.16c-3.41-1.69-6.04-4.57-9.4-6.34c-3.45-1.81-7.7-2.44-11.16-0.29c-2.73,1.69-0.22,6.02,2.52,4.32
				c1.01-0.63,2.15-0.81,3.19-0.68c1.48,0.18,2.81,0.84,4.05,1.62c2.85,1.77,5.25,4.19,8.28,5.69c1.81,0.9,3.56-0.23,3.76-2.16
				c0.67-6.32-5.43-10.67-11.05-11.38c-2.92-0.37-5.47,0.65-7.43,2.8c-0.7,0.77-1.31,1.62-2.02,2.39c-0.31,0.34-0.64,0.68-1,0.97
				c0.38-0.3-0.15,0.07-0.24,0.13c-0.13,0.08-0.26,0.14-0.4,0.21c0.24-0.11,0.23-0.11-0.05-0.02c-1.29,0.39-2.11,1.75-1.75,3.08
				C252.04,33.28,253.47,34.14,254.76,33.75L254.76,33.75z"/>
		</g>
	</g>
	<g>
		<g>
			<path class="st2" d="M261.01,67.75c2.27-1.33,4.82-1.56,7.31-0.75c0.44-1.61,0.89-3.21,1.33-4.82c-2.99-0.91-6.09-0.55-8.86,0.84
				c-1.5,0.75-1.53,2.81-0.51,3.93c1.93,2.09,2.92,5.16,2.44,7.93c-0.19,1.09-0.37,2.03-0.17,3.15c0.19,1.05,0.67,2.01,1.33,2.84
				c1.21,1.54,3.03,2.53,4.92,2.99c7.73,1.88,15.06-4.34,15.05-12.17c-0.01-4.12-2.03-8.18-5.22-10.75c-1.05-0.85-2.51-1.03-3.54,0
				c-0.88,0.88-1.05,2.68,0,3.54c4,3.24,5.22,9.08,1.38,12.83c-1.81,1.76-4.59,2.39-7.03,1.54c-0.85-0.3-2.02-0.94-2.05-1.98
				c-0.01-0.4,0.23-1.15,0.29-1.64c0.1-0.77,0.15-1.53,0.11-2.31c-0.17-3.56-1.58-6.89-3.99-9.51c-0.17,1.31-0.34,2.62-0.51,3.93
				c1.59-0.8,3.34-0.85,5.01-0.33c3.09,0.95,4.37-3.83,1.33-4.82c-3.71-1.21-7.81-0.72-11.17,1.25
				C255.72,65.06,258.23,69.39,261.01,67.75L261.01,67.75z"/>
		</g>
	</g>
	<g>
		<g>
			<path class="st2" d="M259.54,88.22c-1.53,1.24-3.21,2.3-4.96,3.2c-0.78,0.4-1.57,0.78-2.39,1.09c-0.69,0.27-1.65,0.76-2.42,0.62
				c-0.78-0.14-1.6-1.51-2.29-2.29c-1.14-1.29-2.57-2.15-4.33-2.2c-1.58-0.04-2.9,1.64-2.41,3.16c0.41,1.28,0.82,2.56,1.23,3.85
				c1.03-1.03,2.05-2.05,3.08-3.08c-3.95-1.06-2.72-6.49-1.49-9.18c1.73-3.76,4.41-7.05,7.81-9.41c1.11-0.77,1.62-2.19,0.9-3.42
				c-0.64-1.1-2.31-1.67-3.42-0.9c-4.75,3.3-8.43,7.86-10.48,13.29c-1.04,2.74-1.51,6-0.47,8.81c0.99,2.68,3.01,4.88,5.83,5.63
				c1.78,0.48,3.67-1.23,3.08-3.08c-0.41-1.28-0.82-2.56-1.23-3.85c-0.8,1.05-1.61,2.11-2.41,3.16c-0.26-0.01-0.06-0.08,0.09,0.01
				c-0.23-0.14-0.05-0.02,0.06,0.06c-0.23-0.17,0.35,0.34,0.47,0.46c0.51,0.55,0.95,1.16,1.45,1.71c1.51,1.65,3.46,2.47,5.7,2.16
				c2.22-0.3,4.4-1.38,6.37-2.41c2.07-1.09,3.97-2.42,5.79-3.89c1.05-0.85,0.88-2.65,0-3.54C262.04,87.18,260.6,87.37,259.54,88.22
				L259.54,88.22z"/>
		</g>
	</g>
	<g>
		<g>
			<path class="st2" d="M250.52,80.03c0.59,1.5,1.18,3.01,1.77,4.51c1.22-0.94,2.45-1.88,3.67-2.82c-0.95-0.67-2.34-0.8-3.44-0.46
				c-0.66,0.21-1.23,0.54-1.74,1c-0.53,0.48-0.82,1.07-1.07,1.73c1.64,0.22,3.27,0.44,4.91,0.66c-0.28-2.3-0.56-4.59-0.84-6.89
				c-0.08-0.69-0.22-1.26-0.73-1.77c-0.43-0.43-1.15-0.76-1.77-0.73c-0.65,0.03-1.32,0.24-1.77,0.73c-0.42,0.45-0.81,1.13-0.73,1.77
				c0.28,2.3,0.56,4.59,0.84,6.89c0.08,0.66,0.22,1.29,0.73,1.77c0.41,0.38,0.88,0.61,1.44,0.69c0.53,0.07,1.13,0,1.59-0.3
				c0.58-0.37,0.9-0.85,1.15-1.49c0.01-0.03,0.02-0.05,0.03-0.08c-0.08,0.2-0.17,0.4-0.25,0.6c0.06-0.12,0.12-0.24,0.21-0.35
				c-0.13,0.17-0.26,0.34-0.39,0.51c0.09-0.1,0.18-0.19,0.29-0.28c-0.17,0.13-0.34,0.26-0.51,0.39c0.13-0.1,0.27-0.17,0.43-0.24
				c-0.2,0.08-0.4,0.17-0.6,0.25c0.16-0.06,0.31-0.1,0.47-0.12c-0.22,0.03-0.44,0.06-0.66,0.09c0.16-0.02,0.32-0.01,0.49,0.01
				c-0.22-0.03-0.44-0.06-0.66-0.09c0.13,0.02,0.26,0.06,0.39,0.11c-0.2-0.08-0.4-0.17-0.6-0.25c0.1,0.05,0.19,0.1,0.28,0.16
				c0.33,0.23,0.87,0.34,1.26,0.34c0.56,0,1.08-0.2,1.51-0.54c0.35-0.27,0.6-0.59,0.77-1c0.2-0.47,0.32-1.13,0.13-1.63
				c-0.59-1.5-1.18-3.01-1.77-4.51c-0.25-0.63-0.55-1.14-1.15-1.49c-0.54-0.31-1.33-0.45-1.93-0.25c-0.6,0.2-1.19,0.57-1.49,1.15
				C250.48,78.66,250.28,79.42,250.52,80.03L250.52,80.03z"/>
		</g>
	</g>
	<g>
		<g>
			<path class="st2" d="M250.82,93.2c-0.31-0.3-0.62-0.61-0.93-0.91c-1.01,1.31-2.02,2.62-3.03,3.93c1.24,0.95,2.86,1.1,4.35,1.24
				c1.53,0.14,3.06,0.28,4.59,0.42c-0.22-1.64-0.44-3.27-0.66-4.91c-2.57,0.6-5.14,1.2-7.71,1.8c-0.27,0.06-0.54,0.12-0.81,0.18
				c-0.3,0.05-0.31,0.05-0.03,0c-0.15,0.01-0.31,0.01-0.46,0c0.28,0.04,0.28,0.03-0.01-0.04c0.31,0.14,0.35,0.15,0.1,0.02
				c-0.23-0.15-0.2-0.13,0.07,0.06c-0.09-0.08-0.17-0.17-0.25-0.26c0.2,0.27,0.22,0.28,0.07,0.06c-0.06-0.11-0.12-0.21-0.18-0.33
				c0.13,0.33,0.14,0.35,0.03,0.04c-0.05-0.14-0.09-0.29-0.12-0.44c-0.04-0.15-0.07-0.3-0.09-0.45c0.03,0.29,0.03,0.28,0-0.02
				c-0.03-0.31-0.05-0.61-0.07-0.92c-0.09-1.3-1.09-2.56-2.5-2.5c-1.28,0.06-2.6,1.1-2.5,2.5c0.11,1.64,0.28,3.38,1.22,4.79
				c1.08,1.61,2.83,2.64,4.82,2.47c1.69-0.14,3.35-0.65,5-1.04c1.59-0.37,3.18-0.74,4.77-1.11c1.21-0.28,1.95-1.56,1.79-2.74
				c-0.17-1.3-1.2-2.05-2.46-2.17c-1.36-0.13-2.73-0.25-4.09-0.38c-0.31-0.03-0.61-0.05-0.92-0.09c-0.06-0.01-0.5-0.07-0.16-0.01
				c0.34,0.05-0.1-0.02-0.16-0.03c-0.13-0.03-0.26-0.05-0.38-0.09c-0.06-0.02-0.48-0.12-0.16-0.03c0.29,0.08-0.06-0.03-0.14-0.08
				c-0.14-0.08-0.27-0.17-0.4-0.27c-0.99-0.76-2.55-0.24-3.23,0.64c-0.75,0.97-0.7,2.41,0.2,3.28c0.31,0.3,0.62,0.61,0.93,0.91
				c0.94,0.91,2.61,1,3.54,0C251.73,95.75,251.82,94.18,250.82,93.2L250.82,93.2z"/>
		</g>
	</g>
	<g>
		<g>
			<path d="M216.73,66.76c3.22,0,3.22-5,0-5C213.51,61.76,213.51,66.76,216.73,66.76L216.73,66.76z"/>
		</g>
	</g>
	<g>
		<g>
			<path d="M264.86,35.12c3.22,0,3.22-5,0-5C261.64,30.12,261.64,35.12,264.86,35.12L264.86,35.12z"/>
		</g>
	</g>
</g>
<g id="Laag_4">
	<g>
		<g>
			<path d="M233.02,42.57c9.7,14.25,19.4,28.49,29.1,42.74c1.8,2.64,6.13,0.15,4.32-2.52c-9.7-14.25-19.4-28.49-29.1-42.74
				C235.54,37.41,231.21,39.91,233.02,42.57L233.02,42.57z"/>
		</g>
	</g>
	<g>
		<g>
			<path d="M244.74,55.27c-7.2-4.34-15.76-6.46-24.15-5.89c-7.43,0.51-18.16,3.2-17.64,12.69c0.24,4.41,2.63,8.33,4.95,11.95
				c2.2,3.43,4.64,6.84,7.83,9.42c6.33,5.13,15.37,6.53,21.69,0.62c2.55-2.39,4.33-5.49,6.25-8.37c1.65-2.48,3.61-5.11,6.3-6.1
				c1.27-0.47,2.13-1.7,1.75-3.08c-0.34-1.22-1.8-2.21-3.08-1.75c-5.62,2.07-8.41,7.22-11.6,11.91c-1.4,2.07-2.99,4.1-5.14,5.31
				c-2.75,1.54-6.13,1.23-8.96,0.08c-3.25-1.32-5.86-3.89-7.98-6.62c-2.2-2.83-4.27-6.02-5.8-9.27c-1.34-2.84-2-6.32,0.65-8.6
				c2.3-1.98,5.79-2.61,8.71-3c8.2-1.08,16.64,0.74,23.72,5.01C244.98,61.25,247.5,56.93,244.74,55.27L244.74,55.27z"/>
		</g>
	</g>
	<g>
		<g>
			<path d="M233.82,85.25c-0.72,7.5,4.22,14.95,11.44,17.14c7.38,2.24,15.84-1.11,19.31-8.08c1.91-3.83,2.41-8.27,1.17-12.39
				c-0.92-3.07-5.75-1.76-4.82,1.33c2.04,6.77-2.47,14.1-9.65,14.77c-7.35,0.69-13.15-5.54-12.45-12.78c0.13-1.35-1.24-2.5-2.5-2.5
				C234.86,82.75,233.95,83.9,233.82,85.25L233.82,85.25z"/>
		</g>
	</g>
	<g>
		<g>
			<path d="M249.62,53.73c-0.12-7.7,1.04-15.44,3.65-22.7c0.97-2.71,2.42-5.56,5.16-6.83c2.57-1.19,5.76-0.87,8.21,0.44
				c6.23,3.33,8.27,10.76,9.25,17.24c0.46,3.02,0.95,6.44-0.16,9.37c-1.04,2.75-3.73,4.01-6.43,4.64c-3.99,0.94-8.2,0.59-12.12,1.91
				c-3.69,1.24-6.75,3.6-8.16,7.29c-0.48,1.26,0.53,2.74,1.75,3.08c1.41,0.39,2.59-0.48,3.08-1.75c1.13-2.94,4.78-4.03,7.56-4.5
				c3.86-0.65,7.86-0.49,11.57-1.93c3.71-1.44,6.6-4.07,7.75-7.96c1.11-3.73,0.55-7.72-0.02-11.49
				c-1.16-7.65-4.01-15.81-11.05-19.95c-3.3-1.94-7.28-2.61-11.02-1.73c-3.75,0.88-6.68,3.53-8.48,6.86
				c-2.15,3.98-3.32,8.63-4.19,13.04c-0.97,4.92-1.44,9.95-1.36,14.96C244.67,56.94,249.67,56.95,249.62,53.73L249.62,53.73z"/>
		</g>
	</g>
	<g>
		<g>
			<path d="M275.42,61.57c5.99,1.92,9.01,8.4,6.95,14.27c-2.19,6.21-9.76,8.76-15.08,4.84c-1.09-0.8-2.79-0.18-3.42,0.9
				c-0.74,1.27-0.19,2.62,0.9,3.42c5.86,4.32,14.27,3.04,19.09-2.22c4.76-5.19,5.62-13.38,1.73-19.32c-2.1-3.2-5.19-5.54-8.84-6.71
				C273.67,55.76,272.36,60.59,275.42,61.57L275.42,61.57z"/>
		</g>
	</g>
</g>
<g id="Laag_2">
	<g>
		<g>
			<path class="st3" d="M164.81,68.68c-0.54-2.41-1.08-4.81-1.62-7.22c-0.44-1.97-0.8-3.99-1.43-5.92c-0.98-3.02-2.46-6.1-4.84-8.29
				c-2.43-2.23-5.46-3.91-8.73-4.49c-4.75-0.84-10.6-1.38-15.21,0.38c-3.69,1.41-6.97,3.72-8.82,7.31
				c-1.63,3.16-2.07,6.32-2.37,9.83c-0.21,2.42,1.27,5.41,2.93,7.07c1.73,1.73,4.58,3.04,7.07,2.93c2.59-0.12,5.27-0.97,7.07-2.93
				c1.88-2.05,2.69-4.3,2.93-7.07c0.05-0.59,0.11-1.17,0.19-1.76c-0.12,0.89-0.24,1.77-0.36,2.66c0.14-0.93,0.34-1.83,0.68-2.71
				c-0.34,0.8-0.67,1.59-1.01,2.39c0.24-0.53,0.51-1.01,0.87-1.47c-0.52,0.67-1.04,1.35-1.56,2.02c0.3-0.34,0.61-0.64,0.98-0.92
				c-0.67,0.52-1.35,1.04-2.02,1.56c0.37-0.25,0.74-0.46,1.14-0.64c-0.8,0.34-1.59,0.67-2.39,1.01c0.74-0.3,1.48-0.48,2.27-0.6
				c-0.89,0.12-1.77,0.24-2.66,0.36c2.32-0.29,4.77-0.17,7.09,0.13c-0.89-0.12-1.77-0.24-2.66-0.36c0.95,0.15,1.87,0.36,2.77,0.71
				c-0.8-0.34-1.59-0.67-2.39-1.01c0.54,0.24,1.04,0.51,1.53,0.85c-0.67-0.52-1.35-1.04-2.02-1.56c0.47,0.37,0.88,0.76,1.26,1.22
				c-0.52-0.67-1.04-1.35-1.56-2.02c0.49,0.66,0.87,1.35,1.2,2.11c-0.34-0.8-0.67-1.59-1.01-2.39c0.81,2.07,1.2,4.3,1.69,6.47
				c0.57,2.56,1.15,5.11,1.72,7.67c1.15,5.11,7.33,8.59,12.3,6.98C163.19,79.25,166.04,74.16,164.81,68.68L164.81,68.68z"/>
		</g>
	</g>
	<g>
		<g>
			<path class="st3" d="M137.36,57.33c-6.47,1.66-12.95,3.31-19.42,4.97c-4.83,1.24-7.81,6.18-7.16,10.97
				c0.64,4.75,4.82,8.83,9.82,8.67c3.81-0.12,7.63-0.25,11.44-0.37c1.82-0.06,3.65-0.12,5.47-0.18c1.76-0.06,3.57-0.24,5.33-0.06
				c-0.89-0.12-1.77-0.24-2.66-0.36c0.37,0.06,0.7,0.13,1.05,0.25c-0.8-0.34-1.59-0.67-2.39-1.01c0.34,0.15,0.6,0.3,0.9,0.52
				c-0.67-0.52-1.35-1.04-2.02-1.56c0.08,0.08,0.17,0.17,0.25,0.25c-0.52-0.67-1.04-1.35-1.56-2.02c0.15,0.17,0.28,0.37,0.38,0.58
				c-0.34-0.8-0.67-1.59-1.01-2.39c0.1,0.2,0.17,0.42,0.21,0.64c-0.12-0.89-0.24-1.77-0.36-2.66c0.05,0.36,0.05,0.67,0.02,1.03
				c0.12-0.89,0.24-1.77,0.36-2.66c-0.08,0.49-0.22,0.94-0.4,1.4c0.34-0.8,0.67-1.59,1.01-2.39c-0.22,0.46-0.47,0.87-0.76,1.29
				c0.52-0.67,1.04-1.35,1.56-2.02c-0.69,0.86-1.49,1.6-2.22,2.41c-1.77,1.99-3.05,3.94-3.94,6.46c-1.44,4.06-0.58,9.19,1.77,12.77
				c2.08,3.17,4.91,5.55,8.2,7.39c1.97,1.1,3.91,2.16,5.7,3.53c-0.67-0.52-1.35-1.04-2.02-1.56c2.15,1.67,4.05,3.6,5.71,5.76
				c-0.52-0.67-1.04-1.35-1.56-2.02c1.72,2.27,3.14,4.73,4.25,7.34c-0.34-0.8-0.67-1.59-1.01-2.39c1.14,2.74,1.92,5.59,2.33,8.52
				c-0.12-0.89-0.24-1.77-0.36-2.66c0.35,2.7,0.37,5.41,0.03,8.11c0.12-0.89,0.24-1.77,0.36-2.66c-0.14,1.06-0.34,2.1-0.59,3.13
				c-0.61,2.58-0.35,5.39,1.01,7.71c1.21,2.07,3.59,4.05,5.98,4.6c5.13,1.17,11-1.54,12.3-6.98c1.78-7.45,1.56-15.48-0.9-22.76
				c-2.43-7.21-6.58-14.13-12.45-19.06c-1.86-1.56-3.82-3.08-5.92-4.33c-1.84-1.09-3.79-1.98-5.49-3.29
				c0.67,0.52,1.35,1.04,2.02,1.56c-0.53-0.44-1-0.89-1.44-1.41c0.52,0.67,1.04,1.35,1.56,2.02c-0.4-0.52-0.74-1.06-1.02-1.65
				c0.34,0.8,0.67,1.59,1.01,2.39c-0.25-0.6-0.42-1.18-0.51-1.83c0.12,0.89,0.24,1.77,0.36,2.66c-0.03-0.39-0.02-0.74,0.01-1.12
				c-0.12,0.89-0.24,1.77-0.36,2.66c0.07-0.39,0.16-0.73,0.29-1.1c-0.34,0.8-0.67,1.59-1.01,2.39c0.21-0.47,0.46-0.89,0.76-1.3
				c-0.52,0.67-1.04,1.35-1.56,2.02c0.87-1.12,1.93-2.06,2.83-3.15c2.37-2.87,3.89-6,4.09-9.76c0.19-3.48-1.26-7.17-3.8-9.57
				c-2.7-2.55-6.11-3.6-9.76-3.76c-3.49-0.15-7.07,0.2-10.56,0.31c-3.65,0.12-7.29,0.24-10.94,0.36c0.89,6.55,1.77,13.1,2.66,19.64
				c6.47-1.66,12.95-3.31,19.42-4.97c5.07-1.3,8.63-7.23,6.98-12.3C147.97,59.09,142.79,55.95,137.36,57.33L137.36,57.33z"/>
		</g>
	</g>
	<g>
		<g>
			<path class="st3" d="M120.84,72.47c-1.47,9.61-2.03,19.24-1.11,28.93c0.91,9.57,2.76,19.04,5.95,28.12
				c1.91,5.43,4.2,10.76,6.84,15.88c2.4,4.66,9.31,6.41,13.68,3.59c4.75-3.06,6.16-8.7,3.59-13.68c-1.28-2.47-2.45-4.99-3.54-7.55
				c0.34,0.8,0.67,1.59,1.01,2.39c-3.68-8.79-6.16-18.03-7.44-27.47c0.12,0.89,0.24,1.77,0.36,2.66c-1.21-9.3-1.23-18.72-0.01-28.02
				c-0.12,0.89-0.24,1.77-0.36,2.66c0.1-0.73,0.2-1.45,0.31-2.17c0.42-2.76,0.46-5.2-1.01-7.71c-1.21-2.07-3.59-4.05-5.98-4.6
				c-2.56-0.58-5.43-0.46-7.71,1.01C123.4,67.81,121.23,69.96,120.84,72.47L120.84,72.47z"/>
		</g>
	</g>
	<g>
		<g>
			<path class="st3" d="M119.65,105c-0.83,6.42-0.27,13.04,1.19,19.34c1.44,6.23,4.04,12.41,7.52,17.78
				c7.44,11.45,18.68,19.81,31.75,23.76c6.84,2.07,14.3,2.9,21.41,2.13c2.73-0.29,5.06-0.92,7.07-2.93
				c1.73-1.73,3.04-4.58,2.93-7.07c-0.12-2.59-0.97-5.27-2.93-7.07c-1.83-1.68-4.48-3.21-7.07-2.93c-3.68,0.39-7.37,0.35-11.03-0.12
				c0.89,0.12,1.77,0.24,2.66,0.36c-4.32-0.58-8.53-1.73-12.55-3.4c0.8,0.34,1.59,0.67,2.39,1.01c-3.77-1.61-7.3-3.66-10.56-6.14
				c0.67,0.52,1.35,1.04,2.02,1.56c-3.03-2.35-5.73-5.05-8.1-8.06c0.52,0.67,1.04,1.35,1.56,2.02c-2.5-3.24-4.56-6.77-6.17-10.54
				c0.34,0.8,0.67,1.59,1.01,2.39c-1.69-4.02-2.85-8.22-3.44-12.54c0.12,0.89,0.24,1.77,0.36,2.66c-0.52-4.06-0.54-8.15-0.02-12.21
				c0.3-2.35-1.34-5.48-2.93-7.07c-1.73-1.73-4.58-3.04-7.07-2.93c-2.59,0.12-5.27,0.97-7.07,2.93c-0.52,0.67-1.04,1.35-1.56,2.02
				C120.11,101.51,119.66,103.2,119.65,105L119.65,105z"/>
		</g>
	</g>
	<g>
		<g>
			<path class="st3" d="M173.44,136.09c-0.76-0.19-1.5-0.44-2.23-0.73c0.8,0.34,1.59,0.67,2.39,1.01c-1.45-0.62-2.78-1.43-4.03-2.39
				c0.67,0.52,1.35,1.04,2.02,1.56c-1.45-1.16-2.73-2.47-3.88-3.93c0.52,0.67,1.04,1.35,1.56,2.02c-2.06-2.7-3.58-5.73-4.9-8.85
				c0.34,0.8,0.67,1.59,1.01,2.39c-4.87-11.67-8.69-23.86-11.99-36.07c-0.65-2.42-2.44-4.71-4.6-5.98c-2.14-1.25-5.3-1.79-7.71-1.01
				c-5.18,1.68-8.44,6.89-6.98,12.3c2.25,8.32,4.8,16.56,7.68,24.69c3.18,8.96,6.25,18.23,12.53,25.55c3.53,4.12,8.53,7.36,13.8,8.7
				c2.55,0.65,5.42,0.33,7.71-1.01c2.07-1.21,4.05-3.59,4.6-5.98C181.61,143.19,178.87,137.46,173.44,136.09L173.44,136.09z"/>
		</g>
	</g>
	<g>
		<g>
			<path class="st3" d="M149.4,78.05c-1.32,14.5,0.4,29.5,4.81,43.37c2.29,7.21,5.29,14.28,8.94,20.91c1.65,2.99,3.44,5.92,5.4,8.71
				c2.32,3.31,4.83,6.62,7.88,9.31c3.89,3.43,8.33,6.23,13.4,7.55c4.87,1.27,10.56,1.43,15.29-0.51c2.51-1.03,4.55-2.16,5.98-4.6
				c1.25-2.14,1.79-5.3,1.01-7.71c-0.78-2.42-2.28-4.75-4.6-5.98c-2.21-1.17-5.27-2-7.71-1.01c-1.14,0.46-2.29,0.78-3.51,0.96
				c0.89-0.12,1.77-0.24,2.66-0.36c-1.49,0.18-2.96,0.16-4.45-0.04c0.89,0.12,1.77,0.24,2.66,0.36c-1.64-0.26-3.21-0.71-4.74-1.35
				c0.8,0.34,1.59,0.67,2.39,1.01c-1.79-0.78-3.42-1.78-4.97-2.97c0.67,0.52,1.35,1.04,2.02,1.56c-2.31-1.83-4.3-3.99-6.1-6.32
				c0.52,0.67,1.04,1.35,1.56,2.02c-4.74-6.22-8.53-13.22-11.57-20.42c0.34,0.8,0.67,1.59,1.01,2.39
				c-3.54-8.47-5.96-17.35-7.21-26.44c0.12,0.89,0.24,1.77,0.36,2.66c-1.02-7.67-1.2-15.42-0.5-23.13c0.22-2.41-1.27-5.42-2.93-7.07
				c-1.73-1.73-4.58-3.04-7.07-2.93c-2.59,0.12-5.27,0.97-7.07,2.93C150.44,73.03,149.65,75.27,149.4,78.05L149.4,78.05z"/>
		</g>
	</g>
	<g>
		<g>
			<path class="st3" d="M218.76,144.65c-12.98-14.18-25.96-28.36-38.94-42.54c-3.69-4.03-7.39-8.07-11.08-12.1
				c-3.54-3.87-10.6-3.86-14.14,0c-3.8,4.14-3.78,10.02,0,14.14c12.98,14.18,25.96,28.36,38.94,42.54
				c3.69,4.03,7.39,8.07,11.08,12.1c3.54,3.87,10.6,3.86,14.14,0C222.55,154.66,222.53,148.78,218.76,144.65L218.76,144.65z"/>
		</g>
	</g>
	<g>
		<g>
			<path class="st3" d="M173.06,147.48c8.31,3.58,16.62,7.16,24.92,10.73c2.57,1.11,4.89,1.78,7.71,1.01
				c2.32-0.64,4.83-2.43,5.98-4.6c1.23-2.32,1.84-5.13,1.01-7.71c-0.74-2.3-2.27-4.97-4.6-5.98c-8.31-3.58-16.62-7.16-24.92-10.73
				c-2.57-1.11-4.89-1.78-7.71-1.01c-2.32,0.64-4.83,2.43-5.98,4.6c-1.23,2.32-1.84,5.13-1.01,7.71
				C169.21,143.8,170.73,146.47,173.06,147.48L173.06,147.48z"/>
		</g>
	</g>
	<g>
		<g>
			<path class="st3" d="M222.23,165.88c4.5,3.17,9,6.33,13.5,9.5c1.15,0.73,2.39,1.13,3.72,1.19c1.33,0.3,2.66,0.24,3.99-0.18
				c1.3-0.31,2.43-0.91,3.4-1.79c1.09-0.71,1.95-1.64,2.58-2.81c1.23-2.32,1.84-5.13,1.01-7.71c-0.34-0.8-0.67-1.59-1.01-2.39
				c-0.89-1.5-2.08-2.7-3.59-3.59c-4.5-3.17-9-6.33-13.5-9.5c-1.15-0.73-2.39-1.13-3.72-1.19c-1.33-0.3-2.66-0.24-3.99,0.18
				c-1.3,0.31-2.43,0.91-3.4,1.79c-1.09,0.71-1.95,1.64-2.58,2.81c-1.23,2.32-1.84,5.13-1.01,7.71c0.34,0.8,0.67,1.59,1.01,2.39
				C219.53,163.8,220.73,164.99,222.23,165.88L222.23,165.88z"/>
		</g>
	</g>
	<g>
		<g>
			<path class="st3" d="M222.11,140.66c-0.77-0.42-1.49-0.9-2.19-1.43c0.67,0.52,1.35,1.04,2.02,1.56
				c-1.67-1.34-3.07-2.95-4.37-4.64c0.52,0.67,1.04,1.35,1.56,2.02c-3.09-4.04-5.9-8.34-9.76-11.71c-4.6-4.02-9.56-6.88-15.27-9.02
				c-2.3-0.86-5.66-0.19-7.71,1.01c-2.07,1.21-4.05,3.59-4.6,5.98c-0.58,2.56-0.46,5.43,1.01,7.71c1.48,2.3,3.42,3.64,5.98,4.6
				c0.5,0.19,1,0.38,1.5,0.59c-0.8-0.34-1.59-0.67-2.39-1.01c2.73,1.17,5.28,2.66,7.64,4.45c-0.67-0.52-1.35-1.04-2.02-1.56
				c2.43,1.89,4.57,4.05,6.47,6.48c-0.52-0.67-1.04-1.35-1.56-2.02c4.05,5.26,7.58,10.98,13.59,14.26c2.32,1.27,5.13,1.72,7.71,1.01
				c2.32-0.64,4.83-2.43,5.98-4.6C228.17,149.66,227.01,143.34,222.11,140.66L222.11,140.66z"/>
		</g>
	</g>
	<g>
		<g>
			<path class="st3" d="M113.53,71.53c-1.55-1.02-3.1-2.03-4.65-3.05c-0.4,3.05-0.8,6.09-1.19,9.14c3.5-0.68,6.99-1.36,10.49-2.04
				c1.18-0.23,2.4-1.29,2.99-2.3c0.63-1.07,0.89-2.65,0.5-3.85c-0.39-1.21-1.14-2.38-2.3-2.99c-1.24-0.66-2.47-0.77-3.85-0.5
				c-3.5,0.68-6.99,1.36-10.49,2.04c-0.4,0.17-0.8,0.34-1.19,0.5c-0.34,0.26-0.67,0.52-1.01,0.78c-0.78,0.78-1.23,1.79-1.38,2.87
				c-0.27,2.04,0.68,3.86,2.39,4.98c1.55,1.02,3.1,2.03,4.65,3.05c1.05,0.69,2.67,0.83,3.85,0.5c1.16-0.32,2.42-1.22,2.99-2.3
				c0.61-1.16,0.92-2.57,0.5-3.85C115.41,73.24,114.66,72.27,113.53,71.53L113.53,71.53z"/>
		</g>
	</g>
	<g>
		<g>
			<path class="st3" d="M115.13,115.98c1.59,11.37,6.6,21.97,13.92,30.76c1.68,2.02,5.36,1.87,7.07,0c1.97-2.15,1.79-4.92,0-7.07
				c-0.22-0.27-0.45-0.54-0.67-0.81c-0.06-0.08-0.62-0.78-0.26-0.32c0.41,0.52-0.3-0.4-0.37-0.5c-0.17-0.23-0.33-0.45-0.5-0.68
				c-0.74-1.03-1.44-2.08-2.1-3.16c-1.37-2.21-2.58-4.52-3.64-6.9c-0.04-0.09-0.39-0.92-0.16-0.37c0.26,0.62-0.23-0.58-0.23-0.57
				c-0.23-0.59-0.45-1.18-0.67-1.78c-0.42-1.19-0.81-2.4-1.15-3.62c-0.71-2.51-1.23-5.05-1.59-7.63c-0.36-2.6-3.81-4.25-6.15-3.49
				C115.77,110.75,114.74,113.2,115.13,115.98L115.13,115.98z"/>
		</g>
	</g>
	<g>
		<g>
			<path class="st3" d="M176.62,94.93c-1.88-3.14-3.76-6.27-5.64-9.41c-0.65-1.09-1.76-1.96-2.99-2.3c-1.2-0.33-2.79-0.18-3.85,0.5
				c-1.07,0.69-2.01,1.71-2.3,2.99c-0.3,1.3-0.2,2.68,0.5,3.85c1.88,3.14,3.76,6.27,5.64,9.41c0.65,1.09,1.76,1.96,2.99,2.3
				c1.2,0.33,2.79,0.18,3.85-0.5c1.07-0.69,2.01-1.71,2.3-2.99C177.42,97.48,177.33,96.1,176.62,94.93L176.62,94.93z"/>
		</g>
	</g>
	<g>
		<g>
			<path class="st3" d="M250.14,175.71c0.39-0.06,0.77-0.13,1.16-0.19c0.65-0.15,1.22-0.45,1.7-0.89c0.54-0.35,0.97-0.82,1.29-1.4
				c0.17-0.4,0.34-0.8,0.5-1.19c0.24-0.89,0.24-1.77,0-2.66c-0.13-0.56-0.26-1.12-0.39-1.68c-1.61,2.11-3.21,4.22-4.82,6.33
				c1.21,0.11,2.43,0.21,3.64,0.32c0.69,0.03,1.33-0.12,1.93-0.43c0.62-0.2,1.16-0.55,1.61-1.03c0.49-0.45,0.83-0.99,1.03-1.61
				c0.31-0.6,0.46-1.24,0.43-1.93c-0.06-0.44-0.12-0.89-0.18-1.33c-0.24-0.85-0.67-1.58-1.29-2.21c-0.34-0.26-0.67-0.52-1.01-0.78
				c-0.78-0.45-1.62-0.68-2.52-0.68c-1.21-0.11-2.43-0.21-3.64-0.32c-0.9,0-1.74,0.23-2.52,0.68c-0.58,0.31-1.05,0.74-1.4,1.29
				c-0.44,0.48-0.74,1.05-0.89,1.7c-0.24,0.89-0.24,1.77,0,2.66c0.13,0.56,0.26,1.12,0.39,1.68c1.16-2.05,2.33-4.1,3.49-6.15
				c-0.39,0.06-0.77,0.13-1.16,0.19c-0.65,0.15-1.22,0.45-1.7,0.89c-0.54,0.35-0.97,0.82-1.29,1.4c-0.37,0.57-0.56,1.19-0.59,1.86
				c-0.15,0.66-0.12,1.33,0.09,1.99c0.17,0.4,0.34,0.8,0.5,1.19c0.44,0.75,1.04,1.35,1.79,1.79c0.4,0.17,0.8,0.34,1.19,0.5
				C248.37,175.95,249.25,175.95,250.14,175.71L250.14,175.71z"/>
		</g>
	</g>
	<g>
		<g>
			<path d="M102.05,156.62c0.03-12.71-10.14-22.21-21.03-26.98c-12-5.25-25.54-6.29-37.19-12.39c-5.74-3.01-10.87-7.23-13.87-13.06
				c-1.11-2.15-4.34-0.25-3.24,1.89c5.68,11,17.57,16.36,28.89,19.65c11.91,3.46,25.51,5.45,34.87,14.33
				c4.56,4.33,7.84,10.16,7.82,16.56C98.29,159.03,102.04,159.04,102.05,156.62L102.05,156.62z"/>
		</g>
	</g>
	<g>
		<g>
			<path d="M29.88,104.05c-1.04-1.76-2.85-2.88-4.88-3.09c-1.83-0.19-3.77,0.6-5.01,1.94c-1.5,1.63-1.9,3.8-1.56,5.94
				c0.3,1.93,1.31,3.67,2.3,5.33c0.5,0.84,1.71,1.23,2.57,0.67c0.85-0.55,1.21-1.66,0.67-2.57c-0.38-0.64-0.77-1.28-1.1-1.94
				c-0.08-0.17-0.16-0.33-0.24-0.5c-0.25-0.53,0.11,0.32-0.1-0.23c-0.13-0.34-0.25-0.69-0.34-1.05c-0.04-0.17-0.07-0.35-0.11-0.53
				c0.08,0.36-0.02-0.16-0.02-0.21c-0.02-0.35-0.03-0.72,0.02-1.07c-0.06,0.4,0.05-0.17,0.06-0.2c0.04-0.17,0.1-0.34,0.16-0.5
				c-0.13,0.32,0.08-0.11,0.1-0.14c0.08-0.13,0.16-0.26,0.25-0.38c-0.19,0.26-0.01,0.04,0.1-0.08c0.11-0.11,0.22-0.21,0.33-0.31
				c-0.24,0.21-0.03,0.03,0.11-0.06c0.13-0.08,0.26-0.15,0.4-0.22c0.33-0.18-0.29,0.06,0.11-0.04c0.14-0.03,0.29-0.08,0.44-0.12
				c0.37-0.11-0.32-0.02,0.1-0.02c0.15,0,0.31,0,0.46,0c0.39-0.01-0.29-0.1,0.12,0.01c0.15,0.04,0.3,0.07,0.45,0.12
				c0.05,0.02,0.44,0.18,0.21,0.07c-0.22-0.11,0.22,0.12,0.26,0.15c0.05,0.03,0.45,0.3,0.26,0.16c-0.19-0.14,0.18,0.17,0.22,0.21
				c0.04,0.04,0.37,0.4,0.22,0.22c-0.08-0.11-0.07-0.09,0.04,0.06c0.06,0.09,0.11,0.17,0.16,0.27c0.5,0.84,1.71,1.22,2.57,0.67
				C30.06,106.06,30.42,104.95,29.88,104.05L29.88,104.05z"/>
		</g>
	</g>
	<g>
		<g>
			<path d="M20.44,113.73c5.63,11.55,17.07,19.98,29.65,22.4c3.62,0.69,7.3,0.92,10.97,0.6c2.39-0.21,2.41-3.96,0-3.75
				c-15.33,1.34-30.64-7.31-37.38-21.15C22.62,109.67,19.38,111.57,20.44,113.73L20.44,113.73z"/>
		</g>
	</g>
	<g>
		<g>
			<path d="M59.22,136.44c7.82,0.12,15.56,3.06,21.35,8.35c5.56,5.07,9.14,11.93,10.3,19.35c0.16,1,1.41,1.56,2.31,1.31
				c1.07-0.3,1.47-1.3,1.31-2.31c-1.27-8.11-5.41-15.8-11.56-21.27c-6.51-5.79-15.01-9.05-23.71-9.18
				C56.81,132.65,56.81,136.4,59.22,136.44L59.22,136.44z"/>
		</g>
	</g>
	<g>
		<g>
			<path d="M90.99,163.4c-0.36,1.71,0.17,3.51,1.47,4.71c1.36,1.26,3.17,1.63,4.96,1.29c3.53-0.67,5.41-4.23,5.75-7.51
				c0.2-1.99-0.26-3.98-1.14-5.76c-0.43-0.88-1.76-1.19-2.57-0.67c-0.9,0.58-1.14,1.62-0.67,2.57c0.05,0.11,0.1,0.21,0.15,0.32
				c-0.06-0.15-0.07-0.16-0.02-0.04c0.07,0.19,0.14,0.39,0.21,0.58c0.11,0.34,0.18,0.69,0.25,1.03c0.04,0.22,0.04,0.23,0.01,0.03
				c0.01,0.12,0.03,0.23,0.04,0.35c0.01,0.18,0.02,0.35,0.03,0.53c0.01,0.36-0.01,0.71-0.04,1.06c-0.03,0.23-0.03,0.23,0,0.03
				c-0.02,0.12-0.04,0.23-0.07,0.35c-0.04,0.17-0.08,0.35-0.12,0.52c-0.04,0.15-0.09,0.31-0.14,0.46c-0.04,0.13-0.17,0.45-0.04,0.15
				c-0.15,0.34-0.32,0.67-0.53,0.98c-0.03,0.04-0.34,0.45-0.08,0.13c-0.12,0.14-0.24,0.28-0.37,0.41c-0.13,0.13-0.27,0.26-0.41,0.37
				c0.25-0.21-0.02,0.01-0.14,0.08c-0.14,0.08-0.28,0.16-0.42,0.23c-0.2,0.09-0.19,0.09,0.01,0c-0.07,0.03-0.15,0.05-0.23,0.08
				c-0.18,0.05-0.36,0.09-0.54,0.13c0.33-0.06,0.04-0.01-0.13-0.01c-0.16,0-0.31-0.01-0.47-0.02c0.45,0.03-0.09-0.04-0.19-0.07
				c-0.08-0.02-0.15-0.05-0.22-0.08c0.21,0.09,0.23,0.09,0.04,0c-0.09-0.06-0.44-0.31-0.09-0.03c-0.11-0.09-0.21-0.2-0.32-0.29
				c-0.27-0.22,0.14,0.26-0.1-0.13c-0.06-0.1-0.28-0.57-0.1-0.12c-0.05-0.13-0.08-0.27-0.13-0.4c-0.13-0.37-0.03,0.31-0.01-0.06
				c0-0.09,0-0.19,0-0.28c-0.04,0.26-0.05,0.29,0,0.08c0.2-0.96-0.28-2.07-1.31-2.31C92.36,161.88,91.21,162.37,90.99,163.4
				L90.99,163.4z"/>
		</g>
	</g>
</g>
<g id="Laag_1">
	<g>
		<g>
			<path d="M122.22,58.66c0.88-8.09,7.67-15.13,15.73-16.21c4.04-0.54,8.29,0.33,11.84,2.32c3.93,2.21,6.58,5.71,8.44,9.76
				c1.93,4.22,2.88,8.87,4.02,13.34c1.13,4.46,2.5,8.84,4.26,13.1c3.59,8.68,8.41,16.73,14.36,24c6.6,8.07,14.6,15,23.51,20.4
				c2.76,1.67,5.27-2.65,2.52-4.32c-16.13-9.78-29.03-24.94-36.01-42.49c-1.81-4.55-3.13-9.24-4.31-13.98
				c-1.22-4.9-2.5-9.86-4.9-14.34c-4.57-8.56-13.94-13.9-23.7-12.81c-11.01,1.23-19.57,10.29-20.76,21.21
				c-0.15,1.34,1.25,2.5,2.5,2.5C121.2,61.16,122.08,60,122.22,58.66L122.22,58.66z"/>
		</g>
	</g>
	<g>
		<g>
			<path d="M203.34,124.76c7.15,5.61,14.31,11.23,21.46,16.84c0.37-1.39,0.74-2.79,1.1-4.18c-15.96,5-33,3.1-48.79-1.6
				c-13.38-3.99-31.94-10.16-35.01-25.91c-1.27-6.51,2.04-14.29,8.73-16.3c3.07-0.92,1.76-5.75-1.33-4.82
				c-7.35,2.21-12.01,9.3-12.62,16.75c-0.66,8.08,3.89,15.99,9.78,21.2c6.68,5.91,15.18,9.25,23.5,12.11
				c8.66,2.97,17.6,5.14,26.72,6.09c10.17,1.06,20.57,0.38,30.35-2.68c1.61-0.51,2.67-2.95,1.1-4.18
				c-7.15-5.61-14.31-11.23-21.46-16.84c-1.06-0.83-2.5-1.04-3.54,0C202.48,122.09,202.28,123.92,203.34,124.76L203.34,124.76z"/>
		</g>
	</g>
	<g>
		<g>
			<path d="M220.95,145.69c13.2,8.47,26.4,16.93,39.59,25.4c0.2-1.52,0.4-3.05,0.6-4.57c-4.17,1.66-8.34,3.33-12.51,4.99
				c-1.9,0.76-3.8,1.61-5.76,2.21c-1.54,0.47-3.21,0.8-4.68-0.06c-1.6-0.94-2.97-2.32-4.38-3.51c-1.65-1.39-3.3-2.77-4.95-4.16
				c-3.43-2.88-6.86-5.76-10.29-8.64c-1.03-0.87-2.52-1.01-3.54,0c-0.89,0.89-1.04,2.66,0,3.54c3.68,3.09,7.37,6.19,11.05,9.28
				c1.78,1.49,3.56,2.99,5.34,4.48c1.55,1.3,3.09,2.83,4.95,3.69c4.28,1.98,8.63-0.03,12.66-1.64c4.48-1.79,8.96-3.58,13.44-5.36
				c1.98-0.79,2.52-3.33,0.6-4.57c-13.2-8.47-26.4-16.93-39.59-25.4C220.76,139.63,218.25,143.96,220.95,145.69L220.95,145.69z"/>
		</g>
	</g>
	<g>
		<g>
			<path d="M215.49,158.92c-16.3,7.9-35.57,8.96-52.78,3.52c-4.85-1.53-9.48-3.6-13.88-6.17c-2.79-1.62-5.31,2.7-2.52,4.32
				c16.8,9.8,37.29,12.62,56.19,8.19c5.36-1.26,10.56-3.14,15.52-5.55c1.21-0.59,1.54-2.32,0.9-3.42
				C218.19,158.58,216.71,158.33,215.49,158.92L215.49,158.92z"/>
		</g>
	</g>
	<g>
		<g>
			<path d="M147.83,157.52c-14.69-6.24-25.34-19.37-28.18-35.11c-0.84-4.66-0.9-9.44-0.34-14.14c0.16-1.34-1.26-2.5-2.5-2.5
				c-1.49,0-2.34,1.15-2.5,2.5c-2.1,17.49,5.21,35.41,19.02,46.37c3.68,2.92,7.66,5.36,11.98,7.19c1.24,0.53,2.68,0.37,3.42-0.9
				C149.34,159.89,149.08,158.05,147.83,157.52L147.83,157.52z"/>
		</g>
	</g>
	<g>
		<g>
			<path d="M119.21,107.94c0.74-8.03,1.49-16.06,2.23-24.1c0.12-1.35-1.24-2.5-2.5-2.5c-1.46,0-2.37,1.15-2.5,2.5
				c-0.74,8.03-1.49,16.06-2.23,24.1c-0.12,1.35,1.24,2.5,2.5,2.5C118.17,110.44,119.09,109.29,119.21,107.94L119.21,107.94z"/>
		</g>
	</g>
	<g>
		<g>
			<path d="M120.26,81.83c-7.55-3.81-15.09-7.63-22.64-11.44c-1.2-0.61-2.71-0.32-3.42,0.9c-0.65,1.11-0.31,2.81,0.9,3.42
				c7.55,3.81,15.09,7.63,22.64,11.44c1.2,0.61,2.71,0.32,3.42-0.9C121.81,84.14,121.47,82.44,120.26,81.83L120.26,81.83z"/>
		</g>
	</g>
	<g>
		<g>
			<path d="M97.66,74.67c7.56-3.89,15.13-7.77,22.69-11.66c1.2-0.62,1.55-2.3,0.9-3.42c-0.71-1.22-2.22-1.52-3.42-0.9
				c-7.56,3.89-15.13,7.77-22.69,11.66c-1.2,0.62-1.55,2.3-0.9,3.42C94.96,74.99,96.46,75.29,97.66,74.67L97.66,74.67z"/>
		</g>
	</g>
	<g>
		<g>
			<path d="M140.2,59.55c-0.65-0.52-1.33-0.97-2.17-1.13c-0.87-0.17-1.65-0.17-2.52,0.03c-1.43,0.33-2.77,1.37-3.44,2.67
				c-0.72,1.4-0.89,2.96-0.54,4.49c0.32,1.4,1.19,2.61,2.31,3.47c1.08,0.83,2.5,1.38,3.88,1.22c0.8-0.09,1.57-0.26,2.25-0.71
				c0.68-0.46,1.16-0.95,1.62-1.62c0.78-1.14,0.98-2.58,0.72-3.91c-0.31-1.59-1.69-2.84-3.2-3.28c-0.8-0.23-1.71-0.24-2.51-0.02
				c-0.78,0.21-1.6,0.69-2.13,1.31c-0.55,0.64-1.01,1.38-1.16,2.22c-0.13,0.76-0.17,1.56,0.12,2.3c0.27,0.69,0.61,1.32,1.17,1.83
				c0.58,0.53,1.14,0.83,1.86,1.11c0.99,0.39,2.29,0.43,3.28,0.03c0.7-0.28,1.35-0.63,1.85-1.22c0.49-0.58,0.88-1.22,1.06-1.97
				c0.32-1.34,0.1-2.71-0.53-3.93c-0.61-1.18-1.73-2.06-2.98-2.46c-1.39-0.44-2.94-0.16-4.19,0.53c-1.27,0.7-2.17,1.87-2.68,3.21
				c-0.49,1.31-0.31,2.96,0.44,4.14c0.48,0.75,1.1,1.31,1.92,1.65c1.02,0.43,2.16,0.36,3.14-0.16c0.69-0.36,1.31-1.01,1.65-1.71
				c0.25-0.51,0.37-0.9,0.45-1.44c0.08-0.61,0.05-1.12-0.06-1.75c-0.13-0.75-0.47-1.45-0.76-2.14c-0.23-0.53-0.96-1-1.49-1.15
				c-0.6-0.16-1.4-0.09-1.93,0.25c-0.53,0.34-1,0.86-1.15,1.49c-0.03,0.22-0.06,0.44-0.09,0.66c0,0.45,0.12,0.87,0.34,1.26
				c0.02,0.04,0.03,0.07,0.05,0.11c-0.08-0.2-0.17-0.4-0.25-0.6c0.21,0.5,0.41,1.01,0.48,1.55c-0.03-0.22-0.06-0.44-0.09-0.66
				c0.02,0.21,0.02,0.42,0,0.64c0.03-0.22,0.06-0.44,0.09-0.66c-0.03,0.18-0.08,0.35-0.15,0.52c0.08-0.2,0.17-0.4,0.25-0.6
				c-0.06,0.14-0.14,0.26-0.23,0.38c0.13-0.17,0.26-0.34,0.39-0.51c-0.09,0.11-0.19,0.21-0.31,0.3c0.17-0.13,0.34-0.26,0.51-0.39
				c-0.07,0.05-0.14,0.09-0.22,0.13c0.2-0.08,0.4-0.17,0.6-0.25c-0.11,0.05-0.21,0.08-0.33,0.1c0.22-0.03,0.44-0.06,0.66-0.09
				c-0.1,0.01-0.2,0.01-0.3,0c0.22,0.03,0.44,0.06,0.66,0.09c-0.1-0.01-0.19-0.04-0.28-0.07c0.2,0.08,0.4,0.17,0.6,0.25
				c-0.11-0.05-0.22-0.11-0.32-0.18c0.17,0.13,0.34,0.26,0.51,0.39c-0.12-0.1-0.22-0.2-0.32-0.32c0.13,0.17,0.26,0.34,0.39,0.51
				c-0.11-0.15-0.2-0.31-0.27-0.49c0.08,0.2,0.17,0.4,0.25,0.6c-0.08-0.21-0.14-0.42-0.17-0.64c0.03,0.22,0.06,0.44,0.09,0.66
				c-0.02-0.19-0.02-0.38,0-0.57c-0.03,0.22-0.06,0.44-0.09,0.66c0.04-0.25,0.1-0.49,0.2-0.73c-0.08,0.2-0.17,0.4-0.25,0.6
				c0.11-0.26,0.26-0.5,0.43-0.73c-0.13,0.17-0.26,0.34-0.39,0.51c0.18-0.22,0.38-0.42,0.6-0.6c-0.17,0.13-0.34,0.26-0.51,0.39
				c0.25-0.19,0.52-0.35,0.8-0.47c-0.2,0.08-0.4,0.17-0.6,0.25c0.26-0.1,0.53-0.18,0.81-0.21c-0.22,0.03-0.44,0.06-0.66,0.09
				c0.22-0.02,0.44-0.02,0.66,0c-0.22-0.03-0.44-0.06-0.66-0.09c0.22,0.03,0.43,0.08,0.63,0.16c-0.2-0.08-0.4-0.17-0.6-0.25
				c0.2,0.09,0.39,0.2,0.57,0.34c-0.17-0.13-0.34-0.26-0.51-0.39c0.17,0.14,0.32,0.3,0.46,0.47c-0.13-0.17-0.26-0.34-0.39-0.51
				c0.15,0.2,0.27,0.41,0.37,0.64c-0.08-0.2-0.17-0.4-0.25-0.6c0.1,0.25,0.18,0.51,0.22,0.78c-0.03-0.22-0.06-0.44-0.09-0.66
				c0.03,0.27,0.04,0.53,0,0.8c0.03-0.22,0.06-0.44,0.09-0.66c-0.03,0.19-0.08,0.37-0.15,0.55c0.08-0.2,0.17-0.4,0.25-0.6
				c-0.08,0.18-0.17,0.34-0.28,0.5c0.13-0.17,0.26-0.34,0.39-0.51c-0.11,0.13-0.22,0.25-0.35,0.36c0.17-0.13,0.34-0.26,0.51-0.39
				c-0.13,0.1-0.26,0.18-0.41,0.24c0.2-0.08,0.4-0.17,0.6-0.25c-0.19,0.08-0.39,0.13-0.59,0.16c0.22-0.03,0.44-0.06,0.66-0.09
				c-0.23,0.03-0.46,0.02-0.69-0.01c0.22,0.03,0.44,0.06,0.66,0.09c-0.23-0.04-0.45-0.1-0.67-0.19c0.2,0.08,0.4,0.17,0.6,0.25
				c-0.21-0.09-0.41-0.2-0.6-0.34c0.17,0.13,0.34,0.26,0.51,0.39c-0.16-0.13-0.3-0.27-0.43-0.43c0.13,0.17,0.26,0.34,0.39,0.51
				c-0.09-0.13-0.17-0.26-0.24-0.4c0.08,0.2,0.17,0.4,0.25,0.6c-0.06-0.15-0.1-0.29-0.13-0.45c0.03,0.22,0.06,0.44,0.09,0.66
				c-0.02-0.19-0.02-0.37,0-0.55c-0.03,0.22-0.06,0.44-0.09,0.66c0.03-0.18,0.08-0.36,0.15-0.53c-0.08,0.2-0.17,0.4-0.25,0.6
				c0.08-0.17,0.17-0.33,0.28-0.48c-0.13,0.17-0.26,0.34-0.39,0.51c0.12-0.15,0.24-0.28,0.39-0.4c-0.17,0.13-0.34,0.26-0.51,0.39
				c0.15-0.11,0.3-0.21,0.47-0.28c-0.2,0.08-0.4,0.17-0.6,0.25c0.17-0.07,0.35-0.12,0.53-0.15c-0.22,0.03-0.44,0.06-0.66,0.09
				c0.19-0.02,0.37-0.02,0.55,0c-0.22-0.03-0.44-0.06-0.66-0.09c0.22,0.03,0.42,0.09,0.62,0.17c-0.2-0.08-0.4-0.17-0.6-0.25
				c0.17,0.08,0.33,0.17,0.48,0.28c-0.17-0.13-0.34-0.26-0.51-0.39c0.14,0.11,0.26,0.23,0.36,0.37c-0.13-0.17-0.26-0.34-0.39-0.51
				c0.09,0.12,0.16,0.25,0.22,0.38c-0.08-0.2-0.17-0.4-0.25-0.6c0.07,0.18,0.12,0.36,0.15,0.56c-0.03-0.22-0.06-0.44-0.09-0.66
				c0.02,0.2,0.02,0.39,0,0.59c0.03-0.22,0.06-0.44,0.09-0.66c-0.03,0.25-0.1,0.49-0.19,0.72c0.08-0.2,0.17-0.4,0.25-0.6
				c-0.1,0.24-0.23,0.45-0.38,0.66c0.13-0.17,0.26-0.34,0.39-0.51c-0.14,0.18-0.3,0.34-0.48,0.49c0.17-0.13,0.34-0.26,0.51-0.39
				c-0.16,0.12-0.33,0.23-0.52,0.31c0.2-0.08,0.4-0.17,0.6-0.25c-0.2,0.09-0.41,0.14-0.63,0.17c0.22-0.03,0.44-0.06,0.66-0.09
				c-0.24,0.03-0.47,0.03-0.71,0.01c0.22,0.03,0.44,0.06,0.66,0.09c-0.3-0.04-0.58-0.12-0.86-0.23c0.2,0.08,0.4,0.17,0.6,0.25
				c-0.28-0.12-0.54-0.28-0.79-0.46c0.17,0.13,0.34,0.26,0.51,0.39c-0.27-0.21-0.51-0.45-0.72-0.71c0.13,0.17,0.26,0.34,0.39,0.51
				c-0.21-0.27-0.38-0.56-0.51-0.87c0.08,0.2,0.17,0.4,0.25,0.6c-0.12-0.3-0.2-0.6-0.25-0.92c0.03,0.22,0.06,0.44,0.09,0.66
				c-0.04-0.35-0.05-0.7-0.01-1.05c-0.03,0.22-0.06,0.44-0.09,0.66c0.04-0.32,0.12-0.62,0.24-0.92c-0.08,0.2-0.17,0.4-0.25,0.6
				c0.11-0.26,0.25-0.51,0.42-0.74c-0.13,0.17-0.26,0.34-0.39,0.51c0.15-0.19,0.32-0.37,0.52-0.52c-0.17,0.13-0.34,0.26-0.51,0.39
				c0.19-0.14,0.4-0.26,0.62-0.36c-0.2,0.08-0.4,0.17-0.6,0.25c0.25-0.1,0.51-0.17,0.77-0.21c-0.22,0.03-0.44,0.06-0.66,0.09
				c0.27-0.03,0.53-0.03,0.8,0c-0.22-0.03-0.44-0.06-0.66-0.09c0.2,0.03,0.4,0.08,0.59,0.16c-0.2-0.08-0.4-0.17-0.6-0.25
				c0.19,0.08,0.37,0.18,0.53,0.3c-0.17-0.13-0.34-0.26-0.51-0.39c0.02,0.02,0.05,0.04,0.07,0.06c0.54,0.43,1.05,0.73,1.77,0.73
				c0.61,0,1.35-0.27,1.77-0.73c0.44-0.48,0.76-1.1,0.73-1.77C140.9,60.7,140.71,59.95,140.2,59.55L140.2,59.55z"/>
		</g>
	</g>
	<g>
		<g>
			<path d="M164.52,167.29c-3.35,7.16-6.69,14.33-10.04,21.49c-0.57,1.22-0.34,2.7,0.9,3.42c1.08,0.63,2.85,0.33,3.42-0.9
				c3.35-7.16,6.69-14.33,10.04-21.49c0.57-1.22,0.34-2.7-0.9-3.42C166.86,165.76,165.1,166.06,164.52,167.29L164.52,167.29z"/>
		</g>
	</g>
	<g>
		<g>
			<path d="M182.89,170.78c-2.28,6.94-4.56,13.88-6.83,20.82c-0.42,1.28,0.49,2.73,1.75,3.08c1.36,0.37,2.65-0.46,3.08-1.75
				c2.28-6.94,4.56-13.88,6.83-20.82c0.42-1.28-0.49-2.73-1.75-3.08C184.61,168.66,183.31,169.49,182.89,170.78L182.89,170.78z"/>
		</g>
	</g>
	<g>
		<g>
			<path d="M155.22,187.48c-6.34,0.36-12.68,0.73-19.02,1.09c-1.35,0.08-2.5,1.09-2.5,2.5c0,1.29,1.15,2.58,2.5,2.5
				c6.34-0.36,12.68-0.73,19.02-1.09c1.35-0.08,2.5-1.09,2.5-2.5C157.72,188.69,156.58,187.41,155.22,187.48L155.22,187.48z"/>
		</g>
	</g>
	<g>
		<g>
			<path d="M156.2,186.71c-5.09-0.7-10.18-1.4-15.28-2.1c-1.29-0.18-2.75,0.31-3.08,1.75c-0.27,1.18,0.36,2.89,1.75,3.08
				c5.09,0.7,10.18,1.4,15.28,2.1c1.29,0.18,2.75-0.31,3.08-1.75C158.21,188.6,157.58,186.9,156.2,186.71L156.2,186.71z"/>
		</g>
	</g>
	<g>
		<g>
			<path d="M178.67,193.7c3.22,0,3.22-5,0-5C175.45,188.7,175.44,193.7,178.67,193.7L178.67,193.7z"/>
		</g>
	</g>
	<g>
		<g>
			<path d="M176.63,190.74c-8.26,0-16.53,0-24.79,0c-3.22,0-3.22,5,0,5c8.26,0,16.53,0,24.79,0
				C179.85,195.74,179.85,190.74,176.63,190.74L176.63,190.74z"/>
		</g>
	</g>
	<g>
		<g>
			<path d="M177.51,190.82c-3.6-1.3-7.21-2.59-10.81-3.89c-1.23-0.44-2.79,0.5-3.08,1.75c-0.32,1.41,0.43,2.6,1.75,3.08
				c3.6,1.3,7.21,2.59,10.81,3.89c1.23,0.44,2.79-0.5,3.08-1.75C179.58,192.49,178.83,191.29,177.51,190.82L177.51,190.82z"/>
		</g>
	</g>
</g>
</svg>
