<?xml version="1.0" encoding="utf-8"?>
<!-- Generator: Adobe Illustrator 27.8.1, SVG Export Plug-In . SVG Version: 6.00 Build 0)  -->
<svg version="1.1" id="Laag_1" xmlns="http://www.w3.org/2000/svg" xmlns:xlink="http://www.w3.org/1999/xlink" x="0px" y="0px"
	 viewBox="0 0 218.01 222" style="enable-background:new 0 0 218.01 222;" xml:space="preserve">
<style type="text/css">
	.st0{fill:#6A3800;stroke:#000000;stroke-width:5.0001;stroke-miterlimit:10.0002;}
	.st1{fill:none;stroke:#000000;stroke-width:5;stroke-miterlimit:10;}
	.st2{fill:#878787;stroke:#000000;stroke-width:5;stroke-miterlimit:10;}
	.st3{fill:#FFFFFF;}
	.st4{font-family:'ArialMT';}
	.st5{font-size:19.9403px;}
	.st6{fill:none;stroke:#FFFFFF;stroke-width:3;stroke-miterlimit:10;}
	.st7{fill:#55F3FF;stroke:#000000;stroke-miterlimit:10;}
	.st8{fill:none;stroke:#1D1D1B;stroke-width:5;stroke-miterlimit:10;}
</style>
<g>
	
		<rect x="60.13" y="64.49" transform="matrix(5.704275e-03 -1 1 5.704275e-03 -62.2089 272.811)" class="st0" width="91.9" height="206.39"/>
	<line class="st1" x1="209.53" y1="122.39" x2="183.73" y2="197.34"/>
	<line class="st1" x1="183.73" y1="197.34" x2="184.32" y2="214.13"/>
	<line class="st1" x1="183.73" y1="197.34" x2="2.72" y2="196.21"/>
</g>
<g>
	<rect x="2.53" y="69.23" class="st2" width="207.11" height="53.98"/>
	<line class="st1" x1="0" y1="105.93" x2="212.16" y2="105.93"/>
	<line class="st1" x1="0" y1="87.44" x2="212.16" y2="87.44"/>
	<line class="st1" x1="181.83" y1="87.44" x2="181.83" y2="69.23"/>
	<line class="st1" x1="146.67" y1="87.44" x2="146.67" y2="69.23"/>
	<line class="st1" x1="103.95" y1="87.44" x2="103.95" y2="69.23"/>
	<line class="st1" x1="63.08" y1="85.83" x2="63.08" y2="67.62"/>
	<line class="st1" x1="26.98" y1="85.83" x2="26.98" y2="67.62"/>
	<line class="st1" x1="38.47" y1="105.33" x2="38.47" y2="87.12"/>
	<line class="st1" x1="74.44" y1="105.65" x2="74.44" y2="87.44"/>
	<line class="st1" x1="126.73" y1="105.65" x2="126.73" y2="87.44"/>
	<line class="st1" x1="163" y1="105.65" x2="163" y2="87.44"/>
	<line class="st1" x1="194.71" y1="107.26" x2="194.71" y2="89.05"/>
	<line class="st1" x1="178.85" y1="122.68" x2="178.85" y2="104.47"/>
	<line class="st1" x1="142.56" y1="122.68" x2="142.56" y2="104.47"/>
	<line class="st1" x1="98.94" y1="122.68" x2="98.94" y2="104.47"/>
	<line class="st1" x1="56.45" y1="122.68" x2="56.45" y2="104.47"/>
	<line class="st1" x1="20.94" y1="122.68" x2="20.94" y2="104.47"/>
</g>
<text transform="matrix(1 0 0 1 133.2496 148.9527)" class="st3 st4 st5">60 </text>
<text transform="matrix(1 0 0 1 133.2496 172.8809)" class="st3 st4 st5">cm</text>
<line class="st6" x1="174.71" y1="128.1" x2="174.33" y2="185.36"/>
<line class="st6" x1="165.53" y1="137.68" x2="174.71" y2="128.1"/>
<line class="st6" x1="165.34" y1="175.66" x2="174.52" y2="185.24"/>
<line class="st6" x1="184.02" y1="137.52" x2="174.52" y2="128.26"/>
<line class="st6" x1="183.7" y1="175.66" x2="174.52" y2="185.24"/>
<rect x="-0.74" y="4.71" class="st7" width="212.89" height="64.52"/>
<rect x="0.08" y="4.71" class="st8" width="212.01" height="212.01"/>
</svg>
