<?xml version="1.0" encoding="utf-8"?>
<!-- Generator: Adobe Illustrator 27.8.1, SVG Export Plug-In . SVG Version: 6.00 Build 0)  -->
<svg version="1.1" xmlns="http://www.w3.org/2000/svg" xmlns:xlink="http://www.w3.org/1999/xlink" x="0px" y="0px"
	 viewBox="0 0 345.89 480.49" style="enable-background:new 0 0 345.89 480.49;" xml:space="preserve">
<style type="text/css">
	.st0{fill:#3F60FF;}
	.st1{fill:#FFCDAA;}
	.st2{fill:#FFFFFF;}
	.st3{fill:#FFD094;}
</style>
<g id="Laag_3">
</g>
<g id="Laag_2">
	<g>
		<g>
			<path class="st0" d="M68.08,464.17c34.55-3.74,69.26-6,104.01-6.77c34.74-0.77,69.52-0.05,104.2,2.15
				c19.52,1.24,39.02,2.96,58.46,5.14c1.34,0.15,2.5-1.26,2.5-2.5c0-1.48-1.15-2.35-2.5-2.5c-34.52-3.87-69.2-6.27-103.92-7.18
				c-34.74-0.91-69.52-0.33-104.21,1.74c-19.55,1.17-39.06,2.81-58.53,4.91c-1.34,0.15-2.5,1.05-2.5,2.5
				C65.58,462.91,66.73,464.32,68.08,464.17L68.08,464.17z"/>
		</g>
	</g>
	<g>
		<g>
			<path class="st0" d="M71.34,460.92c5.36-17.69,8.07-36.01,10.8-54.25c2.6-17.36,5.16-34.91,10.46-51.69
				c4.35-13.78,10.68-26.96,19.38-38.54c8.84-11.77,20.25-21.49,33.25-28.4c14.37-7.64,30.52-11.67,46.77-11.9
				c16.18-0.23,32.33,3.26,47.08,9.88c13.75,6.17,26.27,14.83,37.14,25.24c10.92,10.46,20.16,22.55,27.66,35.67
				c8.63,15.09,14.77,31.43,19.3,48.18c4.56,16.83,7.54,34.04,10.01,51.28c0.65,4.56,1.28,9.13,1.89,13.7
				c0.18,1.34,1.02,2.5,2.5,2.5c1.21,0,2.68-1.15,2.5-2.5c-2.43-18.09-4.98-36.18-9.02-53.99c-3.92-17.31-9.27-34.35-16.94-50.39
				c-6.98-14.58-15.97-28.22-26.82-40.22c-10.35-11.45-22.49-21.4-35.99-28.92c-14.4-8.02-30.27-13.22-46.69-14.89
				c-16.66-1.69-33.78,0.43-49.44,6.39c-14.86,5.65-28.41,14.53-39.34,26.1c-10.26,10.85-18.03,23.73-23.71,37.49
				c-6.48,15.7-9.84,32.41-12.55,49.11c-3.02,18.54-5.2,37.25-9.5,55.56c-1.05,4.45-2.22,8.88-3.55,13.26
				C65.58,462.68,70.41,463.99,71.34,460.92L71.34,460.92z"/>
		</g>
	</g>
	<g>
		<g>
			<path class="st0" d="M141.21,335.77c26.42-0.42,52.84-0.84,79.26-1.26c7.04-0.11,14.28-0.71,21.28,0.18
				c-1.99-0.27-3.99-0.54-5.98-0.8c2.19,0.31,4.32,0.8,6.37,1.62c-1.79-0.76-3.58-1.51-5.37-2.27c1.46,0.62,2.83,1.4,4.1,2.35
				c-1.52-1.17-3.04-2.35-4.55-3.52c1.05,0.83,2,1.74,2.84,2.78c-1.17-1.52-2.35-3.04-3.52-4.55c0.73,0.94,1.34,1.94,1.82,3.03
				c-0.76-1.79-1.51-3.58-2.27-5.37c0.36,0.88,0.61,1.77,0.77,2.71c-0.27-1.99-0.54-3.99-0.8-5.98c0.05,0.36,0.08,0.71,0.11,1.07
				c-0.12,3.1,0.53,5.99,1.94,8.67c0.91,2.79,2.46,5.2,4.65,7.24c2.04,2.19,4.45,3.74,7.24,4.65c2.68,1.41,5.57,2.05,8.67,1.94
				c5.82-0.26,11.85-2.17,15.91-6.59c3.89-4.24,6.97-9.97,6.59-15.91c-0.02-0.36-0.06-0.71-0.11-1.07
				c-0.27-2.26-0.45-4.62-0.97-6.85c-0.59-2.5-1.82-4.91-2.87-7.21c-0.32-0.7-0.66-1.38-1.09-2.02c-1.44-2.19-3.09-4.31-4.83-6.25
				c-0.48-0.54-1-1.05-1.56-1.52c-2-1.71-4.1-3.38-6.31-4.83c-0.66-0.43-1.35-0.83-2.06-1.17c-2.38-1.15-4.84-2.2-7.33-3.08
				c-3.64-1.28-7.61-1.59-11.39-2.06c-1.93-0.24-3.87-0.35-5.82-0.38c-4.24-0.06-8.49,0.09-12.72,0.16
				c-17.45,0.28-34.89,0.56-52.34,0.84c-9.89,0.16-19.77,0.32-29.66,0.47c-5.83,0.09-11.77,2.45-15.91,6.59
				c-2.19,2.04-3.74,4.45-4.65,7.24c-1.41,2.68-2.05,5.57-1.94,8.67c0.26,5.82,2.17,11.85,6.59,15.91
				C129.67,333.18,135.15,335.87,141.21,335.77L141.21,335.77z"/>
		</g>
	</g>
	<g>
		<g>
			<path class="st0" d="M233.82,302.52c-11.38,2.27-22.82,4.19-34.32,5.74c1.99-0.27,3.99-0.54,5.98-0.8
				c-16.92,2.26-33.95,3.74-51.01,4.4c-4.82,0.19-9.63,0.31-14.45,0.37c-3.1-0.12-5.99,0.53-8.67,1.94
				c-2.79,0.91-5.2,2.46-7.24,4.65c-1.17,1.52-2.35,3.04-3.52,4.55c-1.64,2.58-2.53,5.37-2.67,8.37c-0.54,1.99-0.54,3.99,0,5.98
				c0.14,2.99,1.03,5.78,2.67,8.37c3.05,4.73,7.74,9.19,13.45,10.34c33.47,6.72,67.49,11.18,101.56,13.24
				c9.12,0.55,18.26,0.92,27.4,1.12c0-15,0-30,0-45c-23.4,1.45-46.8,2.9-70.2,4.35c-6.64,0.41-13.28,0.82-19.91,1.23
				c-3.1-0.12-5.99,0.53-8.67,1.94c-2.79,0.91-5.2,2.46-7.24,4.65c-2.19,2.04-3.74,4.45-4.65,7.24c-1.41,2.68-2.05,5.57-1.94,8.67
				c0.26,5.82,2.17,11.85,6.59,15.91c1.52,1.17,3.04,2.35,4.55,3.52c3.51,2.04,7.29,3.06,11.36,3.07
				c20.98,2.39,41.96,4.78,62.94,7.17c0-15,0-30,0-45c-16.83,2.24-33.66,4.48-50.49,6.73c-16.75,2.23-33.5,4.46-50.25,6.69
				c-9.49,1.26-18.98,2.53-28.46,3.79c-3.1-0.12-5.99,0.53-8.67,1.94c-2.79,0.91-5.2,2.46-7.24,4.65c-2.19,2.04-3.74,4.45-4.65,7.24
				c-1.41,2.68-2.05,5.57-1.94,8.67c0.26,5.82,2.17,11.85,6.59,15.91c4.42,4.05,9.8,6.55,15.91,6.59
				c19.28,0.12,38.57,0.71,57.82,1.78c19.25,1.07,38.48,2.63,57.66,4.66c10.82,1.15,21.62,2.45,32.4,3.9
				c-1.99-0.27-3.99-0.54-5.98-0.8c2.94,0.4,5.88,0.8,8.82,1.22c0-14.46,0-28.93,0-43.39c-9.62,2.22-19.34,3.99-29.12,5.31
				c1.99-0.27,3.99-0.54,5.98-0.8c-16.05,2.13-32.24,3.04-48.42,2.7c-3.1-0.12-5.99,0.53-8.67,1.94c-2.79,0.91-5.2,2.46-7.24,4.65
				c-2.19,2.04-3.74,4.45-4.65,7.24c-1.41,2.68-2.05,5.57-1.94,8.67c0.26,5.82,2.17,11.85,6.59,15.91c1.52,1.17,3.04,2.35,4.55,3.52
				c3.51,2.04,7.29,3.06,11.36,3.07c31.64,1.21,63.27,2.43,94.91,3.64c8.82,0.34,17.65,0.68,26.47,1.02
				c3.1,0.12,5.99-0.53,8.67-1.94c2.79-0.91,5.2-2.46,7.24-4.65c2.19-2.04,3.74-4.45,4.65-7.24c1.41-2.68,2.05-5.57,1.94-8.67
				c-0.26-5.82-2.17-11.85-6.59-15.91c-1.52-1.17-3.04-2.35-4.55-3.52c-3.51-2.04-7.29-3.06-11.36-3.07
				c-19.67-1.3-39.37-2.07-59.07-2.29c-19.71-0.22-39.42,0.11-59.11,0.98c-11.09,0.49-22.16,1.16-33.23,1.99
				c-3.1-0.12-5.99,0.53-8.67,1.94c-2.79,0.91-5.2,2.46-7.24,4.65c-2.19,2.04-3.74,4.45-4.65,7.24c-1.41,2.68-2.05,5.57-1.94,8.67
				c0.26,5.82,2.17,11.85,6.59,15.91c4.21,3.86,10,7.04,15.91,6.59c19.65-1.48,39.35-2.43,59.05-2.83
				c19.7-0.4,39.42-0.25,59.12,0.45c11.09,0.39,22.17,0.96,33.24,1.69c0-15,0-30,0-45c-31.64-1.21-63.27-2.43-94.91-3.64
				c-8.82-0.34-17.65-0.68-26.47-1.02c0,15,0,30,0,45c22.25,0.47,44.48-1.55,66.4-5.35c5.74-1,11.45-2.15,17.13-3.46
				c1.79-0.76,3.58-1.51,5.37-2.27c2.62-1.41,4.73-3.35,6.31-5.8c1.39-1.4,2.36-3.06,2.89-4.96c1.41-2.68,2.05-5.57,1.94-8.67
				c-0.27-1.99-0.54-3.99-0.8-5.98c-0.76-1.79-1.51-3.58-2.27-5.37c-1.41-2.62-3.35-4.73-5.8-6.31c-2.17-1.99-4.72-3.33-7.65-4.03
				c-22.15-3.15-44.36-5.83-66.64-7.82c-20.44-1.82-40.93-3.1-61.44-3.83c-11.53-0.41-23.07-0.65-34.6-0.72c0,15,0,30,0,45
				c16.83-2.24,33.66-4.48,50.49-6.73c16.75-2.23,33.5-4.46,50.25-6.69c9.49-1.26,18.98-2.53,28.46-3.79
				c3.1,0.12,5.99-0.53,8.67-1.94c2.79-0.91,5.2-2.46,7.24-4.65c2.19-2.04,3.74-4.45,4.65-7.24c1.41-2.68,2.05-5.57,1.94-8.67
				c-0.26-5.82-2.17-11.85-6.59-15.91c-1.52-1.17-3.04-2.35-4.55-3.52c-3.51-2.04-7.29-3.06-11.36-3.07
				c-20.98-2.39-41.96-4.78-62.94-7.17c0,15,0,30,0,45c23.4-1.45,46.8-2.9,70.2-4.35c6.64-0.41,13.28-0.82,19.91-1.23
				c3.1,0.12,5.99-0.53,8.67-1.94c2.79-0.91,5.2-2.46,7.24-4.65c2.19-2.04,3.74-4.45,4.65-7.24c1.41-2.68,2.05-5.57,1.94-8.67
				c-0.26-5.82-2.17-11.85-6.59-15.91c-4.46-4.09-9.77-6.46-15.91-6.59c-20.32-0.44-40.61-1.75-60.82-3.95
				c-5.76-0.63-11.51-1.33-17.26-2.1c1.99,0.27,3.99,0.54,5.98,0.8c-15.05-2.02-30.02-4.53-44.91-7.52
				c-1.99,14.73-3.99,29.46-5.98,44.2c28.17-0.35,56.23-3.01,84.05-7.42c7.26-1.15,14.5-2.45,21.71-3.89
				c2.93-0.7,5.48-2.04,7.65-4.03c2.45-1.59,4.38-3.69,5.8-6.31c1.64-2.58,2.53-5.37,2.67-8.37c0.67-2.99,0.54-5.98-0.4-8.97
				c-1.76-5.44-5.14-10.7-10.34-13.45c-1.79-0.76-3.58-1.51-5.37-2.27C241.8,301.45,237.81,301.45,233.82,302.52L233.82,302.52z"/>
		</g>
	</g>
	<g>
		<g>
			<path class="st0" d="M115.15,309.27c-7.67,16.11-14.64,32.59-20.85,49.32c-5.59,15.06-10.51,30.38-14.72,45.88
				c-2.37,8.73-4.52,17.52-6.45,26.36c-0.94,2.99-1.07,5.98-0.4,8.97c0.14,2.99,1.03,5.78,2.67,8.37c1.41,2.62,3.35,4.73,5.8,6.31
				c2.17,1.99,4.72,3.33,7.65,4.03c1.99,0.27,3.99,0.54,5.98,0.8c4.06-0.01,7.85-1.04,11.36-3.07c4.78-3.08,9.09-7.72,10.34-13.45
				c5.48-25.07,12.74-49.74,21.75-73.78c2.55-6.79,5.23-13.53,8.05-20.22c-0.76,1.79-1.51,3.58-2.27,5.37
				c3.16-7.47,6.48-14.87,9.97-22.2c1.64-2.58,2.53-5.37,2.67-8.37c0.67-2.99,0.54-5.98-0.4-8.97c-0.7-2.93-2.04-5.48-4.03-7.65
				c-1.59-2.45-3.69-4.38-6.31-5.8c-5.22-2.76-11.55-4.14-17.34-2.27c-1.79,0.76-3.58,1.51-5.37,2.27
				C119.85,303.2,117.16,305.89,115.15,309.27L115.15,309.27z"/>
		</g>
	</g>
	<g>
		<g>
			<path class="st0" d="M92.68,391.57c0.5,3.43,1.09,6.86,2.06,10.2c1.01,3.44,2.49,6.78,3.97,10.02c0.69,1.5,1.51,2.93,2.49,4.26
				c2.02,2.73,4,5.63,6.67,7.79c2,1.61,4.02,3.36,6.26,4.67c2.43,1.42,5.17,2.42,7.77,3.4c0.91,0.34,1.85,0.6,2.8,0.8
				c2.85,0.58,5.78,0.94,8.68,1.19c2.13,0.18,4.28,0.12,6.41-0.03c9.36-0.64,18.71-1.76,28.05-2.65c9.49-0.91,18.99-1.76,28.47-2.74
				c10.9-1.13,21.97-2.37,32.56-5.33c5.68-1.59,11.11-3.83,16.48-6.24c3.45-1.55,6.79-3.38,9.92-5.52
				c4.58-3.13,9.15-6.61,12.99-10.65c2.51-2.65,4.7-5.62,6.89-8.54c1.14-1.52,2.18-3.11,3.1-4.78c1.84-3.33,3.27-6.92,4.64-10.45
				c0.73-1.87,1.32-3.79,1.78-5.74c0.89-3.77,1.33-7.67,1.76-11.51c0.23-2.07,0.32-4.16,0.28-6.25c-0.08-3.89-0.7-7.75-1.24-11.6
				c-0.28-2-0.66-3.98-1.18-5.94c-0.5-1.89-1.11-3.74-1.82-5.56c-1.36-3.47-2.78-6.95-4.47-10.27c-2.62-5.12-6.1-9.59-9.65-14.1
				c-2.39-3.04-5.07-5.85-7.97-8.41c-2.79-2.46-5.78-4.69-8.74-6.92c-7.57,12.95-15.14,25.9-22.71,38.86
				c4.14,2.55,8.14,5.3,11.99,8.27c-1.52-1.17-3.04-2.35-4.55-3.52c9.46,7.31,17.95,15.81,25.28,25.25
				c-1.17-1.52-2.35-3.04-3.52-4.55c7.39,9.56,13.55,20.03,18.27,31.16c-0.76-1.79-1.51-3.58-2.27-5.37
				c0.81,1.94,1.59,3.89,2.31,5.86c12.54-7.3,25.07-14.59,37.61-21.89c-1.54-1.63-2.99-3.33-4.37-5.1c1.17,1.52,2.35,3.04,3.52,4.55
				c-7.11-9.24-11.9-19.93-17.07-30.31c-2.44-4.9-5-9.74-7.95-14.36c-3.82-5.98-8.16-11.81-13.14-16.87
				c-3.32-3.37-7.12-6.28-10.93-9.05c-2.44-1.78-5.06-3.29-7.82-4.52c-2.58-1.64-5.37-2.53-8.37-2.67c-2.99-0.67-5.98-0.54-8.97,0.4
				c-2.93,0.7-5.48,2.04-7.65,4.03c-2.45,1.59-4.38,3.69-5.8,6.31c-2.76,5.22-4.14,11.55-2.27,17.34c0.76,1.79,1.51,3.58,2.27,5.37
				c2,3.38,4.69,6.07,8.07,8.07c3.18,1.41,6.14,3.21,8.9,5.32c-1.52-1.17-3.04-2.35-4.55-3.52c3.98,3.1,7.44,6.78,10.53,10.76
				c-1.17-1.52-2.35-3.04-3.52-4.55c10.45,13.64,15.84,30.17,24.98,44.59c1.31,2.07,2.7,4.08,4.18,6.03
				c2.6,3.42,5.19,6.86,8.14,9.99c1.52,1.17,3.04,2.35,4.55,3.52c2.58,1.64,5.37,2.53,8.37,2.67c1.99,0.54,3.99,0.54,5.98,0
				c2.99-0.14,5.78-1.03,8.37-2.67c3.25-2.1,5.97-4.82,8.07-8.07c1.64-2.58,2.53-5.37,2.67-8.37c0.67-2.99,0.54-5.98-0.4-8.97
				c-4.87-13.17-11-25.84-19.1-37.33c-8.08-11.44-17.21-22.14-27.95-31.17c-6.68-5.62-13.7-10.91-21.14-15.49
				c-2.58-1.64-5.37-2.53-8.37-2.67c-2.99-0.67-5.98-0.54-8.97,0.4c-2.93,0.7-5.48,2.04-7.65,4.03c-2.45,1.59-4.38,3.69-5.8,6.31
				c-2.76,5.22-4.14,11.55-2.27,17.34c0.76,1.79,1.51,3.58,2.27,5.37c2,3.38,4.69,6.07,8.07,8.07c0.32,0.24,0.64,0.48,0.95,0.73
				c-1.52-1.17-3.04-2.35-4.55-3.52c4.32,3.37,8.21,7.23,11.57,11.56c-1.17-1.52-2.35-3.04-3.52-4.55
				c2.99,3.91,5.51,8.15,7.45,12.68c-0.76-1.79-1.51-3.58-2.27-5.37c1.74,4.17,2.94,8.52,3.55,13c-0.27-1.99-0.54-3.99-0.8-5.98
				c0.54,4.29,0.54,8.61-0.03,12.9c0.27-1.99,0.54-3.99,0.8-5.98c-0.55,3.85-1.55,7.6-3.05,11.19c0.76-1.79,1.51-3.58,2.27-5.37
				c-1.43,3.33-3.26,6.44-5.48,9.31c1.17-1.52,2.35-3.04,3.52-4.55c-2.56,3.26-5.53,6.14-8.81,8.67c1.52-1.17,3.04-2.35,4.55-3.52
				c-4.27,3.25-8.95,5.87-13.88,7.97c1.79-0.76,3.58-1.51,5.37-2.27c-8.8,3.69-18.19,5.6-27.6,6.87c1.99-0.27,3.99-0.54,5.98-0.8
				c-9.46,1.25-18.99,2.01-28.49,2.92c-9.77,0.94-19.55,1.87-29.32,2.81c-4.97,0.48-10.03,1.19-15.02,0.56
				c1.99,0.27,3.99,0.54,5.98,0.8c-1.66-0.24-3.27-0.64-4.82-1.27c1.79,0.76,3.58,1.51,5.37,2.27c-1.26-0.55-2.42-1.22-3.52-2.05
				c1.52,1.17,3.04,2.35,4.55,3.52c-1.15-0.91-2.15-1.94-3.05-3.1c1.17,1.52,2.35,3.04,3.52,4.55c-1.17-1.56-2.1-3.25-2.87-5.04
				c0.76,1.79,1.51,3.58,2.27,5.37c-1.9-4.52-2.77-9.38-3.48-14.2c-0.7-2.93-2.04-5.48-4.03-7.65c-1.59-2.45-3.69-4.38-6.31-5.8
				c-2.58-1.64-5.37-2.53-8.37-2.67c-2.99-0.67-5.98-0.54-8.97,0.4c-5.44,1.76-10.7,5.14-13.45,10.34
				c-0.76,1.79-1.51,3.58-2.27,5.37C91.61,383.6,91.61,387.58,92.68,391.57L92.68,391.57z"/>
		</g>
	</g>
	<g>
		<g>
			<path class="st0" d="M143.15,287.16c-0.26,0.26-0.53,0.49-0.82,0.72c1.52-1.17,3.04-2.35,4.55-3.52
				c-0.59,0.43-1.21,0.79-1.88,1.09c1.79-0.76,3.58-1.51,5.37-2.27c-0.8,0.32-1.6,0.53-2.45,0.66c1.99-0.27,3.99-0.54,5.98-0.8
				c-0.73,0.08-1.44,0.08-2.17,0c1.99,0.27,3.99,0.54,5.98,0.8c-0.74-0.11-1.4-0.32-2.1-0.54c-1-0.13-1.99-0.27-2.99-0.4
				c-1.99-0.54-3.99-0.54-5.98,0c-1,0.13-1.99,0.27-2.99,0.4c-1.79,0.76-3.58,1.51-5.37,2.27c-1.27,0.74-3.57,2.73-4.71,3.64
				c-0.2,0.16-0.41,0.33-0.61,0.49c-1.26,1.02-2.51,2.07-3.73,3.14c-2.44,2.14-4.8,4.38-7.08,6.7
				c-5.79,5.92-10.96,12.44-15.84,19.13c-8.74,12-15.27,25.44-20.32,39.38c-2.21,6.11-3.99,12.38-5.3,18.75
				c-1.69,8.18-2.82,16.56-3.3,24.9c-0.49,8.5-0.11,16.94,1.32,25.35c0.28,1.67,0.71,3.31,1.33,4.89c0.95,2.4,1.87,4.91,3.13,7.18
				c1.28,2.31,3.1,4.37,4.74,6.4c2.02,2.5,4.79,4.39,7.35,6.24c2.61,1.9,5.76,2.95,8.71,4.17c4.41,1.82,9.44,2.27,14.11,2.7
				c3,0.28,6.02,0.23,9.03,0.08c8.16-0.41,16.32-0.95,24.47-1.45c16.69-1.02,33.37-2.08,50.05-3.2c16.6-1.11,33.19-2.27,49.78-3.47
				c8.3-0.6,16.59-1.22,24.88-1.84c4.15-0.31,8.29-0.63,12.44-0.95c1.95-0.15,3.89-0.28,5.84-0.46c3.53-0.33,7.13-0.67,10.58-1.51
				c0.77-0.19,1.53-0.43,2.27-0.72c2.42-0.94,5.07-1.84,7.3-3.25c0.34-0.21,0.65-0.45,0.97-0.69c1.71-1.28,3.53-2.54,5.11-3.99
				c1.87-1.73,3.38-3.99,4.83-6.03c0.42-0.59,0.79-1.2,1.11-1.86c1.12-2.33,2.23-4.76,3-7.24c0.22-0.71,0.37-1.43,0.49-2.16
				c0.43-2.63,0.91-5.33,0.98-8.01c0.02-0.74-0.01-1.48-0.08-2.21c-0.28-2.79-0.59-5.63-1.19-8.38c-0.4-1.84-1.02-3.62-1.73-5.35
				c-2.19-5.33-4.6-10.5-7.1-15.68c-7.18-14.93-14.36-29.87-21.53-44.8c-1.76-3.66-3.52-7.32-5.28-10.98
				c-1.41-2.62-3.35-4.73-5.8-6.31c-2.17-1.99-4.72-3.33-7.65-4.03c-2.99-0.94-5.98-1.07-8.97-0.4c-2.99,0.14-5.78,1.03-8.37,2.67
				c-4.8,3.1-9.03,7.71-10.34,13.45c-0.27,1.99-0.54,3.99-0.8,5.98c0.01,4.06,1.04,7.85,3.07,11.36c7.5,15.67,15,31.34,22.49,47.02
				c2.12,4.42,4.23,8.85,6.35,13.27c1.41,2.62,3.35,4.73,5.8,6.31c2.17,1.99,4.72,3.33,7.65,4.03c2.99,0.94,5.98,1.07,8.97,0.4
				c2.99-0.14,5.78-1.03,8.37-2.67c4.8-3.1,9.03-7.71,10.34-13.45c0.27-1.99,0.54-3.99,0.8-5.98c-0.01-4.06-1.04-7.85-3.07-11.36
				c-7.5-15.67-15-31.34-22.49-47.02c-2.12-4.42-4.23-8.85-6.35-13.27c-12.95,7.57-25.9,15.14-38.86,22.71
				c8.22,17.1,16.44,34.2,24.66,51.3c2.26,4.7,4.66,9.37,6.72,14.16c-0.76-1.79-1.51-3.58-2.27-5.37c1.05,2.5,1.91,5.06,2.3,7.75
				c-0.27-1.99-0.54-3.99-0.8-5.98c0.19,1.51,0.2,3,0.03,4.51c0.27-1.99,0.54-3.99,0.8-5.98c-0.19,1.35-0.52,2.64-1.04,3.89
				c0.76-1.79,1.51-3.58,2.27-5.37c-0.4,0.89-0.87,1.71-1.44,2.5c1.17-1.52,2.35-3.04,3.52-4.55c-0.53,0.67-1.1,1.27-1.76,1.81
				c1.52-1.17,3.04-2.35,4.55-3.52c-0.85,0.65-1.74,1.17-2.72,1.59c1.79-0.76,3.58-1.51,5.37-2.27c-1.62,0.66-3.31,1.02-5.04,1.27
				c1.99-0.27,3.99-0.54,5.98-0.8c-5.73,0.75-11.55,0.97-17.31,1.41c-6.05,0.46-12.11,0.91-18.16,1.36
				c-11.94,0.88-23.89,1.74-35.84,2.57c-24.06,1.67-48.13,3.25-72.21,4.72c-6.81,0.42-13.62,0.82-20.42,1.22
				c-5.33,0.31-10.68,0.75-16,0.09c1.99,0.27,3.99,0.54,5.98,0.8c-2.3-0.31-4.56-0.84-6.7-1.74c1.79,0.76,3.58,1.51,5.37,2.27
				c-1.23-0.54-2.39-1.2-3.47-2c1.52,1.17,3.04,2.35,4.55,3.52c-0.99-0.77-1.87-1.64-2.66-2.63c1.17,1.52,2.35,3.04,3.52,4.55
				c-0.81-1.08-1.47-2.23-2-3.47c0.76,1.79,1.51,3.58,2.27,5.37c-0.82-2.02-1.29-4.13-1.59-6.29c0.27,1.99,0.54,3.99,0.8,5.98
				c-1.17-9.16-0.61-18.72,0.6-27.84c-0.27,1.99-0.54,3.99-0.8,5.98c1.6-11.87,4.8-23.47,9.42-34.51c-0.76,1.79-1.51,3.58-2.27,5.37
				c4.61-10.91,10.59-21.2,17.83-30.58c-1.17,1.52-2.35,3.04-3.52,4.55c6.3-8.12,13.52-15.49,21.54-21.91
				c-7.3,1.93-14.59,3.86-21.89,5.79c5.36,2.04,11.49,1.54,16.96,0.42c5.31-1.09,10.51-4.43,14.36-8.14
				c2.19-2.04,3.74-4.45,4.65-7.24c1.41-2.68,2.05-5.57,1.94-8.67c0.12-3.1-0.53-5.99-1.94-8.67c-0.91-2.79-2.46-5.2-4.65-7.24
				c-4.29-3.94-9.92-6.86-15.91-6.59c-1.99,0.27-3.99,0.54-5.98,0.8C149.27,282.45,145.96,284.38,143.15,287.16L143.15,287.16z"/>
		</g>
	</g>
	<g>
		<g>
			<path class="st0" d="M324.71,393.36c0.1-0.31,0.18-0.62,0.23-0.94c0.17-1.05,0.3-2.19,0.43-3.18c0.13-0.96,0.32-2.12,0.42-3.18
				c0.02-0.16,0.02-0.32,0.03-0.49c0.01-0.33-0.02-0.65-0.06-0.97c-0.25-1.98-0.51-4.16-0.83-6.13c-0.01-0.08-0.03-0.16-0.04-0.24
				c-0.03-0.16-0.07-0.32-0.11-0.47c-0.56-2.04-2.09-5.15-2.56-6.2c-0.13-0.28-0.26-0.56-0.42-0.82c-0.08-0.14-0.17-0.27-0.27-0.4
				c-1.11-1.54-2.43-3.17-3.6-4.67c-0.05-0.06-0.1-0.13-0.15-0.19c-0.22-0.26-0.46-0.5-0.72-0.73c-2.04-2.19-4.45-3.74-7.24-4.65
				c-2.68-1.41-5.57-2.05-8.67-1.94c-3.1-0.12-5.99,0.53-8.67,1.94c-2.79,0.91-5.2,2.46-7.24,4.65c-1.17,1.52-2.35,3.04-3.52,4.55
				c-2.04,3.51-3.06,7.29-3.07,11.36c0.27,1.99,0.54,3.99,0.8,5.98c1.07,3.81,3,7.12,5.79,9.93c0.32,0.28,0.61,0.58,0.87,0.92
				c-1.17-1.52-2.35-3.04-3.52-4.55c0.31,0.42,0.57,0.87,0.78,1.34c-0.76-1.79-1.51-3.58-2.27-5.37c0.23,0.54,0.38,1.11,0.47,1.69
				c-0.27-1.99-0.54-3.99-0.8-5.98c0.07,0.55,0.08,1.1,0.01,1.65c0.27-1.99,0.54-3.99,0.8-5.98c-0.05,0.39-0.14,0.77-0.26,1.14
				c-0.94,2.99-1.07,5.98-0.4,8.97c0.14,2.99,1.03,5.78,2.67,8.37c1.41,2.62,3.35,4.73,5.8,6.31c2.17,1.99,4.72,3.33,7.65,4.03
				c1.99,0.27,3.99,0.54,5.98,0.8c4.06-0.01,7.85-1.04,11.36-3.07c1.52-1.17,3.04-2.35,4.55-3.52
				C321.71,400.48,323.64,397.17,324.71,393.36L324.71,393.36z"/>
		</g>
	</g>
	<g>
		<g>
			<path class="st0" d="M289.24,422.53c-2.15,4.13-3.21,7.17-3.28,11.87c-0.03,2.27,0.24,4.58,0.85,6.78
				c1.18,4.25,3.49,7.99,6.6,11.08c4.52,4.49,10.88,7.12,17.25,7.13c2.31,0.01,4.63-0.39,6.86-0.96c4.01-1.02,5.35-2.13,8.19-4.32
				c2.89-2.23,5.13-4.33,6.92-7.76c2.21-4.24,3.41-8.23,3.41-13.07c0-5.8-1.98-11.59-5.25-16.34c-1.17-1.52-2.35-3.04-3.52-4.55
				c-1.52-1.17-3.04-2.35-4.55-3.52c-1.79-0.76-3.58-1.51-5.37-2.27c-2.99-0.94-5.98-1.07-8.97-0.4c-2.03,0.01-3.92,0.52-5.68,1.54
				c-1.91,0.53-3.56,1.5-4.96,2.89c-1.69,1-3.04,2.35-4.04,4.04c-1.99,2.17-3.33,4.72-4.03,7.65c-0.11,0.34-0.24,0.67-0.38,1
				c0.76-1.79,1.51-3.58,2.27-5.37c-0.35,0.76-0.76,1.46-1.25,2.13c1.17-1.52,2.35-3.04,3.52-4.55c-0.74,0.95-1.58,1.77-2.52,2.51
				c1.52-1.17,3.04-2.35,4.55-3.52c-1.08,0.8-2.23,1.45-3.46,1.98c1.79-0.76,3.58-1.51,5.37-2.27c-1.67,0.68-3.39,1.09-5.17,1.33
				c1.99-0.27,3.99-0.54,5.98-0.8c-5.09,0.59-10.24-0.12-15.31-0.56c-5.21-0.46-10.43-0.91-15.64-1.37
				c-10.51-0.92-21.03-1.83-31.54-2.75c-3.1-0.12-5.99,0.53-8.67,1.94c-2.79,0.91-5.2,2.46-7.24,4.65
				c-2.19,2.04-3.74,4.45-4.65,7.24c-1.41,2.68-2.05,5.57-1.94,8.67c0.26,5.82,2.17,11.85,6.59,15.91c1.52,1.17,3.04,2.35,4.55,3.52
				c3.51,2.04,7.29,3.06,11.36,3.07c11.42,1,22.85,1.99,34.27,2.99c5.63,0.49,11.26,0.98,16.89,1.47c2.68,0.23,5.36,0.48,8.06,0.44
				c3.11-0.05,6.19-0.59,9.26-1.02c1.29-0.18,2.57-0.42,3.81-0.82c2.88-0.94,5.73-2.1,8.38-3.57c2.5-1.39,4.77-3.33,6.94-5.16
				c0.45-0.38,0.89-0.8,1.28-1.24c1.58-1.76,3.08-3.72,4.4-5.66c1.69-2.48,2.74-5.4,3.69-8.23c-13.71,1.79-27.42,3.58-41.12,5.37
				c0.64,0.93,1.25,1.87,1.71,2.91c-0.76-1.79-1.51-3.58-2.27-5.37c0.2,0.53,0.34,1.04,0.44,1.6c-0.27-1.99-0.54-3.99-0.8-5.98
				c0.03,0.33,0.03,0.63,0.01,0.95c0.27-1.99,0.54-3.99,0.8-5.98c-0.06,0.43-0.16,0.83-0.32,1.24c0.76-1.79,1.51-3.58,2.27-5.37
				c-0.14,0.29-0.28,0.55-0.47,0.81c1.17-1.52,2.35-3.04,3.52-4.55c-0.21,0.25-0.4,0.44-0.66,0.63c1.52-1.17,3.04-2.35,4.55-3.52
				c-0.17,0.12-0.35,0.21-0.54,0.29c1.79-0.76,3.58-1.51,5.37-2.27c-0.19,0.08-0.38,0.13-0.58,0.15c1.99-0.27,3.99-0.54,5.98-0.8
				c-0.19,0.02-0.39,0.01-0.58-0.03c1.99,0.27,3.99,0.54,5.98,0.8c-0.19-0.04-0.38-0.1-0.55-0.19c1.79,0.76,3.58,1.51,5.37,2.27
				c-0.18-0.09-0.34-0.19-0.5-0.32c1.52,1.17,3.04,2.35,4.55,3.52c-0.15-0.12-0.29-0.26-0.41-0.41c1.17,1.52,2.35,3.04,3.52,4.55
				c-0.12-0.15-0.22-0.31-0.3-0.48c0.76,1.79,1.51,3.58,2.27,5.37c-0.08-0.17-0.13-0.34-0.16-0.52c0.27,1.99,0.54,3.99,0.8,5.98
				c-0.03-0.18-0.02-0.36,0.01-0.53c-0.27,1.99-0.54,3.99-0.8,5.98c0.03-0.09,0.05-0.18,0.08-0.26c-0.76,1.79-1.51,3.58-2.27,5.37
				c0.04-0.08,0.09-0.17,0.13-0.25c1.64-2.58,2.53-5.37,2.67-8.37c0.67-2.99,0.54-5.98-0.4-8.97c-0.7-2.93-2.04-5.48-4.03-7.65
				c-1.59-2.45-3.69-4.38-6.31-5.8c-5.22-2.76-11.55-4.14-17.34-2.27C297.26,413.95,291.95,417.32,289.24,422.53L289.24,422.53z"/>
		</g>
	</g>
	<g>
		<g>
			<path class="st0" d="M89.35,459.17C89.36,459.17,89.36,459.17,89.35,459.17c-1.1,0.15-2.21,0.3-3.32,0.45c0.03,0,0.05,0,0.08,0
				c-1.11-0.15-2.22-0.3-3.32-0.45c0.03,0,0.05,0.01,0.08,0.02c-1-0.42-1.99-0.84-2.99-1.26c0.03,0.01,0.05,0.03,0.08,0.05
				c-0.84-0.65-1.69-1.3-2.53-1.95c0.03,0.02,0.06,0.05,0.08,0.08c-0.65-0.84-1.3-1.69-1.95-2.53c0.02,0.03,0.05,0.07,0.06,0.11
				c-0.42-1-0.84-1.99-1.26-2.99c0.02,0.04,0.03,0.08,0.03,0.12c-0.15-1.11-0.3-2.22-0.45-3.32c0,0.03,0.01,0.07,0,0.1
				c0.15-1.11,0.3-2.22,0.45-3.32c0,0.03-0.01,0.06-0.02,0.09c0.42-1,0.84-1.99,1.26-2.99c-0.01,0.02-0.02,0.05-0.04,0.07
				c0.65-0.84,1.3-1.69,1.95-2.53c-0.02,0.02-0.04,0.04-0.06,0.06c0.84-0.65,1.69-1.3,2.53-1.95c-0.02,0.02-0.04,0.03-0.07,0.04
				c1-0.42,1.99-0.84,2.99-1.26c-0.03,0.01-0.05,0.02-0.08,0.02c1.11-0.15,2.22-0.3,3.32-0.45c-0.04,0-0.07,0-0.11,0
				c1.11,0.15,2.22,0.3,3.32,0.45c-0.04-0.01-0.08-0.02-0.12-0.03c1,0.42,1.99,0.84,2.99,1.26c-0.04-0.02-0.08-0.04-0.11-0.07
				c0.84,0.65,1.69,1.3,2.53,1.95c-0.03-0.02-0.05-0.05-0.08-0.08c0.65,0.84,1.3,1.69,1.95,2.53c-0.02-0.03-0.04-0.05-0.05-0.08
				c0.42,1,0.84,1.99,1.26,2.99c-0.01-0.03-0.02-0.05-0.02-0.08c0.15,1.11,0.3,2.22,0.45,3.32c0-0.03,0-0.05,0-0.08
				c-0.15,1.11-0.3,2.22-0.45,3.32c0,0,0,0,0-0.01c0.52-1.66,0.6-3.32,0.22-4.98c-0.08-1.66-0.57-3.21-1.48-4.65
				c-0.79-1.46-1.86-2.63-3.22-3.51c-1.21-1.1-2.62-1.85-4.25-2.24c-1.11-0.15-2.22-0.3-3.32-0.45c-2.26,0.01-4.36,0.58-6.31,1.71
				c-0.84,0.65-1.69,1.3-2.53,1.95c-1.55,1.56-2.62,3.4-3.21,5.52c-0.08,0.56-0.15,1.11-0.22,1.67c0.29-2.16-0.18,1.13-0.22,1.67
				c0,0.01,0,0.01,0,0.02c0,0.01,0,0.02,0,0.02c0,0,0,0.01,0,0.01c0,0,0,0.01,0,0.01c0.15,1.11,0.3,2.22,0.45,3.32
				c0,0.01,0,0.03,0.01,0.04c0,0.01,0,0.02,0.01,0.02c0,0,0,0.01,0,0.01c0.01,0.03,1.25,2.96,1.26,2.99
				c0.01,0.01,0.01,0.03,0.02,0.04c0,0.01,0.01,0.01,0.01,0.02c0.3,0.44,1.33,1.72,0.99,1.28c-0.24-0.31,0.64,0.88,0.99,1.28
				c0,0.01,0.01,0.01,0.01,0.02c0.01,0.01,0.02,0.02,0.04,0.03c0,0,0.01,0.01,0.01,0.01c0.03,0.03,2.5,1.93,2.53,1.96
				c0.01,0.01,0.01,0.01,0.02,0.01c0.01,0.01,0.03,0.02,0.04,0.03c0.97,0.53,2.01,0.96,3.07,1.3c0.01,0,0.03,0.01,0.05,0.01
				c0.01,0,0.02,0,0.02,0c0.55,0.09,2.53,0.34,1.67,0.22c0.55,0.08,1.11,0.16,1.67,0.22c0,0,0,0,0.01,0c0.02,0,0.03,0,0.05,0
				c0.01,0,0.02,0,0.02,0c0.55-0.04,2.34-0.31,1.69-0.23c-0.62,0.08,1.13-0.12,1.68-0.23c0.01,0,0.02,0,0.02-0.01
				c0.01,0,0.02,0,0.02-0.01c0,0,0.01,0,0.01,0c0.08-0.03,2.91-1.23,2.99-1.26c0.01-0.01,0.03-0.01,0.04-0.02
				c0.91-0.57,1.74-1.28,2.56-1.98c0.01-0.01,0.02-0.02,0.03-0.03c0,0,0-0.01,0.01-0.01c0.04-0.05,1.92-2.48,1.96-2.54
				c0.01-0.01,0.01-0.02,0.02-0.02c0.01-0.01,0.01-0.03,0.02-0.04c0.01-0.02,1.25-2.97,1.26-2.99c0,0,0-0.01,0-0.01
				c0-0.01,0.01-0.02,0.01-0.03c0-0.01,0.01-0.03,0.01-0.04c0.18-1.11,0.43-2.24,0.45-3.37c0-0.02,0-0.03,0-0.05
				c-0.1-1.13-0.24-2.25-0.45-3.37c-0.01-0.03-0.02-0.06-0.03-0.1c-0.02-0.05-1.24-2.95-1.26-2.99c0,0,0-0.01,0-0.01
				c0-0.01-0.01-0.02-0.01-0.02c-0.01-0.01-0.02-0.03-0.03-0.04c-0.01-0.01-0.01-0.02-0.02-0.02c-0.03-0.04-1.92-2.49-1.96-2.53
				c0,0-0.01-0.01-0.01-0.01c-0.01-0.01-0.02-0.03-0.04-0.04c-0.79-0.74-1.69-1.36-2.57-1.99c-0.01-0.01-0.03-0.02-0.04-0.03
				c-0.01,0-0.02-0.01-0.02-0.01c-0.02-0.01-2.97-1.25-2.99-1.26c-0.01,0-0.01,0-0.02-0.01c-0.02-0.01-0.03-0.01-0.05-0.01
				c-1.11-0.21-2.24-0.43-3.37-0.45c-0.01,0-0.02,0-0.02,0c0,0-0.01,0-0.01,0c-0.17,0.01-3.17,0.43-3.33,0.45
				c-1.63,0.39-3.04,1.13-4.25,2.24c-1.36,0.88-2.43,2.05-3.22,3.51c-0.91,1.43-1.41,2.98-1.48,4.65c-0.37,1.66-0.3,3.32,0.22,4.98
				c0.42,1,0.84,1.99,1.26,2.99c1.11,1.88,2.61,3.37,4.48,4.48c1,0.42,1.99,0.84,2.99,1.26C84.92,459.76,87.14,459.76,89.35,459.17
				L89.35,459.17z"/>
		</g>
	</g>
	<g>
		<g>
			<path class="st0" d="M73.34,451.21c1.6,0.2,3.2,0.39,4.8,0.59c0.43,0.74,0.86,1.47,1.29,2.21c0.03,0.28,0.07,0.55,0.1,0.83
				c-0.23,0.84-0.46,1.68-0.68,2.52c-0.72,0.55-1.44,1.11-2.16,1.66c-0.89,0-1.77,0-2.66,0c6.38,1.43,13.23,0.68,19.71,0.54
				c6.38-0.14,12.76-0.28,19.13-0.42c12.84-0.28,25.68-0.56,38.52-0.84c25.59-0.56,51.18-1.11,76.77-1.67
				c14.47-0.31,28.93-0.63,43.4-0.94c2.61-0.06,5.12-2.26,5-5c-0.12-2.66-2.2-5.06-5-5c-27.35,0.59-54.7,1.19-82.05,1.78
				c-27.2,0.59-54.4,1.18-81.61,1.77c-7.62,0.17-15.24,0.33-22.86,0.5c-1.86,0.04-3.72,0.09-5.58-0.01c-0.4-0.02-0.8-0.05-1.21-0.09
				c-0.24-0.02-0.48-0.05-0.72-0.08c0.53,0.07,0.5,0.06-0.1-0.04c-1.46-0.31-2.86-0.45-4.27,0.15c-3.14,1.33-4.65,5.15-2.88,8.18
				c1.56,2.67,5.47,3.8,8.1,1.99c2.15-1.49,3.33-4.45,1.79-6.84C78.8,450.87,75.64,449.62,73.34,451.21L73.34,451.21z"/>
		</g>
	</g>
	<g>
		<g>
			<path class="st0" d="M323.09,447.78c1.64,3.42,3.28,6.84,4.92,10.25c1.44-2.51,2.88-5.02,4.32-7.52
				c-8.12-0.18-16.24-0.36-24.35-0.54c0,3.33,0,6.67,0,10c3.06-0.02,6.13-0.05,9.19-0.07c2.85-0.02,5.79,0.17,8.62-0.15
				c3.96-0.44,7.03-2.37,8.48-6.19c1.18-3.09,0.38-6.45-0.75-9.42c-3.21,0.89-6.43,1.77-9.64,2.66c1.84,4.49,3.69,8.99,5.53,13.48
				c0.99,2.41,3.37,4.39,6.15,3.49c2.46-0.79,4.39-3.5,3.49-6.15c-2.18-6.45-4.37-12.89-6.55-19.34c-0.84-2.47-3.48-4.36-6.15-3.49
				c-2.46,0.79-4.39,3.5-3.49,6.15c2.18,6.45,4.37,12.89,6.55,19.34c3.21-0.89,6.43-1.77,9.64-2.66c-1.84-4.49-3.69-8.99-5.53-13.48
				c-0.99-2.41-3.37-4.39-6.15-3.49c-2.38,0.77-4.49,3.53-3.49,6.15c0.22,0.57,0.43,1.13,0.62,1.71c0.07,0.22,0.45,2.02,0.32,0.87
				c0.02,0.15-0.04,1.68,0.07,0.84c0.07-0.43,0.06-0.42-0.04,0.03c-0.17,0.52-0.12,0.45,0.14-0.22c-0.28,0.46-0.21,0.41,0.21-0.16
				c-0.38,0.37-0.31,0.33,0.2-0.1c-0.49,0.26-0.43,0.24,0.18-0.06c-0.24,0.07-0.48,0.13-0.73,0.17c0.19-0.03,0.38-0.06,0.57-0.08
				c-0.26,0.02-0.51,0.03-0.77,0.04c-0.59,0.02-1.17,0.02-1.76,0.02c-4.97,0.04-9.94,0.08-14.9,0.11c-2.61,0.02-5.12,2.29-5,5
				c0.12,2.76,2.2,4.94,5,5c8.12,0.18,16.24,0.36,24.35,0.54c1.75,0.04,3.44-0.98,4.32-2.48c0.96-1.64,0.79-3.4,0-5.05
				c-1.64-3.42-3.28-6.84-4.92-10.25c-1.14-2.36-4.7-3.17-6.84-1.79C322.46,442.51,321.88,445.25,323.09,447.78L323.09,447.78z"/>
		</g>
	</g>
	<g>
		<g>
			<path class="st0" d="M73.32,348.96c4.75-0.79,9.98-1.16,14.76-0.37c1.96,0.32,2.58,1.25,2.77,3.2c0.24,2.51,0.23,5.07,0.3,7.59
				c0.29,10.71,0.14,21.43-0.47,32.12c-0.06,1.14-0.07,2.31-0.22,3.45c-0.06,0.47-0.13,1.16-0.54,1.47c-0.6,0.44-2.1,0.25-2.76,0.27
				c-1.35,0.06-2.7,0.12-4.05,0.18c-2.25,0.1-4.6,0.39-6.85,0.16c-1.51-0.16-2.83-0.72-3.42-2.21c-0.72-1.84-0.55-3.96-0.49-5.89
				c0.07-2.64,0.14-5.29,0.21-7.93c0.14-5.37,0.29-10.74,0.43-16.11c0.08-2.97,0.16-5.95,0.24-8.92c0.04-1.49,0.08-2.97,0.12-4.46
				c0.02-0.93-0.24-2.43,0.16-3.31c0.54-1.18,4.35-0.28,5.39-0.17c2.95,0.32,5.89,0.63,8.84,0.95c1.34,0.14,2.5-1.25,2.5-2.5
				c0-1.47-1.15-2.36-2.5-2.5c-3.03-0.32-6.05-0.65-9.08-0.97c-2.43-0.26-5.05-0.69-7.31,0.53c-2.66,1.43-2.91,4.27-2.98,6.98
				c-0.08,3.14-0.17,6.28-0.25,9.42c-0.16,6.11-0.33,12.22-0.49,18.34c-0.08,3.06-0.16,6.11-0.24,9.17
				c-0.07,2.56-0.23,5.16,0.34,7.68c0.56,2.49,2.07,4.76,4.41,5.89c2.31,1.12,4.9,1.13,7.4,1.02c2.94-0.13,5.88-0.24,8.82-0.39
				c2.93-0.15,5.48-1.06,6.58-4c0.9-2.4,0.71-5.35,0.84-7.88c0.16-3.15,0.29-6.3,0.37-9.46c0.17-6.14,0.19-12.29,0.06-18.43
				c-0.07-3.35-0.07-6.74-0.36-10.08c-0.26-3-1.25-5.94-4.17-7.3c-2.84-1.32-6.45-1.23-9.52-1.23c-3.41,0-6.8,0.33-10.16,0.89
				c-1.33,0.22-2.08,1.87-1.75,3.08C70.63,348.63,71.98,349.18,73.32,348.96L73.32,348.96z"/>
		</g>
	</g>
	<g>
		<g>
			<path class="st1" d="M67.3,345.87c-3.85-1.34-5.86-5.94-7.37-9.38c-1.94-4.45-3.25-9.26-3.89-14.07
				c-0.33-2.49-0.47-5.01-0.45-7.52c0.02-2.42,0.33-4.8,0.49-7.21c0.16-2.3-0.26-4.73-2-6.38c-1.7-1.61-4.14-1.94-6.39-1.88
				c-4.43,0.12-9.56,0.62-12.69,4.15c-3.05,3.44-3.3,8.23-3.07,12.6c0.29,5.46,0.68,10.92,1.02,16.38c0.09,1.41,0.18,2.81,0.26,4.22
				c0.06,0.91,0.24,1.99-0.04,2.86c-0.46,1.41-3.54,0.67-4.62,0.6c-3.16-0.2-6.31-0.39-9.47-0.59c-2.5-0.15-5.15-0.26-7.54,0.61
				c-2.69,0.98-4.6,2.94-5.62,5.6c-1.08,2.82-0.78,5.88-0.39,8.8c0.18,1.34,1.02,2.5,2.5,2.5c1.21,0,2.68-1.15,2.5-2.5
				c-0.52-3.92-1.1-9.22,3.95-10.01c2.06-0.32,4.27-0.02,6.34,0.11c2.66,0.17,5.32,0.33,7.98,0.5c2.26,0.14,4.7,0.4,6.72-0.86
				c2.1-1.31,2.78-3.71,2.77-6.05c-0.01-2.51-0.29-5.03-0.44-7.53c-0.17-2.73-0.34-5.46-0.51-8.19c-0.15-2.46-0.35-4.92-0.44-7.38
				c-0.07-1.95-0.06-3.92,0.49-5.81c1.15-3.96,5.01-4.69,8.65-4.92c1.21-0.08,3.89-0.6,4.77,0.58c0.88,1.18,0.19,3.61,0.06,4.94
				c-0.47,4.87-0.25,9.76,0.5,14.59c0.84,5.41,2.5,10.65,4.81,15.61c2.09,4.47,4.94,8.78,9.8,10.46c1.28,0.44,2.73-0.5,3.08-1.75
				C69.43,347.57,68.58,346.32,67.3,345.87L67.3,345.87z"/>
		</g>
	</g>
	<g>
		<g>
			<path class="st1" d="M5.5,354.68c-0.1,5.03-0.21,10.06-0.31,15.08c-0.1,4.71-0.54,9.57,0.19,14.24
				c1.42,9.09,10.04,14.05,18.38,15.57c9.07,1.65,18.56,1.23,27.52-0.89c4.45-1.05,8.78-2.58,12.93-4.49c2.05-0.95,3.83-2.3,4.4-4.6
				c0.56-2.26,0.31-4.82,0.35-7.13c0.21-11.29,0.41-22.58,0.62-33.87c0.06-3.22-4.94-3.22-5,0c-0.17,9.3-0.34,18.59-0.51,27.89
				c-0.04,2.32-0.08,4.65-0.13,6.97c-0.02,1.08-0.04,2.16-0.06,3.24c-0.01,0.66,0.1,1.54-0.31,2.1c-0.39,0.53-1.32,0.83-1.89,1.09
				c-0.9,0.41-1.8,0.8-2.72,1.16c-1.96,0.77-3.95,1.45-5.97,2.03c-8.03,2.31-16.45,3.03-24.76,2.14
				c-6.79-0.73-15.46-3.16-17.62-10.59c-0.62-2.13-0.63-4.36-0.59-6.56c0.04-2.59,0.1-5.19,0.16-7.78
				c0.11-5.19,0.22-10.39,0.32-15.58C10.57,351.46,5.57,351.46,5.5,354.68L5.5,354.68z"/>
		</g>
	</g>
	<g>
		<g>
			<path class="st1" d="M45.82,317.42c1.45-0.63,2.9-1.25,4.34-1.88c-3.42-3.42-6.84-6.84-10.26-10.26
				c-2.12,3.37-4.68,6.75-5.84,10.61c-1.59,5.3,0.36,11.23,5.15,14.13c3.25,1.97,8.53,0.94,10.26-2.69c0.51-1.07,1.02-2.13,1.53-3.2
				c-4.57-0.6-9.14-1.19-13.71-1.79c0.28,1.39,0.55,2.78,0.83,4.17c0.73,3.65,4.79,5.83,8.23,5.37c3.9-0.52,6.15-3.6,6.5-7.37
				c0.13-1.44,0.27-2.89,0.4-4.33c-5,0-10,0-15,0c0.1,1.22,0.07,2.43-0.07,3.64c0.09-0.66,0.18-1.33,0.27-1.99
				c-0.21,1.49-0.6,2.91-1.16,4.3c0.25-0.6,0.5-1.19,0.76-1.79c-0.35,0.81-0.74,1.6-1.2,2.35c-0.21,0.35-0.45,0.67-0.67,1.01
				c-0.34,0.46-0.15,0.23,0.56-0.71c-0.17,0.21-0.35,0.41-0.53,0.61c4.18,2.43,8.36,4.86,12.54,7.3c0.64-1.71,1.28-3.42,1.92-5.13
				c-4.57,0.6-9.14,1.19-13.71,1.79c1.8,3.63,6.27,5.09,10.03,4.26c3.62-0.79,5.92-3.72,7.13-7.02c1.56-4.24,1.38-9.36,0.18-13.66
				c-1.01-3.61-4.57-5.86-8.23-5.37c-3.52,0.47-6.68,3.62-6.5,7.37c0.15,3.28,0.31,6.57,0.46,9.85c0.07,1.56,0.15,3.12,0.22,4.68
				c0.07,1.53,0.29,3.13,0.11,4.66c0.09-0.66,0.18-1.33,0.27-1.99c-0.04,0.23-0.1,0.46-0.19,0.68c0.25-0.6,0.5-1.19,0.76-1.79
				c0.35-0.54,0.78-0.99,1.31-1.34c0.62-0.43,0.7-0.52,0.24-0.27c0.6-0.25,1.19-0.5,1.79-0.76c-0.69,0.25-1.42,0.37-2.12,0.61
				c-2.31,0.78-4.3,2.18-5.55,4.32c-0.96,1.64-1.35,3.48-1.39,5.37c-0.02,0.82,0.12,1.63,0.01,2.44c0.09-0.66,0.18-1.33,0.27-1.99
				c-0.06,0.3-0.14,0.57-0.25,0.86c0.25-0.6,0.5-1.19,0.76-1.79c-0.25,0.45-0.15,0.35,0.29-0.29c0.39-0.59,0.9-1.06,1.52-1.42
				c0.6-0.25,1.19-0.5,1.79-0.76c-0.08,0.03-0.17,0.05-0.25,0.08c0.66-0.09,1.33-0.18,1.99-0.27c-0.09,0.01-0.18,0.02-0.27,0.03
				c-2.72,0.31-5.02,1.23-6.48,3.71c-1.45,2.47-1.17,5.08,0,7.57c0.05,0.1,0.09,0.2,0.14,0.3c-0.25-0.6-0.5-1.19-0.76-1.79
				c0.03,0.1,0.05,0.21,0.08,0.31c-0.09-0.66-0.18-1.33-0.27-1.99c0.03,0.21,0.03,0.43,0,0.64c0.09-0.66,0.18-1.33,0.27-1.99
				c-0.04,0.22-0.1,0.43-0.19,0.63c0.25-0.6,0.5-1.19,0.76-1.79c-0.37,0.65-0.17,0.43,0.6-0.68c1.13-0.78,1.35-0.97,0.64-0.56
				c0.6-0.25,1.19-0.5,1.79-0.76c-0.51,0.21-1.01,0.35-1.55,0.44c0.66-0.09,1.33-0.18,1.99-0.27c-3.71,0.44-7.54,0.34-11.27,0.47
				c-1.89,0.07-3.79,0.14-5.68,0.21c-2.11,0.08-4.33,0.07-6.36,0.68c-3.13,0.94-5.49,3.02-6.75,6.01c-0.95,2.25-0.91,4.83-1.08,7.24
				c-0.28,3.92-0.57,7.84-0.85,11.75c-0.21,2.94,2.06,5.78,4.61,6.85c2.86,1.21,5.91,0.51,8.19-1.55c0.23-0.2,1.16-0.96,0.13-0.15
				c-1.05,0.83-0.03,0.07,0.18-0.06c0.54-0.33,1.11-0.6,1.69-0.86c-0.6,0.25-1.19,0.5-1.79,0.76c2.18-0.89,4.48-1.32,6.8-1.64
				c-0.66,0.09-1.33,0.18-1.99,0.27c3.25-0.42,6.57-0.66,9.75-1.51c3.58-0.96,6.96-2.7,9.6-5.33c2.14-2.14,2.71-5.44,1.55-8.19
				c-1.15-2.72-3.85-4.62-6.85-4.61c-5.07,0.01-10.15,0.02-15.22,0.03c-3.92,0.01-7.68,3.44-7.5,7.5c0.18,4.06,3.3,7.51,7.5,7.5
				c5.07-0.01,10.15-0.02,15.22-0.03c-1.77-4.27-3.54-8.54-5.3-12.8c-0.26,0.26-0.56,0.5-0.82,0.76c1.34-1.36,0.96-0.71,0.33-0.31
				c-0.63,0.39-1.29,0.72-1.97,1.01c0.6-0.25,1.19-0.5,1.79-0.76c-2.13,0.85-4.37,1.28-6.63,1.59c0.66-0.09,1.33-0.18,1.99-0.27
				c-3.17,0.42-6.39,0.65-9.49,1.43c-3.59,0.9-6.82,2.59-9.57,5.07c4.27,1.77,8.54,3.54,12.8,5.3c0.37-5.13,0.56-10.3,1.13-15.41
				c-0.09,0.66-0.18,1.33-0.27,1.99c0.03-0.24,0.08-0.47,0.16-0.69c-0.25,0.6-0.5,1.19-0.76,1.79c0.44-1.03-0.85,0.8-1.18,1.05
				c-1.06,0.79-0.25,0.23,0.06,0.09c-0.6,0.25-1.19,0.5-1.79,0.76c0.44-0.16,0.87-0.26,1.32-0.34c-0.66,0.09-1.33,0.18-1.99,0.27
				c2.49-0.32,5.05-0.25,7.56-0.34c2.8-0.1,5.6-0.21,8.4-0.31c3.41-0.13,7.02-0.05,10.05-1.87c2.18-1.31,3.71-3.36,4.54-5.74
				c0.92-2.63,0.37-5.21-0.78-7.65c-2.16,3.76-4.32,7.52-6.48,11.29c2.36-0.27,4.24-0.79,6.05-2.44c1.24-1.14,2.14-2.7,2.64-4.3
				c0.6-1.94,0.34-3.72,0.49-5.67c-0.09,0.66-0.18,1.33-0.27,1.99c0.05-0.34,0.13-0.62,0.26-0.94c-0.25,0.6-0.5,1.19-0.76,1.79
				c-0.33,0.57-0.77,1.04-1.31,1.4c-0.62,0.43-0.7,0.52-0.23,0.28c-0.6,0.25-1.19,0.5-1.79,0.76c1.35-0.48,2.59-0.67,3.91-1.37
				c1.61-0.86,2.94-2.17,3.83-3.77c1.59-2.86,1.25-6.01,1.11-9.12c-0.23-4.84-0.45-9.69-0.68-14.53c-4.91,0.66-9.82,1.33-14.73,1.99
				c0.24,0.87,0.42,1.73,0.54,2.63c-0.09-0.66-0.18-1.33-0.27-1.99c0.14,1.34,0.14,2.67-0.01,4.02c0.09-0.66,0.18-1.33,0.27-1.99
				c-0.15,1.09-0.37,2.17-0.77,3.19c0.25-0.6,0.5-1.19,0.76-1.79c-0.09,0.21-0.2,0.42-0.33,0.61c0.43-0.75,1-1.36,1.73-1.83
				c0.6-0.25,1.19-0.5,1.79-0.76c-0.17,0.07-0.36,0.12-0.54,0.14c0.66-0.09,1.33-0.18,1.99-0.27c-0.19,0.02-0.37,0.01-0.56-0.03
				c0.66,0.09,1.33,0.18,1.99,0.27c-0.09-0.02-0.18-0.05-0.26-0.07c0.6,0.25,1.19,0.5,1.79,0.76c-1.13-0.58-0.48,0.08,1.95,1.97
				c-1.32-2.66-4.71-3.95-7.47-3.58c-3.12,0.42-5.16,2.5-6.24,5.37c-0.64,1.71-1.28,3.42-1.92,5.13c-0.57,1.53-0.23,3.45,0.38,4.88
				c0.61,1.44,1.65,2.84,3.07,3.59c2.83,1.49,6.83,1.37,9.09-1.17c4.35-4.92,6.98-11.39,6.45-18.03c-0.16-2.02-0.73-3.83-2.2-5.3
				c-1.3-1.3-3.44-2.28-5.3-2.2c-1.94,0.09-3.95,0.72-5.3,2.2c-1.42,1.54-2,3.22-2.2,5.3c-0.13,1.44-0.27,2.89-0.4,4.33
				c4.91-0.66,9.82-1.33,14.73-1.99c-0.28-1.39-0.55-2.78-0.83-4.17c-0.57-2.88-3.51-5.01-6.24-5.37c-2.75-0.37-6.19,0.9-7.47,3.58
				c-0.51,1.07-1.02,2.13-1.53,3.2c3.42-0.9,6.84-1.79,10.26-2.69c-0.46-0.29-0.39-0.22,0.22,0.2c0.55,0.33,0.97,0.8,1.27,1.39
				c-0.1-0.3-0.33-0.59-0.46-0.88c0.25,0.6,0.5,1.19,0.76,1.79c-0.11-0.33-0.2-0.64-0.26-0.98c0.09,0.66,0.18,1.33,0.27,1.99
				c-0.08-0.58-0.08-1.12-0.01-1.69c-0.09,0.66-0.18,1.33-0.27,1.99c0.13-0.68,0.32-1.32,0.58-1.96c-0.25,0.6-0.5,1.19-0.76,1.79
				c1.25-2.76,3.12-5.3,4.73-7.86c1.7-2.71,1.21-6.9-1.17-9.09c-0.96-0.88-2.07-1.53-3.31-1.93c-2.02-0.65-3.94-0.04-5.78,0.76
				c-1.45,0.63-2.9,1.25-4.34,1.88c-1.61,0.7-3.01,2.88-3.45,4.48c-0.49,1.8-0.27,4.19,0.76,5.78c1.03,1.6,2.57,3.01,4.48,3.45
				C42.13,318.66,43.86,318.27,45.82,317.42L45.82,317.42z"/>
		</g>
	</g>
	<g>
		<g>
			<path class="st1" d="M9.69,368.09c-1.4,3.98-2.73,8.27-2.31,12.54c0.28,2.82,0.86,5.39,2.28,7.88c1.32,2.32,3.24,4.12,5.43,5.6
				c3.25,2.2,7.39,3.16,11.22,3.72c4.34,0.64,8.64,0.97,13.02,0.59c4.33-0.37,8.66-1.11,12.8-2.48c4.02-1.33,8.34-3.12,11.09-6.49
				c3.36-4.1,4.26-8.77,4.56-13.94c0.23-3.93,0.43-7.88,0.3-11.82c-0.17-4.83-0.77-9.81-2.37-14.4c-1.76-5.04-4.32-9.36-7.57-13.55
				c-1.58-2.04-4.97-2.57-7.3-1.93c-2.68,0.74-4.32,2.72-5.24,5.24c-1.64,4.48-3.49,8.93-4.9,13.49c-1.12,3.62-1.04,7.35,0.65,10.77
				c0.63,1.28,1.56,2.37,2.44,3.49c0.17,0.21,0.33,0.41,0.5,0.62c-0.76-1-0.91-1.19-0.46-0.57c0.27,0.46,0.54,0.89,0.77,1.38
				c-0.25-0.6-0.5-1.19-0.76-1.79c0.35,0.86,0.57,1.71,0.7,2.63c-0.09-0.66-0.18-1.33-0.27-1.99c0.11,1.07,0.09,2.12-0.03,3.19
				c0.09-0.66,0.18-1.33,0.27-1.99c-0.27,1.99-0.84,3.91-1.62,5.76c0.25-0.6,0.5-1.19,0.76-1.79c-0.24,0.53-0.49,1.06-0.78,1.57
				c-0.16,0.28-0.34,0.55-0.5,0.83c-0.61,1.06,0.96-1.07,0.37-0.44c-0.35,0.37-0.75,1.01-1.22,1.21c0.16-0.07,1.45-0.96,0.55-0.49
				c-0.36,0.19-0.69,0.38-1.06,0.55c0.6-0.25,1.19-0.5,1.79-0.76c-1,0.42-2.01,0.69-3.09,0.85c0.66-0.09,1.33-0.18,1.99-0.27
				c-1.45,0.17-2.87,0.13-4.31-0.04c0.66,0.09,1.33,0.18,1.99,0.27c-2.54-0.36-5.18-0.93-7.58-1.86c0.6,0.25,1.19,0.5,1.79,0.76
				c-0.4-0.17-1.8-1.08-0.72-0.23c1.26,0.99-0.33-0.62,0.64,0.67c0.8,1.07,0.2,0.22,0.06-0.07c0.25,0.6,0.5,1.19,0.76,1.79
				c-0.1-0.23-0.17-0.48-0.21-0.73c0.09,0.66,0.18,1.33,0.27,1.99c-0.04-0.4-0.04-0.73,0.01-1.13c-0.09,0.66-0.18,1.33-0.27,1.99
				c0.08-0.39,0.18-0.73,0.33-1.11c-0.25,0.6-0.5,1.19-0.76,1.79c0.11-0.24,0.23-0.47,0.37-0.68c-0.82,0.99-0.96,1.19-0.41,0.6
				c0.95-0.95-1.45,0.86-0.2,0.15c0.87-0.5,1.75-0.93,2.67-1.33c-0.6,0.25-1.19,0.5-1.79,0.76c3.18-1.34,6.53-2.53,9.94-3.13
				c-0.66,0.09-1.33,0.18-1.99,0.27c0.41-0.05,0.77-0.05,1.18-0.01c-0.66-0.09-1.33-0.18-1.99-0.27c0.12,0.03,0.25,0.06,0.37,0.09
				c-0.6-0.25-1.19-0.5-1.79-0.76c0.78,0.41,0.55,0.11-0.69-0.89c-0.99-1.21-1.3-1.48-0.92-0.82c-0.25-0.6-0.5-1.19-0.76-1.79
				c0.08,0.17,0.13,0.35,0.16,0.53c-0.09-0.66-0.18-1.33-0.27-1.99c0.03,0.3,0.03,0.56,0,0.87c0.09-0.66,0.18-1.33,0.27-1.99
				c-0.06,0.31-0.14,0.57-0.26,0.86c0.25-0.6,0.5-1.19,0.76-1.79c-0.51,0.99,1.18-1.22,0.58-0.65c-0.46,0.43,1.71-1.11,0.52-0.5
				c0.6-0.25,1.19-0.5,1.79-0.76c-0.48,0.2-0.95,0.33-1.47,0.42c0.66-0.09,1.33-0.18,1.99-0.27c-0.92,0.11-1.82,0.1-2.75,0.06
				c-3.73-0.16-6.89,2.97-7.37,6.5c-0.21,1.6-0.01,3.39,0.89,4.78c1.13,1.75,2.57,2.66,4.48,3.45c0.26,0.11,0.53,0.22,0.79,0.33
				c-0.6-0.25-1.19-0.5-1.79-0.76c3.6,1.53,7.04,3.39,10.28,5.59c0.76,0.52,1.51,1.06,2.26,1.6c0.62,0.47,0.46,0.34-0.5-0.4
				c0.22,0.17,0.45,0.35,0.67,0.53c0.33,0.27,0.66,0.54,0.99,0.81c1.52,1.28,2.98,2.63,4.37,4.05c2.76,2.8,7.88,2.97,10.61,0
				c2.77-3.01,2.94-7.62,0-10.61c-6.76-6.87-14.8-11.97-23.68-15.61c-0.66,4.91-1.33,9.82-1.99,14.73
				c5.18,0.22,10.5-1.51,12.66-6.63c0.97-2.29,1.24-4.73,0.48-7.14c-1.24-3.95-4.79-6.42-8.88-6.6c-2-0.09-4.07,0.49-5.99,1.01
				c-1.77,0.49-3.52,1.06-5.23,1.72c-4.3,1.66-8.74,3.51-11.13,7.74c-3.04,5.37-1.36,12.03,3.88,15.28
				c2.92,1.81,6.76,2.63,10.12,3.16c4.73,0.76,9.26,0.59,13.65-1.5c3.48-1.65,6.25-4.8,7.87-8.26c1.82-3.89,3.21-8.35,2.87-12.69
				c-0.21-2.66-0.81-5.17-2.12-7.52c-0.63-1.13-1.51-2.13-2.31-3.14c-0.08-0.1-0.17-0.21-0.25-0.31c-0.48-0.6-0.33-0.41,0.44,0.58
				c-0.17-0.45-0.58-0.89-0.79-1.34c0.25,0.6,0.5,1.19,0.76,1.79c-0.16-0.41-0.27-0.79-0.35-1.23c0.09,0.66,0.18,1.33,0.27,1.99
				c-0.07-0.6-0.06-1.17,0-1.77c-0.09,0.66-0.18,1.33-0.27,1.99c0.41-2.63,1.59-5.17,2.5-7.66c0.95-2.61,1.91-5.22,2.86-7.83
				c-4.18,1.1-8.36,2.21-12.54,3.31c-1.43-1.84,0.02,0.08,0.37,0.59c0.45,0.66,0.87,1.34,1.28,2.03c0.77,1.32,1.45,2.68,2.05,4.08
				c-0.25-0.6-0.5-1.19-0.76-1.79c1.22,2.93,2,5.98,2.45,9.12c-0.09-0.66-0.18-1.33-0.27-1.99c0.44,3.39,0.53,6.8,0.44,10.21
				c-0.08,3.23-0.16,6.51-0.54,9.72c0.09-0.66,0.18-1.33,0.27-1.99c-0.18,1.32-0.46,2.59-0.95,3.83c0.25-0.6,0.5-1.19,0.76-1.79
				c-0.27,0.6-0.65,1.13-0.95,1.71c0.76-1.49,0.79-0.97,0.19-0.37c-0.22,0.22-1.14,0.95-0.1,0.15c1.08-0.83,0.03-0.05-0.17,0.08
				c-0.27,0.17-0.54,0.33-0.82,0.49c-0.62,0.34-1.26,0.63-1.92,0.91c0.6-0.25,1.19-0.5,1.79-0.76c-3.54,1.44-7.29,2.36-11.07,2.88
				c0.66-0.09,1.33-0.18,1.99-0.27c-4.19,0.54-8.41,0.55-12.6,0.01c0.66,0.09,1.33,0.18,1.99,0.27c-2.74-0.38-5.52-0.89-8.08-1.97
				c0.6,0.25,1.19,0.5,1.79,0.76c-0.47-0.21-0.93-0.43-1.37-0.69c-0.22-0.13-0.43-0.27-0.65-0.4c-1.04-0.65,1.07,0.99,0.47,0.36
				c-0.25-0.26-1.38-1.54-0.57-0.52c0.75,0.94,0.19,0.2,0.05-0.06c-0.16-0.28-0.3-0.57-0.44-0.87c0.25,0.6,0.5,1.19,0.76,1.79
				c-0.4-0.98-0.66-1.98-0.8-3.03c0.09,0.66,0.18,1.33,0.27,1.99c-0.13-1.24-0.1-2.45,0.06-3.68c-0.09,0.66-0.18,1.33-0.27,1.99
				c0.37-2.43,1.15-4.75,1.97-7.07c1.3-3.71-1.48-8.37-5.24-9.23C14.73,361.9,11.09,364.12,9.69,368.09L9.69,368.09z"/>
		</g>
	</g>
	<g>
		<g>
			<path class="st0" d="M71.29,354.89c1.21,2.55,3.78,4.17,6.35,5.07c1.75,0.61,3.66,0.59,5.48,0.82c-0.66-0.09-1.33-0.18-1.99-0.27
				c0.55,0.09,1.06,0.21,1.57,0.42c-0.6-0.25-1.19-0.5-1.79-0.76c0.27,0.14,0.5,0.28,0.74,0.46c-0.51-0.39-1.01-0.78-1.52-1.17
				c0.23,0.2,0.41,0.39,0.59,0.63c-0.39-0.51-0.78-1.01-1.17-1.52c0.11,0.15,0.2,0.32,0.27,0.49c-0.25-0.6-0.5-1.19-0.76-1.79
				c0.07,0.17,0.12,0.35,0.14,0.53c-0.09-0.66-0.18-1.33-0.27-1.99c0.02,0.19,0.01,0.37-0.02,0.55c5,0,10,0,15,0
				c0.09-1.14,0.19-2.27,0.28-3.41c-5,0-10,0-15,0c0.04,1.61,0.09,3.21,0.13,4.81c0.04,1.45,0.23,2.97,0.04,4.41
				c0.09-0.66,0.18-1.33,0.27-1.99c-0.03,0.18-0.08,0.36-0.15,0.53c0.25-0.6,0.5-1.19,0.76-1.79c-0.04,0.08-0.09,0.16-0.13,0.24
				c0.39-0.51,0.78-1.01,1.17-1.52c-0.1,0.15-0.22,0.29-0.37,0.4c0.51-0.39,1.01-0.78,1.52-1.17c-0.07,0.04-0.15,0.09-0.22,0.13
				c0.6-0.25,1.19-0.5,1.79-0.76c-0.16,0.08-0.32,0.13-0.49,0.15c0.66-0.09,1.33-0.18,1.99-0.27c-0.18,0.02-0.35,0.03-0.53,0.01
				c0.66,0.09,1.33,0.18,1.99,0.27c-0.39-0.06-0.74-0.16-1.1-0.3c0.6,0.25,1.19,0.5,1.79,0.76c-0.66-0.31-1.24-0.71-1.82-1.16
				c0.51,0.39,1.01,0.78,1.52,1.17c-0.85-0.68-1.61-1.44-2.29-2.29c0.39,0.51,0.78,1.01,1.17,1.52c-0.46-0.61-0.88-1.23-1.25-1.9
				c-2.61-4.68-10.45-5.09-12.95,0c-1.64,3.34-2.96,7.12-2.57,10.9c0.39,3.86,1.78,7.73,4.82,10.33c3.4,2.9,7.68,4.21,12.08,3.04
				c4.13-1.1,7.41-4.29,8.62-8.37c1.12-3.76-1.34-8.34-5.24-9.23c-4.03-0.92-8.03,1.21-9.23,5.24c-0.04,0.16-0.1,0.33-0.16,0.48
				c0.25-0.6,0.5-1.19,0.76-1.79c-0.14,0.31-0.3,0.59-0.5,0.87c0.39-0.51,0.78-1.01,1.17-1.52c-0.27,0.33-0.55,0.62-0.89,0.89
				c0.51-0.39,1.01-0.78,1.52-1.17c-0.35,0.25-0.71,0.46-1.11,0.64c0.6-0.25,1.19-0.5,1.79-0.76c-0.49,0.19-0.98,0.32-1.5,0.4
				c0.66-0.09,1.33-0.18,1.99-0.27c-0.44,0.04-0.86,0.04-1.29-0.01c0.66,0.09,1.33,0.18,1.99,0.27c-0.45-0.07-0.87-0.19-1.29-0.36
				c0.6,0.25,1.19,0.5,1.79,0.76c-0.43-0.2-0.83-0.43-1.22-0.71c0.51,0.39,1.01,0.78,1.52,1.17c-0.45-0.36-0.85-0.75-1.21-1.19
				c0.39,0.51,0.78,1.01,1.17,1.52c-0.41-0.54-0.75-1.11-1.03-1.73c0.25,0.6,0.5,1.19,0.76,1.79c-0.26-0.63-0.44-1.26-0.56-1.93
				c0.09,0.66,0.18,1.33,0.27,1.99c-0.13-0.94-0.12-1.85-0.02-2.79c-0.09,0.66-0.18,1.33-0.27,1.99c0.19-1.29,0.56-2.52,1.07-3.72
				c-0.25,0.6-0.5,1.19-0.76,1.79c0.14-0.32,0.29-0.64,0.45-0.96c-4.32,0-8.63,0-12.95,0c2.94,5.27,9.32,10.97,15.83,8.98
				c2.93-0.9,5.26-3.23,6.12-6.18c0.43-1.46,0.44-2.99,0.4-4.49c-0.07-2.38-0.13-4.75-0.2-7.13c-0.11-3.92-3.37-7.68-7.5-7.5
				c-1.94,0.09-3.95,0.72-5.3,2.2c-1.41,1.53-2.02,3.23-2.2,5.3c-0.09,1.14-0.19,2.27-0.28,3.41c-0.15,1.82,0.95,4.05,2.2,5.3
				c1.3,1.3,3.44,2.28,5.3,2.2c1.94-0.09,3.95-0.72,5.3-2.2c0.39-0.51,0.78-1.01,1.17-1.52c0.68-1.17,1.02-2.43,1.02-3.79
				c0.41-3.63-2.13-7.1-5.05-8.93c-2.38-1.49-5.08-1.55-7.77-1.86c0.66,0.09,1.33,0.18,1.99,0.27c-0.6-0.09-1.17-0.22-1.73-0.45
				c0.6,0.25,1.19,0.5,1.79,0.76c-0.26-0.13-0.5-0.26-0.74-0.43c0.51,0.39,1.01,0.78,1.52,1.17c-0.23-0.19-0.4-0.36-0.58-0.59
				c0.39,0.51,0.78,1.01,1.17,1.52c-0.11-0.15-0.2-0.32-0.27-0.49c-0.77-1.61-2.82-2.99-4.48-3.45c-1.8-0.49-4.19-0.27-5.78,0.76
				c-1.6,1.03-3.01,2.57-3.45,4.48C70.07,351.17,70.39,352.98,71.29,354.89L71.29,354.89z"/>
		</g>
	</g>
	<g>
		<g>
			<path class="st0" d="M80.05,374.03c0.08,2.61,0.16,5.23,0.24,7.84c0.08,2.49,0.38,5.09,0.15,7.57c0.09-0.66,0.18-1.33,0.27-1.99
				c-0.05,0.33-0.12,0.63-0.22,0.95c0.25-0.6,0.5-1.19,0.76-1.79c-0.14,0.34-0.3,0.63-0.53,0.93c0.39-0.51,0.78-1.01,1.17-1.52
				c-0.16,0.19-0.33,0.35-0.52,0.51c0.51-0.39,1.01-0.78,1.52-1.17c-0.34,0.25-0.68,0.45-1.06,0.63c0.6-0.25,1.19-0.5,1.79-0.76
				c-0.9,0.37-1.83,0.56-2.79,0.7c0.66-0.09,1.33-0.18,1.99-0.27c-0.88,0.11-1.76,0.2-2.65,0.11c0.66,0.09,1.33,0.18,1.99,0.27
				c-0.34-0.05-0.66-0.13-0.99-0.25c0.6,0.25,1.19,0.5,1.79,0.76c-0.23-0.11-0.43-0.22-0.64-0.38c0.51,0.39,1.01,0.78,1.52,1.17
				c-0.13-0.11-0.25-0.23-0.35-0.36c0.39,0.51,0.78,1.01,1.17,1.52c-0.12-0.15-0.21-0.32-0.29-0.5c0.25,0.6,0.5,1.19,0.76,1.79
				c-0.14-0.37-0.22-0.74-0.28-1.13c0.09,0.66,0.18,1.33,0.27,1.99c-0.25-2.64-0.25-5.33-0.37-7.98c-0.12-2.75-0.24-5.49-0.35-8.24
				c-0.08-1.97-0.78-3.89-2.2-5.3c-1.3-1.3-3.44-2.28-5.3-2.2c-3.92,0.18-7.68,3.3-7.5,7.5c0.16,3.64,0.31,7.28,0.47,10.92
				c0.08,1.76,0.08,3.54,0.25,5.29c0.19,1.86,0.47,3.53,1.43,5.17c0.85,1.46,2.16,2.72,3.61,3.57c2.06,1.21,4.66,1.6,7.01,1.35
				c1.81-0.19,3.71-0.36,5.43-1.04c2.67-1.07,5.06-2.57,6.46-5.21c1.34-2.54,1.45-5.23,1.36-8.02c-0.13-4.14-0.26-8.29-0.39-12.43
				c-0.06-1.96-0.79-3.9-2.2-5.3c-1.3-1.3-3.44-2.28-5.3-2.2C83.59,366.7,79.92,369.83,80.05,374.03L80.05,374.03z"/>
		</g>
	</g>
</g>
<g id="Laag_1">
	<ellipse class="st1" cx="194.57" cy="207.27" rx="91.76" ry="108.35"/>
	<ellipse class="st2" cx="157.07" cy="182.01" rx="15.55" ry="20.7"/>
	<circle cx="157.07" cy="183.89" r="8.42"/>
	<ellipse class="st2" cx="225.43" cy="182.01" rx="15.55" ry="20.7"/>
	<circle cx="225.43" cy="183.89" r="8.42"/>
	<g>
		<g>
			<path class="st3" d="M171.8,253.14c3.22,0,3.22-5,0-5C168.58,248.14,168.57,253.14,171.8,253.14L171.8,253.14z"/>
		</g>
	</g>
	<g>
		<g>
			<path d="M186.76,183.09c0.67,8.6-1.79,17.37-7.12,24.21c-1.34,1.72-2.95,3.22-4.13,5.06c-1.32,2.05-1.8,4.43-1.35,6.84
				c0.84,4.49,4.61,8.37,8.04,11.13c3.97,3.19,8.52,5.52,13.47,6.75c3.12,0.78,4.46-4.05,1.33-4.82c-3.92-0.97-7.58-2.69-10.81-5.11
				c-1.54-1.16-2.96-2.51-4.24-3.96c-1.3-1.47-2.73-3.3-2.97-5.32c-0.2-1.69,0.83-3.1,1.87-4.31c1.36-1.59,2.73-3.14,3.94-4.86
				c2.43-3.45,4.26-7.36,5.46-11.4c1.36-4.58,1.89-9.43,1.51-14.19c-0.11-1.35-1.07-2.5-2.5-2.5
				C187.98,180.59,186.65,181.73,186.76,183.09L186.76,183.09z"/>
		</g>
	</g>
	<g>
		<g>
			<path d="M161.97,254.05c9.74,9.27,23.46,14.12,36.86,13.12c13.14-0.98,25.36-7.63,33.5-17.98c4.52-5.74,7.82-12.36,9.36-19.52
				c0.68-3.14-4.14-4.48-4.82-1.33c-2.46,11.4-9.67,21.52-19.56,27.69c-10.22,6.38-22.69,7.83-34.23,4.49
				c-6.56-1.9-12.63-5.3-17.58-10.01C163.17,248.29,159.63,251.82,161.97,254.05L161.97,254.05z"/>
		</g>
	</g>
	<g>
		<g>
			<path d="M234.74,222.69c0.43-0.62-0.3,0.3,0.19-0.27c0.16-0.18,0.32-0.36,0.49-0.53c0.14-0.14,0.29-0.28,0.44-0.41
				c0.1-0.09,0.43-0.34,0.15-0.14c0.39-0.29,0.8-0.54,1.23-0.76c0.05-0.03,0.61-0.29,0.36-0.18c-0.25,0.11,0.32-0.12,0.38-0.14
				c0.46-0.16,0.93-0.27,1.4-0.38c0.45-0.1-0.1-0.01,0.17-0.03c0.2-0.02,0.4-0.04,0.6-0.04c0.48-0.02,0.97-0.01,1.45,0.05
				c-0.37-0.05,0,0.01,0.17,0.05c0.24,0.05,0.47,0.11,0.7,0.18c0.2,0.06,0.39,0.12,0.58,0.2c-0.41-0.16,0.28,0.15,0.3,0.16
				c0.4,0.21,0.79,0.45,1.15,0.72c0.14,0.1,0.13,0.1-0.02-0.01c0.06,0.05,0.12,0.11,0.19,0.16c0.18,0.17,0.36,0.33,0.54,0.51
				c0.17,0.18,0.34,0.36,0.5,0.55c0.05,0.06,0.1,0.13,0.16,0.19c-0.12-0.15-0.12-0.15-0.02-0.01c0.25,0.38,0.5,0.76,0.7,1.16
				c0.04,0.08,0.32,0.71,0.16,0.3c0.08,0.19,0.14,0.39,0.21,0.58c0.14,0.43,0.24,0.87,0.32,1.31c-0.08-0.48,0.02,0.28,0.02,0.31
				c0.01,0.25,0.01,0.49,0.01,0.74c-0.03,1.35,1.17,2.5,2.5,2.5c1.38,0,2.47-1.14,2.5-2.5c0.1-5.22-3.45-10.17-8.45-11.69
				c-4.99-1.53-10.48,0.69-13.38,4.91c-0.77,1.11-0.21,2.77,0.9,3.42C232.56,224.31,233.97,223.81,234.74,222.69L234.74,222.69z"/>
		</g>
	</g>
	<g>
		<g>
			<path d="M131.46,135.73c3.22,0,3.22-5,0-5C128.25,130.73,128.24,135.73,131.46,135.73L131.46,135.73z"/>
		</g>
	</g>
	<g>
		<g>
			<path d="M153.08,124.35c3.22,0,3.22-5,0-5C149.87,119.35,149.86,124.35,153.08,124.35L153.08,124.35z"/>
		</g>
	</g>
	<g>
		<g>
			<path d="M182.55,110.92c0.57,0.38,1.14,0.76,1.71,1.14c0.29,0.18,0.6,0.28,0.93,0.3c0.33,0.07,0.66,0.06,1-0.04
				c0.33-0.08,0.61-0.23,0.85-0.45c0.27-0.18,0.49-0.41,0.64-0.7c0.08-0.2,0.17-0.4,0.25-0.6c0.12-0.44,0.12-0.89,0-1.33
				c-0.08-0.2-0.17-0.4-0.25-0.6c-0.22-0.38-0.52-0.67-0.9-0.9c-0.57-0.38-1.14-0.76-1.71-1.14c-0.29-0.18-0.6-0.28-0.93-0.3
				c-0.33-0.07-0.66-0.06-1,0.04c-0.33,0.08-0.61,0.23-0.85,0.45c-0.27,0.18-0.49,0.41-0.64,0.7c-0.08,0.2-0.17,0.4-0.25,0.6
				c-0.12,0.44-0.12,0.89,0,1.33c0.08,0.2,0.17,0.4,0.25,0.6C181.87,110.4,182.17,110.7,182.55,110.92L182.55,110.92z"/>
		</g>
	</g>
	<g>
		<g>
			<path d="M206.57,116.95c3.22,0,3.22-5,0-5C203.35,111.95,203.35,116.95,206.57,116.95L206.57,116.95z"/>
		</g>
	</g>
	<g>
		<g>
			<path d="M230.47,117.52c0.38,0,0.76,0,1.14,0c0.34,0.01,0.67-0.06,0.96-0.22c0.31-0.1,0.58-0.27,0.8-0.52
				c0.24-0.23,0.42-0.49,0.52-0.8c0.16-0.3,0.23-0.62,0.22-0.96c-0.03-0.22-0.06-0.44-0.09-0.66c-0.12-0.42-0.33-0.79-0.64-1.1
				c-0.17-0.13-0.34-0.26-0.51-0.39c-0.39-0.23-0.81-0.34-1.26-0.34c-0.38,0-0.76,0-1.14,0c-0.34-0.01-0.67,0.06-0.96,0.22
				c-0.31,0.1-0.58,0.27-0.8,0.52c-0.24,0.23-0.42,0.49-0.52,0.8c-0.16,0.3-0.23,0.62-0.22,0.96c0.03,0.22,0.06,0.44,0.09,0.66
				c0.12,0.42,0.33,0.79,0.64,1.1c0.17,0.13,0.34,0.26,0.51,0.39C229.59,117.41,230.01,117.52,230.47,117.52L230.47,117.52z"/>
		</g>
	</g>
	<g>
		<g>
			<path d="M244.12,132.31c0.19,0,0.38,0,0.57,0c0.34,0.01,0.67-0.06,0.96-0.22c0.31-0.1,0.58-0.27,0.8-0.52
				c0.24-0.23,0.42-0.49,0.52-0.8c0.16-0.3,0.23-0.62,0.22-0.96c-0.03-0.22-0.06-0.44-0.09-0.66c-0.12-0.42-0.33-0.79-0.64-1.1
				c-0.17-0.13-0.34-0.26-0.51-0.39c-0.39-0.23-0.81-0.34-1.26-0.34c-0.19,0-0.38,0-0.57,0c-0.34-0.01-0.67,0.06-0.96,0.22
				c-0.31,0.1-0.58,0.27-0.8,0.52c-0.24,0.23-0.42,0.49-0.52,0.8c-0.16,0.3-0.23,0.62-0.22,0.96c0.03,0.22,0.06,0.44,0.09,0.66
				c0.12,0.42,0.33,0.79,0.64,1.1c0.17,0.13,0.34,0.26,0.51,0.39C243.25,132.2,243.67,132.31,244.12,132.31L244.12,132.31z"/>
		</g>
	</g>
	<g>
		<g>
			<path d="M222.01,105.27c-0.76-0.19-1.52-0.38-2.28-0.57c-0.33-0.1-0.66-0.12-1-0.04c-0.33,0.02-0.64,0.11-0.93,0.3
				c-0.29,0.16-0.53,0.37-0.7,0.64c-0.22,0.24-0.37,0.52-0.45,0.85c-0.03,0.22-0.06,0.44-0.09,0.66c0,0.45,0.12,0.87,0.34,1.26
				c0.13,0.17,0.26,0.34,0.39,0.51c0.31,0.31,0.68,0.52,1.1,0.64c0.76,0.19,1.52,0.38,2.28,0.57c0.33,0.1,0.66,0.12,1,0.04
				c0.33-0.02,0.64-0.11,0.93-0.3c0.29-0.16,0.53-0.37,0.7-0.64c0.22-0.24,0.37-0.52,0.45-0.85c0.03-0.22,0.06-0.44,0.09-0.66
				c0-0.45-0.12-0.87-0.34-1.26c-0.13-0.17-0.26-0.34-0.39-0.51C222.8,105.6,222.44,105.39,222.01,105.27L222.01,105.27z"/>
		</g>
	</g>
	<g>
		<g>
			<path d="M199.74,102.28c-0.19,0-0.38,0-0.57,0c-0.34-0.01-0.67,0.06-0.96,0.22c-0.31,0.1-0.58,0.27-0.8,0.52
				c-0.24,0.23-0.42,0.49-0.52,0.8c-0.16,0.3-0.23,0.62-0.22,0.96c0.03,0.22,0.06,0.44,0.09,0.66c0.12,0.42,0.33,0.79,0.64,1.1
				c0.17,0.13,0.34,0.26,0.51,0.39c0.39,0.23,0.81,0.34,1.26,0.34c0.19,0,0.38,0,0.57,0c0.34,0.01,0.67-0.06,0.96-0.22
				c0.31-0.1,0.58-0.27,0.8-0.52c0.24-0.23,0.42-0.49,0.52-0.8c0.16-0.3,0.23-0.62,0.22-0.96c-0.03-0.22-0.06-0.44-0.09-0.66
				c-0.12-0.42-0.33-0.79-0.64-1.1c-0.17-0.13-0.34-0.26-0.51-0.39C200.61,102.39,200.19,102.28,199.74,102.28L199.74,102.28z"/>
		</g>
	</g>
	<g>
		<g>
			<path d="M179.83,100c-0.38,0-0.76,0-1.14,0c-0.34-0.01-0.67,0.06-0.96,0.22c-0.31,0.1-0.58,0.27-0.8,0.52
				c-0.24,0.23-0.42,0.49-0.52,0.8c-0.16,0.3-0.23,0.62-0.22,0.96c0.03,0.22,0.06,0.44,0.09,0.66c0.12,0.42,0.33,0.79,0.64,1.1
				c0.17,0.13,0.34,0.26,0.51,0.39c0.39,0.23,0.81,0.34,1.26,0.34c0.38,0,0.76,0,1.14,0c0.34,0.01,0.67-0.06,0.96-0.22
				c0.31-0.1,0.58-0.27,0.8-0.52c0.24-0.23,0.42-0.49,0.52-0.8c0.16-0.3,0.23-0.62,0.22-0.96c-0.03-0.22-0.06-0.44-0.09-0.66
				c-0.12-0.42-0.33-0.79-0.64-1.1c-0.17-0.13-0.34-0.26-0.51-0.39C180.7,100.12,180.28,100,179.83,100L179.83,100z"/>
		</g>
	</g>
	<g>
		<g>
			<path d="M162.19,112.97c3.22,0,3.22-5,0-5C158.97,107.97,158.97,112.97,162.19,112.97L162.19,112.97z"/>
		</g>
	</g>
	<g>
		<g>
			<path d="M160.48,114.11c3.22,0,3.22-5,0-5C157.26,109.11,157.26,114.11,160.48,114.11L160.48,114.11z"/>
		</g>
	</g>
	<g>
		<g>
			<path d="M145.69,119.23c3.22,0,3.22-5,0-5C142.47,114.23,142.47,119.23,145.69,119.23L145.69,119.23z"/>
		</g>
	</g>
	<g>
		<g>
			<path d="M136.02,138c3.22,0,3.22-5,0-5C132.8,133,132.79,138,136.02,138L136.02,138z"/>
		</g>
	</g>
	<g>
		<g>
			<path d="M122.36,152.8c3.22,0,3.22-5,0-5C119.14,147.8,119.14,152.8,122.36,152.8L122.36,152.8z"/>
		</g>
	</g>
	<g>
		<g>
			<path d="M249.75,133.86c0.19,0.19,0.38,0.38,0.57,0.57c0.23,0.24,0.49,0.42,0.8,0.52c0.3,0.16,0.62,0.23,0.96,0.22
				c0.34,0.01,0.67-0.06,0.96-0.22c0.31-0.1,0.58-0.27,0.8-0.52c0.13-0.17,0.26-0.34,0.39-0.51c0.23-0.39,0.34-0.81,0.34-1.26
				c-0.03-0.22-0.06-0.44-0.09-0.66c-0.12-0.42-0.33-0.79-0.64-1.1c-0.19-0.19-0.38-0.38-0.57-0.57c-0.23-0.24-0.49-0.42-0.8-0.52
				c-0.3-0.16-0.62-0.23-0.96-0.22c-0.34-0.01-0.67,0.06-0.96,0.22c-0.31,0.1-0.58,0.27-0.8,0.52c-0.13,0.17-0.26,0.34-0.39,0.51
				c-0.23,0.39-0.34,0.81-0.34,1.26c0.03,0.22,0.06,0.44,0.09,0.66C249.23,133.18,249.44,133.55,249.75,133.86L249.75,133.86z"/>
		</g>
	</g>
	<g>
		<g>
			<path d="M261.76,144.83c3.22,0,3.22-5,0-5C258.54,139.83,258.54,144.83,261.76,144.83L261.76,144.83z"/>
		</g>
	</g>
	<g>
		<g>
			<path d="M238.43,121.5c3.22,0,3.22-5,0-5C235.21,116.5,235.21,121.5,238.43,121.5L238.43,121.5z"/>
		</g>
	</g>
	<g>
		<g>
			<path d="M261.76,144.26c3.22,0,3.22-5,0-5C258.54,139.26,258.54,144.26,261.76,144.26L261.76,144.26z"/>
		</g>
	</g>
	<g>
		<g>
			<path d="M269.72,157.35c3.22,0,3.22-5,0-5C266.51,152.35,266.5,157.35,269.72,157.35L269.72,157.35z"/>
		</g>
	</g>
	<g>
		<g>
			<path d="M271.43,161.9c3.22,0,3.22-5,0-5C268.21,156.9,268.21,161.9,271.43,161.9L271.43,161.9z"/>
		</g>
	</g>
	<ellipse class="st1" cx="102.81" cy="197.12" rx="17.64" ry="28.61"/>
	<ellipse class="st1" cx="289.57" cy="197.12" rx="17.64" ry="28.61"/>
</g>
</svg>
