<?xml version="1.0" encoding="utf-8"?>
<!-- Generator: Adobe Illustrator 27.8.1, SVG Export Plug-In . SVG Version: 6.00 Build 0)  -->
<svg version="1.1" id="Laag_1" xmlns="http://www.w3.org/2000/svg" xmlns:xlink="http://www.w3.org/1999/xlink" x="0px" y="0px"
	 viewBox="0 0 96.1 98.82" style="enable-background:new 0 0 96.1 98.82;" xml:space="preserve">
<style type="text/css">
	.st0{fill:#4AE8FF;}
	.st1{fill:#FFFFFF;}
	.st2{fill:#FFF02A;}
</style>
<path class="st0" d="M66.86,90.49H32.73c-16.08,0-29.24-13.16-29.24-29.24V34.18c0-16.08,13.16-29.24,29.24-29.24h34.13
	c16.08,0,29.24,13.16,29.24,29.24v27.07C96.1,77.33,82.94,90.49,66.86,90.49z"/>
<path class="st1" d="M49.8,26.38c0,3.9-4.87,7.05-10.87,7.05c-1.75,0-3.41-0.27-4.88-0.75c-1.79,0.58-3.94,0.92-6.27,0.92
	c-3.46,0-6.56-0.75-8.6-1.93c-0.93,0.56-2.02,0.88-3.19,0.88c-3.41,0-6.18-2.76-6.18-6.18s2.76-6.18,6.18-6.18
	c0.41,0,0.82,0.04,1.21,0.12c-0.04-0.35-0.06-0.72-0.06-1.08c0-5.36,4.35-9.71,9.71-9.71c5.36,0,9.71,4.35,9.71,9.71
	c0,0.09,0,0.17,0,0.26c0.77-0.11,1.56-0.17,2.38-0.17C44.93,19.33,49.8,22.49,49.8,26.38z"/>
<path class="st1" d="M56.77,58.63c0,3.9,4.35,7.05,9.71,7.05c1.57,0,3.05-0.27,4.36-0.75c1.59,0.58,3.52,0.92,5.6,0.92
	c3.09,0,5.86-0.75,7.69-1.93c0.83,0.56,1.8,0.88,2.85,0.88c3.05,0,5.52-2.76,5.52-6.18c0-3.41-2.47-6.18-5.52-6.18
	c-0.37,0-0.73,0.04-1.08,0.12c0.04-0.35,0.05-0.72,0.05-1.08c0-5.36-3.88-9.71-8.67-9.71c-4.79,0-8.67,4.35-8.67,9.71
	c0,0.09,0,0.17,0,0.26c-0.68-0.11-1.4-0.17-2.13-0.17C61.11,51.58,56.77,54.74,56.77,58.63z"/>
<path class="st1" d="M32.54,69.36c0,2.84-2.18,5.14-4.86,5.14c-0.78,0-1.53-0.2-2.18-0.55c-0.8,0.42-1.76,0.67-2.8,0.67
	c-1.55,0-2.93-0.55-3.85-1.4c-0.42,0.41-0.9,0.64-1.42,0.64c-1.53,0-2.76-2.01-2.76-4.5c0-2.48,1.24-4.5,2.76-4.5
	c0.19,0,0.37,0.03,0.54,0.09c-0.02-0.26-0.03-0.52-0.03-0.79c0-3.9,1.94-7.07,4.34-7.07c2.4,0,4.34,3.16,4.34,7.07
	c0,0.06,0,0.13,0,0.19c0.34-0.08,0.7-0.12,1.06-0.12C30.36,64.22,32.54,66.52,32.54,69.36z"/>
<circle class="st2" cx="71.23" cy="21.57" r="8.16"/>
</svg>
