<?xml version="1.0" encoding="utf-8"?>
<!-- Generator: Adobe Illustrator 27.8.1, SVG Export Plug-In . SVG Version: 6.00 Build 0)  -->
<svg version="1.1" id="Laag_1" xmlns="http://www.w3.org/2000/svg" xmlns:xlink="http://www.w3.org/1999/xlink" x="0px" y="0px"
	 viewBox="0 0 240.94 328.44" style="enable-background:new 0 0 240.94 328.44;" xml:space="preserve">
<style type="text/css">
	.st0{fill:#683C11;stroke:#5F3500;stroke-width:3;stroke-miterlimit:10;}
	.st1{fill:#9D9D9C;stroke:#C6C6C6;stroke-width:2;stroke-miterlimit:10;}
	.st2{fill:#5F3500;}
</style>
<rect x="5.29" y="19.25" class="st0" width="73.58" height="73.58"/>
<rect x="78.86" y="19.25" class="st1" width="73.58" height="73.58"/>
<rect x="5.29" y="92.82" class="st0" width="73.58" height="73.58"/>
<rect x="78.86" y="92.82" class="st1" width="73.58" height="73.58"/>
<rect x="152.44" y="19.25" class="st1" width="73.58" height="73.58"/>
<rect x="152.44" y="92.82" class="st1" width="73.58" height="73.58"/>
<rect x="5.29" y="166.4" class="st0" width="73.58" height="73.58"/>
<rect x="78.86" y="166.4" class="st1" width="73.58" height="73.58"/>
<rect x="5.29" y="239.98" class="st0" width="73.58" height="73.58"/>
<rect x="78.86" y="239.98" class="st1" width="73.58" height="73.58"/>
<rect x="152.44" y="166.4" class="st1" width="73.58" height="73.58"/>
<rect x="152.44" y="239.98" class="st1" width="73.58" height="73.58"/>
<g>
	<g>
		<path class="st2" d="M50.23,65.03c3.22,0,3.22-5,0-5C47.01,60.03,47.01,65.03,50.23,65.03L50.23,65.03z"/>
	</g>
</g>
<g>
	<g>
		<path class="st2" d="M32.21,49.09c3.22,0,3.22-5,0-5C28.99,44.09,28.98,49.09,32.21,49.09L32.21,49.09z"/>
	</g>
</g>
<g>
	<g>
		<path class="st2" d="M29.43,82.36c3.22,0,3.22-5,0-5C26.22,77.36,26.21,82.36,29.43,82.36L29.43,82.36z"/>
	</g>
</g>
<g>
	<g>
		<path class="st2" d="M62.71,43.55c3.22,0,3.22-5,0-5C59.49,38.55,59.48,43.55,62.71,43.55L62.71,43.55z"/>
	</g>
</g>
<g>
	<g>
		<path class="st2" d="M19.04,53.25c3.22,0,3.22-5,0-5C15.82,48.25,15.81,53.25,19.04,53.25L19.04,53.25z"/>
	</g>
</g>
<g>
	<g>
		<path class="st2" d="M49.54,110.78c3.22,0,3.22-5,0-5C46.32,105.78,46.31,110.78,49.54,110.78L49.54,110.78z"/>
	</g>
</g>
<g>
	<g>
		<path class="st2" d="M39.83,146.13c3.22,0,3.22-5,0-5C36.61,141.13,36.61,146.13,39.83,146.13L39.83,146.13z"/>
	</g>
</g>
<g>
	<g>
		<path class="st2" d="M21.12,123.26c0.23,0,0.46,0,0.69,0c0.34,0.01,0.67-0.06,0.96-0.22c0.31-0.1,0.58-0.27,0.8-0.52
			c0.24-0.23,0.42-0.49,0.52-0.8c0.16-0.3,0.23-0.62,0.22-0.96c-0.03-0.22-0.06-0.44-0.09-0.66c-0.12-0.42-0.33-0.79-0.64-1.1
			c-0.17-0.13-0.34-0.26-0.51-0.39c-0.39-0.23-0.81-0.34-1.26-0.34c-0.23,0-0.46,0-0.69,0c-0.34-0.01-0.67,0.06-0.96,0.22
			c-0.31,0.1-0.58,0.27-0.8,0.52c-0.24,0.23-0.42,0.49-0.52,0.8c-0.16,0.3-0.23,0.62-0.22,0.96c0.03,0.22,0.06,0.44,0.09,0.66
			c0.12,0.42,0.33,0.79,0.64,1.1c0.17,0.13,0.34,0.26,0.51,0.39C20.24,123.14,20.67,123.26,21.12,123.26L21.12,123.26z"/>
	</g>
</g>
<g>
	<g>
		<path class="st2" d="M46.76,130.88c3.22,0,3.22-5,0-5C43.55,125.88,43.54,130.88,46.76,130.88L46.76,130.88z"/>
	</g>
</g>
<g>
	<g>
		<path class="st2" d="M50.5,154.03c0,0.23,0,0.46,0,0.69c-0.01,0.34,0.06,0.67,0.22,0.96c0.1,0.31,0.27,0.58,0.52,0.8
			c0.23,0.24,0.49,0.42,0.8,0.52c0.3,0.16,0.62,0.23,0.96,0.22c0.22-0.03,0.44-0.06,0.66-0.09c0.42-0.12,0.79-0.33,1.1-0.64
			c0.13-0.17,0.26-0.34,0.39-0.51c0.23-0.39,0.34-0.81,0.34-1.26c0-0.23,0-0.46,0-0.69c0.01-0.34-0.06-0.67-0.22-0.96
			c-0.1-0.31-0.27-0.58-0.52-0.8c-0.23-0.24-0.49-0.42-0.8-0.52c-0.3-0.16-0.62-0.23-0.96-0.22c-0.22,0.03-0.44,0.06-0.66,0.09
			c-0.42,0.12-0.79,0.33-1.1,0.64c-0.13,0.17-0.26,0.34-0.39,0.51C50.62,153.16,50.5,153.58,50.5,154.03L50.5,154.03z"/>
	</g>
</g>
<g>
	<g>
		<path class="st2" d="M50.92,189.8c3.22,0,3.22-5,0-5C47.7,184.8,47.7,189.8,50.92,189.8L50.92,189.8z"/>
	</g>
</g>
<g>
	<g>
		<path class="st2" d="M29.56,220.65c1.16,0.69,2.31,1.39,3.47,2.08c0.55,0.33,1.31,0.42,1.93,0.25c0.33-0.08,0.61-0.23,0.85-0.45
			c0.27-0.18,0.49-0.41,0.64-0.7c0.31-0.58,0.46-1.28,0.25-1.93c-0.2-0.62-0.58-1.15-1.15-1.49c-1.16-0.69-2.31-1.39-3.47-2.08
			c-0.55-0.33-1.31-0.42-1.93-0.25c-0.33,0.08-0.61,0.23-0.85,0.45c-0.27,0.18-0.49,0.41-0.64,0.7c-0.31,0.58-0.46,1.28-0.25,1.93
			C28.61,219.78,28.99,220.31,29.56,220.65L29.56,220.65z"/>
	</g>
</g>
<g>
	<g>
		<path class="st2" d="M52.04,227.5c0-0.23,0-0.46,0-0.69c0.01-0.34-0.06-0.67-0.22-0.96c-0.1-0.31-0.27-0.58-0.52-0.8
			c-0.23-0.24-0.49-0.42-0.8-0.52c-0.3-0.16-0.62-0.23-0.96-0.22c-0.22,0.03-0.44,0.06-0.66,0.09c-0.42,0.12-0.79,0.33-1.1,0.64
			c-0.13,0.17-0.26,0.34-0.39,0.51c-0.23,0.39-0.34,0.81-0.34,1.26c0,0.23,0,0.46,0,0.69c-0.01,0.34,0.06,0.67,0.22,0.96
			c0.1,0.31,0.27,0.58,0.52,0.8c0.23,0.24,0.49,0.42,0.8,0.52c0.3,0.16,0.62,0.23,0.96,0.22c0.22-0.03,0.44-0.06,0.66-0.09
			c0.42-0.12,0.79-0.33,1.1-0.64c0.13-0.17,0.26-0.34,0.39-0.51C51.92,228.37,52.03,227.95,52.04,227.5L52.04,227.5z"/>
	</g>
</g>
<g>
	<g>
		<path class="st2" d="M22.81,192.53c0.23,0.23,0.46,0.46,0.69,0.69c0.23,0.24,0.49,0.42,0.8,0.52c0.3,0.16,0.62,0.23,0.96,0.22
			c0.34,0.01,0.67-0.06,0.96-0.22c0.31-0.1,0.58-0.27,0.8-0.52c0.13-0.17,0.26-0.34,0.39-0.51c0.23-0.39,0.34-0.81,0.34-1.26
			c-0.03-0.22-0.06-0.44-0.09-0.66c-0.12-0.42-0.33-0.79-0.64-1.1c-0.23-0.23-0.46-0.46-0.69-0.69c-0.23-0.24-0.49-0.42-0.8-0.52
			c-0.3-0.16-0.62-0.23-0.96-0.22c-0.34-0.01-0.67,0.06-0.96,0.22c-0.31,0.1-0.58,0.27-0.8,0.52c-0.13,0.17-0.26,0.34-0.39,0.51
			c-0.23,0.39-0.34,0.81-0.34,1.26c0.03,0.22,0.06,0.44,0.09,0.66C22.29,191.85,22.5,192.22,22.81,192.53L22.81,192.53z"/>
	</g>
</g>
<g>
	<g>
		<path class="st2" d="M48.84,205.05c3.22,0,3.22-5,0-5C45.63,200.05,45.62,205.05,48.84,205.05L48.84,205.05z"/>
	</g>
</g>
<g>
	<g>
		<path class="st2" d="M49.54,218.22c3.22,0,3.22-5,0-5C46.32,213.22,46.31,218.22,49.54,218.22L49.54,218.22z"/>
	</g>
</g>
<g>
	<g>
		<path class="st2" d="M49.11,260.77c0,0.46,0,0.92,0,1.39c-0.01,0.34,0.06,0.67,0.22,0.96c0.1,0.31,0.27,0.58,0.52,0.8
			c0.23,0.24,0.49,0.42,0.8,0.52c0.3,0.16,0.62,0.23,0.96,0.22c0.22-0.03,0.44-0.06,0.66-0.09c0.42-0.12,0.79-0.33,1.1-0.64
			c0.13-0.17,0.26-0.34,0.39-0.51c0.23-0.39,0.34-0.81,0.34-1.26c0-0.46,0-0.92,0-1.39c0.01-0.34-0.06-0.67-0.22-0.96
			c-0.1-0.31-0.27-0.58-0.52-0.8c-0.23-0.24-0.49-0.42-0.8-0.52c-0.3-0.16-0.62-0.23-0.96-0.22c-0.22,0.03-0.44,0.06-0.66,0.09
			c-0.42,0.12-0.79,0.33-1.1,0.64c-0.13,0.17-0.26,0.34-0.39,0.51C49.23,259.9,49.12,260.32,49.11,260.77L49.11,260.77z"/>
	</g>
</g>
<g>
	<g>
		<path class="st2" d="M30.13,268.13c3.22,0,3.22-5,0-5C26.91,263.13,26.9,268.13,30.13,268.13L30.13,268.13z"/>
	</g>
</g>
<g>
	<g>
		<path class="st2" d="M39.83,289.01c1.16,0.22,2.32,0.44,3.47,0.65c0.33,0.1,0.66,0.12,1,0.04c0.33-0.02,0.64-0.11,0.93-0.3
			c0.29-0.16,0.53-0.37,0.7-0.64c0.22-0.24,0.37-0.52,0.45-0.85c0.15-0.64,0.11-1.36-0.25-1.93c-0.34-0.52-0.86-1.03-1.49-1.15
			c-1.16-0.22-2.32-0.44-3.47-0.65c-0.33-0.1-0.66-0.12-1-0.04c-0.33,0.02-0.64,0.11-0.93,0.3c-0.29,0.16-0.53,0.37-0.7,0.64
			c-0.22,0.24-0.37,0.52-0.45,0.85c-0.15,0.64-0.11,1.36,0.25,1.93C38.67,288.38,39.19,288.89,39.83,289.01L39.83,289.01z"/>
	</g>
</g>
<g>
	<g>
		<path class="st2" d="M59.24,285.45c3.22,0,3.22-5,0-5C56.02,280.45,56.02,285.45,59.24,285.45L59.24,285.45z"/>
	</g>
</g>
<g>
	<g>
		<path class="st2" d="M39.52,299.21c-0.46-0.46-0.92-0.92-1.39-1.39c-0.23-0.24-0.49-0.42-0.8-0.52c-0.3-0.16-0.62-0.23-0.96-0.22
			c-0.34-0.01-0.67,0.06-0.96,0.22c-0.31,0.1-0.58,0.27-0.8,0.52c-0.13,0.17-0.26,0.34-0.39,0.51c-0.23,0.39-0.34,0.81-0.34,1.26
			c0.03,0.22,0.06,0.44,0.09,0.66c0.12,0.42,0.33,0.79,0.64,1.1c0.46,0.46,0.92,0.92,1.39,1.39c0.23,0.24,0.49,0.42,0.8,0.52
			c0.3,0.16,0.62,0.23,0.96,0.22c0.34,0.01,0.67-0.06,0.96-0.22c0.31-0.1,0.58-0.27,0.8-0.52c0.13-0.17,0.26-0.34,0.39-0.51
			c0.23-0.39,0.34-0.81,0.34-1.26c-0.03-0.22-0.06-0.44-0.09-0.66C40.04,299.89,39.83,299.52,39.52,299.21L39.52,299.21z"/>
	</g>
</g>
<g>
	<g>
		<path class="st2" d="M14.88,275.75c3.22,0,3.22-5,0-5C11.66,270.75,11.66,275.75,14.88,275.75L14.88,275.75z"/>
	</g>
</g>
<g>
	<g>
		<path class="st2" d="M29.43,299.32c1.16,0,2.31,0,3.47,0c0.64,0,1.31-0.28,1.77-0.73c0.24-0.23,0.42-0.49,0.52-0.8
			c0.16-0.3,0.23-0.62,0.22-0.96c-0.03-0.65-0.24-1.32-0.73-1.77c-0.49-0.45-1.09-0.73-1.77-0.73c-1.16,0-2.31,0-3.47,0
			c-0.64,0-1.31,0.28-1.77,0.73c-0.24,0.23-0.42,0.49-0.52,0.8c-0.16,0.3-0.23,0.62-0.22,0.96c0.03,0.65,0.24,1.32,0.73,1.77
			C28.16,299.03,28.76,299.32,29.43,299.32L29.43,299.32z"/>
	</g>
</g>
<g>
	<g>
		<path class="st2" d="M54.37,268.55c-0.23,0.46-0.47,0.92-0.7,1.38c-0.18,0.29-0.28,0.6-0.3,0.93c-0.07,0.33-0.06,0.66,0.04,1
			c0.08,0.33,0.23,0.61,0.45,0.85c0.18,0.27,0.41,0.49,0.7,0.64c0.2,0.08,0.4,0.17,0.6,0.25c0.44,0.12,0.89,0.12,1.33,0
			c0.2-0.08,0.4-0.17,0.6-0.25c0.38-0.22,0.67-0.52,0.9-0.9c0.23-0.46,0.47-0.92,0.7-1.38c0.18-0.29,0.28-0.6,0.3-0.93
			c0.07-0.33,0.06-0.66-0.04-1c-0.08-0.33-0.23-0.61-0.45-0.85c-0.18-0.27-0.41-0.49-0.7-0.64c-0.2-0.08-0.4-0.17-0.6-0.25
			c-0.44-0.12-0.89-0.12-1.33,0c-0.2,0.08-0.4,0.17-0.6,0.25C54.89,267.88,54.59,268.18,54.37,268.55L54.37,268.55z"/>
	</g>
</g>
<g>
	<g>
		<path class="st2" d="M37.06,279.22c3.22,0,3.22-5,0-5C33.84,274.22,33.84,279.22,37.06,279.22L37.06,279.22z"/>
	</g>
</g>
<g>
	<g>
		<path class="st2" d="M25.97,252.88c3.22,0,3.22-5,0-5C22.75,247.88,22.75,252.88,25.97,252.88L25.97,252.88z"/>
	</g>
</g>
<g>
	<g>
		<path class="st2" d="M47.46,272.98c3.22,0,3.22-5,0-5C44.24,267.98,44.23,272.98,47.46,272.98L47.46,272.98z"/>
	</g>
</g>
<g>
	<g>
		<path class="st2" d="M56.47,292.39c3.22,0,3.22-5,0-5C53.25,287.39,53.24,292.39,56.47,292.39L56.47,292.39z"/>
	</g>
</g>
<g>
	<g>
		<path class="st2" d="M61.32,217.53c3.22,0,3.22-5,0-5C58.1,212.53,58.1,217.53,61.32,217.53L61.32,217.53z"/>
	</g>
</g>
<g>
	<g>
		<path class="st2" d="M76.99,209.48c0-0.23,0-0.46,0-0.69c0.01-0.34-0.06-0.67-0.22-0.96c-0.1-0.31-0.27-0.58-0.52-0.8
			c-0.23-0.24-0.49-0.42-0.8-0.52c-0.3-0.16-0.62-0.23-0.96-0.22c-0.22,0.03-0.44,0.06-0.66,0.09c-0.42,0.12-0.79,0.33-1.1,0.64
			c-0.13,0.17-0.26,0.34-0.39,0.51c-0.23,0.39-0.34,0.81-0.34,1.26c0,0.23,0,0.46,0,0.69c-0.01,0.34,0.06,0.67,0.22,0.96
			c0.1,0.31,0.27,0.58,0.52,0.8c0.23,0.24,0.49,0.42,0.8,0.52c0.3,0.16,0.62,0.23,0.96,0.22c0.22-0.03,0.44-0.06,0.66-0.09
			c0.42-0.12,0.79-0.33,1.1-0.64c0.13-0.17,0.26-0.34,0.39-0.51C76.87,210.35,76.99,209.93,76.99,209.48L76.99,209.48z"/>
	</g>
</g>
<g>
	<g>
		<path class="st2" d="M66.17,187.03c3.22,0,3.22-5,0-5C62.95,182.03,62.95,187.03,66.17,187.03L66.17,187.03z"/>
	</g>
</g>
<g>
	<g>
		<path class="st2" d="M31.13,184.91c0.23,0.23,0.46,0.46,0.69,0.69c0.23,0.24,0.49,0.42,0.8,0.52c0.3,0.16,0.62,0.23,0.96,0.22
			c0.34,0.01,0.67-0.06,0.96-0.22c0.31-0.1,0.58-0.27,0.8-0.52c0.13-0.17,0.26-0.34,0.39-0.51c0.23-0.39,0.34-0.81,0.34-1.26
			c-0.03-0.22-0.06-0.44-0.09-0.66c-0.12-0.42-0.33-0.79-0.64-1.1c-0.23-0.23-0.46-0.46-0.69-0.69c-0.23-0.24-0.49-0.42-0.8-0.52
			c-0.3-0.16-0.62-0.23-0.96-0.22c-0.34-0.01-0.67,0.06-0.96,0.22c-0.31,0.1-0.58,0.27-0.8,0.52c-0.13,0.17-0.26,0.34-0.39,0.51
			c-0.23,0.39-0.34,0.81-0.34,1.26c0.03,0.22,0.06,0.44,0.09,0.66C30.61,184.23,30.82,184.6,31.13,184.91L31.13,184.91z"/>
	</g>
</g>
<g>
	<g>
		<path class="st2" d="M31.51,214.75c3.22,0,3.22-5,0-5C28.3,209.75,28.29,214.75,31.51,214.75L31.51,214.75z"/>
	</g>
</g>
<g>
	<g>
		<path class="st2" d="M14.19,223.76c3.22,0,3.22-5,0-5C10.97,218.76,10.96,223.76,14.19,223.76L14.19,223.76z"/>
	</g>
</g>
<g>
	<g>
		<path class="st2" d="M18.34,186.33c3.22,0,3.22-5,0-5C15.13,181.33,15.12,186.33,18.34,186.33L18.34,186.33z"/>
	</g>
</g>
<g>
	<g>
		<path class="st2" d="M16.26,173.86c3.22,0,3.22-5,0-5C13.05,168.86,13.04,173.86,16.26,173.86L16.26,173.86z"/>
	</g>
</g>
<g>
	<g>
		<path class="st2" d="M16.26,152.37c3.22,0,3.22-5,0-5C13.05,147.37,13.04,152.37,16.26,152.37L16.26,152.37z"/>
	</g>
</g>
<g>
	<g>
		<path class="st2" d="M55.08,135.04c3.22,0,3.22-5,0-5C51.86,130.04,51.86,135.04,55.08,135.04L55.08,135.04z"/>
	</g>
</g>
<g>
	<g>
		<path class="st2" d="M66.17,108.7c3.22,0,3.22-5,0-5C62.95,103.7,62.95,108.7,66.17,108.7L66.17,108.7z"/>
	</g>
</g>
<g>
	<g>
		<path class="st2" d="M36.1,73.62c0.45,0.7,0.9,1.4,1.35,2.1c0.16,0.29,0.37,0.53,0.64,0.7c0.24,0.22,0.52,0.37,0.85,0.45
			c0.33,0.1,0.66,0.12,1,0.04c0.33-0.02,0.64-0.11,0.93-0.3c0.17-0.13,0.34-0.26,0.51-0.39c0.31-0.31,0.52-0.68,0.64-1.1
			c0.03-0.22,0.06-0.44,0.09-0.66c0-0.45-0.12-0.87-0.34-1.26c-0.45-0.7-0.9-1.4-1.35-2.1c-0.16-0.29-0.37-0.53-0.64-0.7
			c-0.24-0.22-0.52-0.37-0.85-0.45c-0.33-0.1-0.66-0.12-1-0.04c-0.33,0.02-0.64,0.11-0.93,0.3c-0.17,0.13-0.34,0.26-0.51,0.39
			c-0.31,0.31-0.52,0.68-0.64,1.1c-0.03,0.22-0.06,0.44-0.09,0.66C35.76,72.81,35.88,73.23,36.1,73.62L36.1,73.62z"/>
	</g>
</g>
<g>
	<g>
		<path class="st2" d="M37.06,60.88c3.22,0,3.22-5,0-5C33.84,55.88,33.84,60.88,37.06,60.88L37.06,60.88z"/>
	</g>
</g>
<g>
	<g>
		<path class="st2" d="M30.82,28.3c3.22,0,3.22-5,0-5C27.6,23.3,27.6,28.3,30.82,28.3L30.82,28.3z"/>
	</g>
</g>
<g>
	<g>
		<path class="st2" d="M48.15,33.84c3.22,0,3.22-5,0-5C44.93,28.84,44.93,33.84,48.15,33.84L48.15,33.84z"/>
	</g>
</g>
<g>
	<g>
		<path class="st2" d="M64.78,61.57c3.22,0,3.22-5,0-5C61.57,56.57,61.56,61.57,64.78,61.57L64.78,61.57z"/>
	</g>
</g>
<g>
	<g>
		<path class="st2" d="M64.09,80.28c3.22,0,3.22-5,0-5C60.87,75.28,60.87,80.28,64.09,80.28L64.09,80.28z"/>
	</g>
</g>
<g>
	<g>
		<path class="st2" d="M23.89,66.42c3.22,0,3.22-5,0-5C20.67,61.42,20.67,66.42,23.89,66.42L23.89,66.42z"/>
	</g>
</g>
</svg>
