<?xml version="1.0" encoding="utf-8"?>
<!-- Generator: Adobe Illustrator 27.8.1, SVG Export Plug-In . SVG Version: 6.00 Build 0)  -->
<svg version="1.1" xmlns="http://www.w3.org/2000/svg" xmlns:xlink="http://www.w3.org/1999/xlink" x="0px" y="0px"
	 viewBox="0 0 337.77 304.91" style="enable-background:new 0 0 337.77 304.91;" xml:space="preserve">
<style type="text/css">
	.st0{fill:#7FF2FF;}
	.st1{fill:#8A3600;}
	.st2{fill:#04AA00;}
	.st3{fill:none;stroke:#000000;stroke-width:6;stroke-miterlimit:10;}
</style>
<g id="Laag_1">
	<circle class="st0" cx="160.86" cy="145.4" r="128.72"/>
	<g>
		<g>
			<path d="M88.59,142.61c20.42-20.12,40.85-40.23,61.27-60.35c5.82-5.73,11.64-11.46,17.45-17.19c2.8-2.76,2.97-7.88,0-10.61
				c-3.01-2.77-7.62-2.94-10.61,0c-20.42,20.12-40.85,40.23-61.27,60.35c-5.82,5.73-11.64,11.46-17.45,17.19
				c-2.8,2.76-2.97,7.88,0,10.61C80.99,145.37,85.6,145.55,88.59,142.61L88.59,142.61z"/>
		</g>
	</g>
	<g>
		<g>
			<path d="M155.83,65.58c20.32,19.64,40.64,39.27,60.95,58.91c5.74,5.54,11.47,11.09,17.21,16.63c2.82,2.73,7.83,3.02,10.61,0
				c2.71-2.95,3.01-7.69,0-10.61c-20.32-19.64-40.64-39.27-60.95-58.91c-5.74-5.54-11.47-11.09-17.21-16.63
				c-2.82-2.73-7.83-3.02-10.61,0C153.12,57.93,152.82,62.67,155.83,65.58L155.83,65.58z"/>
		</g>
	</g>
	<g>
		<g>
			<path d="M97.32,129.38c0,22.49,0,44.98,0,67.47c0,6.33,0,12.66,0,18.99c0,3.92,3.45,7.68,7.5,7.5c4.06-0.18,7.5-3.3,7.5-7.5
				c0-22.49,0-44.98,0-67.47c0-6.33,0-12.66,0-18.99c0-3.92-3.45-7.68-7.5-7.5C100.75,122.07,97.32,125.18,97.32,129.38
				L97.32,129.38z"/>
		</g>
	</g>
	<g>
		<g>
			<path d="M106.74,224.63c28.1,0,56.2,0,84.3,0c7.98,0,15.96,0,23.94,0c3.92,0,7.68-3.45,7.5-7.5c-0.18-4.06-3.3-7.5-7.5-7.5
				c-28.1,0-56.2,0-84.3,0c-7.98,0-15.96,0-23.94,0c-3.92,0-7.68,3.45-7.5,7.5C99.42,221.19,102.53,224.63,106.74,224.63
				L106.74,224.63z"/>
		</g>
	</g>
	<g>
		<g>
			<path d="M226.32,216.49c0-24.13,0-48.26,0-72.4c0-6.82,0-13.65,0-20.47c0-3.92-3.45-7.68-7.5-7.5c-4.06,0.18-7.5,3.3-7.5,7.5
				c0,24.13,0,48.26,0,72.4c0,6.82,0,13.65,0,20.47c0,3.92,3.45,7.68,7.5,7.5C222.88,223.8,226.32,220.69,226.32,216.49
				L226.32,216.49z"/>
		</g>
	</g>
	<g>
		<g>
			<path d="M112.32,145.4c0-8.97,0-17.93,0-26.9c0-3.92-3.45-7.68-7.5-7.5c-4.06,0.18-7.5,3.3-7.5,7.5c0,8.97,0,17.93,0,26.9
				c0,3.92,3.45,7.68,7.5,7.5C108.88,152.71,112.32,149.6,112.32,145.4L112.32,145.4z"/>
		</g>
	</g>
	<g>
		<g>
			<path d="M225.68,141.55c0-8.54,0-17.08,0-25.62c0-3.92-3.45-7.68-7.5-7.5c-4.06,0.18-7.5,3.3-7.5,7.5c0,8.54,0,17.08,0,25.62
				c0,3.92,3.45,7.68,7.5,7.5C222.24,148.87,225.68,145.76,225.68,141.55L225.68,141.55z"/>
		</g>
	</g>
	<g>
		<g>
			<path d="M148.82,210.08c0-17.29,0-34.58,0-51.88c0-3.92-3.45-7.68-7.5-7.5c-4.06,0.18-7.5,3.3-7.5,7.5c0,17.29,0,34.58,0,51.88
				c0,3.92,3.45,7.68,7.5,7.5C145.39,217.4,148.82,214.29,148.82,210.08L148.82,210.08z"/>
		</g>
	</g>
	<g>
		<g>
			<path d="M142.61,165.06c13.45,0,26.9,0,40.35,0c3.92,0,7.68-3.45,7.5-7.5c-0.18-4.06-3.3-7.5-7.5-7.5c-13.45,0-26.9,0-40.35,0
				c-3.92,0-7.68,3.45-7.5,7.5C135.29,161.63,138.4,165.06,142.61,165.06L142.61,165.06z"/>
		</g>
	</g>
	<g>
		<g>
			<path d="M174.81,156.92c0,17.08,0,34.16,0,51.24c0,3.92,3.45,7.68,7.5,7.5c4.06-0.18,7.5-3.3,7.5-7.5c0-17.08,0-34.16,0-51.24
				c0-3.92-3.45-7.68-7.5-7.5C178.25,149.61,174.81,152.72,174.81,156.92L174.81,156.92z"/>
		</g>
	</g>
	<g>
		<g>
			<path class="st1" d="M101.62,224.05c31.55,0,63.1,0,94.65,0c8.8,0,17.6,0,26.4,0c2.62,0,5.12-2.3,5-5c-0.12-2.71-2.2-5-5-5
				c-31.55,0-63.1,0-94.65,0c-8.8,0-17.6,0-26.4,0c-2.62,0-5.12,2.3-5,5C96.74,221.76,98.81,224.05,101.62,224.05L101.62,224.05z"/>
		</g>
	</g>
	<g>
		<g>
			<path class="st2" d="M117.33,213.32c-0.17-4.14-0.34-8.29-0.51-12.43c-0.12-2.92-3.92-3.26-4.91-0.66
				c-1.46,3.83-2.92,7.66-4.39,11.49c1.52-0.2,3.05-0.4,4.57-0.6c-1.48-3.16-2.97-6.32-4.45-9.47c-1.11-2.36-4.6-1.05-4.66,1.26
				c-0.09,3.38-0.17,6.76-0.26,10.14c1.64-0.22,3.27-0.44,4.91-0.66c-1.43-4.3-2.87-8.6-4.3-12.9c-0.68-2.05-3.39-2.46-4.57-0.6
				c-3.61,5.73-1.73,13.57,3.76,17.35c1.49,1.02,3.94-0.32,3.76-2.16c-0.39-4.1-0.79-8.2-1.18-12.3c-1.67,0-3.33,0-5,0
				c0.58,5.23,2.84,11.13,8.8,11.92c5.15,0.68,9.51-4.57,7.11-9.41c-1.3-2.61-5.21-0.75-4.57,1.93c0.59,2.48,1.19,4.97,1.78,7.45
				c0.25,1.06,1.34,1.84,2.41,1.84c1.2,0,1.98-0.81,2.41-1.84c1.66-3.96,3.32-7.91,4.98-11.87c-1.61,0-3.21,0-4.82,0
				c0.34,1.46,0.68,2.92,1.02,4.37c0.63,2.68,5.28,2.17,4.91-0.66c-1.12-8.59-2.25-17.19-3.37-25.78c-1.64,0.22-3.27,0.44-4.91,0.66
				c2.3,10.29,4.61,20.59,6.91,30.88c0.63,2.8,4.87,2.11,4.91-0.66c0.02-1.82,0.05-3.65,0.07-5.47c-1.64,0.22-3.27,0.44-4.91,0.66
				c0.3,1.13,0.59,2.26,0.89,3.4c0.4,1.54,2.3,2.33,3.67,1.49c0.65-0.4,1.3-0.79,1.95-1.19c-1.25-0.72-2.51-1.44-3.76-2.16
				c0.14,2.6,0.28,5.21,0.42,7.81c1.25-0.72,2.51-1.44,3.76-2.16c-4.84-2.25-9.94-2.98-15.22-2.27c-0.95,0.13-1.69,1.22-1.79,2.08
				c-0.12,1.04,0.34,1.91,1.19,2.49c0.83,0.56,1.67,1.13,2.5,1.69c-0.17-1.31-0.34-2.62-0.51-3.93c-1.1,1.13-2.21,2.26-3.31,3.39
				c0.81-0.21,1.62-0.43,2.43-0.64c-2.99-1.21-5.99-2.42-8.98-3.64c-1.14-0.46-2.53,0.41-2.95,1.45c-0.46,1.15-0.07,2.48,1.02,3.12
				c3,1.77,6.16,3.6,9.65,4.15c3.47,0.54,7.08-0.04,9.83-2.34c2.28-1.91,3.34-4.79,4.02-7.6c0.64-2.63,1.02-5.37,2.7-7.58
				c0.59-0.77,0.36-2.08-0.2-2.78c-0.68-0.85-1.58-1.05-2.63-0.9c-4.48,0.65-7.72,4.69-8.03,9.07c-0.09,1.23,1.02,2.32,2.17,2.46
				c1.32,0.16,2.27-0.6,2.74-1.79c0.67-1.7,1.34-3.39,2.01-5.09c0.5-1.26-0.54-2.74-1.75-3.08c-1.42-0.39-2.58,0.49-3.08,1.75
				c-0.67,1.7-1.34,3.39-2.01,5.09c1.64,0.22,3.27,0.44,4.91,0.66c0.16-2.34,2.16-3.93,4.36-4.25c-0.94-1.22-1.88-2.45-2.82-3.67
				c-1.52,2.01-2.22,4.49-2.77,6.91c-0.49,2.14-0.84,4.63-2.26,6.4c-1.45,1.79-4.04,2.21-6.2,1.87c-2.95-0.45-5.6-2.1-8.13-3.59
				c-0.64,1.52-1.28,3.05-1.93,4.57c2.99,1.21,5.99,2.42,8.98,3.64c0.79,0.32,1.87-0.06,2.43-0.64c1.1-1.13,2.21-2.26,3.31-3.39
				c1.18-1.21,0.83-3.02-0.51-3.93c-0.83-0.56-1.67-1.13-2.5-1.69c-0.2,1.52-0.4,3.05-0.6,4.57c3.82-0.52,7.87,0.14,11.36,1.76
				c1.59,0.74,3.87-0.11,3.76-2.16c-0.14-2.6-0.28-5.21-0.42-7.81c-0.1-1.83-2.07-3.19-3.76-2.16c-0.65,0.4-1.3,0.79-1.95,1.19
				c1.22,0.5,2.45,1,3.67,1.49c-0.3-1.13-0.59-2.26-0.89-3.4c-0.72-2.75-4.87-2.14-4.91,0.66c-0.02,1.82-0.05,3.65-0.07,5.47
				c1.64-0.22,3.27-0.44,4.91-0.66c-2.3-10.29-4.61-20.59-6.91-30.88c-0.6-2.69-5.28-2.16-4.91,0.66
				c1.12,8.59,2.25,17.19,3.37,25.78c1.64-0.22,3.27-0.44,4.91-0.66c-0.34-1.46-0.68-2.92-1.02-4.37c-0.25-1.06-1.34-1.84-2.41-1.84
				c-1.2,0-1.98,0.81-2.41,1.84c-1.66,3.96-3.32,7.91-4.98,11.87c1.61,0,3.21,0,4.82,0c-0.59-2.48-1.19-4.97-1.78-7.45
				c-1.52,0.64-3.05,1.28-4.57,1.93c0.1,0.21,0.08,0.4-0.03,0.71c-0.07,0.2-0.27,0.53-0.48,0.75c-0.61,0.61-1.54,0.65-2.42,0.29
				c-2.62-1.06-3.38-4.26-3.66-6.78c-0.15-1.34-1.04-2.5-2.5-2.5c-1.25,0-2.63,1.15-2.5,2.5c0.39,4.1,0.79,8.2,1.18,12.3
				c1.25-0.72,2.51-1.44,3.76-2.16c-3.34-2.3-4.05-7.21-1.97-10.51c-1.52-0.2-3.05-0.4-4.57-0.6c1.43,4.3,2.87,8.6,4.3,12.9
				c0.88,2.65,4.84,2.23,4.91-0.66c0.09-3.38,0.17-6.76,0.26-10.14c-1.55,0.42-3.11,0.84-4.66,1.26c1.48,3.16,2.97,6.32,4.45,9.47
				c1.01,2.15,3.88,1.2,4.57-0.6c1.46-3.83,2.92-7.66,4.39-11.49c-1.64-0.22-3.27-0.44-4.91-0.66c0.17,4.14,0.34,8.29,0.51,12.43
				C112.46,216.53,117.46,216.54,117.33,213.32L117.33,213.32z"/>
		</g>
	</g>
	<g>
		<g>
			<path class="st2" d="M191.22,209.44c-0.02-2.04-0.03-4.07-0.05-6.11c-1.55,0.42-3.11,0.84-4.66,1.26
				c1.31,2.38,2.62,4.75,3.92,7.13c1.11,2.01,3.88,1.33,4.57-0.6c1.1-3.04,0.7-6.45-0.95-9.21c-1.36-2.27-4.42-1.1-4.66,1.26
				c-0.41,4.15,1.01,8.13,3.63,11.32c1.24,1.51,3.69,0.56,4.18-1.1c0.54-1.83,1.07-3.66,1.61-5.49c-1.61,0-3.21,0-4.82,0
				c0.7,3.48,1.41,6.96,2.11,10.44c0.58,2.89,4.76,2.03,4.91-0.66c0.15-2.63,0.3-5.26,0.45-7.89c-1.67,0-3.33,0-5,0
				c-0.01,1.34-0.02,2.68-0.03,4.02c-0.02,2.73,4.45,3.51,4.91,0.66c0.19-1.18,0.38-2.36,0.57-3.54c-1.39,0.37-2.79,0.74-4.18,1.1
				c0.59,0.64,1.18,1.28,1.78,1.93c1.37,1.48,4.53,0.42,4.27-1.77c-1.15-9.58-2.31-19.15-3.46-28.73c-1.64,0.22-3.27,0.44-4.91,0.66
				c2.08,9.28,4.17,18.55,6.25,27.83c0.55,2.43,4.22,2.33,4.82,0c1.87-7.21,3.74-14.43,5.61-21.64c-1.64-0.22-3.27-0.44-4.91-0.66
				c0.32,6.92,0.64,13.84,0.97,20.76c0.15,3.2,5.03,3.24,5,0c-0.09-11.07-0.17-22.13-0.26-33.2c-1.67,0-3.33,0-5,0
				c1.24,12.73,2.48,25.46,3.72,38.19c0.23,2.37,3.3,3.53,4.66,1.26c1.1-1.84,2.2-3.68,3.3-5.51c-1.14,0.3-2.28,0.6-3.42,0.9
				c2.12,0.98,4.24,1.96,6.35,2.94c0.99,0.46,2.23,0.47,3.03-0.39c2.88-3.08,4.52-8.06,0.86-11.29c-1.65-1.46-4.06-1.78-5.97-0.61
				c-1.86,1.15-3.02,3.44-2.24,5.59c1.07,2.99,5.64,1.83,4.82-1.33c-0.4-1.54,1.13-2.16,2.29-1.38c1.53,1.03,3.88-0.32,3.76-2.16
				c-0.48-7.67-0.97-15.35-1.45-23.02c-0.2-3.21-4.83-3.23-5,0c-0.31,5.85-0.62,11.69-0.94,17.54c-0.22,4.15-0.38,10.43,5.21,10.83
				c-0.22-1.64-0.44-3.27-0.66-4.91c-5.73,1.28-11.72,1.29-17.45-0.01c-2.74-0.62-5.29-1.72-7.97-2.49
				c-2.69-0.78-5.78-1.01-8.15,0.75c-2.04,1.51-1.29,4.4,1.26,4.66c12.89,1.29,25.78,2.58,38.67,3.88
				c-0.72-1.25-1.44-2.51-2.16-3.76c0.39-0.22,0.78-0.45,1.17-0.67c0.42,0.11,0.84,0.23,1.26,0.34c0.2,0.25,0.4,0.49,0.6,0.74
				c0,0.44,0,0.89,0,1.33c-0.11,0.15-0.22,0.3-0.33,0.45c-1.31-1.01-2.62-2.02-3.93-3.03c-1.14,2.58-2.28,5.16-3.41,7.74
				c1.14-0.3,2.28-0.6,3.42-0.9c-0.7-0.3-0.75-0.48-0.56-1.04c0.4-1.16-0.37-2.51-1.45-2.95c-1.2-0.48-2.4-0.03-3.12,1.02
				c-0.33,0.49-0.67,0.97-1,1.46c-0.76,1.11-0.21,2.77,0.9,3.42c1.24,0.72,2.65,0.22,3.42-0.9c0.33-0.49,0.67-0.97,1-1.46
				c-1.52-0.64-3.05-1.28-4.57-1.93c-0.87,2.5,0.38,5.63,2.85,6.69c1.13,0.48,2.82,0.45,3.42-0.9c1.14-2.58,2.28-5.16,3.41-7.74
				c0.5-1.14,0.43-2.42-0.64-3.23c-0.98-0.73-2.39-0.71-3.28,0.2c-1.38,1.4-1.4,3.82,0.25,5.04c1.57,1.15,4.05,0.68,4.89-1.17
				c0.83-1.82-0.17-3.56-2.16-3.76c-12.89-1.29-25.78-2.58-38.67-3.88c0.42,1.55,0.84,3.11,1.26,4.66c1.84-1.36,4.25-0.31,6.18,0.38
				c2.72,0.98,5.44,1.82,8.3,2.31c5.96,1.03,11.99,0.88,17.9-0.43c2.89-0.64,2.02-4.72-0.66-4.91c0.36,0.03,0.25,0.38,0.12-0.01
				c0.14,0.42-0.28-0.66-0.17-0.37c-0.24-0.62-0.3-1.2-0.31-1.81c-0.07-2.19,0.2-4.42,0.31-6.6c0.26-4.86,0.52-9.72,0.78-14.57
				c-1.67,0-3.33,0-5,0c0.48,7.67,0.97,15.35,1.45,23.02c1.25-0.72,2.51-1.44,3.76-2.16c-2.28-1.54-5.41-1.41-7.54,0.32
				c-1.99,1.61-2.73,4.27-2.09,6.71c1.61-0.44,3.21-0.89,4.82-1.33c-0.27-0.76-0.15,0.2-0.16,0.17c-0.42-1.38,0.27-0.14,0.24-0.18
				c-0.12-0.18,0.27,0.4,0.31,0.47c0.65,1.22-0.55,2.75-1.38,3.64c1.01-0.13,2.02-0.26,3.03-0.39c-2.12-0.98-4.24-1.96-6.35-2.94
				c-1.24-0.57-2.67-0.35-3.42,0.9c-1.1,1.84-2.2,3.68-3.3,5.51c1.55,0.42,3.11,0.84,4.66,1.26c-1.24-12.73-2.48-25.46-3.72-38.19
				c-0.13-1.34-1.06-2.5-2.5-2.5c-1.35,0-2.51,1.14-2.5,2.5c0.09,11.07,0.17,22.13,0.26,33.2c1.67,0,3.33,0,5,0
				c-0.32-6.92-0.64-13.84-0.97-20.76c-0.13-2.74-4.18-3.49-4.91-0.66c-1.87,7.21-3.74,14.43-5.61,21.64c1.61,0,3.21,0,4.82,0
				c-2.08-9.28-4.17-18.55-6.25-27.83c-0.61-2.69-5.25-2.17-4.91,0.66c1.15,9.58,2.31,19.15,3.46,28.73
				c1.42-0.59,2.85-1.18,4.27-1.77c-0.59-0.64-1.18-1.28-1.78-1.93c-1.19-1.29-3.88-0.76-4.18,1.1c-0.19,1.18-0.38,2.36-0.57,3.54
				c1.64,0.22,3.27,0.44,4.91,0.66c0.01-1.34,0.02-2.68,0.03-4.02c0.03-3.24-4.82-3.19-5,0c-0.15,2.63-0.3,5.26-0.45,7.89
				c1.64-0.22,3.27-0.44,4.91-0.66c-0.7-3.48-1.41-6.96-2.11-10.44c-0.51-2.51-4.16-2.24-4.82,0c-0.54,1.83-1.07,3.66-1.61,5.49
				c1.39-0.37,2.79-0.74,4.18-1.1c-1.8-2.19-2.44-5-2.17-7.78c-1.55,0.42-3.11,0.84-4.66,1.26c1.02,1.71,1.12,3.51,0.45,5.36
				c1.52-0.2,3.05-0.4,4.57-0.6c-1.31-2.38-2.62-4.75-3.92-7.13c-1.2-2.18-4.68-1.19-4.66,1.26c0.02,2.04,0.03,4.07,0.05,6.11
				C186.24,212.66,191.24,212.67,191.22,209.44L191.22,209.44z"/>
		</g>
	</g>
	<circle class="st3" cx="160.86" cy="115.93" r="15.62"/>
	<line class="st3" x1="160.86" y1="100.31" x2="160.86" y2="131.56"/>
	<line class="st3" x1="145.24" y1="115.93" x2="176.48" y2="115.93"/>
</g>
<g id="Laag_2">
</g>
</svg>
