<?xml version="1.0" encoding="utf-8"?>
<!-- Generator: Adobe Illustrator 27.8.1, SVG Export Plug-In . SVG Version: 6.00 Build 0)  -->
<svg version="1.1" id="Laag_1" xmlns="http://www.w3.org/2000/svg" xmlns:xlink="http://www.w3.org/1999/xlink" x="0px" y="0px"
	 viewBox="0 0 62.45 69.66" style="enable-background:new 0 0 62.45 69.66;" xml:space="preserve">
<style type="text/css">
	.st0{fill:#FF3900;}
	.st1{fill:#06E900;}
	.st2{fill:#FFFFFF;}
</style>
<polygon class="st0" points="17.13,54.57 25.66,28.17 33.67,30.76 25.14,57.16 20.17,65.69 21.13,55.87 16.16,64.39 "/>
<polygon class="st0" points="34.48,57.01 27.56,30.14 35.72,28.04 42.64,54.91 43,64.77 38.56,55.96 38.93,65.82 "/>
<path class="st1" d="M33.21,39.57L33.21,39.57c-2.07-1.16-4.57-1.22-6.67-0.17l0,0c-5.3,2.64-11.38-2.01-10.3-7.86l0,0
	c0.43-2.33-0.31-4.73-1.98-6.43l0,0c-4.2-4.28-1.75-11.47,4.14-12.18l0,0c2.34-0.28,4.38-1.7,5.45-3.8l0,0
	c2.7-5.28,10.3-5.09,12.86,0.33l0,0c1.02,2.15,3.01,3.68,5.34,4.08l0,0c5.87,1.01,8.12,8.33,3.81,12.39l0,0
	c-1.71,1.61-2.52,3.97-2.15,6.32l0,0C44.64,38.16,38.43,42.48,33.21,39.57z"/>
<circle class="st2" cx="30.13" cy="23.47" r="13.97"/>
<circle class="st1" cx="30.13" cy="23.47" r="10.62"/>
<polygon class="st2" points="37.57,19.49 28.78,29.23 28.75,29.2 28.74,29.21 23.78,24.73 25.57,22.75 28.58,25.47 35.59,17.7 "/>
</svg>
