<?xml version="1.0" encoding="utf-8"?>
<!-- Generator: Adobe Illustrator 27.8.1, SVG Export Plug-In . SVG Version: 6.00 Build 0)  -->
<svg version="1.1" id="Laag_1" xmlns="http://www.w3.org/2000/svg" xmlns:xlink="http://www.w3.org/1999/xlink" x="0px" y="0px"
	 viewBox="0 0 334.2 264.29" style="enable-background:new 0 0 334.2 264.29;" xml:space="preserve">
<style type="text/css">
	.st0{fill:#9D9D9C;}
	.st1{fill:#9D9D9C;stroke:#1D1D1B;stroke-miterlimit:10;}
</style>
<g>
	<g>
		<path class="st0" d="M118.11,104.25c0.98,5.15,3.71,9.95,7.64,13.42"/>
		<g>
			<path class="st0" d="M101.23,108.91c0.25,1.3,0.61,2.59,1.07,3.83c0.74,1.99,1.58,3.95,2.47,5.87c0.29,0.62,0.6,1.23,0.94,1.82
				c1.36,2.38,3.15,4.53,4.85,6.66c0.85,1.07,1.8,2.05,2.81,2.96c1.59,1.71,3.46,2.91,5.63,3.62c2.09,1.1,4.33,1.6,6.74,1.51
				c2.41,0.09,4.66-0.41,6.74-1.51c2.17-0.71,4.05-1.91,5.63-3.62c0.91-1.18,1.82-2.36,2.74-3.54c1.58-2.73,2.38-5.67,2.39-8.83
				c-0.21-1.55-0.42-3.1-0.63-4.65c-0.83-2.96-2.33-5.54-4.5-7.72c-1.13-1.01-2.15-2.11-3.08-3.3c0.91,1.18,1.82,2.36,2.74,3.54
				c-1.27-1.66-2.31-3.46-3.13-5.39c0.59,1.39,1.18,2.79,1.76,4.18c-0.63-1.53-1.11-3.11-1.43-4.73c-0.54-2.28-1.59-4.26-3.13-5.95
				c-1.23-1.91-2.87-3.41-4.91-4.51c-2.01-1.28-4.18-1.97-6.51-2.08c-2.33-0.52-4.65-0.42-6.98,0.31c-1.39,0.59-2.79,1.18-4.18,1.76
				c-2.63,1.56-4.72,3.65-6.28,6.28c-0.59,1.39-1.18,2.79-1.76,4.18C100.4,102.7,100.4,105.81,101.23,108.91L101.23,108.91z"/>
		</g>
	</g>
	<g>
		<path class="st0" d="M135.39,50.14c0.4,2.56,1.38,5.03,2.85,7.16c1.88,2.73,4.51,4.84,7.09,6.92"/>
		<g>
			<path class="st0" d="M118.51,54.79c0.47,2.92,1.76,5.55,2.93,8.26c0.91,2.11,2.23,3.81,3.63,5.63c1.37,1.77,2.7,3.43,4.35,4.94
				c1.14,1.04,2.34,2,3.54,2.97c1.59,1.71,3.46,2.91,5.63,3.62c2.09,1.1,4.33,1.6,6.74,1.51c2.41,0.09,4.66-0.41,6.74-1.51
				c2.17-0.71,4.05-1.91,5.63-3.62c0.91-1.18,1.82-2.36,2.74-3.54c1.58-2.73,2.38-5.67,2.39-8.83c-0.21-1.55-0.42-3.1-0.63-4.65
				c-0.83-2.96-2.33-5.54-4.5-7.72c-2.33-1.87-4.66-3.77-6.52-6.14c0.91,1.18,1.82,2.36,2.74,3.54c-0.94-1.23-1.71-2.55-2.31-3.97
				c0.59,1.39,1.18,2.79,1.76,4.18c-0.52-1.28-0.89-2.6-1.11-3.97c-0.54-2.28-1.59-4.26-3.13-5.95c-1.23-1.91-2.87-3.41-4.91-4.51
				c-2.01-1.28-4.18-1.97-6.51-2.08c-2.33-0.52-4.65-0.42-6.98,0.31c-1.39,0.59-2.79,1.18-4.18,1.76c-2.63,1.56-4.72,3.65-6.28,6.28
				c-0.59,1.39-1.18,2.79-1.76,4.18C117.68,48.59,117.68,51.69,118.51,54.79L118.51,54.79z"/>
		</g>
	</g>
	<g>
		<path class="st0" d="M75.55,206.36c4.82-11.42-3.12-23.28-7.65-33.35c-5.12-11.38-4.56-24.03-1.73-35.99
			c4.91-20.83,20.96-38.07,39.12-48.6c10.3-5.97,21.67-10.06,33.38-12.17c-0.97,2.76-10.51,2.06,0,0c-0.12,1.72-0.82,3.91-2.12,5.11
			c-1.16,1.07-3.83,1.47-4.48-0.53c-0.86-2.62,4.82-4.15,6.6-4.58c0.59,5.6-1.92,11.15-4.08,16.19
			c-9.36,20.17-17.31,41.37-27.91,61.69c-4.42,7.95-9.72,15.9-10.6,25.62c-0.88,5.3-5.3,7.95-10.6,7.07
			c-10.6-11.48-6.18-29.15-4.42-43.29c1.77-16.78,9.72-30.92,20.32-45.05c3.53-3.53,7.07-8.83,12.37-6.18
			c4.42,0.88,5.3,7.07,4.42,11.48c-5.3,16.78-17.67,29.15-24.73,45.05c-1.77,5.3-3.53,11.48-3.31,17.78"/>
		<g>
			<path class="st0" d="M92.42,211.01c0.61-1.49,1.03-3.01,1.29-4.6c0.46-2.9,0.97-5.91,0.8-8.87c-0.25-4.46-1-8.99-2.48-13.22
				c-2.55-7.28-6.36-13.93-9.39-20.99c0.59,1.39,1.18,2.79,1.76,4.18c-1.5-3.59-2.48-7.34-3.03-11.19c0.21,1.55,0.42,3.1,0.63,4.65
				c-0.7-5.33-0.55-10.7,0.16-16.01c-0.21,1.55-0.42,3.1-0.63,4.65c0.86-6.12,2.34-12.12,4.74-17.82c-0.59,1.39-1.18,2.79-1.76,4.18
				c2.43-5.69,5.63-10.99,9.4-15.88c-0.91,1.18-1.82,2.36-2.74,3.54c4.62-5.93,10.02-11.2,15.96-15.8
				c-1.18,0.91-2.36,1.82-3.54,2.74c6.71-5.15,14.05-9.39,21.83-12.69c-1.39,0.59-2.79,1.18-4.18,1.76
				c7.1-2.97,14.49-5.15,22.06-6.53c-7.18-7.18-14.35-14.35-21.53-21.53c-0.02,0.04-0.03,0.08-0.05,0.12
				c0.59-1.39,1.18-2.79,1.76-4.18c-0.06,0.12-0.13,0.23-0.21,0.34c0.91-1.18,1.82-2.36,2.74-3.54c-0.13,0.15-0.26,0.27-0.41,0.39
				c1.18-0.91,2.36-1.82,3.54-2.74c-0.26,0.18-0.53,0.33-0.82,0.45c1.39-0.59,2.79-1.18,4.18-1.76c-0.56,0.22-1.14,0.37-1.73,0.45
				c1.55-0.21,3.1-0.42,4.65-0.63c-0.42,0.05-0.85,0.08-1.27,0.02c1.55,0.21,3.1,0.42,4.65,0.63c-0.08-0.01-0.15-0.03-0.23-0.06
				c1.39,0.59,2.79,1.18,4.18,1.76c-0.04-0.01-0.07-0.03-0.1-0.05c1.18,0.91,2.36,1.82,3.54,2.74c-0.01-0.01-0.02-0.02-0.03-0.03
				c0.91,1.18,1.82,2.36,2.74,3.54c-0.01-0.01-0.01-0.02-0.02-0.03c0.59,1.39,1.18,2.79,1.76,4.18c0-0.01,0-0.02-0.01-0.04
				c0,3.1,0,6.2,0,9.3c0-0.01,0.01-0.03,0.01-0.04c-0.59,1.39-1.18,2.79-1.76,4.18c0.01-0.01,0.01-0.03,0.02-0.04
				c-0.91,1.18-1.82,2.36-2.74,3.54c0.03-0.04,0.06-0.07,0.09-0.09c-1.18,0.91-2.36,1.82-3.54,2.74c0.16-0.12,0.34-0.2,0.52-0.28
				c-1.39,0.59-2.79,1.18-4.18,1.76c1.36-0.55,2.83-0.82,4.26-1.11c-7.38-5.62-14.77-11.25-22.15-16.87
				c-0.02,0.22-0.04,0.44-0.07,0.67c0.21-1.55,0.42-3.1,0.63-4.65c-0.14,0.84-0.36,1.63-0.68,2.42c0.59-1.39,1.18-2.79,1.76-4.18
				c-0.25,0.55-0.54,1.05-0.9,1.53c0.91-1.18,1.82-2.36,2.74-3.54c-0.2,0.23-0.4,0.44-0.63,0.64c1.18-0.91,2.36-1.82,3.54-2.74
				c-0.27,0.2-0.55,0.35-0.86,0.48c1.39-0.59,2.79-1.18,4.18-1.76c-0.25,0.09-0.49,0.15-0.75,0.21c1.55-0.21,3.1-0.42,4.65-0.63
				c-0.35,0.05-0.67,0.06-1.02,0.02c1.55,0.21,3.1,0.42,4.65,0.63c-0.16-0.02-0.32-0.07-0.48-0.12c1.39,0.59,2.79,1.18,4.18,1.76
				c-0.15-0.06-0.3-0.13-0.43-0.22c1.18,0.91,2.36,1.82,3.54,2.74c-0.14-0.09-0.26-0.2-0.37-0.33c0.91,1.18,1.82,2.36,2.74,3.54
				c-0.12-0.14-0.21-0.28-0.29-0.45c0.59,1.39,1.18,2.79,1.76,4.18c-0.09-0.24-0.15-0.42-0.19-0.67c0.21,1.55,0.42,3.1,0.63,4.65
				c-0.01-0.13,0-0.26,0.02-0.39c-0.21,1.55-0.42,3.1-0.63,4.65c0.02-0.13,0.06-0.25,0.11-0.37c-0.59,1.39-1.18,2.79-1.76,4.18
				c0.09-0.19,0.19-0.35,0.31-0.52c-0.91,1.18-1.82,2.36-2.74,3.54c0.2-0.23,0.41-0.43,0.65-0.63c-1.18,0.91-2.36,1.82-3.54,2.74
				c0.64-0.47,1.33-0.83,2.06-1.15c-1.39,0.59-2.79,1.18-4.18,1.76c1.15-0.47,2.33-0.83,3.54-1.13
				c-7.38-5.62-14.77-11.25-22.15-16.87c0.12,1.37,0.09,2.71-0.07,4.07c0.21-1.55,0.42-3.1,0.63-4.65
				c-0.47,3.35-1.65,6.52-2.95,9.63c0.59-1.39,1.18-2.79,1.76-4.18c-2.6,6.15-5.46,12.19-8.11,18.32
				c-2.63,6.07-5.21,12.16-7.85,18.22c-2.73,6.26-5.53,12.49-8.49,18.64c-2.72,5.64-5.76,11.05-8.76,16.53
				c-2.26,4.12-4.2,8.42-5.86,12.81c-1.72,4.55-2.41,9.27-2.88,14.11c0.21-1.55,0.42-3.1,0.63-4.65c-0.14,0.79-0.35,1.54-0.66,2.28
				c0.59-1.39,1.18-2.79,1.76-4.18c-0.3,0.67-0.66,1.29-1.11,1.87c0.91-1.18,1.82-2.36,2.74-3.54c-0.39,0.47-0.8,0.88-1.27,1.27
				c1.18-0.91,2.36-1.82,3.54-2.74c-0.56,0.43-1.15,0.78-1.79,1.07c1.39-0.59,2.79-1.18,4.18-1.76c-0.78,0.32-1.56,0.53-2.39,0.65
				c1.55-0.21,3.1-0.42,4.65-0.63c-1.01,0.12-2.01,0.1-3.02-0.02c1.55,0.21,3.1,0.42,4.65,0.63c-0.12-0.02-0.23-0.04-0.35-0.05
				c2.57,1.5,5.15,3,7.72,4.5c-0.5-0.55-0.98-1.12-1.44-1.71c0.91,1.18,1.82,2.36,2.74,3.54c-1.22-1.63-2.23-3.38-3.03-5.26
				c0.59,1.39,1.18,2.79,1.76,4.18c-0.99-2.41-1.62-4.93-1.99-7.51c0.21,1.55,0.42,3.1,0.63,4.65c-0.82-6.13-0.22-12.33,0.59-18.43
				c-0.21,1.55-0.42,3.1-0.63,4.65c0.77-5.7,1.56-11.4,2.33-17.11c-0.21,1.55-0.42,3.1-0.63,4.65c0.86-6.1,2.55-12.02,4.92-17.71
				c-0.59,1.39-1.18,2.79-1.76,4.18c3.84-9.09,9.25-17.38,15.14-25.26c-0.91,1.18-1.82,2.36-2.74,3.54c1.7-1.72,3.24-3.6,5.13-5.11
				c-1.18,0.91-2.36,1.82-3.54,2.74c0.68-0.52,1.39-0.97,2.18-1.32c-1.39,0.59-2.79,1.18-4.18,1.76c0.48-0.19,0.96-0.32,1.47-0.41
				c-1.55,0.21-3.1,0.42-4.65,0.63c0.53-0.06,1.04-0.06,1.57,0c-1.55-0.21-3.1-0.42-4.65-0.63c0.59,0.1,1.13,0.27,1.68,0.49
				c-1.39-0.59-2.79-1.18-4.18-1.76c1.76,0.83,3.54,1.52,5.35,2.17c-1.39-0.59-2.79-1.18-4.18-1.76c0.42,0.18,0.8,0.39,1.17,0.67
				c-1.18-0.91-2.36-1.82-3.54-2.74c0.35,0.29,0.66,0.6,0.94,0.95c-0.91-1.18-1.82-2.36-2.74-3.54c0.4,0.54,0.7,1.1,0.96,1.72
				c-0.59-1.39-1.18-2.79-1.76-4.18c0.33,0.86,0.54,1.74,0.68,2.64c-0.21-1.55-0.42-3.1-0.63-4.65c0.19,1.46,0.17,2.92-0.02,4.38
				c0.21-1.55,0.42-3.1,0.63-4.65c-0.32,2.17-1.32,4.31-2.16,6.33c0.59-1.39,1.18-2.79,1.76-4.18
				c-6.97,16.36-20.16,29.47-25.4,46.65c-0.75,2.45-1.4,4.94-1.83,7.47c-0.69,3.98-1.3,8.05-1.19,12.1
				c0.13,4.56,1.87,9.11,5.13,12.37c1.59,1.71,3.46,2.91,5.63,3.62c2.09,1.1,4.33,1.6,6.74,1.51c4.53-0.2,9.22-1.69,12.37-5.13
				c3.09-3.37,5.25-7.68,5.13-12.37c-0.05-1.88,0.05-3.75,0.28-5.61c-0.21,1.55-0.42,3.1-0.63,4.65c0.56-4.16,1.71-8.19,3.03-12.16
				c-0.59,1.39-1.18,2.79-1.76,4.18c3.91-8.73,9.46-16.54,14.57-24.59c2.54-4.01,4.96-8.1,6.99-12.4
				c3.04-6.45,6.04-13.13,5.87-20.43c-0.11-5-1.21-9.58-3.57-13.99c-1.08-2.01-2.54-3.95-4.28-5.43c-2.93-2.5-5.86-4.52-9.72-5.41
				c1.39,0.59,2.79,1.18,4.18,1.76c-4-1.88-6.56-2.77-11.02-3.07c-2.37-0.16-4.83,0.2-7.09,0.89c-4.52,1.39-8.34,3.96-11.73,7.21
				C88.48,86.3,85.02,91.15,81.69,96c-6.16,8.99-11.24,18.78-14.59,29.17c-2.08,6.44-2.83,13.03-3.71,19.72
				c0.21-1.55,0.42-3.1,0.63-4.65c-1.33,9.91-3.58,20.06-2.7,30.11c0.3,3.5,0.71,7.06,1.6,10.46c0.88,3.38,2.29,6.7,3.9,9.77
				c1.61,3.07,3.83,5.91,6.17,8.45c3.64,3.95,9.06,5.31,14.23,5.43c0.44,0.01,0.88-0.01,1.32-0.05c1.94-0.17,4-0.38,5.91-0.84
				c2.34-0.56,4.67-1.54,6.7-2.8c1.57-0.98,3.13-2.22,4.5-3.44c0.38-0.34,0.71-0.69,1.04-1.08c2.82-3.34,4.15-5.61,5.67-9.75
				c0.95-2.58,1.03-5.36,1.37-8.07c-0.21,1.55-0.42,3.1-0.63,4.65c0.47-3.36,1.44-6.58,2.73-9.71c-0.59,1.39-1.18,2.79-1.76,4.18
				c2.37-5.62,5.72-10.7,8.5-16.11c3.17-6.16,6.12-12.44,8.96-18.76c5.54-12.34,10.65-24.87,16.23-37.19
				c2.08-4.59,4.21-9.17,5.96-13.9c0.64-1.72,1.19-3.48,1.54-5.29c0.62-3.26,1.22-6.72,0.91-10.07c-0.01-3.16-0.81-6.1-2.39-8.83
				c-1.1-2.04-2.6-3.68-4.51-4.91c-1.69-1.55-3.67-2.59-5.95-3.13c-3.1-0.83-6.2-0.83-9.3,0c-0.81,0.2-1.61,0.42-2.39,0.69
				c-1.81,0.62-3.57,1.43-5.32,2.2c-0.49,0.22-0.98,0.44-1.44,0.72c-3.23,1.98-5.85,4.51-7.81,7.76c-1.55,2.57-2.66,6.48-2.56,9.48
				c0.11,3.26,0.8,6.89,2.58,9.7c2.9,4.57,6.81,7.63,12.02,9.16c5.26,1.55,10.99,0.32,15.71-2.2c0.75-0.4,1.71-1.27,2.17-1.63
				c0.87-0.67,1.6-1.13,2.29-1.88c1.2-1.3,2.7-3.13,3.6-4.87c2.15-4.14,2.88-7.63,3.3-12.25c-0.01-3.16-0.81-6.1-2.39-8.83
				c-1.1-2.04-2.6-3.68-4.51-4.91c-1.69-1.55-3.67-2.59-5.95-3.13c-3.1-0.83-6.2-0.83-9.3,0c-1.17,0.23-2.35,0.47-3.5,0.83
				c-2.92,0.93-4.94,1.92-7.23,3.69c-1.25,0.97-1.28,0.87-1.86,1.46c-1.67,1.69-2.74,3.54-3.64,5.68c-0.45,0.66-0.75,1.37-0.89,2.13
				c-0.21,1.55-0.42,3.1-0.63,4.65c-0.15,3.31,0.45,4.25,1.51,6.78c0.9,2.13,1.97,3.99,3.64,5.67c0.22,0.22,3.36,2.64,3.62,2.8
				c1.1,0.64,3.22,1.52,4.47,1.85c0.89,0.23,3.9,0.61,4.8,0.64c0.1,0,0.19,0.01,0.28,0.01c0.23,0,0.46-0.02,0.69-0.04
				c1.76-0.13,4.17-0.34,6.07-0.92c2.93-0.89,4.94-1.98,7.24-3.76c2.16-1.67,1.88-1.36,3.55-3.53c2.18-2.82,1.65-2.1,3.4-6.42
				c0.83-3.1,0.83-6.2,0-9.3c-0.83-2.96-2.33-5.54-4.5-7.72c-2.18-2.17-4.76-3.67-7.72-4.5c-3.1-0.83-6.2-0.83-9.3,0
				c-11.98,2.19-23.66,6.46-34.4,12.18c-4.22,2.25-8.28,4.8-12.12,7.64c-4.84,3.58-9.57,7.32-13.84,11.57
				c-4.22,4.2-7.96,8.87-11.45,13.69c-2.71,3.74-5.1,7.74-7.04,11.93c-2.52,5.44-4.74,11-6.07,16.85
				c-1.49,6.59-2.5,13.44-2.55,20.21c-0.03,4.39,0.55,8.73,1.22,13.07c0.46,2.94,1.19,5.84,2.23,8.63
				c2.48,6.66,5.99,12.82,8.77,19.35c-0.59-1.39-1.18-2.79-1.76-4.18c1.33,3.19,2.44,6.46,2.94,9.89c-0.21-1.55-0.42-3.1-0.63-4.65
				c0.26,2.01,0.3,4,0.05,6.02c0.21-1.55,0.42-3.1,0.63-4.65c-0.24,1.66-0.68,3.25-1.32,4.8c-0.73,2.33-0.83,4.65-0.31,6.98
				c0.11,2.33,0.8,4.5,2.08,6.51c2.12,3.63,6.29,7.09,10.46,8.04c4.48,1.02,9.51,0.8,13.48-1.76c1.18-0.91,2.36-1.82,3.54-2.74
				C90.09,216.55,91.59,213.98,92.42,211.01L92.42,211.01z"/>
		</g>
	</g>
	<g>
		<path class="st0" d="M145.31,54.97c-9.01,8.59-20.25,14.2-31.28,19.7c-11.14,5.56-22.09,11.57-31.55,19.76
			c-19.56,16.94-30.43,41.42-27.46,67.35c1.73,15.07,7.98,29.27,9.16,44.41"/>
		<g>
			<path class="st0" d="M132.93,42.59c-1.7,1.6-3.47,3.12-5.31,4.55c1.18-0.91,2.36-1.82,3.54-2.74
				c-10.09,7.78-21.79,12.82-32.98,18.74c-12.26,6.49-24.16,14.31-33.82,24.35c-4.79,4.98-9.13,10.53-12.85,16.35
				c-3.71,5.81-6.57,12.11-9.01,18.55c-1.95,5.15-3.33,10.49-4.11,15.94c-1.02,7.03-1.69,13.96-1.1,21.06
				c0.71,8.64,2.47,17.07,4.65,25.45c1.89,7.24,3.9,14.47,4.92,21.9c-0.21-1.55-0.42-3.1-0.63-4.65c0.18,1.37,0.33,2.74,0.44,4.11
				c-0.09,2.41,0.41,4.66,1.51,6.74c0.71,2.17,1.91,4.05,3.62,5.63c1.59,1.71,3.46,2.91,5.63,3.62c2.09,1.1,4.33,1.6,6.74,1.51
				c4.53-0.2,9.22-1.69,12.37-5.13c2.99-3.26,5.5-7.79,5.13-12.37c-0.72-8.84-2.53-17.44-4.77-26c-1.88-7.17-3.85-14.34-4.85-21.7
				c0.21,1.55,0.42,3.1,0.63,4.65c-0.85-6.57-0.86-13.21,0.02-19.78c-0.21,1.55-0.42,3.1-0.63,4.65c0.9-6.47,2.65-12.78,5.16-18.81
				c-0.59,1.39-1.18,2.79-1.76,4.18c2.71-6.4,6.25-12.39,10.49-17.89c-0.91,1.18-1.82,2.36-2.74,3.54
				c4.58-5.88,9.91-11.1,15.81-15.66c-1.18,0.91-2.36,1.82-3.54,2.74c7.26-5.57,15.22-10.13,23.34-14.31
				c7.94-4.08,16.04-7.85,23.57-12.67c5.4-3.46,10.61-7.39,15.27-11.8c3.2-3.03,5.13-8.01,5.13-12.37c0-4.29-1.91-9.42-5.13-12.37
				c-3.34-3.06-7.71-5.33-12.37-5.13C140.59,37.68,136.4,39.31,132.93,42.59L132.93,42.59z"/>
		</g>
	</g>
	<g>
		<path class="st0" d="M70.87,222.1c-2.41,3.95-4.31,8.2-5.65,12.63c0.24-4.28,0.47-8.57,0.71-12.85c-1.04,4.75-2.08,9.5-3.12,14.25
			c3.76-4.39,5.63-10.35,5.05-16.1"/>
		<g>
			<path class="st0" d="M68.71,220.84c-2.51,4.14-4.49,8.6-5.9,13.22c1.64,0.22,3.27,0.44,4.91,0.66c0.24-4.28,0.47-8.57,0.71-12.85
				c0.16-2.8-4.31-3.42-4.91-0.66c-1.04,4.75-2.08,9.5-3.12,14.25c-0.23,1.05,0.14,2.29,1.15,2.82c0.93,0.49,2.3,0.47,3.03-0.39
				c4.17-4.93,6.4-11.4,5.78-17.87c-0.12-1.3-1.06-2.56-2.5-2.5c-1.25,0.06-2.63,1.11-2.5,2.5c0.13,1.4,0.14,2.8,0,4.2
				c-0.02,0.17-0.04,0.35-0.06,0.52c0.03-0.23,0.02-0.19-0.02,0.12c-0.06,0.34-0.12,0.69-0.19,1.03c-0.14,0.64-0.3,1.28-0.49,1.91
				c-0.7,2.29-2.05,4.8-3.55,6.56c1.39,0.81,2.79,1.62,4.18,2.43c1.04-4.75,2.08-9.5,3.12-14.25c-1.64-0.22-3.27-0.44-4.91-0.66
				c-0.24,4.28-0.47,8.57-0.71,12.85c-0.07,1.24,1,2.3,2.17,2.46c1.24,0.17,2.38-0.59,2.74-1.79c1.31-4.31,3.04-8.14,5.4-12.03
				c0.68-1.12,0.28-2.8-0.9-3.42C70.92,219.3,69.44,219.65,68.71,220.84L68.71,220.84z"/>
		</g>
	</g>
	<g>
		<path class="st0" d="M155.13,38.53c3.56-2.89,7.11-5.78,10.67-8.67c-1.72,5.75-4.16,11.3-7.23,16.46
			c-1.84-1.42-3.86-3.2-3.78-5.51c0.02-0.78,0.32-1.57,0.92-2.08c0.91-0.77,2.46-0.63,3.2,0.31s0.51,2.49-0.48,3.17
			c0.67-1.74,1.34-3.49,2.01-5.23c-1.34,1.92-3.1,3.55-5.13,4.73c-0.98,0.57-2.37,0.97-3.12,0.12c-0.59-0.68-0.33-1.8,0.32-2.43
			s1.56-0.88,2.43-1.12"/>
		<g>
			<path class="st0" d="M156.9,40.29c3.56-2.89,7.11-5.78,10.67-8.67c-1.39-0.81-2.79-1.62-4.18-2.43
				c-1.7,5.62-3.97,10.78-6.98,15.86c1.31-0.17,2.62-0.34,3.93-0.51c-0.9-0.7-1.82-1.43-2.53-2.32c0.26,0.32-0.12-0.2-0.16-0.27
				c-0.06-0.1-0.33-0.63-0.16-0.23c-0.05-0.11-0.24-0.99-0.18-0.45c-0.01-0.12,0.02-0.79-0.06-0.27c0.01-0.07,0.08-0.74,0.05-0.29
				c0.15-0.25,0.16-0.27,0.01-0.06c-0.2,0.12-0.23,0.14-0.08,0.05c0.16-0.09,0.12-0.08-0.12,0.04c0.29-0.07,0.27-0.07-0.05-0.01
				c0.25,0.01,0.28,0.01,0.09-0.01c-0.19-0.03-0.17-0.02,0.08,0.04c-0.27-0.13-0.28-0.12-0.03,0.02c-0.11-0.04-0.19-0.12-0.25-0.21
				c-0.1-0.15-0.09-0.11,0.03,0.09c-0.11-0.13-0.15-0.29-0.13-0.46c0.07,0.42,0.17-0.23,0,0.17c0.14-0.27,0.14-0.28,0-0.02
				c0.08-0.14,0.18-0.23,0.33-0.3c1.22,0.94,2.45,1.88,3.67,2.82c0.67-1.74,1.34-3.49,2.01-5.23c0.44-1.15-0.39-2.52-1.45-2.95
				c-1.22-0.49-2.38-0.02-3.12,1.02c-1.04,1.47-2.61,2.95-4.33,3.88c-0.1,0.06-0.2,0.11-0.31,0.16c0.2-0.08,0.21-0.09,0.04-0.03
				c-0.11,0.04-0.23,0.07-0.34,0.1c0.25-0.02,0.28-0.02,0.1-0.02c-0.19,0-0.15,0.01,0.13,0.04c0.18,0.05,0.33,0.15,0.43,0.32
				c0.26,0.26,0.32,0.41,0.35,0.76c0.01,0.1-0.03,0.2-0.09,0.28c0.14-0.22,0.16-0.26,0.07-0.12c-0.04,0.08-0.1,0.13-0.18,0.16
				c0.1-0.07,0.2-0.13,0.31-0.19c0.16-0.08,0.14-0.08-0.04,0c0.12-0.04,0.23-0.09,0.35-0.12c0.27-0.09,0.55-0.17,0.83-0.24
				c1.3-0.35,2.1-1.78,1.75-3.08c-0.36-1.31-1.77-2.1-3.08-1.75c-2.07,0.56-4.13,1.59-4.75,3.84c-0.7,2.53,1.08,4.99,3.7,5.1
				c1.92,0.08,3.67-1.03,5.14-2.15c1.66-1.26,3.03-2.71,4.23-4.41c-1.52-0.64-3.05-1.28-4.57-1.93c-0.67,1.74-1.34,3.49-2.01,5.23
				c-0.35,0.91,0.17,2.09,0.9,2.63c0.73,0.54,1.98,0.8,2.78,0.2c1.02-0.78,1.77-1.68,2.04-2.98c0.25-1.24,0.05-2.56-0.66-3.61
				c-1.43-2.11-4.54-2.7-6.62-1.21c-2.11,1.51-2.64,4.37-1.7,6.7c0.81,2.02,2.36,3.51,4.06,4.82c1.25,0.97,3.02,1.02,3.93-0.51
				c3.17-5.35,5.68-11.1,7.48-17.06c0.32-1.06-0.21-2.27-1.15-2.82c-1.02-0.6-2.16-0.32-3.03,0.39c-3.56,2.89-7.11,5.78-10.67,8.67
				c-1.05,0.85-0.89,2.65,0,3.54C154.4,41.33,155.85,41.15,156.9,40.29L156.9,40.29z"/>
		</g>
	</g>
	<polyline class="st1" points="64.43,238.71 168.32,161.61 168.32,162.16 168.32,28.19 64.43,105.29 64.43,238.71 5.38,238.71 
		5.38,105.29 64.43,105.29 5.38,105.29 109.27,28.19 168.32,28.19 	"/>
</g>
<g>
	<g>
		<path class="st0" d="M197.06,104.25c0.98,5.15,3.71,9.95,7.64,13.42"/>
		<g>
			<path class="st0" d="M180.19,108.91c0.25,1.3,0.61,2.59,1.07,3.83c0.74,1.99,1.58,3.95,2.47,5.87c0.29,0.62,0.6,1.23,0.94,1.82
				c1.36,2.38,3.15,4.53,4.85,6.66c0.85,1.07,1.8,2.05,2.81,2.96c1.59,1.71,3.46,2.91,5.63,3.62c2.09,1.1,4.33,1.6,6.74,1.51
				c2.41,0.09,4.66-0.41,6.74-1.51c2.17-0.71,4.05-1.91,5.63-3.62c0.91-1.18,1.82-2.36,2.74-3.54c1.58-2.73,2.38-5.67,2.39-8.83
				c-0.21-1.55-0.42-3.1-0.63-4.65c-0.83-2.96-2.33-5.54-4.5-7.72c-1.13-1.01-2.15-2.11-3.08-3.3c0.91,1.18,1.82,2.36,2.74,3.54
				c-1.27-1.66-2.31-3.46-3.13-5.39c0.59,1.39,1.18,2.79,1.76,4.18c-0.63-1.53-1.11-3.11-1.43-4.73c-0.54-2.28-1.59-4.26-3.13-5.95
				c-1.23-1.91-2.87-3.41-4.91-4.51c-2.01-1.28-4.18-1.97-6.51-2.08c-2.33-0.52-4.65-0.42-6.98,0.31c-1.39,0.59-2.79,1.18-4.18,1.76
				c-2.63,1.56-4.72,3.65-6.28,6.28c-0.59,1.39-1.18,2.79-1.76,4.18C179.35,102.7,179.35,105.81,180.19,108.91L180.19,108.91z"/>
		</g>
	</g>
	<g>
		<path class="st0" d="M214.34,50.14c0.4,2.56,1.38,5.03,2.85,7.16c1.88,2.73,4.51,4.84,7.09,6.92"/>
		<g>
			<path class="st0" d="M197.47,54.79c0.47,2.92,1.76,5.55,2.93,8.26c0.91,2.11,2.23,3.81,3.63,5.63c1.37,1.77,2.7,3.43,4.35,4.94
				c1.14,1.04,2.34,2,3.54,2.97c1.59,1.71,3.46,2.91,5.63,3.62c2.09,1.1,4.33,1.6,6.74,1.51c2.41,0.09,4.66-0.41,6.74-1.51
				c2.17-0.71,4.05-1.91,5.63-3.62c0.91-1.18,1.82-2.36,2.74-3.54c1.58-2.73,2.38-5.67,2.39-8.83c-0.21-1.55-0.42-3.1-0.63-4.65
				c-0.83-2.96-2.33-5.54-4.5-7.72c-2.33-1.87-4.66-3.77-6.52-6.14c0.91,1.18,1.82,2.36,2.74,3.54c-0.94-1.23-1.71-2.55-2.31-3.97
				c0.59,1.39,1.18,2.79,1.76,4.18c-0.52-1.28-0.89-2.6-1.11-3.97c-0.54-2.28-1.59-4.26-3.13-5.95c-1.23-1.91-2.87-3.41-4.91-4.51
				c-2.01-1.28-4.18-1.97-6.51-2.08c-2.33-0.52-4.65-0.42-6.98,0.31c-1.39,0.59-2.79,1.18-4.18,1.76c-2.63,1.56-4.72,3.65-6.28,6.28
				c-0.59,1.39-1.18,2.79-1.76,4.18C196.63,48.59,196.63,51.69,197.47,54.79L197.47,54.79z"/>
		</g>
	</g>
	<g>
		<path class="st0" d="M154.5,206.36c4.82-11.42-3.12-23.28-7.65-33.35c-5.12-11.38-4.56-24.03-1.73-35.99
			c4.91-20.83,20.96-38.07,39.12-48.6c10.3-5.97,21.67-10.06,33.38-12.17c-0.97,2.76-10.51,2.06,0,0c-0.12,1.72-0.82,3.91-2.12,5.11
			c-1.16,1.07-3.83,1.47-4.48-0.53c-0.86-2.62,4.82-4.15,6.6-4.58c0.59,5.6-1.92,11.15-4.08,16.19
			c-9.36,20.17-17.31,41.37-27.91,61.69c-4.42,7.95-9.72,15.9-10.6,25.62c-0.88,5.3-5.3,7.95-10.6,7.07
			c-10.6-11.48-6.18-29.15-4.42-43.29c1.77-16.78,9.72-30.92,20.32-45.05c3.53-3.53,7.07-8.83,12.37-6.18
			c4.42,0.88,5.3,7.07,4.42,11.48c-5.3,16.78-17.67,29.15-24.73,45.05c-1.77,5.3-3.53,11.48-3.31,17.78"/>
		<g>
			<path class="st0" d="M171.38,211.01c0.61-1.49,1.03-3.01,1.29-4.6c0.46-2.9,0.97-5.91,0.8-8.87c-0.25-4.46-1-8.99-2.48-13.22
				c-2.55-7.28-6.36-13.93-9.39-20.99c0.59,1.39,1.18,2.79,1.76,4.18c-1.5-3.59-2.48-7.34-3.03-11.19c0.21,1.55,0.42,3.1,0.63,4.65
				c-0.7-5.33-0.55-10.7,0.16-16.01c-0.21,1.55-0.42,3.1-0.63,4.65c0.86-6.12,2.34-12.12,4.74-17.82c-0.59,1.39-1.18,2.79-1.76,4.18
				c2.43-5.69,5.63-10.99,9.4-15.88c-0.91,1.18-1.82,2.36-2.74,3.54c4.62-5.93,10.02-11.2,15.96-15.8
				c-1.18,0.91-2.36,1.82-3.54,2.74c6.71-5.15,14.05-9.39,21.83-12.69c-1.39,0.59-2.79,1.18-4.18,1.76
				c7.1-2.97,14.49-5.15,22.06-6.53c-7.18-7.18-14.35-14.35-21.53-21.53c-0.02,0.04-0.03,0.08-0.05,0.12
				c0.59-1.39,1.18-2.79,1.76-4.18c-0.06,0.12-0.13,0.23-0.21,0.34c0.91-1.18,1.82-2.36,2.74-3.54c-0.13,0.15-0.26,0.27-0.41,0.39
				c1.18-0.91,2.36-1.82,3.54-2.74c-0.26,0.18-0.53,0.33-0.82,0.45c1.39-0.59,2.79-1.18,4.18-1.76c-0.56,0.22-1.14,0.37-1.73,0.45
				c1.55-0.21,3.1-0.42,4.65-0.63c-0.42,0.05-0.85,0.08-1.27,0.02c1.55,0.21,3.1,0.42,4.65,0.63c-0.08-0.01-0.15-0.03-0.23-0.06
				c1.39,0.59,2.79,1.18,4.18,1.76c-0.04-0.01-0.07-0.03-0.1-0.05c1.18,0.91,2.36,1.82,3.54,2.74c-0.01-0.01-0.02-0.02-0.03-0.03
				c0.91,1.18,1.82,2.36,2.74,3.54c-0.01-0.01-0.01-0.02-0.02-0.03c0.59,1.39,1.18,2.79,1.76,4.18c0-0.01,0-0.02-0.01-0.04
				c0,3.1,0,6.2,0,9.3c0-0.01,0.01-0.03,0.01-0.04c-0.59,1.39-1.18,2.79-1.76,4.18c0.01-0.01,0.01-0.03,0.02-0.04
				c-0.91,1.18-1.82,2.36-2.74,3.54c0.03-0.04,0.06-0.07,0.09-0.09c-1.18,0.91-2.36,1.82-3.54,2.74c0.16-0.12,0.34-0.2,0.52-0.28
				c-1.39,0.59-2.79,1.18-4.18,1.76c1.36-0.55,2.83-0.82,4.26-1.11c-7.38-5.62-14.77-11.25-22.15-16.87
				c-0.02,0.22-0.04,0.44-0.07,0.67c0.21-1.55,0.42-3.1,0.63-4.65c-0.14,0.84-0.36,1.63-0.68,2.42c0.59-1.39,1.18-2.79,1.76-4.18
				c-0.25,0.55-0.54,1.05-0.9,1.53c0.91-1.18,1.82-2.36,2.74-3.54c-0.2,0.23-0.4,0.44-0.63,0.64c1.18-0.91,2.36-1.82,3.54-2.74
				c-0.27,0.2-0.55,0.35-0.86,0.48c1.39-0.59,2.79-1.18,4.18-1.76c-0.25,0.09-0.49,0.15-0.75,0.21c1.55-0.21,3.1-0.42,4.65-0.63
				c-0.35,0.05-0.67,0.06-1.02,0.02c1.55,0.21,3.1,0.42,4.65,0.63c-0.16-0.02-0.32-0.07-0.48-0.12c1.39,0.59,2.79,1.18,4.18,1.76
				c-0.15-0.06-0.3-0.13-0.43-0.22c1.18,0.91,2.36,1.82,3.54,2.74c-0.14-0.09-0.26-0.2-0.37-0.33c0.91,1.18,1.82,2.36,2.74,3.54
				c-0.12-0.14-0.21-0.28-0.29-0.45c0.59,1.39,1.18,2.79,1.76,4.18c-0.09-0.24-0.15-0.42-0.19-0.67c0.21,1.55,0.42,3.1,0.63,4.65
				c-0.01-0.13,0-0.26,0.02-0.39c-0.21,1.55-0.42,3.1-0.63,4.65c0.02-0.13,0.06-0.25,0.11-0.37c-0.59,1.39-1.18,2.79-1.76,4.18
				c0.09-0.19,0.19-0.35,0.31-0.52c-0.91,1.18-1.82,2.36-2.74,3.54c0.2-0.23,0.41-0.43,0.65-0.63c-1.18,0.91-2.36,1.82-3.54,2.74
				c0.64-0.47,1.33-0.83,2.06-1.15c-1.39,0.59-2.79,1.18-4.18,1.76c1.15-0.47,2.33-0.83,3.54-1.13
				c-7.38-5.62-14.77-11.25-22.15-16.87c0.12,1.37,0.09,2.71-0.07,4.07c0.21-1.55,0.42-3.1,0.63-4.65
				c-0.47,3.35-1.65,6.52-2.95,9.63c0.59-1.39,1.18-2.79,1.76-4.18c-2.6,6.15-5.46,12.19-8.11,18.32
				c-2.63,6.07-5.21,12.16-7.85,18.22c-2.73,6.26-5.53,12.49-8.49,18.64c-2.72,5.64-5.76,11.05-8.76,16.53
				c-2.26,4.12-4.2,8.42-5.86,12.81c-1.72,4.55-2.41,9.27-2.88,14.11c0.21-1.55,0.42-3.1,0.63-4.65c-0.14,0.79-0.35,1.54-0.66,2.28
				c0.59-1.39,1.18-2.79,1.76-4.18c-0.3,0.67-0.66,1.29-1.11,1.87c0.91-1.18,1.82-2.36,2.74-3.54c-0.39,0.47-0.8,0.88-1.27,1.27
				c1.18-0.91,2.36-1.82,3.54-2.74c-0.56,0.43-1.15,0.78-1.79,1.07c1.39-0.59,2.79-1.18,4.18-1.76c-0.78,0.32-1.56,0.53-2.39,0.65
				c1.55-0.21,3.1-0.42,4.65-0.63c-1.01,0.12-2.01,0.1-3.02-0.02c1.55,0.21,3.1,0.42,4.65,0.63c-0.12-0.02-0.23-0.04-0.35-0.05
				c2.57,1.5,5.15,3,7.72,4.5c-0.5-0.55-0.98-1.12-1.44-1.71c0.91,1.18,1.82,2.36,2.74,3.54c-1.22-1.63-2.23-3.38-3.03-5.26
				c0.59,1.39,1.18,2.79,1.76,4.18c-0.99-2.41-1.62-4.93-1.99-7.51c0.21,1.55,0.42,3.1,0.63,4.65c-0.82-6.13-0.22-12.33,0.59-18.43
				c-0.21,1.55-0.42,3.1-0.63,4.65c0.77-5.7,1.56-11.4,2.33-17.11c-0.21,1.55-0.42,3.1-0.63,4.65c0.86-6.1,2.55-12.02,4.92-17.71
				c-0.59,1.39-1.18,2.79-1.76,4.18c3.84-9.09,9.25-17.38,15.14-25.26c-0.91,1.18-1.82,2.36-2.74,3.54c1.7-1.72,3.24-3.6,5.13-5.11
				c-1.18,0.91-2.36,1.82-3.54,2.74c0.68-0.52,1.39-0.97,2.18-1.32c-1.39,0.59-2.79,1.18-4.18,1.76c0.48-0.19,0.96-0.32,1.47-0.41
				c-1.55,0.21-3.1,0.42-4.65,0.63c0.53-0.06,1.04-0.06,1.57,0c-1.55-0.21-3.1-0.42-4.65-0.63c0.59,0.1,1.13,0.27,1.68,0.49
				c-1.39-0.59-2.79-1.18-4.18-1.76c1.76,0.83,3.54,1.52,5.35,2.17c-1.39-0.59-2.79-1.18-4.18-1.76c0.42,0.18,0.8,0.39,1.17,0.67
				c-1.18-0.91-2.36-1.82-3.54-2.74c0.35,0.29,0.66,0.6,0.94,0.95c-0.91-1.18-1.82-2.36-2.74-3.54c0.4,0.54,0.7,1.1,0.96,1.72
				c-0.59-1.39-1.18-2.79-1.76-4.18c0.33,0.86,0.54,1.74,0.68,2.64c-0.21-1.55-0.42-3.1-0.63-4.65c0.19,1.46,0.17,2.92-0.02,4.38
				c0.21-1.55,0.42-3.1,0.63-4.65c-0.32,2.17-1.32,4.31-2.16,6.33c0.59-1.39,1.18-2.79,1.76-4.18
				c-6.97,16.36-20.16,29.47-25.4,46.65c-0.75,2.45-1.4,4.94-1.83,7.47c-0.69,3.98-1.3,8.05-1.19,12.1
				c0.13,4.56,1.87,9.11,5.13,12.37c1.59,1.71,3.46,2.91,5.63,3.62c2.09,1.1,4.33,1.6,6.74,1.51c4.53-0.2,9.22-1.69,12.37-5.13
				c3.09-3.37,5.25-7.68,5.13-12.37c-0.05-1.88,0.05-3.75,0.28-5.61c-0.21,1.55-0.42,3.1-0.63,4.65c0.56-4.16,1.71-8.19,3.03-12.16
				c-0.59,1.39-1.18,2.79-1.76,4.18c3.91-8.73,9.46-16.54,14.57-24.59c2.54-4.01,4.96-8.1,6.99-12.4
				c3.04-6.45,6.04-13.13,5.87-20.43c-0.11-5-1.21-9.58-3.57-13.99c-1.08-2.01-2.54-3.95-4.28-5.43c-2.93-2.5-5.86-4.52-9.72-5.41
				c1.39,0.59,2.79,1.18,4.18,1.76c-4-1.88-6.56-2.77-11.02-3.07c-2.37-0.16-4.83,0.2-7.09,0.89c-4.52,1.39-8.34,3.96-11.73,7.21
				c-4.26,4.09-7.71,8.94-11.04,13.79c-6.16,8.99-11.24,18.78-14.59,29.17c-2.08,6.44-2.83,13.03-3.71,19.72
				c0.21-1.55,0.42-3.1,0.63-4.65c-1.33,9.91-3.58,20.06-2.7,30.11c0.3,3.5,0.71,7.06,1.6,10.46c0.88,3.38,2.29,6.7,3.9,9.77
				c1.61,3.07,3.83,5.91,6.17,8.45c3.64,3.95,9.06,5.31,14.23,5.43c0.44,0.01,0.88-0.01,1.32-0.05c1.94-0.17,4-0.38,5.91-0.84
				c2.34-0.56,4.67-1.54,6.7-2.8c1.57-0.98,3.13-2.22,4.5-3.44c0.38-0.34,0.71-0.69,1.04-1.08c2.82-3.34,4.15-5.61,5.67-9.75
				c0.95-2.58,1.03-5.36,1.37-8.07c-0.21,1.55-0.42,3.1-0.63,4.65c0.47-3.36,1.44-6.58,2.73-9.71c-0.59,1.39-1.18,2.79-1.76,4.18
				c2.37-5.62,5.72-10.7,8.5-16.11c3.17-6.16,6.12-12.44,8.96-18.76c5.54-12.34,10.65-24.87,16.23-37.19
				c2.08-4.59,4.21-9.17,5.96-13.9c0.64-1.72,1.19-3.48,1.54-5.29c0.62-3.26,1.22-6.72,0.91-10.07c-0.01-3.16-0.81-6.1-2.39-8.83
				c-1.1-2.04-2.6-3.68-4.51-4.91c-1.69-1.55-3.67-2.59-5.95-3.13c-3.1-0.83-6.2-0.83-9.3,0c-0.81,0.2-1.61,0.42-2.39,0.69
				c-1.81,0.62-3.57,1.43-5.32,2.2c-0.49,0.22-0.98,0.44-1.44,0.72c-3.23,1.98-5.85,4.51-7.81,7.76c-1.55,2.57-2.66,6.48-2.56,9.48
				c0.11,3.26,0.8,6.89,2.58,9.7c2.9,4.57,6.81,7.63,12.02,9.16c5.26,1.55,10.99,0.32,15.71-2.2c0.75-0.4,1.71-1.27,2.17-1.63
				c0.87-0.67,1.6-1.13,2.29-1.88c1.2-1.3,2.7-3.13,3.6-4.87c2.15-4.14,2.88-7.63,3.3-12.25c-0.01-3.16-0.81-6.1-2.39-8.83
				c-1.1-2.04-2.6-3.68-4.51-4.91c-1.69-1.55-3.67-2.59-5.95-3.13c-3.1-0.83-6.2-0.83-9.3,0c-1.17,0.23-2.35,0.47-3.5,0.83
				c-2.92,0.93-4.94,1.92-7.23,3.69c-1.25,0.97-1.28,0.87-1.86,1.46c-1.67,1.69-2.74,3.54-3.64,5.68c-0.45,0.66-0.75,1.37-0.89,2.13
				c-0.21,1.55-0.42,3.1-0.63,4.65c-0.15,3.31,0.45,4.25,1.51,6.78c0.9,2.13,1.97,3.99,3.64,5.67c0.22,0.22,3.36,2.64,3.62,2.8
				c1.1,0.64,3.22,1.52,4.47,1.85c0.89,0.23,3.9,0.61,4.8,0.64c0.1,0,0.19,0.01,0.28,0.01c0.23,0,0.46-0.02,0.69-0.04
				c1.76-0.13,4.17-0.34,6.07-0.92c2.93-0.89,4.94-1.98,7.24-3.76c2.16-1.67,1.88-1.36,3.55-3.53c2.18-2.82,1.65-2.1,3.4-6.42
				c0.83-3.1,0.83-6.2,0-9.3c-0.83-2.96-2.33-5.54-4.5-7.72c-2.18-2.17-4.76-3.67-7.72-4.5c-3.1-0.83-6.2-0.83-9.3,0
				c-11.98,2.19-23.66,6.46-34.4,12.18c-4.22,2.25-8.28,4.8-12.12,7.64c-4.84,3.58-9.57,7.32-13.84,11.57
				c-4.22,4.2-7.96,8.87-11.45,13.69c-2.71,3.74-5.1,7.74-7.04,11.93c-2.52,5.44-4.74,11-6.07,16.85
				c-1.49,6.59-2.5,13.44-2.55,20.21c-0.03,4.39,0.55,8.73,1.22,13.07c0.46,2.94,1.19,5.84,2.23,8.63
				c2.48,6.66,5.99,12.82,8.77,19.35c-0.59-1.39-1.18-2.79-1.76-4.18c1.33,3.19,2.44,6.46,2.94,9.89c-0.21-1.55-0.42-3.1-0.63-4.65
				c0.26,2.01,0.3,4,0.05,6.02c0.21-1.55,0.42-3.1,0.63-4.65c-0.24,1.66-0.68,3.25-1.32,4.8c-0.73,2.33-0.83,4.65-0.31,6.98
				c0.11,2.33,0.8,4.5,2.08,6.51c2.12,3.63,6.29,7.09,10.46,8.04c4.48,1.02,9.51,0.8,13.48-1.76c1.18-0.91,2.36-1.82,3.54-2.74
				C169.05,216.55,170.55,213.98,171.38,211.01L171.38,211.01z"/>
		</g>
	</g>
	<g>
		<path class="st0" d="M224.26,54.97c-9.01,8.59-20.25,14.2-31.28,19.7c-11.14,5.56-22.09,11.57-31.55,19.76
			c-19.56,16.94-30.43,41.42-27.46,67.35c1.73,15.07,7.98,29.27,9.16,44.41"/>
		<g>
			<path class="st0" d="M211.89,42.59c-1.7,1.6-3.47,3.12-5.31,4.55c1.18-0.91,2.36-1.82,3.54-2.74
				c-10.09,7.78-21.79,12.82-32.98,18.74c-12.26,6.49-24.16,14.31-33.82,24.35c-4.79,4.98-9.13,10.53-12.85,16.35
				c-3.71,5.81-6.57,12.11-9.01,18.55c-1.95,5.15-3.33,10.49-4.11,15.94c-1.02,7.03-1.69,13.96-1.1,21.06
				c0.71,8.64,2.47,17.07,4.65,25.45c1.89,7.24,3.9,14.47,4.92,21.9c-0.21-1.55-0.42-3.1-0.63-4.65c0.18,1.37,0.33,2.74,0.44,4.11
				c-0.09,2.41,0.41,4.66,1.51,6.74c0.71,2.17,1.91,4.05,3.62,5.63c1.59,1.71,3.46,2.91,5.63,3.62c2.09,1.1,4.33,1.6,6.74,1.51
				c4.53-0.2,9.22-1.69,12.37-5.13c2.99-3.26,5.5-7.79,5.13-12.37c-0.72-8.84-2.53-17.44-4.77-26c-1.88-7.17-3.85-14.34-4.85-21.7
				c0.21,1.55,0.42,3.1,0.63,4.65c-0.85-6.57-0.86-13.21,0.02-19.78c-0.21,1.55-0.42,3.1-0.63,4.65c0.9-6.47,2.65-12.78,5.16-18.81
				c-0.59,1.39-1.18,2.79-1.76,4.18c2.71-6.4,6.25-12.39,10.49-17.89c-0.91,1.18-1.82,2.36-2.74,3.54
				c4.58-5.88,9.91-11.1,15.81-15.66c-1.18,0.91-2.36,1.82-3.54,2.74c7.26-5.57,15.22-10.13,23.34-14.31
				c7.94-4.08,16.04-7.85,23.57-12.67c5.4-3.46,10.61-7.39,15.27-11.8c3.2-3.03,5.13-8.01,5.13-12.37c0-4.29-1.91-9.42-5.13-12.37
				c-3.34-3.06-7.71-5.33-12.37-5.13C219.55,37.68,215.36,39.31,211.89,42.59L211.89,42.59z"/>
		</g>
	</g>
	<g>
		<path class="st0" d="M149.82,222.1c-2.41,3.95-4.31,8.2-5.65,12.63c0.24-4.28,0.47-8.57,0.71-12.85
			c-1.04,4.75-2.08,9.5-3.12,14.25c3.76-4.39,5.63-10.35,5.05-16.1"/>
		<g>
			<path class="st0" d="M147.66,220.84c-2.51,4.14-4.49,8.6-5.9,13.22c1.64,0.22,3.27,0.44,4.91,0.66
				c0.24-4.28,0.47-8.57,0.71-12.85c0.16-2.8-4.31-3.42-4.91-0.66c-1.04,4.75-2.08,9.5-3.12,14.25c-0.23,1.05,0.14,2.29,1.15,2.82
				c0.93,0.49,2.3,0.47,3.03-0.39c4.17-4.93,6.4-11.4,5.78-17.87c-0.12-1.3-1.06-2.56-2.5-2.5c-1.25,0.06-2.63,1.11-2.5,2.5
				c0.13,1.4,0.14,2.8,0,4.2c-0.02,0.17-0.04,0.35-0.06,0.52c0.03-0.23,0.02-0.19-0.02,0.12c-0.06,0.34-0.12,0.69-0.19,1.03
				c-0.14,0.64-0.3,1.28-0.49,1.91c-0.7,2.29-2.05,4.8-3.55,6.56c1.39,0.81,2.79,1.62,4.18,2.43c1.04-4.75,2.08-9.5,3.12-14.25
				c-1.64-0.22-3.27-0.44-4.91-0.66c-0.24,4.28-0.47,8.57-0.71,12.85c-0.07,1.24,1,2.3,2.17,2.46c1.24,0.17,2.38-0.59,2.74-1.79
				c1.31-4.31,3.04-8.14,5.4-12.03c0.68-1.12,0.28-2.8-0.9-3.42C149.87,219.3,148.39,219.65,147.66,220.84L147.66,220.84z"/>
		</g>
	</g>
	<g>
		<path class="st0" d="M234.09,38.53c3.56-2.89,7.11-5.78,10.67-8.67c-1.72,5.75-4.16,11.3-7.23,16.46
			c-1.84-1.42-3.86-3.2-3.78-5.51c0.02-0.78,0.32-1.57,0.92-2.08c0.91-0.77,2.46-0.63,3.2,0.31s0.51,2.49-0.48,3.17
			c0.67-1.74,1.34-3.49,2.01-5.23c-1.34,1.92-3.1,3.55-5.13,4.73c-0.98,0.57-2.37,0.97-3.12,0.12c-0.59-0.68-0.33-1.8,0.32-2.43
			s1.56-0.88,2.43-1.12"/>
		<g>
			<path class="st0" d="M235.86,40.29c3.56-2.89,7.11-5.78,10.67-8.67c-1.39-0.81-2.79-1.62-4.18-2.43
				c-1.7,5.62-3.97,10.78-6.98,15.86c1.31-0.17,2.62-0.34,3.93-0.51c-0.9-0.7-1.82-1.43-2.53-2.32c0.26,0.32-0.12-0.2-0.16-0.27
				c-0.06-0.1-0.33-0.63-0.16-0.23c-0.05-0.11-0.24-0.99-0.18-0.45c-0.01-0.12,0.02-0.79-0.06-0.27c0.01-0.07,0.08-0.74,0.05-0.29
				c0.15-0.25,0.16-0.27,0.01-0.06c-0.2,0.12-0.23,0.14-0.08,0.05c0.16-0.09,0.12-0.08-0.12,0.04c0.29-0.07,0.27-0.07-0.05-0.01
				c0.25,0.01,0.28,0.01,0.09-0.01c-0.19-0.03-0.17-0.02,0.08,0.04c-0.27-0.13-0.28-0.12-0.03,0.02c-0.11-0.04-0.19-0.12-0.25-0.21
				c-0.1-0.15-0.09-0.11,0.04,0.09c-0.11-0.13-0.15-0.29-0.13-0.46c0.07,0.42,0.17-0.23,0,0.17c0.14-0.27,0.14-0.28,0-0.02
				c0.08-0.14,0.18-0.23,0.33-0.3c1.22,0.94,2.45,1.88,3.67,2.82c0.67-1.74,1.34-3.49,2.01-5.23c0.44-1.15-0.39-2.52-1.45-2.95
				c-1.22-0.49-2.38-0.02-3.12,1.02c-1.04,1.47-2.61,2.95-4.33,3.88c-0.1,0.06-0.2,0.11-0.31,0.16c0.2-0.08,0.21-0.09,0.04-0.03
				c-0.11,0.04-0.23,0.07-0.34,0.1c0.25-0.02,0.28-0.02,0.1-0.02c-0.19,0-0.15,0.01,0.13,0.04c0.18,0.05,0.33,0.15,0.43,0.32
				c0.26,0.26,0.32,0.41,0.35,0.76c0.01,0.1-0.03,0.2-0.09,0.28c0.14-0.22,0.16-0.26,0.07-0.12c-0.04,0.08-0.1,0.13-0.18,0.16
				c0.1-0.07,0.2-0.13,0.31-0.19c0.16-0.08,0.14-0.08-0.04,0c0.12-0.04,0.23-0.09,0.35-0.12c0.27-0.09,0.55-0.17,0.83-0.24
				c1.3-0.35,2.1-1.78,1.75-3.08c-0.36-1.31-1.77-2.1-3.08-1.75c-2.07,0.56-4.13,1.59-4.75,3.84c-0.7,2.53,1.08,4.99,3.7,5.1
				c1.92,0.08,3.67-1.03,5.14-2.15c1.66-1.26,3.03-2.71,4.23-4.41c-1.52-0.64-3.05-1.28-4.57-1.93c-0.67,1.74-1.34,3.49-2.01,5.23
				c-0.35,0.91,0.17,2.09,0.9,2.63c0.73,0.54,1.98,0.8,2.78,0.2c1.02-0.78,1.77-1.68,2.04-2.98c0.25-1.24,0.05-2.56-0.66-3.61
				c-1.43-2.11-4.54-2.7-6.62-1.21c-2.11,1.51-2.64,4.37-1.7,6.7c0.81,2.02,2.36,3.51,4.06,4.82c1.25,0.97,3.02,1.02,3.93-0.51
				c3.17-5.35,5.68-11.1,7.48-17.06c0.32-1.06-0.21-2.27-1.15-2.82c-1.02-0.6-2.16-0.32-3.03,0.39c-3.56,2.89-7.11,5.78-10.67,8.67
				c-1.05,0.85-0.89,2.65,0,3.54C233.36,41.33,234.8,41.15,235.86,40.29L235.86,40.29z"/>
		</g>
	</g>
	<polyline class="st1" points="143.38,238.71 247.27,161.61 247.27,162.16 247.27,28.19 143.38,105.29 143.38,238.71 84.33,238.71 
		84.33,105.29 143.38,105.29 84.33,105.29 188.22,28.19 247.27,28.19 	"/>
</g>
<g>
	<g>
		<path class="st0" d="M278.53,104.25c0.98,5.15,3.71,9.95,7.64,13.42"/>
		<g>
			<path class="st0" d="M261.66,108.91c0.25,1.3,0.61,2.59,1.07,3.83c0.74,1.99,1.58,3.95,2.47,5.87c0.29,0.62,0.6,1.23,0.94,1.82
				c1.36,2.38,3.15,4.53,4.85,6.66c0.85,1.07,1.8,2.05,2.81,2.96c1.59,1.71,3.46,2.91,5.63,3.62c2.09,1.1,4.33,1.6,6.74,1.51
				c2.41,0.09,4.66-0.41,6.74-1.51c2.17-0.71,4.05-1.91,5.63-3.62c0.91-1.18,1.82-2.36,2.74-3.54c1.58-2.73,2.38-5.67,2.39-8.83
				c-0.21-1.55-0.42-3.1-0.63-4.65c-0.83-2.96-2.33-5.54-4.5-7.72c-1.13-1.01-2.15-2.11-3.08-3.3c0.91,1.18,1.82,2.36,2.74,3.54
				c-1.27-1.66-2.31-3.46-3.13-5.39c0.59,1.39,1.18,2.79,1.76,4.18c-0.63-1.53-1.11-3.11-1.43-4.73c-0.54-2.28-1.59-4.26-3.13-5.95
				c-1.23-1.91-2.87-3.41-4.91-4.51c-2.01-1.28-4.18-1.97-6.51-2.08c-2.33-0.52-4.65-0.42-6.98,0.31c-1.39,0.59-2.79,1.18-4.18,1.76
				c-2.63,1.56-4.72,3.65-6.28,6.28c-0.59,1.39-1.18,2.79-1.76,4.18C260.82,102.7,260.82,105.81,261.66,108.91L261.66,108.91z"/>
		</g>
	</g>
	<g>
		<path class="st0" d="M295.81,50.14c0.4,2.56,1.38,5.03,2.85,7.16c1.88,2.73,4.51,4.84,7.09,6.92"/>
		<g>
			<path class="st0" d="M278.94,54.79c0.47,2.92,1.76,5.55,2.93,8.26c0.91,2.11,2.23,3.81,3.63,5.63c1.37,1.77,2.7,3.43,4.35,4.94
				c1.14,1.04,2.34,2,3.54,2.97c1.59,1.71,3.46,2.91,5.63,3.62c2.09,1.1,4.33,1.6,6.74,1.51c2.41,0.09,4.66-0.41,6.74-1.51
				c2.17-0.71,4.05-1.91,5.63-3.62c0.91-1.18,1.82-2.36,2.74-3.54c1.58-2.73,2.38-5.67,2.39-8.83c-0.21-1.55-0.42-3.1-0.63-4.65
				c-0.83-2.96-2.33-5.54-4.5-7.72c-2.33-1.87-4.66-3.77-6.52-6.14c0.91,1.18,1.82,2.36,2.74,3.54c-0.94-1.23-1.71-2.55-2.31-3.97
				c0.59,1.39,1.18,2.79,1.76,4.18c-0.52-1.28-0.89-2.6-1.11-3.97c-0.54-2.28-1.59-4.26-3.13-5.95c-1.23-1.91-2.87-3.41-4.91-4.51
				c-2.01-1.28-4.18-1.97-6.51-2.08c-2.33-0.52-4.65-0.42-6.98,0.31c-1.39,0.59-2.79,1.18-4.18,1.76c-2.63,1.56-4.72,3.65-6.28,6.28
				c-0.59,1.39-1.18,2.79-1.76,4.18C278.11,48.59,278.11,51.69,278.94,54.79L278.94,54.79z"/>
		</g>
	</g>
	<g>
		<path class="st0" d="M235.97,206.36c4.82-11.42-3.12-23.28-7.65-33.35c-5.12-11.38-4.56-24.03-1.73-35.99
			c4.91-20.83,20.96-38.07,39.12-48.6c10.3-5.97,21.67-10.06,33.38-12.17c-0.97,2.76-10.51,2.06,0,0c-0.12,1.72-0.82,3.91-2.12,5.11
			c-1.16,1.07-3.83,1.47-4.48-0.53c-0.86-2.62,4.82-4.15,6.6-4.58c0.59,5.6-1.92,11.15-4.08,16.19
			c-9.36,20.17-17.31,41.37-27.91,61.69c-4.42,7.95-9.72,15.9-10.6,25.62c-0.88,5.3-5.3,7.95-10.6,7.07
			c-10.6-11.48-6.18-29.15-4.42-43.29c1.77-16.78,9.72-30.92,20.32-45.05c3.53-3.53,7.07-8.83,12.37-6.18
			c4.42,0.88,5.3,7.07,4.42,11.48c-5.3,16.78-17.67,29.15-24.73,45.05c-1.77,5.3-3.53,11.48-3.31,17.78"/>
		<g>
			<path class="st0" d="M252.85,211.01c0.61-1.49,1.03-3.01,1.29-4.6c0.46-2.9,0.97-5.91,0.8-8.87c-0.25-4.46-1-8.99-2.48-13.22
				c-2.55-7.28-6.36-13.93-9.39-20.99c0.59,1.39,1.18,2.79,1.76,4.18c-1.5-3.59-2.48-7.34-3.03-11.19c0.21,1.55,0.42,3.1,0.63,4.65
				c-0.7-5.33-0.55-10.7,0.16-16.01c-0.21,1.55-0.42,3.1-0.63,4.65c0.86-6.12,2.34-12.12,4.74-17.82c-0.59,1.39-1.18,2.79-1.76,4.18
				c2.43-5.69,5.63-10.99,9.4-15.88c-0.91,1.18-1.82,2.36-2.74,3.54c4.62-5.93,10.02-11.2,15.96-15.8
				c-1.18,0.91-2.36,1.82-3.54,2.74c6.71-5.15,14.05-9.39,21.83-12.69c-1.39,0.59-2.79,1.18-4.18,1.76
				c7.1-2.97,14.49-5.15,22.06-6.53c-7.18-7.18-14.35-14.35-21.53-21.53c-0.02,0.04-0.03,0.08-0.05,0.12
				c0.59-1.39,1.18-2.79,1.76-4.18c-0.06,0.12-0.13,0.23-0.21,0.34c0.91-1.18,1.82-2.36,2.74-3.54c-0.13,0.15-0.26,0.27-0.41,0.39
				c1.18-0.91,2.36-1.82,3.54-2.74c-0.26,0.18-0.53,0.33-0.82,0.45c1.39-0.59,2.79-1.18,4.18-1.76c-0.56,0.22-1.14,0.37-1.73,0.45
				c1.55-0.21,3.1-0.42,4.65-0.63c-0.42,0.05-0.85,0.08-1.27,0.02c1.55,0.21,3.1,0.42,4.65,0.63c-0.08-0.01-0.15-0.03-0.23-0.06
				c1.39,0.59,2.79,1.18,4.18,1.76c-0.04-0.01-0.07-0.03-0.1-0.05c1.18,0.91,2.36,1.82,3.54,2.74c-0.01-0.01-0.02-0.02-0.03-0.03
				c0.91,1.18,1.82,2.36,2.74,3.54c-0.01-0.01-0.01-0.02-0.02-0.03c0.59,1.39,1.18,2.79,1.76,4.18c0-0.01,0-0.02-0.01-0.04
				c0,3.1,0,6.2,0,9.3c0-0.01,0.01-0.03,0.01-0.04c-0.59,1.39-1.18,2.79-1.76,4.18c0.01-0.01,0.01-0.03,0.02-0.04
				c-0.91,1.18-1.82,2.36-2.74,3.54c0.03-0.04,0.06-0.07,0.09-0.09c-1.18,0.91-2.36,1.82-3.54,2.74c0.16-0.12,0.34-0.2,0.52-0.28
				c-1.39,0.59-2.79,1.18-4.18,1.76c1.36-0.55,2.83-0.82,4.26-1.11c-7.38-5.62-14.77-11.25-22.15-16.87
				c-0.02,0.22-0.04,0.44-0.07,0.67c0.21-1.55,0.42-3.1,0.63-4.65c-0.14,0.84-0.36,1.63-0.68,2.42c0.59-1.39,1.18-2.79,1.76-4.18
				c-0.25,0.55-0.54,1.05-0.9,1.53c0.91-1.18,1.82-2.36,2.74-3.54c-0.2,0.23-0.4,0.44-0.63,0.64c1.18-0.91,2.36-1.82,3.54-2.74
				c-0.27,0.2-0.55,0.35-0.86,0.48c1.39-0.59,2.79-1.18,4.18-1.76c-0.25,0.09-0.49,0.15-0.75,0.21c1.55-0.21,3.1-0.42,4.65-0.63
				c-0.35,0.05-0.67,0.06-1.02,0.02c1.55,0.21,3.1,0.42,4.65,0.63c-0.16-0.02-0.32-0.07-0.48-0.12c1.39,0.59,2.79,1.18,4.18,1.76
				c-0.15-0.06-0.3-0.13-0.43-0.22c1.18,0.91,2.36,1.82,3.54,2.74c-0.14-0.09-0.26-0.2-0.37-0.33c0.91,1.18,1.82,2.36,2.74,3.54
				c-0.12-0.14-0.21-0.28-0.29-0.45c0.59,1.39,1.18,2.79,1.76,4.18c-0.09-0.24-0.15-0.42-0.19-0.67c0.21,1.55,0.42,3.1,0.63,4.65
				c-0.01-0.13,0-0.26,0.02-0.39c-0.21,1.55-0.42,3.1-0.63,4.65c0.02-0.13,0.06-0.25,0.11-0.37c-0.59,1.39-1.18,2.79-1.76,4.18
				c0.09-0.19,0.19-0.35,0.31-0.52c-0.91,1.18-1.82,2.36-2.74,3.54c0.2-0.23,0.41-0.43,0.65-0.63c-1.18,0.91-2.36,1.82-3.54,2.74
				c0.64-0.47,1.33-0.83,2.06-1.15c-1.39,0.59-2.79,1.18-4.18,1.76c1.15-0.47,2.33-0.83,3.54-1.13
				c-7.38-5.62-14.77-11.25-22.15-16.87c0.12,1.37,0.09,2.71-0.07,4.07c0.21-1.55,0.42-3.1,0.63-4.65
				c-0.47,3.35-1.65,6.52-2.95,9.63c0.59-1.39,1.18-2.79,1.76-4.18c-2.6,6.15-5.46,12.19-8.11,18.32
				c-2.63,6.07-5.21,12.16-7.85,18.22c-2.73,6.26-5.53,12.49-8.49,18.64c-2.72,5.64-5.76,11.05-8.76,16.53
				c-2.26,4.12-4.2,8.42-5.86,12.81c-1.72,4.55-2.41,9.27-2.88,14.11c0.21-1.55,0.42-3.1,0.63-4.65c-0.14,0.79-0.35,1.54-0.66,2.28
				c0.59-1.39,1.18-2.79,1.76-4.18c-0.3,0.67-0.66,1.29-1.11,1.87c0.91-1.18,1.82-2.36,2.74-3.54c-0.39,0.47-0.8,0.88-1.27,1.27
				c1.18-0.91,2.36-1.82,3.54-2.74c-0.56,0.43-1.15,0.78-1.79,1.07c1.39-0.59,2.79-1.18,4.18-1.76c-0.78,0.32-1.56,0.53-2.39,0.65
				c1.55-0.21,3.1-0.42,4.65-0.63c-1.01,0.12-2.01,0.1-3.02-0.02c1.55,0.21,3.1,0.42,4.65,0.63c-0.12-0.02-0.23-0.04-0.35-0.05
				c2.57,1.5,5.15,3,7.72,4.5c-0.5-0.55-0.98-1.12-1.44-1.71c0.91,1.18,1.82,2.36,2.74,3.54c-1.22-1.63-2.23-3.38-3.03-5.26
				c0.59,1.39,1.18,2.79,1.76,4.18c-0.99-2.41-1.62-4.93-1.99-7.51c0.21,1.55,0.42,3.1,0.63,4.65c-0.82-6.13-0.22-12.33,0.59-18.43
				c-0.21,1.55-0.42,3.1-0.63,4.65c0.77-5.7,1.56-11.4,2.33-17.11c-0.21,1.55-0.42,3.1-0.63,4.65c0.86-6.1,2.55-12.02,4.92-17.71
				c-0.59,1.39-1.18,2.79-1.76,4.18c3.84-9.09,9.25-17.38,15.14-25.26c-0.91,1.18-1.82,2.36-2.74,3.54c1.7-1.72,3.24-3.6,5.13-5.11
				c-1.18,0.91-2.36,1.82-3.54,2.74c0.68-0.52,1.39-0.97,2.18-1.32c-1.39,0.59-2.79,1.18-4.18,1.76c0.48-0.19,0.96-0.32,1.47-0.41
				c-1.55,0.21-3.1,0.42-4.65,0.63c0.53-0.06,1.04-0.06,1.57,0c-1.55-0.21-3.1-0.42-4.65-0.63c0.59,0.1,1.13,0.27,1.68,0.49
				c-1.39-0.59-2.79-1.18-4.18-1.76c1.76,0.83,3.54,1.52,5.35,2.17c-1.39-0.59-2.79-1.18-4.18-1.76c0.42,0.18,0.8,0.39,1.17,0.67
				c-1.18-0.91-2.36-1.82-3.54-2.74c0.35,0.29,0.66,0.6,0.94,0.95c-0.91-1.18-1.82-2.36-2.74-3.54c0.4,0.54,0.7,1.1,0.96,1.72
				c-0.59-1.39-1.18-2.79-1.76-4.18c0.33,0.86,0.54,1.74,0.68,2.64c-0.21-1.55-0.42-3.1-0.63-4.65c0.19,1.46,0.17,2.92-0.02,4.38
				c0.21-1.55,0.42-3.1,0.63-4.65c-0.32,2.17-1.32,4.31-2.16,6.33c0.59-1.39,1.18-2.79,1.76-4.18
				c-6.97,16.36-20.16,29.47-25.4,46.65c-0.75,2.45-1.4,4.94-1.83,7.47c-0.69,3.98-1.3,8.05-1.19,12.1
				c0.13,4.56,1.87,9.11,5.13,12.37c1.59,1.71,3.46,2.91,5.63,3.62c2.09,1.1,4.33,1.6,6.74,1.51c4.53-0.2,9.22-1.69,12.37-5.13
				c3.09-3.37,5.25-7.68,5.13-12.37c-0.05-1.88,0.05-3.75,0.28-5.61c-0.21,1.55-0.42,3.1-0.63,4.65c0.56-4.16,1.71-8.19,3.03-12.16
				c-0.59,1.39-1.18,2.79-1.76,4.18c3.91-8.73,9.46-16.54,14.57-24.59c2.54-4.01,4.96-8.1,6.99-12.4
				c3.04-6.45,6.04-13.13,5.87-20.43c-0.11-5-1.21-9.58-3.57-13.99c-1.08-2.01-2.54-3.95-4.28-5.43c-2.93-2.5-5.86-4.52-9.72-5.41
				c1.39,0.59,2.79,1.18,4.18,1.76c-4-1.88-6.56-2.77-11.02-3.07c-2.37-0.16-4.83,0.2-7.09,0.89c-4.52,1.39-8.34,3.96-11.73,7.21
				c-4.26,4.09-7.71,8.94-11.04,13.79c-6.16,8.99-11.24,18.78-14.59,29.17c-2.08,6.44-2.83,13.03-3.71,19.72
				c0.21-1.55,0.42-3.1,0.63-4.65c-1.33,9.91-3.58,20.06-2.7,30.11c0.3,3.5,0.71,7.06,1.6,10.46c0.88,3.38,2.29,6.7,3.9,9.77
				c1.61,3.07,3.83,5.91,6.17,8.45c3.64,3.95,9.06,5.31,14.23,5.43c0.44,0.01,0.88-0.01,1.32-0.05c1.94-0.17,4-0.38,5.91-0.84
				c2.34-0.56,4.67-1.54,6.7-2.8c1.57-0.98,3.13-2.22,4.5-3.44c0.38-0.34,0.71-0.69,1.04-1.08c2.82-3.34,4.15-5.61,5.67-9.75
				c0.95-2.58,1.03-5.36,1.37-8.07c-0.21,1.55-0.42,3.1-0.63,4.65c0.47-3.36,1.44-6.58,2.73-9.71c-0.59,1.39-1.18,2.79-1.76,4.18
				c2.37-5.62,5.72-10.7,8.5-16.11c3.17-6.16,6.12-12.44,8.96-18.76c5.54-12.34,10.65-24.87,16.23-37.19
				c2.08-4.59,4.21-9.17,5.96-13.9c0.64-1.72,1.19-3.48,1.54-5.29c0.62-3.26,1.22-6.72,0.91-10.07c-0.01-3.16-0.81-6.1-2.39-8.83
				c-1.1-2.04-2.6-3.68-4.51-4.91c-1.69-1.55-3.67-2.59-5.95-3.13c-3.1-0.83-6.2-0.83-9.3,0c-0.81,0.2-1.61,0.42-2.39,0.69
				c-1.81,0.62-3.57,1.43-5.32,2.2c-0.49,0.22-0.98,0.44-1.44,0.72c-3.23,1.98-5.85,4.51-7.81,7.76c-1.55,2.57-2.66,6.48-2.56,9.48
				c0.11,3.26,0.8,6.89,2.58,9.7c2.9,4.57,6.81,7.63,12.02,9.16c5.26,1.55,10.99,0.32,15.71-2.2c0.75-0.4,1.71-1.27,2.17-1.63
				c0.87-0.67,1.6-1.13,2.29-1.88c1.2-1.3,2.7-3.13,3.6-4.87c2.15-4.14,2.88-7.63,3.3-12.25c-0.01-3.16-0.81-6.1-2.39-8.83
				c-1.1-2.04-2.6-3.68-4.51-4.91c-1.69-1.55-3.67-2.59-5.95-3.13c-3.1-0.83-6.2-0.83-9.3,0c-1.17,0.23-2.36,0.47-3.5,0.83
				c-2.92,0.93-4.94,1.92-7.23,3.69c-1.25,0.97-1.28,0.87-1.86,1.46c-1.67,1.69-2.74,3.54-3.64,5.68c-0.45,0.66-0.75,1.37-0.89,2.13
				c-0.21,1.55-0.42,3.1-0.63,4.65c-0.15,3.31,0.45,4.25,1.51,6.78c0.9,2.13,1.97,3.99,3.64,5.67c0.22,0.22,3.36,2.64,3.62,2.8
				c1.1,0.64,3.22,1.52,4.47,1.85c0.89,0.23,3.9,0.61,4.8,0.64c0.1,0,0.19,0.01,0.28,0.01c0.23,0,0.46-0.02,0.69-0.04
				c1.76-0.13,4.17-0.34,6.07-0.92c2.93-0.89,4.94-1.98,7.24-3.76c2.16-1.67,1.88-1.36,3.55-3.53c2.18-2.82,1.65-2.1,3.4-6.42
				c0.83-3.1,0.83-6.2,0-9.3c-0.83-2.96-2.33-5.54-4.5-7.72c-2.18-2.17-4.76-3.67-7.72-4.5c-3.1-0.83-6.2-0.83-9.3,0
				c-11.98,2.19-23.66,6.46-34.4,12.18c-4.22,2.25-8.28,4.8-12.12,7.64c-4.84,3.58-9.57,7.32-13.84,11.57
				c-4.22,4.2-7.96,8.87-11.45,13.69c-2.71,3.74-5.1,7.74-7.04,11.93c-2.52,5.44-4.74,11-6.07,16.85
				c-1.49,6.59-2.5,13.44-2.55,20.21c-0.03,4.39,0.55,8.73,1.22,13.07c0.46,2.94,1.19,5.84,2.23,8.63
				c2.48,6.66,5.99,12.82,8.77,19.35c-0.59-1.39-1.18-2.79-1.76-4.18c1.33,3.19,2.44,6.46,2.94,9.89c-0.21-1.55-0.42-3.1-0.63-4.65
				c0.26,2.01,0.3,4,0.05,6.02c0.21-1.55,0.42-3.1,0.63-4.65c-0.24,1.66-0.68,3.25-1.32,4.8c-0.73,2.33-0.83,4.65-0.31,6.98
				c0.11,2.33,0.8,4.5,2.08,6.51c2.12,3.63,6.29,7.09,10.46,8.04c4.48,1.02,9.51,0.8,13.48-1.76c1.18-0.91,2.36-1.82,3.54-2.74
				C250.52,216.55,252.02,213.98,252.85,211.01L252.85,211.01z"/>
		</g>
	</g>
	<g>
		<path class="st0" d="M305.73,54.97c-9.01,8.59-20.25,14.2-31.28,19.7c-11.14,5.56-22.09,11.57-31.55,19.76
			c-19.56,16.94-30.43,41.42-27.46,67.35c1.73,15.07,7.98,29.27,9.16,44.41"/>
		<g>
			<path class="st0" d="M293.36,42.59c-1.7,1.6-3.47,3.12-5.31,4.55c1.18-0.91,2.36-1.82,3.54-2.74
				c-10.09,7.78-21.79,12.82-32.98,18.74c-12.26,6.49-24.16,14.31-33.82,24.35c-4.79,4.98-9.13,10.53-12.85,16.35
				c-3.71,5.81-6.57,12.11-9.01,18.55c-1.95,5.15-3.33,10.49-4.11,15.94c-1.02,7.03-1.69,13.96-1.1,21.06
				c0.71,8.64,2.47,17.07,4.65,25.45c1.89,7.24,3.9,14.47,4.92,21.9c-0.21-1.55-0.42-3.1-0.63-4.65c0.18,1.37,0.33,2.74,0.44,4.11
				c-0.09,2.41,0.41,4.66,1.51,6.74c0.71,2.17,1.91,4.05,3.62,5.63c1.59,1.71,3.46,2.91,5.63,3.62c2.09,1.1,4.33,1.6,6.74,1.51
				c4.53-0.2,9.22-1.69,12.37-5.13c2.99-3.26,5.5-7.79,5.13-12.37c-0.72-8.84-2.53-17.44-4.77-26c-1.88-7.17-3.85-14.34-4.85-21.7
				c0.21,1.55,0.42,3.1,0.63,4.65c-0.85-6.57-0.86-13.21,0.02-19.78c-0.21,1.55-0.42,3.1-0.63,4.65c0.9-6.47,2.65-12.78,5.16-18.81
				c-0.59,1.39-1.18,2.79-1.76,4.18c2.71-6.4,6.25-12.39,10.49-17.89c-0.91,1.18-1.82,2.36-2.74,3.54
				c4.58-5.88,9.91-11.1,15.81-15.66c-1.18,0.91-2.36,1.82-3.54,2.74c7.26-5.57,15.22-10.13,23.34-14.31
				c7.94-4.08,16.04-7.85,23.57-12.67c5.4-3.46,10.61-7.39,15.27-11.8c3.2-3.03,5.13-8.01,5.13-12.37c0-4.29-1.91-9.42-5.13-12.37
				c-3.34-3.06-7.71-5.33-12.37-5.13C301.02,37.68,296.83,39.31,293.36,42.59L293.36,42.59z"/>
		</g>
	</g>
	<g>
		<path class="st0" d="M231.29,222.1c-2.41,3.95-4.31,8.2-5.65,12.63c0.24-4.28,0.47-8.57,0.71-12.85
			c-1.04,4.75-2.08,9.5-3.12,14.25c3.76-4.39,5.63-10.35,5.05-16.1"/>
		<g>
			<path class="st0" d="M229.14,220.84c-2.51,4.14-4.49,8.6-5.9,13.22c1.64,0.22,3.27,0.44,4.91,0.66
				c0.24-4.28,0.47-8.57,0.71-12.85c0.16-2.8-4.31-3.42-4.91-0.66c-1.04,4.75-2.08,9.5-3.12,14.25c-0.23,1.05,0.14,2.29,1.15,2.82
				c0.93,0.49,2.3,0.47,3.03-0.39c4.17-4.93,6.4-11.4,5.78-17.87c-0.12-1.3-1.06-2.56-2.5-2.5c-1.25,0.06-2.63,1.11-2.5,2.5
				c0.13,1.4,0.14,2.8,0,4.2c-0.02,0.17-0.04,0.35-0.06,0.52c0.03-0.23,0.02-0.19-0.02,0.12c-0.06,0.34-0.12,0.69-0.19,1.03
				c-0.14,0.64-0.3,1.28-0.49,1.91c-0.7,2.29-2.05,4.8-3.55,6.56c1.39,0.81,2.79,1.62,4.18,2.43c1.04-4.75,2.08-9.5,3.12-14.25
				c-1.64-0.22-3.27-0.44-4.91-0.66c-0.24,4.28-0.47,8.57-0.71,12.85c-0.07,1.24,1,2.3,2.17,2.46c1.24,0.17,2.38-0.59,2.74-1.79
				c1.31-4.31,3.04-8.14,5.4-12.03c0.68-1.12,0.28-2.8-0.9-3.42C231.34,219.3,229.86,219.65,229.14,220.84L229.14,220.84z"/>
		</g>
	</g>
	<g>
		<path class="st0" d="M315.56,38.53c3.56-2.89,7.11-5.78,10.67-8.67c-1.72,5.75-4.16,11.3-7.23,16.46
			c-1.84-1.42-3.86-3.2-3.78-5.51c0.02-0.78,0.32-1.57,0.92-2.08c0.91-0.77,2.46-0.63,3.2,0.31c0.74,0.94,0.51,2.49-0.48,3.17
			c0.67-1.74,1.34-3.49,2.01-5.23c-1.34,1.92-3.1,3.55-5.13,4.73c-0.98,0.57-2.37,0.97-3.12,0.12c-0.59-0.68-0.33-1.8,0.32-2.43
			c0.65-0.63,1.56-0.88,2.43-1.12"/>
		<g>
			<path class="st0" d="M317.33,40.29c3.56-2.89,7.11-5.78,10.67-8.67c-1.39-0.81-2.79-1.62-4.18-2.43
				c-1.7,5.62-3.97,10.78-6.98,15.86c1.31-0.17,2.62-0.34,3.93-0.51c-0.9-0.7-1.82-1.43-2.53-2.32c0.26,0.32-0.12-0.2-0.16-0.27
				c-0.06-0.1-0.33-0.63-0.16-0.23c-0.05-0.11-0.24-0.99-0.18-0.45c-0.01-0.12,0.02-0.79-0.06-0.27c0.01-0.07,0.08-0.74,0.05-0.29
				c0.15-0.25,0.16-0.27,0.01-0.06c-0.2,0.12-0.23,0.14-0.08,0.05c0.16-0.09,0.12-0.08-0.12,0.04c0.29-0.07,0.27-0.07-0.05-0.01
				c0.25,0.01,0.28,0.01,0.09-0.01c-0.19-0.03-0.17-0.02,0.08,0.04c-0.27-0.13-0.28-0.12-0.03,0.02c-0.11-0.04-0.19-0.12-0.25-0.21
				c-0.1-0.15-0.09-0.11,0.03,0.09c-0.11-0.13-0.15-0.29-0.13-0.46c0.07,0.42,0.17-0.23,0,0.17c0.14-0.27,0.14-0.28,0-0.02
				c0.08-0.14,0.18-0.23,0.33-0.3c1.22,0.94,2.45,1.88,3.67,2.82c0.67-1.74,1.34-3.49,2.01-5.23c0.44-1.15-0.39-2.52-1.45-2.95
				c-1.22-0.49-2.38-0.02-3.12,1.02c-1.04,1.47-2.61,2.95-4.33,3.88c-0.1,0.06-0.2,0.11-0.31,0.16c0.2-0.08,0.21-0.09,0.04-0.03
				c-0.11,0.04-0.23,0.07-0.34,0.1c0.25-0.02,0.28-0.02,0.1-0.02c-0.19,0-0.15,0.01,0.13,0.04c0.18,0.05,0.33,0.15,0.43,0.32
				c0.26,0.26,0.32,0.41,0.35,0.76c0.01,0.1-0.03,0.2-0.09,0.28c0.14-0.22,0.16-0.26,0.07-0.12c-0.04,0.08-0.1,0.13-0.18,0.16
				c0.1-0.07,0.2-0.13,0.31-0.19c0.16-0.08,0.14-0.08-0.04,0c0.12-0.04,0.23-0.09,0.35-0.12c0.27-0.09,0.55-0.17,0.83-0.24
				c1.3-0.35,2.1-1.78,1.75-3.08c-0.36-1.31-1.77-2.1-3.08-1.75c-2.07,0.56-4.13,1.59-4.75,3.84c-0.7,2.53,1.08,4.99,3.7,5.1
				c1.92,0.08,3.67-1.03,5.14-2.15c1.66-1.26,3.03-2.71,4.23-4.41c-1.52-0.64-3.05-1.28-4.57-1.93c-0.67,1.74-1.34,3.49-2.01,5.23
				c-0.35,0.91,0.17,2.09,0.9,2.63c0.73,0.54,1.98,0.8,2.78,0.2c1.02-0.78,1.77-1.68,2.04-2.98c0.25-1.24,0.05-2.56-0.66-3.61
				c-1.43-2.11-4.54-2.7-6.62-1.21c-2.11,1.51-2.64,4.37-1.7,6.7c0.81,2.02,2.36,3.51,4.06,4.82c1.25,0.97,3.02,1.02,3.93-0.51
				c3.17-5.35,5.68-11.1,7.48-17.06c0.32-1.06-0.21-2.27-1.15-2.82c-1.02-0.6-2.16-0.32-3.03,0.39c-3.56,2.89-7.11,5.78-10.67,8.67
				c-1.05,0.85-0.89,2.65,0,3.54C314.83,41.33,316.28,41.15,317.33,40.29L317.33,40.29z"/>
		</g>
	</g>
	<polyline class="st1" points="224.86,238.71 328.75,161.61 328.75,162.16 328.75,28.19 224.86,105.29 224.86,238.71 165.8,238.71 
		165.8,105.29 224.86,105.29 165.8,105.29 269.69,28.19 328.75,28.19 	"/>
</g>
<g id="Laag_2">
</g>
</svg>
