<?xml version="1.0" encoding="utf-8"?>
<!-- Generator: Adobe Illustrator 27.8.1, SVG Export Plug-In . SVG Version: 6.00 Build 0)  -->
<svg version="1.1" xmlns="http://www.w3.org/2000/svg" xmlns:xlink="http://www.w3.org/1999/xlink" x="0px" y="0px"
	 viewBox="0 0 222.74 192.7" style="enable-background:new 0 0 222.74 192.7;" xml:space="preserve">
<style type="text/css">
	.st0{fill:#138A00;}
</style>
<g id="Laag_1">
</g>
<g id="Laag_2">
	<g>
		<g>
			<path class="st0" d="M58.25,18.41c11.83-0.34,23.67-0.31,35.49,0.09c5.72,0.19,11.44,0.45,17.15,0.84
				c4.48,0.31,8.95,0.79,13.31,1.93c4.76,1.25,9.24,3.34,12.7,6.91c2.25,2.31,5.78-1.22,3.54-3.54
				c-6.92-7.12-16.95-9.18-26.47-10.06c-11.57-1.06-23.26-1.3-34.87-1.39c-6.95-0.06-13.9,0.02-20.85,0.22
				C55.04,13.5,55.02,18.5,58.25,18.41L58.25,18.41z"/>
		</g>
	</g>
	<g>
		<g>
			<path class="st0" d="M138.36,27.97c15.83,15.37,22.72,39.27,17.31,60.69c-1.42,5.63-3.73,11.82-9.14,14.72
				c-2.84,1.52-0.31,5.84,2.52,4.32c5.52-2.97,8.64-8.68,10.5-14.45c1.85-5.71,2.75-11.8,2.9-17.8c0.3-12.07-2.67-24.2-8.37-34.83
				c-3.2-5.97-7.33-11.47-12.19-16.19C139.58,22.19,136.04,25.72,138.36,27.97L138.36,27.97z"/>
		</g>
	</g>
	<g>
		<g>
			<path class="st0" d="M149.95,101.37c-12.58,17.82-36.06,22.06-56.42,21.9c-6.98-0.06-13.95-0.53-20.92-1.01
				c-1.35-0.09-2.5,1.22-2.5,2.5c0,1.43,1.15,2.41,2.5,2.5c23.27,1.59,48.72,2.88,68.92-10.92c4.96-3.39,9.27-7.53,12.74-12.45
				c0.78-1.1,0.2-2.78-0.9-3.42C152.12,99.74,150.73,100.26,149.95,101.37L149.95,101.37z"/>
		</g>
	</g>
	<g>
		<g>
			<path class="st0" d="M72.58,122.08c-12.31,7.09-24.61,14.17-36.92,21.26c-2.79,1.61-0.27,5.93,2.52,4.32
				c12.31-7.09,24.61-14.17,36.92-21.26C77.89,124.79,75.38,120.47,72.58,122.08L72.58,122.08z"/>
		</g>
	</g>
	<g>
		<g>
			<path class="st0" d="M39.27,146.04c1.7-8.77,3.4-17.55,5.1-26.32c0.26-1.32-0.37-2.7-1.75-3.08c-1.23-0.34-2.82,0.41-3.08,1.75
				c-1.7,8.77-3.4,17.55-5.1,26.32c-0.26,1.32,0.37,2.7,1.75,3.08C37.42,148.12,39.01,147.37,39.27,146.04L39.27,146.04z"/>
		</g>
	</g>
	<g>
		<g>
			<path class="st0" d="M42.42,116.61c-12.98-4.53-22.83-16.23-25.43-29.67c-0.26-1.33-1.85-2.08-3.08-1.75
				c-1.39,0.38-2,1.75-1.75,3.08c2.94,15.19,14.37,28.08,28.92,33.16c1.27,0.44,2.73-0.51,3.08-1.75
				C44.55,118.31,43.7,117.06,42.42,116.61L42.42,116.61z"/>
		</g>
	</g>
	<g>
		<g>
			<path class="st0" d="M17.24,85.89C12.87,70,16.2,52.57,25.47,39.03c2.6-3.8,5.72-7.21,9.2-10.22c1.02-0.88,0.91-2.63,0-3.54
				c-1.01-1.01-2.51-0.89-3.54,0C17.73,36.86,10.12,54.65,10.32,72.31c0.06,5.03,0.76,10.07,2.09,14.91
				C13.27,90.32,18.1,89.01,17.24,85.89L17.24,85.89z"/>
		</g>
	</g>
	<g>
		<g>
			<path class="st0" d="M61.32,12.95c-11.9,0.77-23.25,5.74-31.84,14.03c-2.32,2.24,1.22,5.77,3.54,3.54
				c7.6-7.34,17.75-11.88,28.3-12.56c1.35-0.09,2.5-1.09,2.5-2.5C63.82,14.16,62.68,12.86,61.32,12.95L61.32,12.95z"/>
		</g>
	</g>
	<g>
		<g>
			<path class="st0" d="M44.19,49.69c22.32,0,44.64,0,66.96,0c6.33,0,12.66,0,18.99,0c3.22,0,3.22-5,0-5c-22.32,0-44.64,0-66.96,0
				c-6.33,0-12.66,0-18.99,0C40.97,44.69,40.97,49.69,44.19,49.69L44.19,49.69z"/>
		</g>
	</g>
	<g>
		<g>
			<path class="st0" d="M37.15,72.93c25.39,0,50.78,0,76.17,0c7.14,0,14.27,0,21.41,0c3.22,0,3.22-5,0-5c-25.39,0-50.78,0-76.17,0
				c-7.14,0-14.27,0-21.41,0C33.94,67.93,33.93,72.93,37.15,72.93L37.15,72.93z"/>
		</g>
	</g>
	<g>
		<g>
			<path class="st0" d="M45.41,95.26c21.48,0,42.95,0,64.43,0c6.05,0,12.11,0,18.16,0c3.22,0,3.22-5,0-5c-21.48,0-42.95,0-64.43,0
				c-6.05,0-12.11,0-18.16,0C42.2,90.26,42.19,95.26,45.41,95.26L45.41,95.26z"/>
		</g>
	</g>
	<g>
		<g>
			<path class="st0" d="M96.68,129.09c0.8,9.81,5.67,18.93,13.05,25.4c8.42,7.39,19.11,10.37,30.16,10.69
				c6.7,0.19,13.38-0.47,20.03-1.17c1.34-0.14,2.5-1.05,2.5-2.5c0-1.24-1.15-2.64-2.5-2.5c-10.87,1.13-22.22,2.36-32.91-0.68
				c-8.59-2.44-16.09-8.01-20.75-15.64c-2.52-4.12-4.18-8.77-4.57-13.6c-0.11-1.35-1.07-2.5-2.5-2.5
				C97.91,126.59,96.57,127.74,96.68,129.09L96.68,129.09z"/>
		</g>
	</g>
	<g>
		<g>
			<path class="st0" d="M159.57,164.1c9.01,3.81,17.69,8.37,25.94,13.64c2.72,1.74,5.23-2.59,2.52-4.32
				c-8.25-5.26-16.92-9.83-25.94-13.64c-1.24-0.53-2.68-0.37-3.42,0.9C158.06,161.73,158.32,163.57,159.57,164.1L159.57,164.1z"/>
		</g>
	</g>
	<g>
		<g>
			<path class="st0" d="M188.99,174.96c-0.93-6-1.85-12-2.78-17.99c-0.21-1.34-1.88-2.07-3.08-1.75c-1.43,0.39-1.95,1.74-1.75,3.08
				c0.93,6,1.85,12,2.78,17.99c0.21,1.34,1.88,2.07,3.08,1.75C188.67,177.64,189.2,176.3,188.99,174.96L188.99,174.96z"/>
		</g>
	</g>
	<g>
		<g>
			<path class="st0" d="M185.05,160.3c13.3-7.52,21.64-22.89,20.54-38.16c-0.1-1.35-1.08-2.5-2.5-2.5c-1.28,0-2.6,1.15-2.5,2.5
				c0.97,13.59-6.19,27.13-18.07,33.84C179.73,157.56,182.25,161.88,185.05,160.3L185.05,160.3z"/>
		</g>
	</g>
	<g>
		<g>
			<path class="st0" d="M206.22,121.77c-1.42-14.23-9.67-27.12-22.31-33.96c-3.52-1.9-7.3-3.33-11.2-4.2
				c-3.13-0.7-4.47,4.12-1.33,4.82c15.91,3.56,28.21,17.01,29.84,33.33c0.13,1.34,1.05,2.5,2.5,2.5
				C204.97,124.27,206.35,123.13,206.22,121.77L206.22,121.77z"/>
		</g>
	</g>
</g>
</svg>
