<?xml version="1.0" encoding="utf-8"?>
<!-- Generator: Adobe Illustrator 27.8.1, SVG Export Plug-In . SVG Version: 6.00 Build 0)  -->
<svg version="1.1" xmlns="http://www.w3.org/2000/svg" xmlns:xlink="http://www.w3.org/1999/xlink" x="0px" y="0px"
	 viewBox="0 0 300.38 356.23" style="enable-background:new 0 0 300.38 356.23;" xml:space="preserve">
<style type="text/css">
	.st0{fill:#878787;}
	.st1{fill:#575756;}
	.st2{fill:#FFDD5F;}
	.st3{fill:#FFFFFF;}
	.st4{fill:#1D1D1B;}
</style>
<g id="Laag_1">
	<g>
		<g>
			<path class="st0" d="M88.06,284.72c3.92,0.68,7.64-0.75,10.55-3.38c2.69-2.43,4.39-5.76,5.97-8.96c0.58-1.17,0.35-2.76-0.9-3.42
				c-1.13-0.6-2.8-0.35-3.42,0.9c-0.69,1.39-1.39,2.79-2.18,4.13c-0.4,0.67-0.83,1.31-1.28,1.94c-0.26,0.36,0.07-0.07-0.1,0.14
				c-0.13,0.15-0.24,0.3-0.37,0.45c-0.25,0.29-0.51,0.58-0.79,0.85c-0.26,0.26-0.53,0.5-0.8,0.74c-0.16,0.14-0.2,0.17-0.01,0.02
				c-0.17,0.13-0.35,0.26-0.54,0.38c-0.3,0.2-0.61,0.4-0.94,0.57c-0.13,0.07-0.26,0.14-0.39,0.2c0.01,0-0.59,0.27-0.3,0.14
				c0.3-0.13-0.25,0.09-0.31,0.11c-0.17,0.06-0.34,0.11-0.51,0.16c-0.35,0.1-0.69,0.17-1.04,0.23c-0.29,0.06,0.41,0-0.08,0
				c-0.18,0-0.35,0.02-0.53,0.02c-0.18,0-0.36-0.02-0.53-0.02c-0.54,0,0.4,0.08-0.19-0.02c-1.28-0.22-2.76,0.34-3.08,1.75
				C86.03,282.86,86.68,284.48,88.06,284.72L88.06,284.72z"/>
		</g>
	</g>
	<g>
		<g>
			<path class="st0" d="M80.09,286.03c11.18,0.34,21.87-3.64,30.56-10.55c4.22-3.36,8.24-8.02,9.43-13.42
				c0.74-3.33,0.66-6.91-0.54-10.13c-1.05-2.83-2.47-5.36-4.16-7.85c-3.56-5.23-7.15-10.44-10.73-15.66
				c-1.12-1.63-2.53-2.91-4.48-3.45c-1.8-0.49-4.19-0.27-5.78,0.76c-3.21,2.07-5.06,6.8-2.69,10.26c2.49,3.63,4.97,7.25,7.46,10.88
				c2.26,3.3,4.85,6.56,6.45,10.25c-0.25-0.6-0.5-1.19-0.76-1.79c0.42,1.03,0.73,2.06,0.9,3.16c-0.09-0.66-0.18-1.33-0.27-1.99
				c0.12,0.95,0.12,1.86,0,2.81c0.09-0.66,0.18-1.33,0.27-1.99c-0.15,0.89-0.39,1.74-0.72,2.58c0.25-0.6,0.5-1.19,0.76-1.79
				c-0.33,0.78-0.72,1.52-1.17,2.23c-0.24,0.38-0.48,0.8-0.79,1.13c0.23-0.3,0.45-0.6,0.68-0.9c-0.17,0.2-0.34,0.41-0.51,0.6
				c-1.11,1.25-2.34,2.39-3.64,3.44c-1.28,1.04,0.85-0.61,0.23-0.17c-0.39,0.28-0.77,0.56-1.16,0.83c-0.67,0.46-1.36,0.9-2.06,1.32
				c-1.52,0.91-3.1,1.7-4.73,2.4c0.6-0.25,1.19-0.5,1.79-0.76c-3.28,1.37-6.69,2.3-10.21,2.77c0.66-0.09,1.33-0.18,1.99-0.27
				c-2.03,0.25-4.06,0.35-6.11,0.29c-3.93-0.12-7.68,3.53-7.5,7.5C72.77,282.69,75.88,285.9,80.09,286.03L80.09,286.03z"/>
		</g>
	</g>
	<g>
		<g>
			<path class="st0" d="M91.72,222.29c-8.26,2.12-16.63,3.75-25.08,4.89c0.66-0.09,1.33-0.18,1.99-0.27
				c-3.65,0.48-7.44,1.16-11.13,0.74c0.66,0.09,1.33,0.18,1.99,0.27c-0.97-0.14-1.89-0.36-2.81-0.71c0.6,0.25,1.19,0.5,1.79,0.76
				c-0.47-0.2-0.9-0.44-1.35-0.68c-1.12-0.61,1.45,1.33,0.32,0.21c-1.13-1.13,0.84,1.44,0.19,0.33c-0.23-0.4-0.45-0.77-0.64-1.19
				c0.25,0.6,0.5,1.19,0.76,1.79c-0.21-0.52-0.35-1.03-0.44-1.59c0.09,0.66,0.18,1.33,0.27,1.99c-0.05-0.43-0.05-0.85-0.02-1.28
				c-0.09,0.66-0.18,1.33-0.27,1.99c0.07-0.43,0.17-0.83,0.33-1.24c-0.25,0.6-0.5,1.19-0.76,1.79c0.09-0.2,0.19-0.4,0.3-0.59
				c1.93-3.42,0.93-8.35-2.69-10.26c-3.55-1.87-8.2-0.96-10.26,2.69c-3.61,6.41-0.86,13.82,4.79,17.92
				c4.39,3.19,10.17,3.19,15.32,2.6c10.58-1.2,21.07-3.05,31.38-5.69c3.8-0.97,6.47-5.42,5.24-9.23
				C99.68,223.6,95.8,221.24,91.72,222.29L91.72,222.29z"/>
		</g>
	</g>
	<g>
		<g>
			<path class="st0" d="M92.51,191.37c3.64,1.67,7.06,3.74,10.22,6.18c-0.51-0.39-1.01-0.78-1.52-1.17c3.51,2.74,6.67,5.9,9.39,9.43
				c-0.39-0.51-0.78-1.01-1.17-1.52c0.48,0.64,0.95,1.28,1.41,1.93c1.14,1.63,2.51,2.9,4.48,3.45c1.8,0.49,4.19,0.27,5.78-0.76
				c1.6-1.03,3.01-2.57,3.45-4.48c0.43-1.88,0.39-4.14-0.76-5.78c-6.04-8.62-14.11-15.82-23.72-20.23
				c-1.88-0.86-3.71-1.33-5.78-0.76c-1.74,0.48-3.62,1.82-4.48,3.45c-0.92,1.74-1.38,3.85-0.76,5.78
				C89.63,188.64,90.76,190.57,92.51,191.37L92.51,191.37z"/>
		</g>
	</g>
	<g>
		<g>
			<path class="st0" d="M109.3,185.18c-4.54-3.08-9.08-6.16-13.62-9.24c-1.55-1.05-4.03-1.24-5.78-0.76
				c-1.74,0.48-3.62,1.82-4.48,3.45c-0.92,1.74-1.38,3.85-0.76,5.78c0.62,1.93,1.76,3.34,3.45,4.48c4.54,3.08,9.08,6.16,13.62,9.24
				c1.55,1.05,4.03,1.24,5.78,0.76c1.74-0.48,3.62-1.82,4.48-3.45c0.92-1.74,1.38-3.85,0.76-5.78
				C112.13,187.73,110.99,186.32,109.3,185.18L109.3,185.18z"/>
		</g>
	</g>
	<g>
		<g>
			<path class="st0" d="M122.47,233.68c0.49-0.47,0.98-0.94,1.47-1.41c-4.27-1.77-8.54-3.54-12.8-5.3c-0.28,2.47-0.56,4.93-0.84,7.4
				c-0.28,2.45-0.7,4.94-0.72,7.42c-0.04,5.6,2.48,10.31,5.7,14.69c2.16-3.76,4.32-7.52,6.48-11.29c-0.45,0.02-0.89,0.03-1.34,0.05
				c1.26,4.66,2.52,9.32,3.79,13.98c1.95-0.91,3.9-1.83,5.84-2.74c1.61-0.76,2.99-2.83,3.45-4.48c0.49-1.8,0.27-4.19-0.76-5.78
				c-2.36-3.67-6.45-4.48-10.26-2.69c-1.95,0.91-3.9,1.83-5.84,2.74c-2.86,1.34-4.4,5.54-3.45,8.47c0.99,3.07,3.85,5.63,7.23,5.51
				c0.45-0.02,0.89-0.03,1.34-0.05c2.67-0.1,5.1-1.37,6.48-3.71c1.25-2.13,1.54-5.47,0-7.57c-1.41-1.92-2.79-3.85-3.74-6.05
				c0.25,0.6,0.5,1.19,0.76,1.79c-0.36-0.91-0.63-1.81-0.8-2.78c0.09,0.66,0.18,1.33,0.27,1.99c-0.37-2.75,0.13-5.53,0.44-8.26
				c0.33-2.88,0.66-5.76,0.98-8.63c0.13-1.17-0.44-2.79-1.02-3.79c-0.83-1.41-2.1-2.44-3.59-3.07c-2.79-1.18-5.99-0.56-8.19,1.55
				c-0.49,0.47-0.98,0.94-1.47,1.41c-2.83,2.72-2.94,7.9,0,10.61C114.91,236.48,119.45,236.59,122.47,233.68L122.47,233.68z"/>
		</g>
	</g>
	<g>
		<g>
			<path class="st0" d="M8.42,230.88c0.1,2.29,0.2,4.58,0.31,6.87c0.03,0.66,0.26,1.29,0.73,1.77c0.43,0.43,1.15,0.76,1.77,0.73
				c1.3-0.06,2.56-1.1,2.5-2.5c-0.1-2.29-0.2-4.58-0.31-6.87c-0.03-0.66-0.26-1.29-0.73-1.77c-0.43-0.43-1.15-0.76-1.77-0.73
				C9.62,228.44,8.36,229.48,8.42,230.88L8.42,230.88z"/>
		</g>
	</g>
	<g>
		<g>
			<path class="st0" d="M69.06,157.47c1.01,0.01,2.02,0.01,3.03,0.02c0.34,0.01,0.67-0.06,0.96-0.22c0.31-0.1,0.58-0.27,0.8-0.52
				c0.24-0.23,0.42-0.49,0.52-0.8c0.16-0.3,0.23-0.62,0.22-0.96c-0.03-0.65-0.24-1.32-0.73-1.77c-0.17-0.13-0.34-0.26-0.51-0.39
				c-0.39-0.23-0.81-0.34-1.26-0.34c-0.5-0.06-0.99-0.12-1.49-0.18c-0.34-0.01-0.67,0.06-0.96,0.22c-0.31,0.1-0.58,0.27-0.8,0.52
				c-0.24,0.23-0.42,0.49-0.52,0.8c-0.16,0.3-0.23,0.62-0.22,0.96c0.03,0.65,0.24,1.32,0.73,1.77c0.17,0.13,0.34,0.26,0.51,0.39
				c0.39,0.23,0.81,0.34,1.26,0.34c0.5,0.06,0.99,0.12,1.49,0.18c0-1.67,0-3.33,0-5c-1.01-0.01-2.02-0.01-3.03-0.02
				c-0.34-0.01-0.67,0.06-0.96,0.22c-0.31,0.1-0.58,0.27-0.8,0.52c-0.24,0.23-0.42,0.49-0.52,0.8c-0.16,0.3-0.23,0.62-0.22,0.96
				c0.03,0.65,0.24,1.32,0.73,1.77C67.78,157.19,68.38,157.47,69.06,157.47L69.06,157.47z"/>
		</g>
	</g>
	<g>
		<g>
			<path class="st0" d="M71.69,157.65c15.15,12.98,30.29,25.95,45.44,38.93c1.02,0.88,2.53,1.01,3.54,0c0.9-0.9,1.03-2.65,0-3.54
				c-15.15-12.98-30.29-25.95-45.44-38.93c-1.02-0.88-2.53-1.01-3.54,0C70.79,155.01,70.66,156.76,71.69,157.65L71.69,157.65z"/>
		</g>
	</g>
	<g>
		<g>
			<path class="st0" d="M20.19,278.1c18.59,4.19,37.63,6.36,56.68,6.43c3.22,0.01,3.22-4.99,0-5c-18.62-0.07-37.18-2.15-55.35-6.25
				C18.38,272.57,17.05,277.39,20.19,278.1L20.19,278.1z"/>
		</g>
	</g>
	<g>
		<g>
			<path class="st1" d="M123.57,163.91c1.99,4.83,6.92,8.26,12.27,7.64c-0.42-1.55-0.84-3.11-1.26-4.66
				c-3.34,2.31-6.27,5.09-9.15,7.94c-3.1,3.06-6.19,6.12-9.29,9.18c-2.29,2.27,1.24,5.8,3.54,3.54c3-2.96,5.99-5.92,8.99-8.89
				c2.67-2.64,5.34-5.32,8.44-7.46c0.92-0.64,1.46-1.7,1.15-2.82c-0.27-0.97-1.34-1.96-2.41-1.84c-2.92,0.34-6.25-1.08-7.45-3.97
				c-0.51-1.25-1.66-2.14-3.08-1.75C124.14,161.16,123.05,162.65,123.57,163.91L123.57,163.91z"/>
		</g>
	</g>
	<g>
		<g>
			<path class="st2" d="M211.08,72.86c-6.45,8.15-12.91,16.29-19.36,24.44c-2.97,3.75-5.83,7.67-9.38,10.9
				c-0.75,0.69-1.53,1.43-2.38,2.01c0.07-0.05,1.51-1.13,0.53-0.42c-0.22,0.16-0.44,0.33-0.67,0.49c-0.45,0.32-0.9,0.64-1.36,0.96
				c-1.77,1.22-3.6,2.36-5.43,3.49c-4.64,2.86-9.21,5.74-13.38,9.27c-1.39,1.18-2.2,3.54-2.2,5.3c0,1.84,0.82,4.04,2.2,5.3
				c3.2,2.94,7.4,2.72,10.61,0c0.42-0.36,0.85-0.71,1.28-1.06c0.37-0.3,1.11-0.72-0.53,0.41c0.17-0.12,0.33-0.25,0.5-0.37
				c0.89-0.66,1.81-1.29,2.73-1.91c1.8-1.19,3.64-2.32,5.47-3.45c4.16-2.55,8.23-5.19,11.98-8.33c3.61-3.03,6.48-6.75,9.39-10.43
				c3.2-4.04,6.4-8.08,9.6-12.12c3.67-4.63,7.33-9.25,11-13.88c1.28-1.62,2.2-3.15,2.2-5.3c0-1.84-0.82-4.04-2.2-5.3
				c-1.43-1.31-3.31-2.29-5.3-2.2C214.53,70.74,212.29,71.33,211.08,72.86L211.08,72.86z"/>
		</g>
	</g>
	<g>
		<g>
			<path d="M276.14,37.95c-8.19-7.53-16.39-15.05-24.58-22.58c-2.89-2.65-7.79-3.07-10.61,0c-2.65,2.89-3.09,7.77,0,10.61
				c8.19,7.53,16.39,15.05,24.58,22.58c2.89,2.65,7.79,3.07,10.61,0C278.79,45.67,279.22,40.79,276.14,37.95L276.14,37.95z"/>
		</g>
	</g>
	<g>
		<g>
			<path d="M239.74,22.28c3.92,0,7.68-3.45,7.5-7.5c-0.18-4.06-3.3-7.5-7.5-7.5c-3.92,0-7.68,3.45-7.5,7.5
				C232.42,18.85,235.54,22.28,239.74,22.28L239.74,22.28z"/>
		</g>
	</g>
	<g>
		<g>
			<path d="M283.18,64.11c3.92,0,7.68-3.45,7.5-7.5c-0.18-4.06-3.3-7.5-7.5-7.5c-3.92,0-7.68,3.45-7.5,7.5
				C275.86,60.68,278.98,64.11,283.18,64.11L283.18,64.11z"/>
		</g>
	</g>
	<g>
		<g>
			<path d="M271.69,78.14c3.92,0,7.68-3.45,7.5-7.5c-0.18-4.06-3.3-7.5-7.5-7.5c-3.92,0-7.68,3.45-7.5,7.5
				C264.37,74.7,267.48,78.14,271.69,78.14L271.69,78.14z"/>
		</g>
	</g>
	<g>
		<g>
			<path d="M266.63,74.69c3.92,0,7.68-3.45,7.5-7.5c-0.18-4.06-3.3-7.5-7.5-7.5c-3.92,0-7.68,3.45-7.5,7.5
				C259.31,71.25,262.43,74.69,266.63,74.69L266.63,74.69z"/>
		</g>
	</g>
	<g>
		<g>
			<path d="M231.24,28.26c3.92,0,7.68-3.45,7.5-7.5c-0.18-4.06-3.3-7.5-7.5-7.5c-3.92,0-7.68,3.45-7.5,7.5
				C223.92,24.82,227.03,28.26,231.24,28.26L231.24,28.26z"/>
		</g>
	</g>
</g>
<g id="Laag_3">
	<g>
		<g>
			<path class="st0" d="M76.8,176.39c5.23,0,10.24-4.6,10-10c-0.24-5.42-4.39-10-10-10c-5.23,0-10.24,4.6-10,10
				C67.04,171.81,71.19,176.39,76.8,176.39L76.8,176.39z"/>
		</g>
	</g>
	<g>
		<g>
			<path class="st0" d="M63.72,156.7c-9.26,8.8-18.54,17.59-27.78,26.4c-9.26,8.83-18.01,18.34-22.23,30.67
				c-2.48,7.25-2.93,15.38-0.89,22.79c0.67,2.42,2.43,4.71,4.6,5.98c2.14,1.25,5.3,1.79,7.71,1.01c5.16-1.67,8.47-6.9,6.98-12.3
				c-0.3-1.09-0.53-2.19-0.7-3.3c0.12,0.89,0.24,1.77,0.36,2.66c-0.33-2.52-0.31-5.03,0.01-7.55c-0.12,0.89-0.24,1.77-0.36,2.66
				c0.43-3.11,1.3-6.12,2.49-9.02c-0.34,0.8-0.67,1.59-1.01,2.39c1.64-3.87,3.86-7.42,6.41-10.75c-0.52,0.67-1.04,1.35-1.56,2.02
				c5.52-7.09,12.31-13.09,18.8-19.26c7.11-6.75,14.21-13.5,21.32-20.26c3.8-3.61,3.91-10.55,0-14.14
				C73.79,152.96,67.77,152.85,63.72,156.7L63.72,156.7z"/>
		</g>
	</g>
	<g>
		<g>
			<path class="st0" d="M12.85,231.95c-1.66,6.16-3.29,12.55-3.15,18.98c0.13,6,1.67,12.49,5.26,17.4c2.31,3.16,4.95,5.84,8.41,7.78
				c2.71,1.52,5.73,2.64,8.76,3.35c6.01,1.41,12.28,1.97,18.4,2.7c5.83,0.7,11.67,1.27,17.53,1.73c6.06,0.47,12.03,0.63,18.02-0.63
				c6.68-1.4,12.23-5.28,17.22-9.75c4.34-3.88,8.54-7.91,12.8-11.87c9.84-9.14,19.68-18.28,29.53-27.43c3.87-3.6,3.83-10.54,0-14.14
				c-14.68-13.8-29.37-27.6-44.05-41.4c-4.17-3.92-8.34-7.84-12.51-11.76c-1.91-1.79-4.42-2.93-7.07-2.93
				c-2.45,0-5.38,1.09-7.07,2.93c-1.75,1.91-3.05,4.41-2.93,7.07c0.12,2.6,0.98,5.24,2.93,7.07c14.68,13.8,29.37,27.6,44.05,41.4
				c4.17,3.92,8.34,7.84,12.51,11.76c0-4.71,0-9.43,0-14.14c-7.66,7.11-15.31,14.22-22.97,21.33c-3.77,3.5-7.53,7-11.3,10.5
				c-3.62,3.37-7.14,6.92-11.05,9.97c0.67-0.52,1.35-1.04,2.02-1.56c-1.72,1.31-3.53,2.46-5.51,3.33c0.8-0.34,1.59-0.67,2.39-1.01
				c-2.01,0.83-4.08,1.36-6.23,1.68c0.89-0.12,1.77-0.24,2.66-0.36c-5.91,0.78-11.94,0.09-17.84-0.43
				c-6.42-0.57-12.82-1.28-19.21-2.14c0.89,0.12,1.77,0.24,2.66,0.36c-4.74-0.64-9.62-1.14-14.08-2.96c0.8,0.34,1.59,0.67,2.39,1.01
				c-1.35-0.58-2.61-1.28-3.79-2.14c0.67,0.52,1.35,1.04,2.02,1.56c-1.03-0.8-1.94-1.69-2.76-2.7c0.52,0.67,1.04,1.35,1.56,2.02
				c-0.94-1.22-1.7-2.54-2.33-3.95c0.34,0.8,0.67,1.59,1.01,2.39c-0.81-1.93-1.32-3.93-1.6-5.99c0.12,0.89,0.24,1.77,0.36,2.66
				c-0.32-2.64-0.22-5.27,0.11-7.9c-0.12,0.89-0.24,1.77-0.36,2.66c0.52-3.78,1.49-7.46,2.48-11.13c0.68-2.51,0.31-5.46-1.01-7.71
				c-1.21-2.07-3.59-4.05-5.98-4.6C19.88,223.77,14.31,226.55,12.85,231.95L12.85,231.95z"/>
		</g>
	</g>
	<g>
		<g>
			<path class="st0" d="M71.47,165.7c-16.32,11.98-30.33,26.54-41.42,43.51c-5.85,8.95-11.95,18.99-12.32,29.97
				c-0.22,6.69,2.41,13.26,7.09,18.02c4.14,4.22,9.77,6.99,15.47,8.34c5.7,1.35,11.7,1.76,17.54,2.09
				c5.31,0.3,10.65,0.31,15.95-0.26c10.56-1.14,21.16-3.97,29.83-10.37c4.66-3.44,8.52-7.19,11.82-11.98
				c3.49-5.07,5.49-10.95,6.03-17.06c0.1-1.16,0.08-2.33-0.05-3.49c-0.22-2-0.45-4.04-1.15-5.93c-1.3-3.5-2.92-6.13-5.27-9.02
				c-3.13-3.83-7.47-6.7-11.62-9.31c-9.59-6.03-20.31-12.2-32.06-11.46c-6.04,0.38-11.93,2.22-16.81,5.86
				c-2.28,1.7-4.44,3.46-6.38,5.53c-1.95,2.09-3.69,4.36-5.42,6.64c-2.81,3.69-5.73,7.53-7.68,11.77c-1.66,3.61-2.7,6.87-3,10.85
				c-0.28,3.72,0.78,7.5,2.47,10.78c2.84,5.53,8.64,9.37,14.48,11.07c6.38,1.87,13.14,0.99,19.52-0.31
				c9.39-1.9,19.7-4.42,26.49-11.7c4.31-4.61,6.59-10.17,7.03-16.43c0.36-5.13-1.15-10.85-3.9-15.19
				c-3.28-5.19-8.14-8.93-14.01-10.75c-2.56-0.79-5.38-1.16-8.06-1.09c-2.66,0.07-5.5,0.46-8.03,1.37
				c-5.82,2.1-10.81,5.75-13.95,11.18c-3.29,5.69-4.29,12.55-2.72,18.92c1.47,5.97,5.73,11.35,11.08,14.33
				c5.3,2.95,12.22,4.14,18.01,1.9c3.28-1.27,6.28-2.95,8.71-5.56c2.41-2.59,4.04-5.4,5.18-8.74c2.23-6.54,0.46-14.56-4.56-19.36
				c-3-2.86-7.16-4.85-11.39-4.6c-5,0.3-9.51,2.77-12.19,7.05c-2.63,4.19-2.75,10.02-0.07,14.23c1.29,2.03,2.96,3.74,5.05,4.96
				c2.94,1.71,6.19,1.98,9.47,1.38c4.02-0.73,7.43-3.86,9.43-7.29c1.51-2.59,2.46-5.62,3.34-8.49c1.71-5.55,2.67-11.31,3.22-17.08
				c0.47-5.05,0.4-10.12-0.18-15.16c-0.01-1.81-0.46-3.49-1.37-5.05c-0.63-1.17-1.49-2.1-2.58-2.81c-2.69-2.08-5.45-2.33-8.72-1.79
				c-3.47,0.57-6.94,1.15-10.41,1.72c-2.32,0.39-4.84,2.65-5.98,4.6c-1.25,2.14-1.79,5.3-1.01,7.71c0.78,2.42,2.28,4.75,4.6,5.98
				c0.8,0.34,1.59,0.67,2.39,1.01c1.77,0.48,3.54,0.48,5.32,0c3.47-0.57,6.94-1.15,10.41-1.72c-4.22-3.21-8.44-6.43-12.66-9.64
				c0.69,5.96,0.64,11.95-0.13,17.9c0.12-0.89,0.24-1.77,0.36-2.66c-0.75,5.52-2.04,11.05-4.13,16.22c0.34-0.8,0.67-1.59,1.01-2.39
				c-0.36,0.85-0.78,1.65-1.32,2.41c0.52-0.67,1.04-1.35,1.56-2.02c-0.34,0.43-0.7,0.81-1.14,1.15c0.67-0.52,1.35-1.04,2.02-1.56
				c-0.27,0.18-0.52,0.32-0.82,0.46c0.8-0.34,1.59-0.67,2.39-1.01c-0.32,0.11-0.6,0.18-0.93,0.23c0.89-0.12,1.77-0.24,2.66-0.36
				c-0.22,0.02-0.45,0.02-0.67-0.01c0.89,0.12,1.77,0.24,2.66,0.36c-0.34-0.06-0.63-0.15-0.95-0.28c0.8,0.34,1.59,0.67,2.39,1.01
				c-0.2-0.1-0.39-0.21-0.57-0.34c0.67,0.52,1.35,1.04,2.02,1.56c-0.28-0.22-0.5-0.43-0.74-0.69c0.52,0.67,1.04,1.35,1.56,2.02
				c-0.28-0.37-0.5-0.74-0.68-1.17c0.34,0.8,0.67,1.59,1.01,2.39c-0.08-0.21-0.14-0.43-0.18-0.65c0.12,0.89,0.24,1.77,0.36,2.66
				c-0.05-0.35-0.06-0.66-0.03-1.01c-0.12,0.89-0.24,1.77-0.36,2.66c0.06-0.35,0.14-0.65,0.26-0.98c-0.34,0.8-0.67,1.59-1.01,2.39
				c0.15-0.31,0.3-0.59,0.49-0.87c-0.52,0.67-1.04,1.35-1.56,2.02c0.29-0.36,0.59-0.67,0.95-0.96c-0.67,0.52-1.35,1.04-2.02,1.56
				c0.38-0.27,0.76-0.49,1.19-0.67c-0.8,0.34-1.59,0.67-2.39,1.01c0.33-0.12,0.64-0.21,0.99-0.28c-0.89,0.12-1.77,0.24-2.66,0.36
				c0.47-0.06,0.9-0.06,1.37-0.02c-0.89-0.12-1.77-0.24-2.66-0.36c0.45,0.07,0.87,0.18,1.3,0.34c-0.8-0.34-1.59-0.67-2.39-1.01
				c0.53,0.23,1,0.51,1.46,0.86c-0.67-0.52-1.35-1.04-2.02-1.56c0.45,0.38,0.85,0.78,1.23,1.23c-0.52-0.67-1.04-1.35-1.56-2.02
				c0.51,0.68,0.91,1.38,1.24,2.16c-0.34-0.8-0.67-1.59-1.01-2.39c0.25,0.67,0.43,1.35,0.54,2.06c-0.12-0.89-0.24-1.77-0.36-2.66
				c0.09,0.82,0.09,1.62,0.01,2.44c0.12-0.89,0.24-1.77,0.36-2.66c-0.14,1.04-0.42,2.04-0.82,3.01c0.34-0.8,0.67-1.59,1.01-2.39
				c-0.43,0.97-0.97,1.86-1.61,2.71c0.52-0.67,1.04-1.35,1.56-2.02c-0.67,0.83-1.41,1.57-2.25,2.23c0.67-0.52,1.35-1.04,2.02-1.56
				c-0.76,0.56-1.55,1.04-2.41,1.43c0.8-0.34,1.59-0.67,2.39-1.01c-0.98,0.41-1.98,0.69-3.04,0.83c0.89-0.12,1.77-0.24,2.66-0.36
				c-0.94,0.1-1.85,0.09-2.79-0.01c0.89,0.12,1.77,0.24,2.66,0.36c-1.17-0.16-2.28-0.46-3.37-0.89c0.8,0.34,1.59,0.67,2.39,1.01
				c-1.09-0.47-2.1-1.05-3.05-1.75c0.67,0.52,1.35,1.04,2.02,1.56c-0.94-0.73-1.77-1.54-2.51-2.46c0.52,0.67,1.04,1.35,1.56,2.02
				c-0.65-0.85-1.19-1.74-1.63-2.71c0.34,0.8,0.67,1.59,1.01,2.39c-0.49-1.16-0.81-2.34-1-3.59c0.12,0.89,0.24,1.77,0.36,2.66
				c-0.17-1.37-0.15-2.73,0.03-4.1c-0.12,0.89-0.24,1.77-0.36,2.66c0.21-1.37,0.58-2.69,1.12-3.97c-0.34,0.8-0.67,1.59-1.01,2.39
				c0.51-1.16,1.13-2.23,1.88-3.25c-0.52,0.67-1.04,1.35-1.56,2.02c0.81-1.03,1.71-1.94,2.75-2.75c-0.67,0.52-1.35,1.04-2.02,1.56
				c1.01-0.75,2.08-1.37,3.23-1.89c-0.8,0.34-1.59,0.67-2.39,1.01c1.48-0.63,3.02-1.04,4.61-1.26c-0.89,0.12-1.77,0.24-2.66,0.36
				c1.48-0.17,2.96-0.17,4.44,0.01c-0.89-0.12-1.77-0.24-2.66-0.36c1.36,0.2,2.67,0.54,3.95,1.05c-0.8-0.34-1.59-0.67-2.39-1.01
				c1.16,0.49,2.24,1.1,3.26,1.85c-0.67-0.52-1.35-1.04-2.02-1.56c0.98,0.77,1.85,1.63,2.62,2.6c-0.52-0.67-1.04-1.35-1.56-2.02
				c0.82,1.08,1.5,2.23,2.05,3.47c-0.34-0.8-0.67-1.59-1.01-2.39c0.62,1.46,1.03,2.97,1.25,4.55c-0.12-0.89-0.24-1.77-0.36-2.66
				c0.18,1.46,0.18,2.91,0,4.37c0.12-0.89,0.24-1.77,0.36-2.66c-0.19,1.34-0.53,2.62-1.05,3.88c0.34-0.8,0.67-1.59,1.01-2.39
				c-0.51,1.17-1.15,2.24-1.92,3.27c0.52-0.67,1.04-1.35,1.56-2.02c-0.95,1.21-2.04,2.27-3.25,3.22c0.67-0.52,1.35-1.04,2.02-1.56
				c-1.72,1.3-3.6,2.33-5.58,3.19c0.8-0.34,1.59-0.67,2.39-1.01c-5.73,2.41-12.16,3.76-18.3,4.64c0.89-0.12,1.77-0.24,2.66-0.36
				c-2.53,0.33-5.05,0.45-7.59,0.15c0.89,0.12,1.77,0.24,2.66,0.36c-1.49-0.22-2.93-0.59-4.33-1.15c0.8,0.34,1.59,0.67,2.39,1.01
				c-1.24-0.53-2.39-1.18-3.46-1.98c0.67,0.52,1.35,1.04,2.02,1.56c-0.85-0.67-1.6-1.41-2.27-2.25c0.52,0.67,1.04,1.35,1.56,2.02
				c-0.57-0.77-1.04-1.57-1.41-2.45c0.34,0.8,0.67,1.59,1.01,2.39c-0.34-0.88-0.56-1.76-0.69-2.7c0.12,0.89,0.24,1.77,0.36,2.66
				c-0.1-0.96-0.08-1.88,0.02-2.84c-0.12,0.89-0.24,1.77-0.36,2.66c0.21-1.53,0.65-2.98,1.23-4.41c-0.34,0.8-0.67,1.59-1.01,2.39
				c2-4.66,5.18-8.86,8.26-12.86c-0.52,0.67-1.04,1.35-1.56,2.02c2.28-2.94,4.75-5.73,7.68-8.04c-0.67,0.52-1.35,1.04-2.02,1.56
				c1.69-1.3,3.5-2.4,5.47-3.23c-0.8,0.34-1.59,0.67-2.39,1.01c1.56-0.63,3.16-1.06,4.82-1.32c-0.89,0.12-1.77,0.24-2.66,0.36
				c2.23-0.3,4.44-0.27,6.67,0.01c-0.89-0.12-1.77-0.24-2.66-0.36c3,0.42,5.88,1.28,8.67,2.44c-0.8-0.34-1.59-0.67-2.39-1.01
				c3.53,1.5,6.86,3.41,10.13,5.41c2.86,1.75,5.73,3.49,8.4,5.53c-0.67-0.52-1.35-1.04-2.02-1.56c1.79,1.39,3.46,2.92,4.86,4.71
				c-0.52-0.67-1.04-1.35-1.56-2.02c0.82,1.09,1.52,2.23,2.07,3.48c-0.34-0.8-0.67-1.59-1.01-2.39c0.53,1.28,0.89,2.59,1.07,3.96
				c-0.12-0.89-0.24-1.77-0.36-2.66c0.16,1.46,0.13,2.9-0.05,4.36c0.12-0.89,0.24-1.77,0.36-2.66c-0.3,2.06-0.88,4.03-1.69,5.95
				c0.34-0.8,0.67-1.59,1.01-2.39c-1.02,2.34-2.32,4.52-3.87,6.55c0.52-0.67,1.04-1.35,1.56-2.02c-1.93,2.48-4.16,4.66-6.64,6.58
				c0.67-0.52,1.35-1.04,2.02-1.56c-2.93,2.23-6.12,4.05-9.5,5.5c0.8-0.34,1.59-0.67,2.39-1.01c-4.49,1.89-9.22,3.06-14.04,3.73
				c0.89-0.12,1.77-0.24,2.66-0.36c-9.24,1.22-18.76,0.77-27.98-0.4c0.89,0.12,1.77,0.24,2.66,0.36c-3.14-0.42-6.23-1.06-9.17-2.26
				c0.8,0.34,1.59,0.67,2.39,1.01c-1.76-0.75-3.39-1.68-4.91-2.84c0.67,0.52,1.35,1.04,2.02,1.56c-1.08-0.87-2.05-1.83-2.91-2.91
				c0.52,0.67,1.04,1.35,1.56,2.02c-0.69-0.92-1.26-1.89-1.74-2.93c0.34,0.8,0.67,1.59,1.01,2.39c-0.53-1.28-0.88-2.58-1.07-3.95
				c0.12,0.89,0.24,1.77,0.36,2.66c-0.17-1.51-0.14-3,0.04-4.51c-0.12,0.89-0.24,1.77-0.36,2.66c0.37-2.7,1.19-5.29,2.23-7.8
				c-0.34,0.8-0.67,1.59-1.01,2.39c1.96-4.6,4.56-8.94,7.22-13.16c2.63-4.18,5.47-8.22,8.49-12.13c-0.52,0.67-1.04,1.35-1.56,2.02
				c8.03-10.34,17.33-19.64,27.69-27.64c-0.67,0.52-1.35,1.04-2.02,1.56c0.99-0.76,1.99-1.51,3-2.26c2.17-1.59,3.86-3.29,4.6-5.98
				c0.66-2.39,0.36-5.58-1.01-7.71c-1.38-2.14-3.43-4.01-5.98-4.6C76.71,164.13,73.6,164.14,71.47,165.7L71.47,165.7z"/>
		</g>
	</g>
	<g>
		<g>
			<path class="st1" d="M107.5,181.8c2.96,2.69,5.92,5.38,8.89,8.07c1.18-1.18,2.36-2.36,3.54-3.54c-3.04-2.56-6.08-5.11-9.12-7.67
				c-0.52-0.44-1.07-0.73-1.77-0.73c-0.61,0-1.35,0.27-1.77,0.73c-0.85,0.93-1.07,2.64,0,3.54c3.04,2.56,6.08,5.11,9.12,7.67
				c0.52,0.44,1.07,0.73,1.77,0.73c0.61,0,1.35-0.27,1.77-0.73c0.88-0.96,1.03-2.6,0-3.54c-2.96-2.69-5.92-5.38-8.89-8.07
				c-0.97-0.88-2.59-1.03-3.54,0C106.62,179.22,106.46,180.86,107.5,181.8L107.5,181.8z"/>
		</g>
	</g>
	<g>
		<g>
			<path class="st1" d="M115.6,190.94c0.15,0.18,0.29,0.35,0.44,0.53c1.18-1.18,2.36-2.36,3.54-3.54c-2.66-3.01-5.31-6.02-7.97-9.02
				c-0.87-0.98-2.66-0.95-3.54,0c-0.96,1.05-0.93,2.49,0,3.54c2.66,3.01,5.31,6.02,7.97,9.02c0.87,0.98,2.66,0.95,3.54,0
				c0.98-1.07,0.9-2.46,0-3.54c-0.15-0.18-0.29-0.35-0.44-0.53c-0.84-1.01-2.68-0.93-3.54,0
				C114.62,188.47,114.7,189.86,115.6,190.94L115.6,190.94z"/>
		</g>
	</g>
	<g>
		<g>
			<path class="st1" d="M109.88,178.04c1.7,2.84,4.21,5.22,7.19,6.67c0.97,0.47,2.25,0.46,3.03-0.39c0.77-0.83,0.95-2.02,0.39-3.03
				c-1.2-2.17-2.4-4.34-3.6-6.51c-1.14,1.14-2.28,2.28-3.42,3.42c2.36,1.79,4.73,3.58,7.09,5.37c0.84,0.64,2.35,0.35,3.03-0.39
				c0.8-0.87,0.88-1.98,0.39-3.03c-0.65-1.39-1.59-2.68-2.39-3.99c-0.82-1.33-1.64-2.66-2.46-4c-1.14,1.14-2.28,2.28-3.42,3.42
				c2.63,1.32,5.26,2.63,7.89,3.95c0.96,0.48,2.25,0.46,3.03-0.39c0.7-0.76,1.06-2.13,0.39-3.03c-1.8-2.43-3.61-4.86-5.41-7.28
				c-0.78-1.05-2.2-1.68-3.42-0.9c-1.04,0.67-1.73,2.3-0.9,3.42c1.8,2.43,3.61,4.86,5.41,7.28c1.14-1.14,2.28-2.28,3.42-3.42
				c-2.63-1.32-5.26-2.63-7.89-3.95c-0.96-0.48-2.25-0.46-3.03,0.39c-0.74,0.81-0.99,2.06-0.39,3.03c0.82,1.33,1.64,2.66,2.46,4
				c0.8,1.31,1.74,2.6,2.39,3.99c1.14-1.14,2.28-2.28,3.42-3.42c-2.36-1.79-4.73-3.58-7.09-5.37c-0.84-0.64-2.35-0.35-3.03,0.39
				c-0.77,0.83-0.95,2.02-0.39,3.03c1.2,2.17,2.4,4.34,3.6,6.51c1.14-1.14,2.28-2.28,3.42-3.42c-0.6-0.29-1.19-0.62-1.75-0.99
				c-0.17-0.11-0.33-0.23-0.5-0.34c-0.22-0.15-0.14-0.11,0.02,0.03c-0.29-0.23-0.57-0.47-0.84-0.72c-0.49-0.45-0.96-0.94-1.39-1.46
				c-0.07-0.09-0.36-0.48-0.05-0.05c-0.1-0.14-0.2-0.27-0.3-0.41c-0.21-0.3-0.41-0.61-0.6-0.93c-0.67-1.12-2.28-1.63-3.42-0.9
				C109.65,175.34,109.17,176.84,109.88,178.04L109.88,178.04z"/>
		</g>
	</g>
	<g>
		<g>
			<path class="st1" d="M117.77,171.7c3.13,1.88,6.26,3.76,9.39,5.65c1.12,0.67,2.8,0.29,3.42-0.9c0.64-1.21,0.3-2.7-0.9-3.42
				c-3.13-1.88-6.26-3.76-9.39-5.65c-1.12-0.67-2.8-0.29-3.42,0.9C116.23,169.49,116.57,170.98,117.77,171.7L117.77,171.7z"/>
		</g>
	</g>
	<g>
		<g>
			<path class="st1" d="M119.85,167.86c3.61,2.42,7.22,4.85,10.83,7.27c1.09,0.73,2.82,0.25,3.42-0.9c0.67-1.26,0.26-2.64-0.9-3.42
				c-3.61-2.42-7.22-4.85-10.83-7.27c-1.09-0.73-2.82-0.25-3.42,0.9C118.29,165.7,118.69,167.08,119.85,167.86L119.85,167.86z"/>
		</g>
	</g>
	<g>
		<g>
			<path class="st1" d="M121.29,164.72c1.77,4.9,5.63,8.72,10.56,10.41c1.24,0.42,2.79-0.49,3.08-1.75
				c0.32-1.39-0.42-2.62-1.75-3.08c-0.25-0.09-0.5-0.18-0.74-0.27c-0.46-0.18,0.56,0.26,0.11,0.05c-0.12-0.06-0.24-0.11-0.36-0.17
				c-0.43-0.21-0.86-0.44-1.27-0.7c-0.22-0.14-0.44-0.28-0.66-0.43c-0.11-0.08-0.21-0.15-0.32-0.23c-0.4-0.29,0.47,0.39,0.09,0.07
				c-0.39-0.32-0.77-0.65-1.13-1.01c-0.36-0.35-0.7-0.73-1.02-1.12c-0.08-0.1-0.17-0.2-0.25-0.31c0.08,0.1,0.15,0.2,0.23,0.3
				c-0.05-0.07-0.1-0.14-0.16-0.21c-0.14-0.2-0.28-0.4-0.41-0.6c-0.28-0.42-0.53-0.86-0.76-1.31c-0.12-0.23-0.26-0.47-0.34-0.72
				c0.05,0.14,0.23,0.55,0.08,0.17c-0.06-0.14-0.11-0.29-0.16-0.43c-0.23-0.62-0.56-1.15-1.15-1.49c-0.54-0.31-1.33-0.45-1.93-0.25
				C121.83,162.03,120.81,163.4,121.29,164.72L121.29,164.72z"/>
		</g>
	</g>
	<g>
		<g>
			<path class="st2" d="M139.2,167.86c10.85-8.16,20.76-17.37,29.4-27.86c1.3-1.58,2.2-3.19,2.2-5.3c0-1.84-0.82-4.04-2.2-5.3
				c-2.76-2.53-7.94-3.23-10.61,0c-4.05,4.92-8.38,9.61-12.98,14.02c-2.25,2.16-4.55,4.25-6.92,6.27c-1.24,1.06-2.5,2.1-3.77,3.12
				c-0.58,0.46-1.16,0.92-1.74,1.38c-1.27,1,1.4-1.06,0.11-0.09c-0.35,0.27-0.71,0.54-1.06,0.8c-1.62,1.22-2.89,2.45-3.45,4.48
				c-0.49,1.8-0.27,4.19,0.76,5.78c1.03,1.6,2.57,3.01,4.48,3.45C135.25,169.03,137.62,169.04,139.2,167.86L139.2,167.86z"/>
		</g>
	</g>
	<g>
		<g>
			<path class="st2" d="M176.25,133.24c0.82-1.2,1.65-2.39,2.5-3.56c0.38-0.53,0.77-1.05,1.16-1.57c0.22-0.29,0.44-0.58,0.66-0.87
				c0.96-1.27-1.1,1.39-0.11,0.14c1.81-2.27,3.66-4.5,5.6-6.66c3.78-4.21,7.83-8.17,12.12-11.86c1.1-0.94,2.22-1.87,3.35-2.78
				c0.44-0.35,0.88-0.7,1.33-1.05c0.48-0.37,2.49-1.9,0.43-0.34c2.44-1.85,4.87-3.71,7.29-5.59c3.89-3.01,7.74-6.12,11.14-9.69
				c4.6-4.83,8.17-10.26,10.45-16.53c1.34-3.69-1.5-8.38-5.24-9.23c-4.23-0.96-7.79,1.28-9.23,5.24c-0.21,0.59-0.44,1.16-0.68,1.74
				c0.25-0.6,0.5-1.19,0.76-1.79c-0.95,2.2-2.12,4.28-3.5,6.23c-0.32,0.45-0.65,0.89-0.98,1.33c1.52-2.07,0.18-0.27-0.21,0.2
				c-0.76,0.9-1.55,1.76-2.37,2.6c-1.7,1.76-3.52,3.4-5.39,4.98c-0.87,0.74-1.76,1.46-2.65,2.18c-0.45,0.36-0.9,0.71-1.35,1.07
				c-0.25,0.2-0.5,0.39-0.75,0.59c-1.16,0.91,1.47-1.13,0.31-0.23c-4.36,3.35-8.79,6.61-12.97,10.18
				c-4.25,3.62-8.26,7.52-12.02,11.65c-4.57,5.03-8.77,10.42-12.59,16.04c-2.21,3.25-0.72,8.46,2.69,10.26
				C169.78,137.94,173.89,136.71,176.25,133.24L176.25,133.24z"/>
		</g>
	</g>
	<g>
		<g>
			<path class="st2" d="M135.97,153.96c-0.42,0.02-0.85,0.05-1.27,0.07c-1.03-0.04-2,0.18-2.89,0.65c-0.93,0.3-1.73,0.82-2.41,1.55
				c-0.39,0.51-0.78,1.01-1.17,1.52c-0.55,0.86-0.84,1.79-0.89,2.79c-0.18,0.66-0.18,1.33,0,1.99c0.05,1,0.34,1.93,0.89,2.79
				c0.39,0.51,0.78,1.01,1.17,1.52c0.94,0.93,2.04,1.57,3.31,1.93c0.42,0.17,0.84,0.34,1.25,0.51c1,0.31,1.99,0.36,2.99,0.13
				c1-0.05,1.93-0.34,2.79-0.89c0.87-0.47,1.58-1.12,2.1-1.93c0.66-0.72,1.11-1.57,1.34-2.55c0.09-0.66,0.18-1.33,0.27-1.99
				c0-1.35-0.35-2.62-1.02-3.79c-0.39-0.51-0.78-1.01-1.17-1.52c-0.94-0.93-2.04-1.57-3.31-1.93c-0.42-0.17-0.84-0.34-1.25-0.51
				c-0.66,4.91-1.33,9.82-1.99,14.73c0.42-0.02,0.85-0.05,1.27-0.07c1.03,0.04,2-0.18,2.89-0.65c0.93-0.3,1.73-0.82,2.41-1.55
				c0.73-0.68,1.25-1.48,1.55-2.41c0.47-0.89,0.68-1.86,0.65-2.89c-0.09-0.66-0.18-1.33-0.27-1.99c-0.36-1.27-1-2.37-1.93-3.31
				c-0.51-0.39-1.01-0.78-1.52-1.17C138.59,154.31,137.33,153.97,135.97,153.96L135.97,153.96z"/>
		</g>
	</g>
	<g>
		<g>
			<path d="M265.19,61.55c-3.32,0.36-6.66,0.32-9.97-0.09c0.66,0.09,1.33,0.18,1.99,0.27c-3.85-0.52-7.58-1.53-11.17-3.03
				c0.6,0.25,1.19,0.5,1.79,0.76c-2.15-0.92-4.22-1.99-6.2-3.23c-0.45-0.28-0.9-0.58-1.34-0.88c-0.38-0.26-1.24-0.64-1.46-1.05
				c0.07,0.14,1.38,1.1,0.57,0.44c-0.21-0.17-0.41-0.34-0.62-0.51c-0.51-0.43-1.01-0.87-1.5-1.32c-2.9-2.65-7.78-3.08-10.61,0
				c-2.65,2.88-3.09,7.78,0,10.61c10.29,9.39,24.56,14.56,38.51,13.04c2.05-0.22,3.79-0.69,5.3-2.2c1.3-1.3,2.28-3.44,2.2-5.3
				c-0.09-1.94-0.72-3.95-2.2-5.3C269.12,62.48,267.13,61.33,265.19,61.55L265.19,61.55z"/>
		</g>
	</g>
	<g>
		<g>
			<path d="M234.34,49.8c-1.13-2.76-2.27-5.53-3.16-8.38c-0.4-1.27-0.75-2.56-1.03-3.86c-0.14-0.66-0.25-1.33-0.37-2
				c0.17,0.98,0.03,0.23,0.01,0.01c-0.04-0.44-0.08-0.88-0.11-1.32c-0.08-1.32-0.05-2.65,0.07-3.97c0.09-0.98,0.03-0.17,0,0.02
				c0.07-0.36,0.13-0.72,0.21-1.08c0.18-0.79,0.43-1.54,0.67-2.31c0.07-0.24,0.42-0.88-0.04,0.04c0.11-0.22,0.21-0.44,0.32-0.66
				c0.25-0.49,0.53-0.96,0.84-1.42c0.18-0.27,0.5-1-0.02-0.03c0.1-0.18,0.35-0.42,0.48-0.56c0.41-0.46,0.86-0.87,1.3-1.29
				c0.66-0.63-0.08,0-0.16,0.1c0.18-0.21,0.51-0.36,0.75-0.51c0.19-0.12,1.33-0.58,1.41-0.78c-0.11,0.29-0.88,0.3-0.21,0.1
				c0.28-0.08,0.56-0.18,0.84-0.26c0.13-0.03,0.77-0.26,0.86-0.19c-0.15-0.12-1.14,0.09-0.11,0.05c0.3-0.01,0.59,0.01,0.88,0
				c0.83-0.02-0.32,0.05-0.26-0.06c0.08-0.14,1.75,0.48,1.85,0.51c0.73,0.23-0.95-0.56,0.17,0.1c0.25,0.15,0.51,0.27,0.76,0.41
				c0.63,0.36,1.23,0.75,1.82,1.16c2.29,1.58,4.5,3.29,6.73,4.95c1.1,0.82,2.2,1.65,3.3,2.48c0.55,0.42,1.1,0.83,1.64,1.25
				c0.24,0.19,0.49,0.37,0.73,0.56c1.2,0.92-0.75-0.59,0.44,0.34c4.45,3.47,8.82,7.06,12.95,10.9c2.06,1.91,4.07,3.88,5.99,5.93
				c0.42,0.45,0.84,0.9,1.24,1.36c0.23,0.27,1.14,1.41,0.52,0.58c0.41,0.54,0.8,1.1,1.15,1.69c0.14,0.23,0.27,0.46,0.4,0.7
				c0.11,0.2,0.55,1.36,0.17,0.26c0.17,0.5,0.31,1.02,0.47,1.52c0.38,1.15,0.03-0.67,0.04,0.07c0,0.34,0.04,0.68,0.03,1.02
				c0,0.15,0.02,0.72-0.05,0.8c0.21-0.24,0.18-0.79-0.01-0.14c-0.18,0.65-0.35,1.29-0.57,1.94c-0.4,1.22,0.33-0.55-0.06,0.13
				c-0.17,0.3-0.3,0.62-0.47,0.93c-0.26,0.49-0.55,0.98-0.84,1.45c-0.74,1.2-1.57,2.32-2.4,3.46c-0.41,0.57,0.07,0.23,0.08-0.09
				c0,0.09-0.4,0.48-0.5,0.58c-0.21,0.23-0.45,0.44-0.67,0.66c-0.51,0.51,0.96-0.61-0.03-0.06c0.82-0.46,1.61-0.37,2.43,0.03
				c-0.73-0.36,0.12,0.08,0.24,0.19c0.42,0.6,0.48,0.67,0.2,0.21c0.08,0.19,0.16,0.39,0.24,0.58c-0.33-1.01-0.06,0.81-0.02,0.05
				c0.04-0.75-0.43,1.07,0.01-0.15c0.1-0.27,0.17-0.55,0.27-0.82c-0.32,0.87-0.06,0.2,0.04,0.02c0.69-1.15,1.43-2.25,2.2-3.35
				c1.92-2.76,3.23-5.76,3.33-9.17c0.1-3.25-0.97-6.63-2.65-9.38c-3.39-5.56-9.13-8.74-14.82-11.51c-2.35-1.15-5.52-0.71-6.84,1.79
				c-1.19,2.25-0.72,5.62,1.79,6.84c2.62,1.28,5.26,2.57,7.65,4.25c0.23,0.16,0.45,0.32,0.67,0.49c-0.94-0.69,0.15,0.14,0.28,0.25
				c0.52,0.45,1.02,0.93,1.5,1.43c0.18,0.19,0.35,0.39,0.52,0.59c0.85,0.95-0.48-0.85,0.18,0.25c0.34,0.57,0.67,1.14,1.01,1.71
				c0.65,1.09-0.28-0.95,0.13,0.25c0.09,0.25,0.17,0.49,0.25,0.74c0.11,0.37,0.19,0.76,0.29,1.13c0.1,0.38,0.35,0.62,0-0.18
				c0.04,0.09,0.07,1.92,0.01,1.92c-0.03,0,0.21-1.06-0.04,0c-0.06,0.24-0.44,1.65-0.06,0.48c-0.4,1.22-1.34,2.36-2.06,3.4
				c-0.77,1.1-1.56,2.2-2.16,3.4c-1.89,3.78-2.25,8.66,1.03,11.85c3.4,3.31,8.1,2.8,11.51-0.16c1.14-0.99,2.02-2.3,2.91-3.51
				c0.92-1.24,1.81-2.51,2.59-3.85c1.69-2.92,2.92-6.23,2.92-9.64c0-6.89-4.92-12.11-9.49-16.67c-4.43-4.42-9.18-8.49-14.07-12.38
				c-5.11-4.07-10.36-7.97-15.62-11.84c-2.57-1.89-5.37-3.72-8.57-4.33c-3.45-0.65-6.74-0.08-9.88,1.44
				c-6.73,3.27-10.08,10.56-10.6,17.69c-0.55,7.51,2.21,14.7,5,21.51c0.99,2.41,3.37,4.39,6.15,3.49
				C233.17,55.2,235.4,52.39,234.34,49.8L234.34,49.8z"/>
		</g>
	</g>
	<g>
		<g>
			<path class="st3" d="M17.95,209.42c-3.27,15.9-3.23,32.37,0.15,48.26c0.96,4.49,2.19,8.91,3.68,13.26
				c0.44,1.28,1.72,2.12,3.08,1.75c1.24-0.34,2.19-1.79,1.75-3.08c-5.05-14.73-6.99-30.38-5.71-45.9c0.36-4.35,1-8.67,1.88-12.95
				c0.27-1.32-0.38-2.7-1.75-3.08C19.79,207.33,18.22,208.09,17.95,209.42L17.95,209.42z"/>
		</g>
	</g>
	<g>
		<g>
			<path class="st3" d="M28.67,201.18c2.13-2.19,4.39-4.25,6.77-6.16c1.03-0.82,2.03-1.57,3.31-2.48c1.27-0.89,2.56-1.74,3.88-2.55
				c1.11-0.68,1.64-2.27,0.9-3.42c-0.72-1.12-2.23-1.63-3.42-0.9c-5.45,3.35-10.51,7.38-14.98,11.97c-0.91,0.94-1,2.61,0,3.54
				C26.12,202.09,27.69,202.18,28.67,201.18L28.67,201.18z"/>
		</g>
	</g>
	<g>
		<g>
			<path class="st3" d="M129.36,222.44c2.86,2.68,5.72,5.35,8.58,8.03c-0.13-1.01-0.26-2.02-0.39-3.03
				c-2.21,3.16-4.43,6.32-6.64,9.47c-0.78,1.11-0.2,2.78,0.9,3.42c1.25,0.73,2.64,0.21,3.42-0.9c2.21-3.16,4.43-6.32,6.64-9.47
				c0.61-0.87,0.37-2.32-0.39-3.03c-2.86-2.68-5.72-5.35-8.58-8.03c-0.99-0.92-2.56-0.98-3.54,0
				C128.43,219.84,128.37,221.52,129.36,222.44L129.36,222.44z"/>
		</g>
	</g>
</g>
<g id="Laag_2">
	<g>
		<g>
			<path class="st4" d="M108.21,177.5c-6.21-5.65-12.42-11.29-18.62-16.94c-2.98-2.71-5.89-5.52-8.97-8.11
				c-2.7-2.26-5.71-4.18-9.3-4.5c-3.56-0.32-7.3,1.23-9.11,4.39c-1.6,2.8,2.72,5.32,4.32,2.52c1.38-2.41,4.76-2.29,7.03-1.22
				c3.73,1.76,6.73,5.19,9.74,7.93c7.13,6.48,14.26,12.97,21.39,19.45C107.05,183.2,110.59,179.67,108.21,177.5L108.21,177.5z"/>
		</g>
	</g>
	<g>
		<g>
			<path class="st4" d="M63.53,151.28c-9.12,8.86-18.25,17.72-27.37,26.58c-4.45,4.32-8.97,8.59-13.33,13.01
				c-3.97,4.03-7.78,8.36-10.56,13.32c-3.17,5.67-5.09,12.26-4.26,18.78c0.17,1.34,1.03,2.5,2.5,2.5c1.22,0,2.67-1.15,2.5-2.5
				c-1.43-11.21,5.63-20.68,13.04-28.25c8.49-8.67,17.38-16.96,26.08-25.41c4.98-4.83,9.95-9.66,14.93-14.5
				C69.38,152.57,65.84,149.04,63.53,151.28L63.53,151.28z"/>
		</g>
	</g>
	<g>
		<g>
			<path class="st4" d="M7.26,223.56c-1.08,8.57-0.99,17.2,0.18,25.76c0.57,4.19,1.41,8.35,2.52,12.44
				c1.09,3.99,2.33,8.06,4.16,11.79c1.72,3.51,4.39,6.35,8,7.94c3.78,1.66,7.92,2.38,11.95,3.19c8.84,1.77,17.8,3.05,26.78,3.82
				c10.06,0.86,20.16,1.07,30.25,0.65c3.21-0.13,3.22-5.14,0-5c-17.04,0.72-34.15-0.38-50.94-3.38c-4.08-0.73-8.18-1.5-12.19-2.54
				c-3.3-0.86-6.42-2.14-8.36-5.11c-2-3.07-3.08-6.76-4.13-10.24c-1.18-3.91-2.1-7.89-2.77-11.91c-1.51-9.04-1.59-18.31-0.45-27.39
				c0.17-1.34-1.27-2.5-2.5-2.5C8.26,221.06,7.43,222.22,7.26,223.56L7.26,223.56z"/>
		</g>
	</g>
	<g>
		<g>
			<path class="st4" d="M90.87,289.17c5.27-1.37,9.33-5.08,13.31-8.59c4.09-3.61,8.17-7.23,12.21-10.91
				c8.05-7.34,15.9-14.92,23.1-23.1c4.12-4.69,8.02-9.58,11.63-14.67c0.78-1.1,0.2-2.78-0.9-3.42c-1.25-0.73-2.64-0.21-3.42,0.9
				c-12.23,17.29-28.03,31.63-43.8,45.59c-4.01,3.55-8.1,7.99-13.45,9.39C86.43,285.16,87.75,289.98,90.87,289.17L90.87,289.17z"/>
		</g>
	</g>
	<g>
		<g>
			<path class="st4" d="M149.97,234.94c1.98-0.93,3.05-3.01,3.24-5.11c0.19-2.09-0.69-4.12-1.89-5.78
				c-2.9-4.02-6.42-7.68-9.62-11.45c-6.63-7.8-13.26-15.61-19.89-23.41c-0.87-1.03-2.64-0.9-3.54,0c-1.02,1.02-0.88,2.5,0,3.54
				c5.88,6.92,11.75,13.83,17.63,20.75c2.91,3.43,5.82,6.85,8.73,10.28c1.14,1.35,2.61,2.73,3.34,4.37c0.44,1,0.41,2.07-0.52,2.51
				c-1.22,0.57-1.53,2.33-0.9,3.42C147.28,235.3,148.74,235.52,149.97,234.94L149.97,234.94z"/>
		</g>
	</g>
	<g>
		<g>
			<path class="st4" d="M109.94,178.67c15.16-15.22,30.32-30.44,45.48-45.67c15.1-15.16,30.2-30.33,45.31-45.49
				c8.52-8.55,17.04-17.11,25.56-25.66c2.27-2.28-1.26-5.82-3.54-3.54c-15.16,15.22-30.32,30.44-45.48,45.67
				c-15.1,15.16-30.2,30.33-45.31,45.49c-8.52,8.55-17.04,17.11-25.56,25.66C104.13,177.42,107.67,180.96,109.94,178.67
				L109.94,178.67z"/>
		</g>
	</g>
	<g>
		<g>
			<path class="st4" d="M235.12,68.93c-11.81,16.79-26.66,31.1-41.42,45.25c-16.21,15.54-32.41,31.08-48.62,46.62
				c-9.1,8.73-18.21,17.46-27.31,26.19c-2.33,2.23,1.21,5.76,3.54,3.54c16.29-15.62,32.59-31.24,48.88-46.86
				c8.15-7.81,16.29-15.62,24.44-23.43c7.5-7.19,15.03-14.37,22.24-21.86c8.13-8.45,15.83-17.32,22.58-26.92
				c0.78-1.11,0.2-2.78-0.9-3.42C237.29,67.3,235.9,67.82,235.12,68.93L235.12,68.93z"/>
		</g>
	</g>
	<g>
		<g>
			<path class="st4" d="M241.18,10.99c15.49,14.3,30.97,28.61,46.46,42.91c2.36,2.18,5.91-1.35,3.54-3.54
				c-15.49-14.3-30.97-28.61-46.46-42.91C242.36,5.27,238.81,8.8,241.18,10.99L241.18,10.99z"/>
		</g>
	</g>
	<g>
		<g>
			<path class="st4" d="M287.52,54.29c1.16,1.18,0.98,3.05,0.32,4.45c-1.02,2.16-2.91,3.84-4.55,5.53
				c-3.84,3.96-7.68,7.92-11.52,11.88c-2.24,2.31,1.29,5.85,3.54,3.54c4.47-4.61,9.01-9.17,13.42-13.85
				c1.9-2.02,3.81-4.37,4.38-7.16c0.59-2.85,0.03-5.81-2.06-7.92C288.79,48.46,285.26,52,287.52,54.29L287.52,54.29z"/>
		</g>
	</g>
	<g>
		<g>
			<path class="st4" d="M274.04,76.27c-14.04-0.9-27.96-4.19-40.89-9.74c-1.24-0.53-2.68-0.37-3.42,0.9
				c-0.62,1.05-0.35,2.88,0.9,3.42c13.79,5.93,28.43,9.47,43.42,10.42c1.35,0.09,2.5-1.21,2.5-2.5
				C276.54,77.34,275.39,76.36,274.04,76.27L274.04,76.27z"/>
		</g>
	</g>
	<g>
		<g>
			<path class="st4" d="M231.72,66.01c-5.06-12.71-8.07-26.16-8.79-39.82c-0.17-3.2-5.17-3.22-5,0c0.75,14.1,3.75,28.03,8.97,41.15
				c0.5,1.25,1.67,2.13,3.08,1.75C231.16,68.75,232.22,67.27,231.72,66.01L231.72,66.01z"/>
		</g>
	</g>
	<g>
		<g>
			<path class="st4" d="M221.99,26.05c3.15-3.03,6.3-6.06,9.46-9.1c1.51-1.45,3-2.93,4.54-4.36c0.74-0.69,2.28-2.15,3.38-1.65
				c1.23,0.56,2.69,0.35,3.42-0.9c0.63-1.07,0.34-2.86-0.9-3.42c-2.37-1.08-4.92-0.84-7.11,0.57c-2.02,1.29-3.69,3.16-5.41,4.82
				c-3.64,3.5-7.27,7-10.91,10.5C216.13,24.75,219.67,28.28,221.99,26.05L221.99,26.05z"/>
		</g>
	</g>
	<g>
		<g>
			<path class="st4" d="M235.65,22.72c11.45,10.93,22.9,21.86,34.34,32.79c2.33,2.22,5.87-1.31,3.54-3.54
				c-11.45-10.93-22.9-21.86-34.34-32.79C236.86,16.97,233.32,20.5,235.65,22.72L235.65,22.72z"/>
		</g>
	</g>
	<g>
		<g>
			<path class="st4" d="M270.04,52.51c-2.67,2.3-5.35,4.59-8.02,6.89c-1,0.85-0.94,2.67,0,3.54c1.06,0.97,2.47,0.91,3.54,0
				c2.67-2.3,5.35-4.59,8.02-6.89c1-0.85,0.94-2.67,0-3.54C272.52,51.53,271.1,51.59,270.04,52.51L270.04,52.51z"/>
		</g>
	</g>
	<g>
		<g>
			<path class="st4" d="M262.25,59.35c-7.87,0.2-15.74-2.61-21.54-7.98c-5.68-5.26-9.22-12.68-9.71-20.41c-0.2-3.2-5.2-3.22-5,0
				c0.91,14.48,10.52,27.11,24.34,31.65c3.82,1.26,7.9,1.84,11.92,1.73C265.46,64.27,265.47,59.27,262.25,59.35L262.25,59.35z"/>
		</g>
	</g>
	<g>
		<g>
			<path class="st4" d="M229.45,31.83c3.61-1.23,6.67-3.6,8.75-6.79c0.71-1.1,0.26-2.81-0.9-3.42c-1.25-0.66-2.66-0.28-3.42,0.9
				c-0.21,0.32-0.43,0.63-0.66,0.93c0.13-0.17,0.26-0.34,0.39-0.51c-0.73,0.93-1.56,1.77-2.49,2.5c0.17-0.13,0.34-0.26,0.51-0.39
				c-0.97,0.75-2.02,1.37-3.14,1.85c0.2-0.08,0.4-0.17,0.6-0.25c-0.32,0.13-0.64,0.25-0.96,0.36c-0.62,0.21-1.16,0.57-1.49,1.15
				c-0.31,0.54-0.45,1.33-0.25,1.93C226.77,31.31,228.12,32.28,229.45,31.83L229.45,31.83z"/>
		</g>
	</g>
</g>
</svg>
